<svg width="185" height="38" viewBox="0 0 185 38" fill="none" xmlns="http://www.w3.org/2000/svg">
<g clip-path="url(#clip0_13166_5674)">
<path d="M0 1.49609H6.86354C13.1882 1.49609 17.7549 6.07355 17.7549 11.9659C17.7549 17.8582 13.1882 22.4356 6.86354 22.4356H0V1.49609ZM6.86354 19.8932C11.7567 19.8932 15.0715 16.6033 15.0715 11.9659C15.0715 7.3284 11.7567 4.03852 6.86354 4.03852H2.68337V19.8932H6.86354Z" fill="#092A4C"/>
<path d="M22.382 1.34766C23.3073 1.34766 24.0258 2.06783 24.0258 2.99532C24.0258 3.92282 23.3073 4.64299 22.382 4.64299C21.4567 4.64299 20.7383 3.92282 20.7383 2.99532C20.7383 2.06783 21.4567 1.34766 22.382 1.34766ZM21.19 7.48003H23.5795V22.4345H21.19V7.48003Z" fill="#092A4C"/>
<path d="M27.7476 7.47976H30.1371V9.72211H30.1643C30.4637 9.242 30.8501 8.82735 31.3291 8.46727C32.1346 7.83985 33.4192 7.17969 35.2099 7.17969C38.7914 7.17969 41.1754 9.57481 41.1754 13.6121V22.4342H38.7859V13.7594C38.7859 10.7696 37.1421 9.42204 34.7581 9.42204C32.0421 9.42204 30.1316 11.3643 30.1316 14.3596V22.4342H27.7422V7.47976H27.7476Z" fill="#092A4C"/>
<path d="M45.2031 1.49609H47.5926V13.4608H50.5753L55.3488 7.47571H58.1845L52.6654 14.5028L58.6363 22.4302H55.6536L50.5807 15.6977H47.598V22.4302H45.2086V1.49609H45.2031Z" fill="#092A4C"/>
<path d="M66.8382 7.17969C71.3123 7.17969 74.5944 10.4696 74.5944 14.9543C74.5944 19.439 71.3123 22.7289 66.8382 22.7289C62.3641 22.7289 59.082 19.439 59.082 14.9543C59.082 10.4696 62.3641 7.17969 66.8382 7.17969ZM66.8382 20.492C69.9407 20.492 72.2104 18.2169 72.2104 14.9597C72.2104 11.7026 69.9407 9.4275 66.8382 9.4275C63.7357 9.4275 61.466 11.7026 61.466 14.9597C61.466 18.2169 63.7357 20.492 66.8382 20.492Z" fill="#092A4C"/>
<path d="M87.5764 1.49609L92.3499 19.8932H95.9313L100.705 1.49609H103.541L98.0214 22.4356H90.2652L84.7461 1.49609H87.5819H87.5764Z" fill="#092A4C"/>
<path d="M107.416 1.34766C108.341 1.34766 109.059 2.06783 109.059 2.99532C109.059 3.92282 108.341 4.64299 107.416 4.64299C106.49 4.64299 105.777 3.92282 105.777 2.99532C105.777 2.06783 106.496 1.34766 107.416 1.34766ZM106.224 7.48003H108.613V22.4345H106.224V7.48003Z" fill="#092A4C"/>
<path d="M119.054 7.18109C121.917 7.18109 123.587 8.67599 124.126 9.42344L124.393 9.87082H124.42V1.49609H126.81V22.4356H124.42V20.0405H124.393L124.126 20.4606C123.587 21.2681 121.917 22.7357 119.054 22.7357C115.145 22.7357 111.891 19.4458 111.891 14.9611C111.891 10.4764 115.145 7.18655 119.054 7.18655V7.18109ZM119.353 20.4934C122.216 20.4934 124.426 18.2183 124.426 14.9611C124.426 11.704 122.216 9.4289 119.353 9.4289C116.49 9.4289 114.28 11.704 114.28 14.9611C114.28 18.2183 116.49 20.4934 119.353 20.4934Z" fill="#092A4C"/>
<path d="M137.854 7.17969C142.328 7.17969 145.61 10.4696 145.61 14.9543C145.61 19.439 142.328 22.7289 137.854 22.7289C133.38 22.7289 130.098 19.439 130.098 14.9543C130.098 10.4696 133.38 7.17969 137.854 7.17969ZM137.854 20.492C140.956 20.492 143.226 18.2169 143.226 14.9597C143.226 11.7026 140.956 9.4275 137.854 9.4275C134.751 9.4275 132.482 11.7026 132.482 14.9597C132.482 18.2169 134.751 20.492 137.854 20.492Z" fill="#092A4C"/>
<path d="M149.936 7.48047L153.365 20.1926H155.902L159.331 7.48047H161.867L157.687 22.435H151.569L147.395 7.48047H149.931H149.936Z" fill="#092A4C"/>
<path d="M165.748 1.34766C166.673 1.34766 167.391 2.06783 167.391 2.99532C167.391 3.92282 166.673 4.64299 165.748 4.64299C164.822 4.64299 164.109 3.92282 164.109 2.99532C164.109 2.06783 164.828 1.34766 165.748 1.34766ZM164.556 7.48003H166.945V22.4345H164.556V7.48003Z" fill="#092A4C"/>
<path d="M177.685 7.1799C180.668 7.1799 182.458 8.52749 183.503 9.80962C184.129 10.5898 184.576 11.4573 184.848 12.4121H182.458C182.219 11.8447 181.892 11.3645 181.473 10.9172C180.755 10.1697 179.563 9.42225 177.685 9.42225C174.822 9.42225 172.612 11.6973 172.612 14.9545C172.612 18.2116 174.969 20.4867 177.685 20.4867C179.623 20.4867 180.847 19.6793 181.593 18.8391C182.039 18.3589 182.371 17.8243 182.605 17.1914H184.995C184.728 18.2389 184.249 19.1664 183.623 19.9739C182.518 21.3215 180.76 22.7236 177.685 22.7236C173.505 22.7236 170.223 19.4337 170.223 14.949C170.223 10.4643 173.505 7.17444 177.685 7.17444V7.1799ZM178.877 0H181.86V0.0272793L178.431 4.3374H176.341L178.877 0Z" fill="#092A4C"/>
<path d="M0.0664062 29.2773H3.6533C5.60187 29.2773 6.81565 30.4831 6.81565 32.0817C6.81565 33.6802 5.59643 34.886 3.6533 34.886H1.16044V37.8157H0.0664062V29.2773ZM3.6533 33.8493C5.00315 33.8493 5.72162 33.1183 5.72162 32.0817C5.72162 31.045 5.00315 30.314 3.6533 30.314H1.16044V33.8493H3.6533Z" fill="#092A4C"/>
<path d="M8.09375 31.7163H9.06804V32.6929H9.07892C9.18778 32.4964 9.32385 32.3273 9.49259 32.18C9.7865 31.9236 10.2328 31.6562 10.9513 31.6562H11.6806V32.6328H10.9513C9.84638 32.6328 9.06804 33.413 9.06804 34.5206V37.8159H8.09375V31.7163Z" fill="#092A4C"/>
<path d="M15.5139 31.5977C17.3373 31.5977 18.6763 32.9398 18.6763 34.7675C18.6763 36.5952 17.3373 37.9374 15.5139 37.9374C13.6905 37.9374 12.3516 36.5952 12.3516 34.7675C12.3516 32.9398 13.6905 31.5977 15.5139 31.5977ZM15.5139 37.0262C16.7821 37.0262 17.702 36.0987 17.702 34.7675C17.702 33.4363 16.7767 32.5088 15.5139 32.5088C14.2511 32.5088 13.3258 33.4363 13.3258 34.7675C13.3258 36.0987 14.2511 37.0262 15.5139 37.0262Z" fill="#092A4C"/>
<path d="M19.4688 31.7161H20.258V29.2773H23.1808V30.1939H21.2323V31.7161H22.8162V32.6327H21.2323V37.8157H20.258V32.6327H19.4688V31.7161Z" fill="#092A4C"/>
<path d="M23.6669 36.5352C24.0914 36.5352 24.3962 36.8407 24.3962 37.2662C24.3962 37.6918 24.0914 37.9973 23.6669 37.9973C23.2423 37.9973 22.9375 37.6918 22.9375 37.2662C22.9375 36.8407 23.2423 36.5352 23.6669 36.5352Z" fill="#092A4C"/>
<path d="M31.7549 31.5945C32.9251 31.5945 33.6055 32.2056 33.8232 32.5111L33.9321 32.6966H33.9429V29.2812H34.9172V37.8197H33.9429V36.8431H33.9321L33.8232 37.0122C33.6055 37.3395 32.9251 37.9397 31.7549 37.9397C30.1601 37.9397 28.832 36.5975 28.832 34.7698C28.832 32.9421 30.1601 31.6 31.7549 31.6V31.5945ZM31.8746 37.0231C33.0449 37.0231 33.9429 36.0956 33.9429 34.7644C33.9429 33.4332 33.0449 32.5057 31.8746 32.5057C30.7044 32.5057 29.8063 33.4332 29.8063 34.7644C29.8063 36.0956 30.7044 37.0231 31.8746 37.0231Z" fill="#092A4C"/>
<path d="M36.625 31.7163H37.5993V32.6929H37.6102C37.719 32.4964 37.8551 32.3273 38.0238 32.18C38.3178 31.9236 38.7641 31.6562 39.4825 31.6562H40.2119V32.6328H39.4825C38.3776 32.6328 37.5993 33.413 37.5993 34.5206V37.8159H36.625V31.7163Z" fill="#092A4C"/>
<path d="M41.0614 36.5352C41.4859 36.5352 41.7907 36.8407 41.7907 37.2662C41.7907 37.6918 41.4859 37.9973 41.0614 37.9973C40.6368 37.9973 40.332 37.6918 40.332 37.2662C40.332 36.8407 40.6368 36.5352 41.0614 36.5352Z" fill="#092A4C"/>
<path d="M47.206 35.9296C47.2931 36.1369 47.402 36.3224 47.5598 36.4806C47.8374 36.7589 48.2511 37.0317 48.9695 37.0317C50.0745 37.0317 50.4881 36.6061 50.4881 36.1151C50.4881 35.515 49.4921 35.3076 48.4797 35.1003C47.4673 34.893 46.4712 34.4402 46.4712 33.3053C46.4712 32.3888 47.2605 31.5977 48.7845 31.5977C49.9166 31.5977 50.548 32.0614 50.9399 32.5142C51.1467 32.7816 51.3046 33.0871 51.4025 33.4308H50.3684C50.2976 33.2726 50.1833 33.1144 50.0527 32.978C49.8241 32.7488 49.4213 32.5142 48.7845 32.5142C47.8592 32.5142 47.4455 32.9507 47.4455 33.3053C47.4455 33.9055 48.4416 34.1128 49.454 34.3201C50.4664 34.5274 51.4624 34.9912 51.4624 36.1151C51.4624 37.0917 50.6133 37.9428 48.9695 37.9428C47.7884 37.9428 47.0863 37.4409 46.6835 36.9444C46.4549 36.6498 46.2807 36.3115 46.1719 35.9296H47.206Z" fill="#092A4C"/>
<path d="M55.4801 31.5977C56.6993 31.5977 57.4287 32.1487 57.8532 32.6725C58.109 32.9889 58.2887 33.3435 58.403 33.7309H57.4287C57.3307 33.5017 57.2001 33.3053 57.0259 33.1198C56.732 32.8143 56.2476 32.5088 55.4801 32.5088C54.3099 32.5088 53.4118 33.4363 53.4118 34.7675C53.4118 36.0987 54.3752 37.0262 55.4801 37.0262C56.2693 37.0262 56.7701 36.6989 57.0749 36.3552C57.2545 36.1587 57.3906 35.9405 57.4885 35.6841H58.4628C58.354 36.1096 58.158 36.4916 57.9022 36.8189C57.4504 37.3699 56.732 37.9428 55.4801 37.9428C53.7765 37.9428 52.4375 36.6007 52.4375 34.773C52.4375 32.9453 53.7765 31.6031 55.4801 31.6031V31.5977Z" fill="#092A4C"/>
<path d="M60.1083 36.5352C60.5328 36.5352 60.8376 36.8407 60.8376 37.2662C60.8376 37.6918 60.5328 37.9973 60.1083 37.9973C59.6837 37.9973 59.3789 37.6918 59.3789 37.2662C59.3789 36.8407 59.6837 36.5352 60.1083 36.5352Z" fill="#092A4C"/>
</g>
<defs>
<clipPath id="clip0_13166_5674">
<rect width="185" height="38" fill="white"/>
</clipPath>
</defs>
</svg>
