<svg width="271" height="56" viewBox="0 0 271 56" fill="none" xmlns="http://www.w3.org/2000/svg">
<g clip-path="url(#clip0_13196_14231)">
<path d="M0 2.20312H10.0542C19.319 2.20312 26.0085 8.94885 26.0085 17.6323C26.0085 26.3157 19.319 33.0614 10.0542 33.0614H0V2.20312ZM10.0542 29.3147C17.222 29.3147 22.0777 24.4664 22.0777 17.6323C22.0777 10.7981 17.222 5.94986 10.0542 5.94986H3.93077V29.3147H10.0542Z" fill="#F5FAFF"/>
<path d="M32.7868 1.98438C34.1422 1.98438 35.1947 3.04568 35.1947 4.41252C35.1947 5.77935 34.1422 6.84066 32.7868 6.84066C31.4314 6.84066 30.3789 5.77935 30.3789 4.41252C30.3789 3.04568 31.4314 1.98438 32.7868 1.98438ZM31.0407 11.0216H34.5409V33.0597H31.0407V11.0216Z" fill="#F5FAFF"/>
<path d="M40.6486 11.0242H44.1488V14.3288H44.1887C44.6272 13.6212 45.1933 13.0102 45.8949 12.4795C47.075 11.5549 48.9566 10.582 51.5798 10.582C56.8262 10.582 60.3184 14.1117 60.3184 20.0614V33.0624H56.8182V20.2785C56.8182 15.8725 54.4103 13.8866 50.918 13.8866C46.9394 13.8866 44.1408 16.7489 44.1408 21.1629V33.0624H40.6406V11.0242H40.6486Z" fill="#F5FAFF"/>
<path d="M66.2188 2.20312H69.719V19.8353H74.0883L81.0807 11.0152H85.2348L77.15 21.371L85.8965 33.0534H81.5272L74.0962 23.1318H69.7269V33.0534H66.2267V2.20312H66.2188Z" fill="#F5FAFF"/>
<path d="M97.9086 10.582C104.463 10.582 109.27 15.4303 109.27 22.0393C109.27 28.6484 104.463 33.4966 97.9086 33.4966C91.3547 33.4966 86.5469 28.6484 86.5469 22.0393C86.5469 15.4303 91.3547 10.582 97.9086 10.582ZM97.9086 30.2001C102.453 30.2001 105.778 26.8474 105.778 22.0474C105.778 17.2474 102.453 13.8946 97.9086 13.8946C93.3639 13.8946 90.0391 17.2474 90.0391 22.0474C90.0391 26.8474 93.3639 30.2001 97.9086 30.2001Z" fill="#F5FAFF"/>
<path d="M128.287 2.20312L135.279 29.3147H140.525L147.518 2.20312H151.672L143.587 33.0614H132.225L124.141 2.20312H128.295H128.287Z" fill="#F5FAFF"/>
<path d="M157.349 1.98438C158.705 1.98438 159.757 3.04568 159.757 4.41252C159.757 5.77935 158.705 6.84066 157.349 6.84066C155.994 6.84066 154.949 5.77935 154.949 4.41252C154.949 3.04568 156.002 1.98438 157.349 1.98438ZM155.603 11.0216H159.103V33.0597H155.603V11.0216Z" fill="#F5FAFF"/>
<path d="M174.399 10.581C178.593 10.581 181.041 12.784 181.83 13.8855L182.221 14.5448H182.26V2.20312H185.761V33.0614H182.26V29.5318H182.221L181.83 30.1509C181.041 31.3408 178.593 33.5036 174.399 33.5036C168.674 33.5036 163.906 28.6554 163.906 22.0463C163.906 15.4373 168.674 10.5891 174.399 10.5891V10.581ZM174.837 30.1991C179.031 30.1991 182.268 26.8463 182.268 22.0463C182.268 17.2463 179.031 13.8936 174.837 13.8936C170.644 13.8936 167.406 17.2463 167.406 22.0463C167.406 26.8463 170.644 30.1991 174.837 30.1991Z" fill="#F5FAFF"/>
<path d="M201.936 10.582C208.49 10.582 213.298 15.4303 213.298 22.0393C213.298 28.6484 208.49 33.4966 201.936 33.4966C195.382 33.4966 190.574 28.6484 190.574 22.0393C190.574 15.4303 195.382 10.582 201.936 10.582ZM201.936 30.2001C206.481 30.2001 209.806 26.8474 209.806 22.0474C209.806 17.2474 206.481 13.8946 201.936 13.8946C197.391 13.8946 194.066 17.2474 194.066 22.0474C194.066 26.8474 197.391 30.2001 201.936 30.2001Z" fill="#F5FAFF"/>
<path d="M219.638 11.0234L224.661 29.7571H228.376L233.399 11.0234H237.115L230.991 33.0616H222.029L215.914 11.0234H219.63H219.638Z" fill="#F5FAFF"/>
<path d="M242.798 1.98438C244.154 1.98438 245.206 3.04568 245.206 4.41252C245.206 5.77935 244.154 6.84066 242.798 6.84066C241.443 6.84066 240.398 5.77935 240.398 4.41252C240.398 3.04568 241.451 1.98438 242.798 1.98438ZM241.052 11.0216H244.552V33.0597H241.052V11.0216Z" fill="#F5FAFF"/>
<path d="M260.283 10.5809C264.652 10.5809 267.275 12.5668 268.806 14.4563C269.723 15.606 270.377 16.8844 270.775 18.2915H267.275C266.924 17.4553 266.446 16.7477 265.832 16.0884C264.78 14.9869 263.034 13.8854 260.283 13.8854C256.089 13.8854 252.852 17.2382 252.852 22.0382C252.852 26.8382 256.304 30.191 260.283 30.191C263.121 30.191 264.915 29.001 266.008 27.7628C266.661 27.0553 267.148 26.2673 267.491 25.3347H270.991C270.6 26.8784 269.898 28.2452 268.981 29.4352C267.363 31.4211 264.788 33.4874 260.283 33.4874C254.159 33.4874 249.352 28.6392 249.352 22.0302C249.352 15.4211 254.159 10.5729 260.283 10.5729V10.5809ZM262.029 0H266.398V0.040201L261.375 6.39196H258.313L262.029 0Z" fill="#F5FAFF"/>
<path d="M0.09375 43.1445H5.34807C8.20246 43.1445 9.98048 44.9214 9.98048 47.2772C9.98048 49.633 8.19449 51.4099 5.34807 51.4099H1.69636V55.7274H0.09375V43.1445ZM5.34807 49.8822C7.32541 49.8822 8.37787 48.8048 8.37787 47.2772C8.37787 45.7496 7.32541 44.6722 5.34807 44.6722H1.69636V49.8822H5.34807Z" fill="#F5FAFF"/>
<path d="M11.8555 46.7369H13.2827V48.1761H13.2986C13.4581 47.8866 13.6574 47.6374 13.9046 47.4203C14.3351 47.0424 14.9889 46.6484 16.0414 46.6484H17.1098V48.0876H16.0414C14.4228 48.0876 13.2827 49.2374 13.2827 50.8695V55.7258H11.8555V46.7369Z" fill="#F5FAFF"/>
<path d="M22.7223 46.5625C25.3933 46.5625 27.3547 48.5404 27.3547 51.2339C27.3547 53.9273 25.3933 55.9052 22.7223 55.9052C20.0512 55.9052 18.0898 53.9273 18.0898 51.2339C18.0898 48.5404 20.0512 46.5625 22.7223 46.5625ZM22.7223 54.5625C24.58 54.5625 25.9275 53.1957 25.9275 51.2339C25.9275 49.272 24.572 47.9052 22.7223 47.9052C20.8725 47.9052 19.517 49.272 19.517 51.2339C19.517 53.1957 20.8725 54.5625 22.7223 54.5625Z" fill="#F5FAFF"/>
<path d="M28.5195 46.7385H29.6756V43.1445H33.9572V44.4953H31.1028V46.7385H33.423V48.0893H31.1028V55.7274H29.6756V48.0893H28.5195V46.7385Z" fill="#F5FAFF"/>
<path d="M34.6661 53.8398C35.288 53.8398 35.7345 54.2901 35.7345 54.9172C35.7345 55.5444 35.288 55.9946 34.6661 55.9946C34.0442 55.9946 33.5977 55.5444 33.5977 54.9172C33.5977 54.2901 34.0442 53.8398 34.6661 53.8398Z" fill="#F5FAFF"/>
<path d="M46.5121 46.5614C48.2263 46.5614 49.2229 47.4619 49.5419 47.9121L49.7013 48.1855H49.7173V43.1523H51.1445V55.7353H49.7173V54.2961H49.7013L49.5419 54.5453C49.2229 55.0277 48.2263 55.9121 46.5121 55.9121C44.1759 55.9121 42.2305 53.9343 42.2305 51.2408C42.2305 48.5473 44.1759 46.5694 46.5121 46.5694V46.5614ZM46.6875 54.5614C48.4017 54.5614 49.7173 53.1946 49.7173 51.2327C49.7173 49.2709 48.4017 47.9041 46.6875 47.9041C44.9732 47.9041 43.6577 49.2709 43.6577 51.2327C43.6577 53.1946 44.9732 54.5614 46.6875 54.5614Z" fill="#F5FAFF"/>
<path d="M53.6484 46.7369H55.0756V48.1761H55.0916C55.251 47.8866 55.4504 47.6374 55.6975 47.4203C56.1281 47.0424 56.7819 46.6484 57.8344 46.6484H58.9028V48.0876H57.8344C56.2158 48.0876 55.0756 49.2374 55.0756 50.8695V55.7258H53.6484V46.7369Z" fill="#F5FAFF"/>
<path d="M60.1465 53.8398C60.7684 53.8398 61.2149 54.2901 61.2149 54.9172C61.2149 55.5444 60.7684 55.9946 60.1465 55.9946C59.5246 55.9946 59.0781 55.5444 59.0781 54.9172C59.0781 54.2901 59.5246 53.8398 60.1465 53.8398Z" fill="#F5FAFF"/>
<path d="M69.1477 52.9464C69.2753 53.2519 69.4347 53.5253 69.666 53.7585C70.0726 54.1685 70.6786 54.5705 71.731 54.5705C73.3496 54.5705 73.9555 53.9434 73.9555 53.2198C73.9555 52.3354 72.4964 52.0298 71.0134 51.7243C69.5304 51.4188 68.0713 50.7514 68.0713 49.0791C68.0713 47.7283 69.2274 46.5625 71.4599 46.5625C73.1183 46.5625 74.0432 47.2459 74.6173 47.9133C74.9203 48.3072 75.1515 48.7575 75.295 49.264H73.7801C73.6765 49.0308 73.509 48.7977 73.3177 48.5967C72.9828 48.259 72.3928 47.9133 71.4599 47.9133C70.1045 47.9133 69.4985 48.5565 69.4985 49.0791C69.4985 49.9635 70.9576 50.269 72.4406 50.5746C73.9236 50.8801 75.3827 51.5635 75.3827 53.2198C75.3827 54.659 74.1389 55.9133 71.731 55.9133C70.0008 55.9133 68.9723 55.1736 68.3823 54.4419C68.0474 54.0077 67.7923 53.5092 67.6328 52.9464H69.1477Z" fill="#F5FAFF"/>
<path d="M81.2695 46.5625C83.0555 46.5625 84.1239 47.3746 84.7458 48.1464C85.1205 48.6128 85.3837 49.1354 85.5511 49.7062H84.1239C83.9804 49.3685 83.789 49.0791 83.5339 48.8057C83.1033 48.3555 82.3937 47.9052 81.2695 47.9052C79.5553 47.9052 78.2397 49.272 78.2397 51.2339C78.2397 53.1957 79.651 54.5625 81.2695 54.5625C82.4256 54.5625 83.1591 54.0801 83.6056 53.5736C83.8688 53.2841 84.0681 52.9625 84.2116 52.5846H85.6388C85.4793 53.2117 85.1923 53.7746 84.8176 54.257C84.1558 55.069 83.1033 55.9133 81.2695 55.9133C78.7739 55.9133 76.8125 53.9354 76.8125 51.2419C76.8125 48.5484 78.7739 46.5705 81.2695 46.5705V46.5625Z" fill="#F5FAFF"/>
<path d="M88.045 53.8398C88.6669 53.8398 89.1134 54.2901 89.1134 54.9172C89.1134 55.5444 88.6669 55.9946 88.045 55.9946C87.4231 55.9946 86.9766 55.5444 86.9766 54.9172C86.9766 54.2901 87.4231 53.8398 88.045 53.8398Z" fill="#F5FAFF"/>
</g>
<defs>
<clipPath id="clip0_13196_14231">
<rect width="271" height="56" fill="white"/>
</clipPath>
</defs>
</svg>
