<svg width="24" height="23" viewBox="0 0 24 23" fill="none" xmlns="http://www.w3.org/2000/svg">
<path d="M21.5833 0H2.41667C1.90833 0 1.42082 0.201934 1.06138 0.561379C0.701934 0.920823 0.5 1.40833 0.5 1.91667V21.0833C0.5 21.5917 0.701934 22.0792 1.06138 22.4386C1.42082 22.7981 1.90833 23 2.41667 23H21.5833C22.0917 23 22.5792 22.7981 22.9386 22.4386C23.2981 22.0792 23.5 21.5917 23.5 21.0833V1.91667C23.5 1.40833 23.2981 0.920823 22.9386 0.561379C22.5792 0.201934 22.0917 0 21.5833 0ZM18.7083 12.4583H12.9583V18.2083C12.9583 18.4625 12.8574 18.7063 12.6776 18.886C12.4979 19.0657 12.2542 19.1667 12 19.1667C11.7458 19.1667 11.5021 19.0657 11.3224 18.886C11.1426 18.7063 11.0417 18.4625 11.0417 18.2083V12.4583H5.29167C5.0375 12.4583 4.79375 12.3574 4.61402 12.1776C4.4343 11.9979 4.33333 11.7542 4.33333 11.5C4.33333 11.2458 4.4343 11.0021 4.61402 10.8224C4.79375 10.6426 5.0375 10.5417 5.29167 10.5417H11.0417V4.79167C11.0417 4.5375 11.1426 4.29375 11.3224 4.11402C11.5021 3.9343 11.7458 3.83333 12 3.83333C12.2542 3.83333 12.4979 3.9343 12.6776 4.11402C12.8574 4.29375 12.9583 4.5375 12.9583 4.79167V10.5417H18.7083C18.9625 10.5417 19.2063 10.6426 19.386 10.8224C19.5657 11.0021 19.6667 11.2458 19.6667 11.5C19.6667 11.7542 19.5657 11.9979 19.386 12.1776C19.2063 12.3574 18.9625 12.4583 18.7083 12.4583Z" fill="#092A4C"/>
</svg>
