<svg width="128" height="70" viewBox="0 0 128 70" fill="none" xmlns="http://www.w3.org/2000/svg">
<g clip-path="url(#clip0_13115_15147)">
<path d="M54.822 53.0038C55.1194 55.7518 55.4548 58.249 55.6312 60.7564C55.722 62.0456 55.6766 63.3828 55.4371 64.6492C55.0035 66.9312 53.2009 68.1722 50.8286 68.043C48.4714 67.9139 46.8201 66.4094 46.5428 64.0363C46.0965 60.2322 45.7184 56.423 45.2671 52.6188C44.8662 49.2402 44.8335 49.2706 41.6972 48.7666C32.3012 47.2545 24.1657 49.8734 17.4168 56.5395C14.6133 59.3102 12.1704 62.4508 9.59137 65.4445C8.46949 66.7488 7.2745 67.8759 5.45176 68.038C2.20714 68.3242 -0.190402 66.2296 0.016326 62.7725C0.278518 58.3301 0.719706 53.875 1.47099 49.4909C3.28868 38.889 6.27615 28.5935 10.5695 18.7362C12.12 15.1727 14.036 11.708 16.2168 8.49142C22.2093 -0.352806 33.3827 -0.284423 39.5846 8.54207C43.1771 13.6556 45.7133 19.2833 47.6747 25.1617C49.442 30.4576 50.9244 35.8498 52.4622 41.2191C52.7421 42.1993 53.1757 42.7185 54.1161 43.1617C57.0304 44.5369 59.8692 46.0794 62.7281 47.5711C63.4264 47.9358 64.0945 48.3563 65.0525 48.9109C64.6794 47.9992 64.4121 47.366 64.1575 46.7252C62.0726 41.4622 61.8104 36.0017 62.365 30.4424C62.9423 24.678 64.692 19.3238 67.987 14.5573C73.2561 6.9338 80.6151 2.67631 89.6657 1.27573C96.7172 0.184128 103.542 1.00473 110.003 4.09716C118.086 7.96715 123.481 14.2989 126.075 22.8823C129.005 32.575 128.742 42.2069 124.325 51.431C119.856 60.7666 112.26 66.222 102.256 68.2963C93.0188 70.211 84.2782 68.5648 76.004 64.1756C70.1526 61.073 64.3415 57.8919 58.5002 54.7666C57.3632 54.1587 56.1758 53.6471 54.8295 53.0038H54.822ZM118.464 34.5429C118.363 33.5121 118.265 32.0406 118.073 30.5842C116.457 18.3513 106.602 8.98276 93.0994 10.0313C86.0354 10.5809 80.3277 13.6354 76.241 19.4505C71.7056 25.9038 70.6921 33.1777 72.1443 40.7885C75.7544 59.7231 96.0693 64.558 108.523 55.772C115.625 50.7598 118.267 43.4276 118.464 34.5454V34.5429ZM42.5065 39.7906C42.4611 39.3981 42.4737 39.1803 42.4082 38.9903C40.3939 33.2512 38.5459 27.4412 36.2795 21.8033C35.0214 18.6729 33.2491 15.697 31.3608 12.8907C29.4272 10.0136 26.2431 10.1048 24.0951 12.8553C23.2203 13.9747 22.4539 15.2006 21.7808 16.4543C17.0537 25.2478 14.0007 34.6619 11.704 44.3445C11.1317 46.7607 10.6906 49.2098 10.1889 51.6437C10.2721 51.702 10.3553 51.7602 10.4359 51.8185C18.7958 41.6319 29.7398 38.4154 42.5065 39.7957V39.7906Z" fill="white"/>
</g>
<defs>
<clipPath id="clip0_13115_15147">
<rect width="128" height="68.2667" fill="white" transform="translate(0 0.820312)"/>
</clipPath>
</defs>
</svg>
