<svg width="120" height="117" viewBox="0 0 120 117" fill="none" xmlns="http://www.w3.org/2000/svg">
<g clip-path="url(#clip0_13115_15075)">
<path d="M2.50303 79.7615H14.3759C14.0694 79.0294 13.854 78.3525 13.5203 77.7367C12.6555 76.1331 12.1882 74.393 11.6087 72.6965C11.1839 71.4531 10.9533 70.143 10.6195 68.8735C10.2585 67.4965 10.3101 66.0556 9.773 64.7251C9.7548 64.6845 9.773 64.6293 9.773 64.5799C9.67287 62.253 9.41193 59.9173 9.5333 57.5991C9.60005 56.3413 9.62736 55.0573 9.80941 53.8081C9.99147 52.5357 10.1401 51.243 10.4223 49.9938C10.7197 48.6837 11.0716 47.3677 11.4479 46.0692C11.9243 44.4191 12.4431 42.7778 13.147 41.2265C13.9997 39.3441 14.8189 37.4413 15.9567 35.6634C16.9944 34.0395 18.017 32.4127 19.1609 30.8556C19.6008 30.2543 20.0256 29.6413 20.505 29.0719C22.3619 26.8699 24.4343 24.8422 26.628 22.9656C28.5244 21.3417 30.5634 19.8485 32.7238 18.5355C33.0757 18.3205 33.5309 18.2479 33.8525 18.0067C35.8399 16.5165 38.1671 15.613 40.4398 14.6747C42.7913 13.7044 45.2915 13.0624 47.7279 12.2752C49.0964 12.3304 50.3161 11.5257 51.6967 11.6506C52.6919 11.0347 53.9238 11.6796 54.9372 11.087C55.1193 10.9795 55.4318 11.0725 55.6836 11.0725C58.3598 11.0725 61.036 11.0028 63.7061 11.1015C64.9865 11.148 66.2943 11.2468 67.5504 11.6331C67.9146 11.7464 68.3575 11.6128 68.755 11.6622C69.0736 11.7 69.374 11.8946 69.6926 11.9324C70.8759 12.066 71.9865 12.5017 73.1395 12.7109C75.5153 13.1409 77.7211 14.0559 79.9027 14.9391C82.4848 15.9849 84.9881 17.266 87.3183 18.7911C89.4453 20.1826 91.4934 21.6671 93.3807 23.3665C94.1999 24.1044 95.1769 24.7231 95.8839 25.5627C97.4647 27.4451 99.2094 29.1823 100.675 31.1781C102.426 33.566 103.979 36.0323 105.308 38.6352C106.231 40.4421 106.998 42.3188 107.578 44.2564C107.902 45.3371 108.303 46.3945 108.6 47.4868C108.776 48.1346 108.725 48.8202 109.046 49.4767C109.377 50.1565 109.168 51.06 109.435 51.7862C109.756 52.6693 109.435 53.6338 109.771 54.4036C110.175 55.3245 109.908 56.1873 109.99 57.0675C110.075 57.9797 110.008 58.9035 110.008 59.8215C110.008 60.7395 110.045 61.6603 109.996 62.5754C109.966 63.168 109.793 63.7491 109.711 64.3417C109.629 64.9343 109.69 65.5066 109.462 66.1254C109.201 66.8342 109.307 67.6679 109.146 68.4581C108.876 69.7973 108.5 71.1103 108.136 72.4205C107.86 73.4111 107.602 74.4279 107.177 75.372C106.771 76.2784 106.385 77.1818 106.055 78.1172C105.86 78.6634 105.493 79.1514 105.196 79.6772C105.199 79.6801 105.232 79.7208 105.272 79.7469C105.311 79.7702 105.36 79.7905 105.402 79.7905C108.682 79.7905 111.962 79.7905 115.242 79.7934C115.285 79.7934 115.327 79.8312 115.479 79.9038C115.057 80.999 114.156 81.8269 113.592 82.8408C113.036 83.843 112.244 84.7203 111.589 85.6761C110.915 86.658 110.281 87.666 109.553 88.7786H108.339C84.9729 88.7786 61.6034 88.7786 38.2369 88.7699C37.3904 88.7699 36.6652 88.9268 35.8976 89.3335C33.8525 90.417 31.6588 91.2188 29.4135 91.8231C28.2331 92.1426 27.0559 92.5987 25.7876 92.5464C24.9774 93.0984 24.0095 92.6045 23.1994 92.8718C22.371 93.1449 21.5609 93.1449 20.7386 93.1129C20.1227 93.0897 19.5068 92.9415 18.8969 92.834C18.3325 92.7353 17.6862 93.0955 17.2008 92.558C15.0343 92.4999 13.2532 91.4541 11.4145 90.5303C10.7713 90.2079 10.1705 89.8622 9.63646 89.3887C9.13885 88.9471 8.53505 88.6072 8.06474 88.1424C6.11375 86.2193 4.59967 84.0057 3.41026 81.5858C3.13415 81.0222 2.84893 80.4616 2.5 79.7702L2.50303 79.7615ZM41.0496 27.8867C40.7128 27.8867 40.4398 27.8257 40.2122 27.8954C38.4129 28.4415 36.6682 29.4815 34.8811 30.6232C33.0757 31.7765 31.7801 33.3423 30.703 35.0504C29.6198 36.7673 28.9614 38.6991 28.3727 40.6397C28.1573 41.3514 28.5032 42.1503 27.9419 42.7836C27.7537 44.3407 28.0875 48.1433 28.5517 49.7818C29.1191 51.7775 31.4858 55.769 33.0515 57.2622C33.7463 57.9245 34.4897 58.552 35.2816 59.0981C36.1555 59.7024 37.1112 60.1933 38.1732 60.815C38.2036 60.4315 38.2855 60.1904 38.2278 59.9871C37.8334 58.6014 37.8577 58.1046 38.2096 56.4517C38.334 55.8678 38.243 55.3274 37.7454 54.7609C35.9916 52.7623 35.227 50.354 34.8993 47.7889C34.7264 46.4468 35.1876 45.1715 35.2361 43.8526C35.2543 43.3355 35.4697 42.7778 35.7519 42.3333C36.11 41.7697 36.1585 41.1975 36.113 40.5932C36.0189 39.3644 36.1433 38.1443 36.4892 36.9736C37.1689 34.6583 38.3371 32.3924 39.9968 29.8185C40.3639 29.2491 40.6491 28.6304 41.1407 27.6194C41.083 27.6659 41.0223 27.7095 40.9647 27.756L41.1012 27.8867C41.1467 27.8286 41.2014 27.7763 41.2347 27.7124C41.2408 27.7008 41.1771 27.6543 41.0496 27.8867ZM78.1884 29.7953C78.1398 29.7401 78.0943 29.682 78.0458 29.6268C78.0003 29.6704 77.9548 29.7139 77.9092 29.7575C77.9699 29.8011 78.0245 29.8534 78.0913 29.8853C78.1034 29.8911 78.152 29.8301 77.9092 29.6268C77.5057 28.9674 77.0566 28.3283 76.7077 27.6398C75.8096 25.8706 74.9509 24.1015 74.429 22.1609C74.0406 20.7171 73.7584 19.2501 73.4034 17.8034C73.1031 16.5891 73.1152 15.3022 72.9817 13.9949C71.6284 13.6928 70.3055 13.2077 68.8703 13.074C68.1087 13.0043 67.2592 12.9869 66.6007 12.7429C65.9362 12.4959 65.3415 12.6296 64.7317 12.525C64.1188 12.4204 63.4998 12.2258 62.8899 12.2519C60.4595 12.3623 58.0382 12.0776 55.5896 12.4582C53.9784 12.708 52.3187 12.7487 50.7075 13.0973C50.1492 13.2193 49.5818 13.2948 49.0175 13.3907C48.4531 13.4865 47.8827 13.5563 47.3305 13.6928C47.115 13.7451 46.8541 13.9136 46.7661 14.0966C46.5932 14.4597 46.5143 14.8664 46.4202 15.2615C46.2624 15.9384 46.5507 16.6123 46.1775 17.3415C45.8953 17.8964 45.9893 18.6836 45.8437 19.3721C45.5403 20.7927 45.2004 22.1929 44.7392 23.5727C44.5633 24.1015 44.1233 24.6156 44.3691 25.2751C44.7605 25.2751 45.1731 25.3913 45.4432 25.2518C46.1957 24.8655 46.9815 24.9613 47.7492 24.9962C49.9277 25.0892 52.1184 24.7318 54.2879 25.2518C54.9281 25.4058 55.626 25.2402 56.2844 25.5482C56.8609 25.8154 57.1006 25.9839 57.0157 26.4138C56.9277 26.8583 56.6273 27.0326 56.1691 27.0181C55.4925 26.9978 54.8371 26.9948 54.1635 26.7624C53.6264 26.5794 52.968 26.7247 52.3612 26.7247C51.7543 26.7247 51.1293 26.8176 50.5528 26.6985C50.0036 26.5852 49.5272 26.6288 48.978 26.6811C47.464 26.8264 45.9378 26.6927 44.4085 26.9716C43.6682 27.1081 43.207 27.2824 42.764 27.8925C41.2833 29.9376 40.015 32.1019 38.953 34.3561C38.2825 35.7825 37.5482 37.2495 37.6362 39.0332V38.9025C37.5573 38.9286 37.4693 38.9432 37.4056 38.9896C37.3874 39.0042 37.4359 39.1029 37.4571 39.1639C37.5178 39.1204 37.5755 39.0739 37.6362 38.8996C38.0792 38.5248 38.5191 38.1443 38.9651 37.7753C39.2231 37.5633 39.4719 37.3309 39.7601 37.1682C40.5278 36.7383 41.2863 36.2706 42.1056 35.951C42.9673 35.6169 43.8411 35.3061 44.7514 35.0592C46.4839 34.5915 48.2225 34.3591 49.9975 34.2719C51.0019 34.2225 52.0153 34.2632 53.0226 34.2632C53.6932 34.2632 54.3911 34.1731 54.8947 34.7541C54.828 35.9423 54.7794 35.9946 53.6659 36.0033C53.0621 36.0091 52.4552 35.98 51.8514 36.0091C50.0279 36.0962 48.2013 35.8406 46.3717 36.2618C45.1307 36.5494 43.9412 36.9445 42.7518 37.3512C41.2469 37.8654 40.1606 38.9461 39.044 39.989C38.4706 40.5235 38.1095 41.151 37.7788 41.8133C37.5391 42.2984 37.5178 42.7865 37.8061 43.2803C38.246 44.0298 38.5586 44.8229 39.1745 45.4998C39.9998 46.409 41.1316 46.8651 42.0752 47.5885C42.4484 47.8732 45.7132 48.4687 46.226 48.4716C46.6296 48.4716 47.0392 48.5094 47.4336 48.46C47.8008 48.4135 48.1527 48.2334 48.5199 48.1898C49.5636 48.0678 50.5558 47.8615 51.4782 47.3241C52.3582 46.8128 53.3534 46.5165 54.1938 45.889C54.7218 45.494 55.5077 45.43 56.1115 45.1076C57.1613 44.5498 58.4023 44.9449 59.4491 44.422C59.6069 44.3436 59.8526 44.3784 60.0468 44.4191C60.414 44.4917 60.7811 44.7096 61.1301 44.6835C62.547 44.5731 63.7122 45.1744 64.9228 45.7351C66.3095 46.3771 67.4989 47.4055 69.0676 47.6901C69.5227 48.1956 69.8261 47.7424 69.996 47.4694C70.6089 46.4642 71.1308 45.4097 71.7286 44.3959C72.3506 43.3413 72.6388 42.1503 73.2912 41.0987C73.5612 40.6629 73.7827 40.1023 73.9162 39.6229C74.338 38.1007 75.0237 36.6627 75.3575 35.1173C75.7034 33.5166 76.2556 31.9566 76.3982 30.3153C76.4346 29.9028 76.6652 29.6239 77.1507 29.6268C77.4025 29.6268 77.6544 29.6268 78.1853 29.7953H78.1884ZM71.0974 79.7847C81.8932 79.7847 92.431 79.7847 102.969 79.7876C103.46 79.7876 103.773 79.6859 103.973 79.1747C104.267 78.4252 104.683 77.728 104.98 76.9639C105.433 75.7961 105.976 74.6574 106.391 73.4663C106.819 72.2317 107.117 70.9622 107.557 69.7305C107.848 68.9142 107.632 67.9177 107.99 67.1479C108.385 66.2967 107.845 65.3439 108.5 64.5944C108.276 63.0693 108.846 61.5935 108.807 60.0771C108.782 59.1591 108.791 58.2411 108.807 57.3232C108.822 56.3848 108.412 55.5104 108.464 54.5431C108.521 53.4798 108.297 52.4021 108.197 51.333C108.194 51.2865 108.194 51.2372 108.169 51.1994C107.638 50.2698 107.887 49.1281 107.286 48.216C107.447 46.7896 106.325 45.6392 106.352 44.239C105.596 43.0392 105.378 41.6245 104.732 40.3928C103.187 37.45 101.813 34.4026 99.5068 31.8869C98.4326 29.8098 96.515 28.3631 95.0981 26.5417C94.5185 25.7951 93.6477 25.2751 92.9195 24.6505C91.639 23.5524 90.3252 22.5095 88.978 21.4928C87.2516 20.1913 85.4098 19.0351 83.4861 18.0677C81.5139 17.0742 79.5447 16.0226 77.4025 15.3516C76.3921 15.0349 75.4576 14.4365 74.3046 14.5643C74.4199 14.8461 74.5625 15.0407 74.5716 15.2412C74.602 15.8687 74.3501 16.6298 74.6384 17.0917C75.0298 17.7162 74.6657 18.3815 75.0723 18.9625C75.4151 19.4505 74.9691 20.1826 75.4879 20.6764C75.758 22.524 76.4467 24.2322 77.2994 25.8997C78.1095 27.4858 79.1108 28.9644 80.1455 30.414C80.4246 30.8062 80.6643 31.1693 80.6825 31.7939C81.2135 31.1316 81.7202 30.8295 82.3908 31.1548C82.5212 31.4773 82.7792 31.791 82.7336 32.0583C82.3422 34.3678 82.324 34.3649 82.7579 35.9278C82.7913 36.0498 82.8368 36.1689 82.8763 36.2909C83.0613 35.5269 83.0219 34.7687 83.0735 34.0163C83.1099 33.473 83.2039 32.9182 83.386 32.404C83.4861 32.1164 83.8078 31.791 84.2022 31.9566C84.4692 32.0699 84.6968 32.3343 84.8606 32.5783C84.9516 32.7148 84.8758 32.9559 84.8758 33.1477C84.8819 34.0366 84.7635 34.9023 84.6118 35.7883C84.3782 37.174 84.5875 38.5917 84.3236 40.018C84.0171 41.6768 84.4753 43.4285 83.9655 45.1047C83.8654 49.4128 83.7562 53.718 83.6651 58.0262C83.6409 59.2318 83.6621 60.4402 83.6621 61.6487C83.6621 61.8898 83.6955 62.1368 83.653 62.3721C83.5863 62.7294 83.3587 62.9298 82.9521 62.9705C82.5152 63.0141 82.2937 62.7526 82.1632 62.4563C82.0722 62.2501 82.145 61.9799 82.145 61.7388C82.145 57.1518 82.145 52.5619 82.145 47.9748C82.145 47.6901 82.06 47.327 82.2057 47.1353C82.6821 46.5107 82.3695 45.9065 82.3968 45.0437C81.6626 46.1883 80.9677 46.99 79.9604 47.5507C79.484 47.8151 79.1624 48.2653 79.038 48.9161C78.8984 49.6597 78.5495 50.3686 78.4766 51.1558C78.4493 51.4289 78.0579 51.7484 78.2339 52.0389C78.3795 52.283 78.7467 52.405 79.0198 52.5764C80.3943 53.4392 81.3015 54.6506 81.5169 56.1931C81.8841 58.828 81.2894 61.3815 80.194 63.7723C79.0258 66.3229 77.5664 68.7457 75.9582 71.0784C74.9721 72.5106 74.0619 73.9892 73.1759 75.4795C72.5781 76.4904 72.0744 77.5537 71.5495 78.5995C71.3887 78.919 71.2886 79.2705 71.0914 79.7789L71.0974 79.7847ZM45.2308 14.5498C44.897 14.5498 44.721 14.5033 44.5966 14.5556C43.1918 15.1598 41.705 15.5491 40.285 16.1359C39.044 16.6501 37.891 17.3589 36.5894 17.7366C34.7688 19.1455 32.5994 20.0373 30.7637 21.4579C29.374 22.5357 27.9085 23.5495 26.6068 24.7173C25.12 26.0478 23.5847 27.3522 22.3984 28.9732C21.6762 29.9609 20.7811 30.8295 20.0681 31.823C18.9454 33.3917 17.8197 34.9749 16.87 36.6395C15.8657 38.3999 15.01 40.2446 14.1878 42.0922C13.6386 43.3239 13.144 44.5963 12.8345 45.8978C12.4856 47.359 11.8484 48.7737 11.897 50.3134C11.366 50.7782 11.7968 51.4405 11.5632 51.9198C11.2992 52.466 11.2112 53.0121 11.3144 53.5466C11.4297 54.1567 10.9685 54.6041 10.9806 55.1706C11.0049 56.135 10.9867 57.1024 10.9867 58.0698C10.9867 59.0371 10.9685 60.0016 10.9928 60.969C11.014 61.9189 10.9139 62.9066 11.1596 63.8042C11.4084 64.7106 10.9806 65.6954 11.5935 66.5233C11.6512 67.9962 12.1245 69.3877 12.4583 70.8082C12.6889 71.7901 13.1197 72.682 13.3959 73.6319C13.6841 74.6283 13.9997 75.6102 14.4336 76.5543C14.919 77.6176 15.4136 78.6779 15.89 79.7092H48.8415C48.8415 79.4942 48.89 79.3286 48.8354 79.2066C47.995 77.4404 47.0301 75.7293 45.8316 74.1722C44.5269 72.4728 43.0795 70.8808 41.9842 69.0275C40.9222 67.2322 39.8542 65.4456 39.1411 63.4876C38.9773 63.0373 38.6344 62.6742 38.1641 62.4505C36.8594 61.8259 35.5274 61.2856 34.3562 60.3821C32.9058 59.2637 31.6315 57.9855 30.3996 56.6812C29.5894 55.8242 28.9219 54.7697 28.4668 53.6948C27.9237 52.4166 26.9709 51.2546 27.0377 49.7701C26.179 48.4542 26.5886 46.8942 26.1547 45.4852C25.8756 44.5731 26.4005 43.6377 26.4096 42.7139C26.4187 41.4938 26.801 40.355 27.0528 39.1901C27.1954 38.5365 27.4291 37.8945 27.6931 37.2728C27.9722 36.6104 28.5851 36.0846 28.5548 35.2945C29.4741 34.0744 30.1417 32.6829 31.2188 31.5731C32.7147 30.0335 34.4078 28.7524 36.3679 27.7502C37.9548 26.9397 39.6539 26.4749 41.3015 25.8532C42.233 25.9955 42.6426 25.4174 42.8975 24.7202C43.298 23.6192 43.7774 22.5473 44.008 21.3911C44.2022 20.4092 44.6816 19.4796 44.6179 18.4483C45.2187 17.8789 44.6391 17.1033 44.9395 16.5513C45.2945 15.9006 45.1367 15.2818 45.2338 14.5469L45.2308 14.5498ZM76.2222 52.8204C75.6943 52.8204 75.3969 52.8204 75.0996 52.8204C73.8707 52.8262 73.7736 52.9046 73.364 54.0492C73.0788 54.8539 72.8178 55.6702 72.4446 56.4371C71.7741 57.817 71.0398 59.1678 70.3116 60.5187C70.0506 60.998 69.7988 61.518 69.4044 61.8811C69.1525 62.1106 68.8218 62.5202 68.3242 62.3343C68.0329 62.2239 67.8175 61.5964 67.9206 61.1955C67.9419 61.1113 68.0025 61.0358 68.0481 60.9573C68.2969 60.5245 68.5517 60.0945 68.7945 59.6588C69.4134 58.552 70.1417 57.4858 70.6089 56.3209C71.0732 55.1676 71.6466 54.0579 72.1169 52.8175C71.146 52.8175 70.1993 52.8407 69.2526 52.8117C68.4364 52.7855 68.1816 52.771 68.0147 53.1864C67.7507 53.8546 67.1408 54.1945 66.71 54.697C66.2457 55.2374 65.83 55.8242 65.3082 56.3093C64.2432 57.2999 63.2176 58.3196 62.0464 59.2201C60.062 60.7453 57.9593 62.006 55.5471 62.7701C53.6265 63.3772 51.4813 63.935 49.952 63.8507C49.5363 63.8275 49.1085 63.7374 48.6777 64.0744C48.4319 64.2661 47.7704 64.2807 47.5307 64.0947C46.9664 63.6561 46.3808 63.903 45.8134 63.8449C44.5966 63.7229 43.3738 63.6445 42.1541 63.5457C42.1055 63.5428 42.0358 63.5544 42.0115 63.5312C41.5048 63.017 40.9252 63.3365 40.4398 63.2872C40.6764 63.8972 40.8282 64.4637 41.1043 64.9721C41.6261 65.9278 42.233 66.8429 42.7761 67.7899C43.6985 69.3993 44.7908 70.8896 46.0045 72.3101C46.6993 73.1235 47.3426 73.9863 47.9161 74.884C48.9113 76.4498 49.7457 78.1056 50.4405 79.7847H69.6319C70.0021 78.9364 70.3359 78.0504 70.7697 77.2109C71.3948 76.0053 72.0593 74.8171 72.7663 73.6551C73.9981 71.6274 75.2118 69.5852 76.5651 67.6301C77.2994 66.5669 77.8364 65.4194 78.4281 64.301C79.0167 63.1971 79.6842 62.0729 79.748 60.7685C80.2941 60.3676 79.8511 59.7634 80.0726 59.3044C80.7189 57.9565 80.2425 56.6666 79.8208 55.403C79.4992 54.4298 78.6162 53.9011 77.7848 53.4711C77.3388 54.9236 76.8018 56.3703 76.4589 57.8606C76.1949 59.011 75.6032 60.0452 75.4242 61.2391C75.3059 62.0351 75.0328 62.9618 74.1832 63.4818C74.1074 63.5283 74.0012 63.5283 73.8313 63.5689C73.5642 63.3017 73.273 63.0054 73.0393 62.7701C74.3349 59.4903 75.1876 56.2222 76.2161 52.8204H76.2222ZM34.8326 82.4341C35.7701 83.7442 36.6409 84.9614 37.5027 86.1612H106.273C106.625 86.1612 106.986 86.1234 107.332 86.1699C107.763 86.228 107.978 85.9666 108.191 85.7109C108.367 85.5018 108.482 85.249 108.631 85.0195C109.186 84.1713 109.744 83.3259 110.333 82.4312H34.8295L34.8326 82.4341ZM39.8269 54.883C40.8797 55.6383 41.7748 56.3209 42.7124 56.9426C43.7531 57.634 44.8728 58.1918 46.0288 58.703C47.2394 59.2405 48.5411 59.6443 49.8003 59.7111C51.7058 59.8128 53.6356 59.9522 55.5714 59.5223C57.8015 59.0284 58.6511 58.7815 60.7629 57.5265C61.6337 57.0094 62.3589 56.3122 63.1964 55.8067C64.7681 54.8539 65.5782 53.3549 66.6796 52.1174C66.3641 51.9111 66.1062 51.7833 65.9029 51.6032C65.4963 51.2459 65.1443 50.8217 64.7165 50.4906C63.961 49.9096 63.1417 49.5929 62.2224 50.2059C62.0676 50.3076 61.9068 50.4121 61.7339 50.4702C60.5991 50.8479 59.4643 51.3301 58.3143 50.5022C58.2081 50.4238 58.0534 50.4063 57.9259 50.354C56.2328 49.6394 55.8687 49.6772 54.6217 50.9176C53.4717 52.0622 51.9819 52.5996 50.4466 52.7623C49.2663 52.8872 47.9767 53.1312 46.7964 52.5357C46.6781 52.4747 46.4384 52.466 46.3565 52.5357C45.8437 52.986 45.2308 52.7913 44.6573 52.8117C42.858 52.8727 41.3318 53.5176 39.8269 54.8801V54.883ZM7.32743 82.3934C7.36384 82.6781 7.3426 82.7885 7.39115 82.8582C8.79599 84.8423 10.4375 86.5592 12.5432 87.942C14.6217 89.3044 16.9186 89.8099 19.2913 90.2021C20.0742 90.3328 20.9025 90.234 21.7096 90.2195C22.456 90.205 23.2813 90.3502 23.9215 90.0888C24.6649 89.7838 25.5266 90.2573 26.1517 89.6414C27.3745 89.6676 28.4334 89.0837 29.5773 88.8135C31.3493 88.3981 32.9695 87.6515 34.5655 86.9049C33.6613 85.7255 32.6358 84.6477 31.947 83.3985C31.4828 82.5561 30.9609 82.3789 30.0992 82.3818C22.7807 82.3992 15.4652 82.3905 8.14667 82.3905H7.3244L7.32743 82.3934ZM39.1199 53.689C39.7783 53.2561 40.3032 52.8378 40.8949 52.5415C42.4241 51.7775 44.4601 51.3534 45.8346 51.3679C47.2455 51.3824 48.6625 51.3214 50.0704 51.3853C51.6451 51.4579 52.8618 50.8334 53.945 49.8282C54.2545 49.5406 54.5944 49.253 54.9736 49.0642C55.9324 48.5878 56.9155 48.6139 57.8956 49.0497C58.3598 49.256 58.821 49.5058 59.3126 49.6162C59.9376 49.7556 60.5718 49.6162 61.1331 49.3082C63.0022 48.2915 64.9501 48.5878 66.1062 50.0432C66.449 50.4761 67.0164 50.7491 67.514 51.121C67.9995 50.3918 68.4031 49.7876 68.8521 49.1136C68.576 48.9916 68.3272 48.8696 68.0663 48.765C67.068 48.3641 66.1517 47.8238 65.208 47.3241C64.6346 47.022 64.1673 46.5979 63.4816 46.409C62.1131 46.0314 60.7538 45.8716 59.3338 45.8368C57.6316 45.7932 56.1236 46.3655 54.7339 47.1062C53.8328 47.5885 52.9316 48.062 52.0001 48.5006C50.8077 49.0642 49.5394 49.4854 48.2498 49.5929C46.6902 49.7237 45.073 49.8282 43.5407 49.3315C41.9811 48.826 40.3791 48.3583 39.1745 47.1905C38.3613 46.4032 37.5937 45.5753 36.8139 44.7735C36.3497 49.5029 37.1628 51.3301 39.1138 53.689H39.1199ZM39.572 56.4865C39.4324 57.236 39.132 57.8228 39.2898 58.2586C39.5174 58.8832 39.3899 59.47 39.4445 60.0713C39.5174 60.9109 39.9634 61.2856 40.7857 61.55C41.5048 61.7824 42.321 61.5877 42.9035 61.8695C43.5165 62.1658 44.0596 61.9915 44.6209 62.099C45.1792 62.2065 45.7405 62.3576 46.3079 62.3808C48.8021 62.4883 51.2749 62.3634 53.6871 61.5906C53.0044 61.5209 52.3157 61.5587 51.633 61.5093C50.9654 61.4628 50.304 61.2391 49.6456 61.2536C48.9447 61.2682 48.2923 61.1374 47.6612 60.9283C46.2988 60.4809 44.8667 60.1236 43.6287 59.4496C42.1844 58.6624 40.6431 57.9274 39.572 56.4865ZM71.4039 48.4716C72.0836 48.4716 72.5326 48.4542 72.9756 48.4745C73.546 48.5006 73.9223 48.3351 74.0012 47.7308C74.0285 47.5188 74.1984 47.327 74.2712 47.1179C74.7506 45.7583 75.2604 44.4133 75.6154 43.0102C75.9886 41.5315 76.6865 40.1197 76.9656 38.6323C77.3934 36.349 78.328 34.1818 78.5343 31.852C78.6162 30.9282 78.7163 30.9369 78.3219 30.3008C78.1884 30.5186 77.9153 30.7568 77.9305 30.9776C78.0094 32.1164 77.5846 33.1506 77.2963 34.2138C77.002 35.3032 76.7957 36.4129 76.3982 37.479C76.0675 38.3622 75.8338 39.283 75.4728 40.1545C74.96 41.3979 74.3987 42.6267 73.8009 43.8381C73.0636 45.3342 72.2686 46.8012 71.4009 48.4716H71.4039ZM80.191 33.4062C80.1364 33.473 80.0635 33.534 80.0332 33.6096C79.4779 34.9488 79.1897 36.3722 78.868 37.7579C78.3977 39.7827 77.6695 41.7291 77.1992 43.751C76.8594 45.2151 76.2435 46.6211 75.7337 48.1027C76.1282 48.0184 76.4498 48.0039 76.7138 47.879C77.1355 47.6756 77.8061 47.632 77.6058 46.8971C78.0943 46.3916 78.0124 45.7002 78.1671 45.1047C78.3249 44.4975 78.4797 43.8584 78.5768 43.2222C78.7133 42.342 78.8741 41.4328 79.1442 40.5729C79.4354 39.6491 79.6478 38.7282 79.7237 37.7724C80.37 37.2583 79.6782 36.3606 80.3305 35.8464C80.0726 35.0417 80.9799 34.176 80.191 33.4004V33.4062ZM79.7085 46.0721C80.904 44.8461 82.1056 43.6435 82.1238 41.9528C82.1389 40.3695 82.4393 38.7369 81.6808 37.0752C81.0011 40.1749 80.3548 43.1235 79.7085 46.0721ZM72.6752 51.3243C72.8967 50.8363 73.1455 50.2843 73.4277 49.6597H70.4997C70.1508 50.2262 69.8261 50.7578 69.4772 51.3243H72.6722H72.6752ZM77.2053 49.0816C76.7957 49.1688 76.3982 49.3199 75.9947 49.3257C75.3848 49.3373 75.1299 49.7643 74.8993 50.1449C74.7021 50.4673 74.696 50.8944 74.608 51.272C75.2735 51.5354 75.938 51.6274 76.6015 51.548C76.8048 50.7172 77.002 49.9096 77.2053 49.0816ZM54.5762 61.4599C54.5064 61.3524 54.4639 61.2362 54.4275 61.2391C54.294 61.2478 54.1635 61.2943 54.03 61.3292C54.0664 61.3931 54.1028 61.5093 54.1453 61.5093C54.2788 61.518 54.4123 61.4831 54.5762 61.4599Z" fill="white"/>
<path d="M82.5901 116.611C81.6677 116.611 80.9638 116.553 80.272 116.626C79.4194 116.713 78.946 116.428 78.5668 115.673C77.7142 113.965 76.7007 112.341 75.6145 110.755C75.129 110.049 74.771 109.253 74.3128 108.518C74.0367 108.071 73.794 107.899 73.2994 107.911C72.5499 107.928 71.7974 107.914 70.9964 107.914V116.577C70.071 116.646 69.1911 116.594 68.2656 116.614V97.2553H70.9084V105.302C71.4394 105.302 71.9279 105.302 72.4164 105.302C73.9275 105.302 73.9608 105.322 74.7437 104.117C75.4385 103.051 76.0423 101.929 76.7038 100.84C77.2954 99.8669 77.8841 98.8879 78.5304 97.9467C78.855 97.4761 79.2677 97.0897 79.9929 97.171C80.6786 97.2495 81.3825 97.1885 82.2655 97.1885C80.36 100.407 78.3453 103.379 76.373 106.528C78.3695 109.77 80.4237 113.102 82.5871 116.614L82.5901 116.611Z" fill="white"/>
<path d="M97.755 116.557C97.0662 114.706 96.4078 112.937 95.7373 111.142H88.2579C87.6298 112.917 86.9836 114.735 86.3312 116.577H83.3789C83.5883 115.839 83.655 115.049 84.0252 114.422C84.7261 113.225 84.9597 111.891 85.4755 110.645C86.0399 109.274 86.5679 107.891 87.0958 106.505C87.4812 105.497 87.8453 104.484 88.2033 103.467C88.889 101.518 89.7993 99.6438 90.3485 97.6481C90.4031 97.4505 90.7763 97.2356 91.0221 97.2036C91.5682 97.1368 92.1296 97.1717 92.6848 97.1862C93.3038 97.2007 93.7863 97.5174 93.9501 98.1303C94.5023 100.219 95.6128 102.131 96.0801 104.242C97.136 105.759 97.1208 107.691 98.1889 109.204C98.6471 111.275 99.6635 113.164 100.322 115.168C100.471 115.624 100.659 116.072 100.841 116.557H97.755ZM94.8968 108.728C93.9167 105.91 92.9579 103.153 91.9748 100.321C91.2497 103.243 90.1209 105.933 89.065 108.728H94.8998H94.8968Z" fill="white"/>
<path d="M23.7318 99.7399V105.553H30.9017V108.179H23.7622V114.282H33.0378V116.537H20.6734V98.6157C20.6734 98.3745 20.6612 98.1334 20.6734 97.8923C20.6976 97.4537 20.9525 97.2038 21.4076 97.1893C22.0114 97.1719 22.6183 97.1835 23.2251 97.1835H32.4522V99.7428H23.7318V99.7399Z" fill="white"/>
<path d="M50.9544 114.515C51.5522 113.742 52.0922 113.042 52.6627 112.307C53.2635 112.696 53.9158 113.126 54.5773 113.548C55.8698 114.37 57.3323 114.384 58.7887 114.274C59.8356 114.195 61.0735 113.068 61.2434 112.095C61.3769 111.337 61.1706 110.648 60.6153 110.03C59.7991 109.12 58.6856 108.705 57.6175 108.205C56.947 107.892 56.2764 107.572 55.5725 107.342C54.4316 106.968 53.5669 106.262 52.7628 105.443C51.9678 104.632 51.5673 103.729 51.54 102.587C51.5006 100.876 52.2075 99.5338 53.4698 98.427C54.0979 97.878 54.8898 97.5846 55.7333 97.3754C56.6618 97.1459 57.5599 96.8205 58.546 96.8932C59.4229 96.9571 62.4389 97.8838 63.2096 98.3457C63.6405 98.6042 63.7922 98.9935 63.601 99.4263C63.4402 99.7953 63.2885 100.179 63.0579 100.51C62.8667 100.786 62.5694 100.995 62.3509 101.204C61.3223 100.548 60.3544 99.8069 59.0224 99.7807C58.6583 99.7749 58.3002 99.5309 57.9361 99.5251C57.6266 99.5193 57.3202 99.7575 57.0016 99.7836C55.8941 99.8708 55.2509 100.641 54.6744 101.355C54.0827 102.09 54.7502 103.981 55.7394 104.408C56.8833 104.905 57.9665 105.512 59.165 105.928C60.4333 106.369 61.6955 106.982 62.6634 107.964C63.686 108.998 64.2685 110.216 64.2807 111.665C64.2898 112.763 63.8346 113.745 63.1914 114.553C61.9989 116.049 60.3878 116.949 58.3275 116.897C57.9756 116.888 57.6206 116.891 57.2686 116.897C55.2236 116.926 53.4243 116.325 51.8707 115.035C51.625 114.832 51.3033 114.71 50.9453 114.512L50.9544 114.515Z" fill="white"/>
<path d="M48.2702 99.1486C47.7816 99.9126 47.3599 100.569 46.9412 101.226C46.6287 101.063 46.2949 100.967 46.0795 100.761C45.1388 99.8458 43.8341 99.6802 42.6751 99.5814C41.6707 99.4943 40.4813 99.8836 39.7076 100.63C39.2494 101.072 38.9157 101.83 38.9187 102.443C38.9187 102.864 39.1008 103.489 39.6105 103.89C40.3933 104.508 41.2095 104.979 42.1714 105.336C43.6915 105.9 45.2177 106.539 46.5649 107.399C47.6846 108.113 48.5675 109.165 48.5463 110.644C48.5281 111.934 48.7314 112.95 48.1063 114.002C47.3508 115.271 46.2706 116.14 44.8597 116.599C43.3456 117.093 40.7392 117.075 39.2403 116.544C37.9023 116.067 36.6036 115.507 35.5234 114.446C36.0605 113.726 36.6006 112.997 37.1437 112.268C38.2239 113.128 39.3678 113.857 40.715 114.176C42.1168 114.507 43.5216 114.4 44.7838 113.668C45.4939 113.255 45.3755 112.361 45.8033 111.759C45.9126 111.608 45.421 110.304 45.2299 110.115C44.3591 109.232 43.288 108.628 42.1168 108.215C40.0596 107.489 38.1723 106.539 36.7402 104.892C36.3578 104.45 36.0878 103.994 36.1151 103.396C36.1394 102.864 36.1546 102.33 36.1151 101.804C36.0362 100.755 36.5338 99.9475 37.2074 99.1893C37.9781 98.3178 38.9248 97.638 40.0535 97.3794C41.2733 97.1006 42.4991 96.5079 43.8341 97.1412C44.3226 97.3736 44.9386 97.2458 45.5181 97.4317C46.6044 97.7861 47.5328 98.2597 48.2732 99.1486H48.2702Z" fill="white"/>
<path d="M55.35 5.24267H54.285C54.3092 4.34211 54.3972 3.43284 53.7358 2.85184C53.49 3.08715 53.2351 3.33117 52.8285 3.72044C52.9074 4.06323 52.5069 4.80691 53.1411 5.51864C52.8073 5.53898 52.5342 5.55641 52.2581 5.57384C52.1185 4.83596 52.0336 4.15619 51.8454 3.49966C51.7848 3.28469 51.4662 2.99419 51.2598 2.98838C50.9109 2.97966 50.656 3.24692 50.656 3.642C50.656 4.35373 50.656 5.06546 50.656 5.73942C49.9127 6.12869 50.0704 5.41987 49.8823 5.21361C49.7245 5.03931 49.7852 4.68781 49.7458 4.41183C49.6699 3.8744 49.591 3.33698 49.5 2.7124C50.2282 2.60492 51.0414 2.34346 51.8181 2.4219C52.3522 2.47709 52.6859 2.64559 53.1714 2.19821C53.6417 1.76246 54.7826 2.31732 54.8857 2.95642C54.9464 3.33117 54.8463 3.73206 54.913 4.10681C54.9737 4.4496 55.1618 4.76915 55.353 5.23976L55.35 5.24267Z" fill="white"/>
<path d="M71.1328 7.36318C71.324 7.13659 71.4696 6.96229 71.6244 6.77927C71.7032 6.80832 71.7852 6.81704 71.8398 6.85771C72.4001 7.30314 72.9958 7.19565 73.6269 6.53525C73.5147 6.53525 72.2949 6.42776 72.2828 6.40452C72.0522 6.06173 71.5424 5.93682 71.5424 5.39939C71.5424 4.78934 71.4878 4.12409 71.9065 3.67962C72.3799 3.17996 73.1506 3.10153 73.7938 3.28745C74.1003 3.3746 74.4067 3.48499 74.7253 3.56923C74.8983 3.61571 75.3746 3.81616 74.9286 4.27806C74.6889 4.52498 74.965 5.04788 74.6191 5.44878C74.3946 5.71023 74.7526 6.29123 74.2793 6.59625C74.0184 8.07491 73.3539 8.0139 71.9187 7.78731C71.6729 7.74664 71.4544 7.54329 71.1328 7.36608V7.36318ZM72.6044 5.85548C72.7622 5.85548 72.9624 5.83224 73.1536 5.86129C73.5814 5.9252 73.8272 5.66665 73.9637 5.37325C74.164 4.9404 73.9425 4.11828 73.6269 3.93526C73.3083 3.74934 72.9837 3.7232 72.7045 4.03113C72.1978 4.5947 72.0279 5.18151 72.6044 5.85838V5.85548Z" fill="white"/>
<path d="M115.216 36.8953C115.016 37.4763 114.87 37.8976 114.706 38.3769C114.199 38.2113 113.756 37.8075 113.134 38.2868C112.834 38.5192 112.176 38.4001 111.839 37.9121C111.705 37.7146 111.493 37.5693 111.223 37.3108C111.223 37.0754 111.214 36.7501 111.223 36.4276C111.25 35.5096 111.942 34.9199 112.858 35.1727C113.156 35.254 113.295 35.4051 113.517 35.1175C113.635 34.9635 113.781 34.8241 113.941 34.7108C114.312 34.4464 114.934 34.4697 115.258 34.8095C115.565 35.1291 115.798 35.5155 116.156 35.9948C115.704 35.8902 115.273 36.3376 115.134 35.6346C115.079 35.3615 114.812 35.01 114.375 35.1669C113.972 35.3121 113.853 35.7711 114.051 36.2475C114.236 36.6978 114.545 36.968 115.216 36.8924V36.8953ZM113.817 37.456C113.508 36.9186 113.307 36.5613 113.098 36.2127C112.901 35.8844 112.512 35.9367 112.294 36.0325C112.003 36.1604 111.684 36.448 111.842 36.8343C111.939 37.0696 112.145 37.3718 112.364 37.4299C112.731 37.5286 113.15 37.456 113.817 37.456Z" fill="white"/>
<path d="M104.27 25.397C103.469 25.2983 103.326 24.6534 103.065 24.1479C102.986 23.9968 103.099 23.6744 103.235 23.5204C103.587 23.1166 104.003 22.7651 104.337 22.4426C106.005 21.9226 106.288 23.2967 107.013 24.0927C106.451 25.1182 105.353 25.5452 104.549 26.2744C104.018 26.7537 102.574 26.3383 102.14 25.6643C102.043 25.5132 101.933 25.3535 101.903 25.185C101.879 25.031 101.955 24.8596 101.988 24.6969C102.125 24.7318 102.295 24.726 102.389 24.8044C102.689 25.0572 102.986 25.3215 103.238 25.6149C103.645 26.0884 103.903 25.7805 104.27 25.3941V25.397ZM105.192 22.9103C104.801 23.1282 104.452 23.2735 104.167 23.4914C103.848 23.7383 103.872 24.45 104.155 24.7463C104.488 25.0949 104.849 25.0949 105.277 24.726C105.535 24.5023 105.778 24.2641 106.011 24.0172C106.066 23.9591 106.051 23.8458 106.084 23.6773C105.832 23.4623 105.544 23.2154 105.189 22.9103H105.192Z" fill="white"/>
<path d="M114.105 44.9057C113.769 43.9499 114.133 43.6187 114.797 43.4677C114.846 42.5013 114.344 41.8486 113.292 41.5097C113.189 41.4748 113.059 41.3325 113.059 41.2366C113.059 41.1379 113.192 40.9519 113.271 40.949C114.682 40.9316 116.096 40.9113 117.507 40.9607C117.765 40.9694 118.013 41.2802 118.305 41.4748C117.134 42.9303 115.492 43.6304 114.108 44.9057H114.105ZM116.86 41.8554H115.456C115.474 42.1575 115.489 42.4132 115.504 42.6746C116.19 42.7153 116.311 42.1924 116.863 41.8554H116.86Z" fill="white"/>
<path d="M115.31 70.2C114.628 70.0344 114.136 69.9182 113.645 69.7991C113.905 69.253 113.912 69.3401 114.385 69.3198C115.805 69.2559 117.034 70.1158 118.466 69.9182C118.363 70.7084 118.332 71.394 118.162 72.0476C118.09 72.3294 117.762 72.6112 117.477 72.7681C116.761 73.1631 115.289 72.7361 114.858 72.0621C114.406 71.3504 114.439 71.1442 115.31 70.2ZM116.973 72.3091C117.067 72.1725 117.273 71.9517 117.389 71.6932C117.495 71.455 117.61 71.1354 117.522 70.9263C117.431 70.7084 117.21 70.4557 116.821 70.4963C116.387 70.5428 115.941 70.508 115.538 70.508C115.219 71.6322 115.847 72.0302 116.973 72.3062V72.3091Z" fill="white"/>
<path d="M0 62.0992C0.470303 61.3526 -0.00606842 60.7338 0.0606842 60.0802C0.112266 59.5776 0.282182 59.3075 0.785861 59.1913C1.05591 59.1303 1.30168 58.9531 1.57172 58.9182C2.23621 58.8282 2.89464 58.9879 3.25267 59.5195C3.55003 59.9582 4.1326 60.4985 3.41349 61.097C3.79883 61.4339 4.44512 60.972 4.75461 61.5008C4.82136 61.617 4.92452 61.7535 4.90935 61.8639C4.89722 61.951 4.73033 62.076 4.62414 62.0847C4.27217 62.1137 3.9202 62.0963 3.5652 62.0963H0V62.0992ZM2.80968 61.1318C2.80968 61.0331 2.80968 60.9837 2.80968 60.9372C2.75506 59.903 2.17553 59.4673 1.19548 59.7955C0.88599 59.9001 0.628082 60.1586 0.685732 60.5683C0.776758 61.2015 1.53531 61.6286 2.1907 61.3904C2.36365 61.3265 2.53357 61.2509 2.80968 61.1347V61.1318Z" fill="white"/>
<path d="M23.637 17.6203C24.1265 18.2769 24.1933 18.8085 23.8373 19.2152C22.8451 18.0358 21.862 16.8679 20.8789 15.703C21.2855 15.3254 21.7861 15.3138 21.9318 14.727C22.0622 14.1982 23.5005 14.0443 24.0072 14.4132C24.4775 14.756 24.7809 15.2411 24.8992 15.7786C25.0995 16.682 24.8689 16.9871 23.634 17.6203H23.637ZM24.3136 16.3334C24.0223 15.7234 23.7978 15.0639 23.0453 14.8141C21.9955 15.7553 21.953 15.8977 22.5356 16.4758C23.1485 17.0858 23.5854 17.051 24.3136 16.3334Z" fill="white"/>
<path d="M84.5198 10.5676C83.746 10.3555 83.6277 9.98661 83.6641 9.5218C83.7096 8.91466 83.6641 8.33075 83.1513 7.88338C82.0954 7.84561 82.8236 9.41432 81.6312 9.32717C81.6069 9.17901 81.4947 8.97276 81.5584 8.84784C82.2047 7.56673 82.5233 6.12875 83.4942 4.96094C83.5337 5.22529 84.0009 5.112 83.8431 5.59423C83.6732 6.11713 83.1362 6.60808 83.4699 7.32852C84.5016 7.1426 85.0811 5.78306 86.5223 6.274C85.7426 6.81143 85.0659 7.27623 84.2285 7.85142C84.3104 8.62416 84.4105 9.55957 84.5198 10.5676Z" fill="white"/>
<path d="M1.33134 76.4531C1.31314 75.3492 0.612233 74.6345 0.694157 73.7398C1.2919 73.6497 1.50126 73.9344 1.58925 74.3295C1.63173 74.5154 1.55891 74.7217 1.60442 74.9047C1.69848 75.294 2.3387 75.631 2.65122 75.4131C2.9152 75.2272 3.40067 75.0296 2.9334 74.5125C2.57233 74.1145 2.84541 73.7224 3.30661 73.3854C3.4826 73.856 3.64948 74.3034 3.8285 74.7856C3.85884 74.7972 3.94683 74.8582 4.03179 74.8524C5.20603 74.7943 5.34257 74.6374 4.89957 73.5626C4.79641 73.3128 4.58402 73.1007 4.62953 72.8044C4.64167 72.7201 4.70842 72.6446 4.76 72.5458C5.2394 72.511 5.43663 72.7986 5.53372 73.1907C5.66419 73.7195 5.6824 74.3034 5.94334 74.7624C6.12236 75.0761 6.02223 75.2272 5.83411 75.2794C4.38679 75.6774 2.92734 76.0406 1.33134 76.4502V76.4531Z" fill="white"/>
<path d="M115.137 49.7499C115.282 49.6279 115.44 49.3839 115.577 49.3955C116.472 49.4652 117.291 49.1021 118.162 49.0469C118.729 49.012 119.291 48.9046 119.913 48.8203C119.931 48.8813 119.988 49.0062 120.001 49.137C120.013 49.2735 119.982 49.41 119.967 49.5989H118.775C118.857 49.9649 118.896 50.2583 118.987 50.5343C119.318 51.5452 118.851 52.1727 117.761 52.2511C117.142 52.2947 116.532 52.4371 115.819 52.5503C115.798 52.2773 115.777 52.0158 115.759 51.7863C116.578 51.6295 117.34 51.5278 118.065 51.3186C118.35 51.2373 118.562 50.9991 118.21 50.5953C117.764 50.084 117.312 49.7615 116.73 50.0462C116.083 50.3629 115.613 50.2961 115.137 49.7528V49.7499Z" fill="white"/>
<path d="M21.3287 18.7161C21.086 18.0654 20.7067 17.9027 20.1454 18.1002C19.842 18.2077 19.5294 18.3007 19.223 18.4052C18.78 18.5534 17.9122 18.3733 17.7969 17.9985C17.6664 17.5773 17.6118 17.0544 17.7635 16.6622C17.9061 16.2933 18.3157 15.9563 18.6981 15.7559C19.0531 15.57 19.4718 15.7094 19.7449 16.1568C19.4414 16.2962 19.135 16.4473 18.8225 16.5809C18.4432 16.7436 18.3522 17.1706 18.3916 17.3943C18.4493 17.7313 18.9711 17.9027 19.2351 17.7168C19.6447 17.4263 20.1788 17.6209 20.4518 17.4146C20.8402 17.127 21.0769 17.3391 21.2741 17.4669C22.2268 18.0828 22.3695 18.5795 21.7687 19.4365C21.4046 19.9594 20.8068 20.2209 19.8935 20.3516C19.7145 19.881 19.5173 19.4888 20.3851 19.4423C20.7219 19.4249 21.0344 18.9572 21.3287 18.7161Z" fill="white"/>
<path d="M4.52256 44.0625C3.80042 44.4053 3.76097 44.4634 3.26943 44.9775C3.0449 45.2129 2.76272 45.4104 2.47447 45.5702C1.63703 46.0408 0.744968 45.576 0.684283 44.6783C0.629668 43.894 0.83296 43.22 1.44587 42.6797C1.76446 42.9818 2.1407 43.1968 1.62185 43.7022C1.06659 44.2426 1.13941 44.3384 1.96169 45.0734C2.4775 44.5825 2.99635 44.077 3.52734 43.586C3.97337 43.1764 4.77137 43.2084 5.17795 43.6354C5.67859 44.1612 5.66949 45.2564 5.15368 45.7939C4.95038 46.0059 4.72889 46.2035 4.48918 46.433C4.35568 46.3139 4.21914 46.1948 4.08563 46.0785C4.29196 45.7387 4.45581 45.3697 4.71068 45.0763C5.07782 44.658 4.51346 44.4808 4.52559 44.0596L4.52256 44.0625Z" fill="white"/>
<path d="M96.1814 16.522C96.6395 17.0856 97.0461 17.5882 97.5225 18.1808C97.8016 17.9222 98.1111 17.7654 98.1688 17.5475C98.2264 17.3238 98.0413 17.0391 97.9564 16.7864C97.8411 16.4465 97.653 16.1211 97.6075 15.7725C97.4982 14.9678 97.5771 14.9853 98.366 14.503C98.724 14.2852 98.8606 14.3375 99.2308 14.474C99.8922 14.7151 100.168 15.2612 100.757 15.6505C100.548 15.8916 100.396 16.063 100.238 16.246C100.159 16.2141 100.068 16.2025 100.026 16.1531C99.9104 16.0107 99.8133 15.8539 99.7132 15.7028C99.2065 14.9156 99.0062 14.9097 98.1536 15.6912C98.3599 16.0253 98.5905 16.3622 98.7847 16.7167C99.2702 17.6143 98.8788 18.5468 97.8411 18.7763C97.5043 18.8518 97.0067 18.6921 96.7306 18.4713C96.3392 18.1546 96.0297 17.7102 95.8082 17.2628C95.7354 17.1146 96.0327 16.798 96.1814 16.522Z" fill="white"/>
<path d="M119.7 57.6109C119.384 57.913 119.09 58.25 118.738 58.5143C117.81 59.2144 116.93 58.9733 116.368 57.8985C115.819 56.8498 115.962 55.9202 116.821 55.4467C118.271 54.6449 119.454 55.5135 119.691 56.7423C119.746 57.0212 119.7 57.3175 119.7 57.6109ZM119.048 56.9834C118.987 56.4256 118.316 55.9405 117.707 56.0131C117.248 56.0654 116.675 56.6232 116.672 57.0183C116.669 57.576 117.315 58.0815 117.986 58.0437C118.426 58.0176 119.09 57.3581 119.048 56.9863V56.9834Z" fill="white"/>
<path d="M1.95446 55.3623V57.7357C2.95878 57.3755 3.05284 57.0414 2.53399 55.7748H3.29254C3.64148 56.3732 3.93276 56.9658 3.44122 57.7502C3.02857 58.4096 2.44903 58.5694 1.79061 58.6101C1.03509 58.6566 0.495 58.1511 0.146066 57.6166C-0.0572262 57.3057 0.0155949 56.7654 0.106621 56.3558C0.173374 56.0711 0.431282 55.7486 0.698292 55.6034C1.00475 55.4378 1.4174 55.4523 1.95142 55.3594L1.95446 55.3623ZM1.31424 57.8344C1.28389 57.2302 1.26872 56.8148 1.22928 56.4023C1.22625 56.3645 1.06847 56.3122 0.986542 56.3122C0.901584 56.3122 0.755942 56.3587 0.743806 56.4081C0.619403 56.9223 0.601198 57.4161 1.31424 57.8344Z" fill="white"/>
<path d="M58.5313 5.2145C58.0337 5.38009 57.7273 4.8688 57.2721 5.24065C57.0689 5.40623 56.465 5.31037 56.1677 5.13606C55.8794 4.96757 55.4729 4.7497 55.4971 4.27037C55.5244 3.70099 55.9644 3.46278 56.3862 3.25943C56.7533 3.08222 57.1811 3.02703 57.6575 2.89921C57.3268 2.5506 57.1568 2.07709 56.6228 2.58546C56.5166 2.68714 56.2496 2.67552 56.0645 2.65228C55.9674 2.64066 55.8643 2.49541 55.8157 2.39083C55.7884 2.32982 55.84 2.18167 55.9007 2.14971C56.462 1.86793 57.081 1.6181 57.6939 1.81854C58.2886 2.01318 58.4616 2.61452 58.5162 3.15485C58.5829 3.81719 58.5313 4.48825 58.5313 5.2145ZM57.5786 3.60222C57.1508 3.72423 56.8049 3.8259 56.4044 3.94211C56.4256 4.18903 56.4468 4.44467 56.4681 4.70903C57.168 4.61607 57.5381 4.24713 57.5786 3.60222Z" fill="white"/>
<path d="M4.17254 42.9655C3.99048 42.7912 3.86608 42.6285 3.70223 42.524C2.86479 41.9894 3.04078 41.1818 3.19856 40.4672C3.25924 40.1883 3.46557 39.7758 3.98138 39.6306C4.81276 39.3953 5.67144 39.4243 6.14174 39.9269C6.83657 40.6677 6.92153 41.3736 6.44516 42.1725C6.12657 42.707 5.58345 42.8609 5.01908 42.9597C4.73083 43.0091 4.42741 42.9684 4.17254 42.9684V42.9655ZM4.11489 42.0853C5.86259 42.2451 6.09926 41.7396 5.73212 40.4004C5.17686 40.2581 4.70959 39.77 4.05117 40.4149C3.38364 41.0686 3.95711 41.4985 4.11489 42.0824V42.0853Z" fill="white"/>
<path d="M108.156 28.3626C107.54 27.6218 107.048 27.0263 106.378 26.2187C106.378 26.669 106.378 26.8462 106.378 27.0263C106.369 27.5521 106.32 28.0866 107.088 28.1999C107.167 28.2115 107.2 28.4904 107.258 28.6444C107.124 28.6821 106.984 28.7664 106.86 28.7518C106.681 28.7315 106.457 28.685 106.347 28.5688C106.102 28.2987 105.88 27.9936 105.707 27.677C105.319 26.9595 105.352 26.7125 105.877 26.2071C106.117 25.9776 106.405 25.7945 106.651 25.5709C107.227 25.0451 107.807 25.3239 108.347 25.5883C108.799 25.8091 109.212 26.8433 109.102 27.2935C109.081 27.3807 109.063 27.4824 109.005 27.5405C108.775 27.7787 108.529 28.0053 108.156 28.3626ZM107.252 26.2129C107.534 26.6225 107.77 26.9682 108.107 27.4533C108.232 27.096 108.365 26.9072 108.341 26.7416C108.265 26.2593 107.955 26.0328 107.252 26.2129Z" fill="white"/>
<path d="M25.6844 15.4216C25.3233 15.0788 24.9652 14.7418 24.6133 14.4078V12.9669C24.9713 12.6212 25.3233 12.2813 25.6722 11.9414H27.1772C27.5383 12.2842 27.8933 12.6212 28.2452 12.9523C28.5153 14.5501 27.4017 15.6743 25.6844 15.4216ZM26.2093 14.7738C26.6128 14.8203 27.3016 14.2335 27.338 13.8122C27.3926 13.2051 26.8556 12.5369 26.3033 12.5224C25.8876 12.5108 25.2474 13.0773 25.2201 13.4811C25.1928 13.8965 25.83 14.7302 26.2093 14.7767V14.7738Z" fill="white"/>
<path d="M0.866899 54.5944C0.272193 54.2052 0.114415 53.8333 0.281296 53.354C0.338946 53.1826 0.335912 52.9909 0.390528 52.8195C0.496725 52.4825 0.693949 52.2385 1.10964 52.2414C1.86515 52.2472 2.62371 52.2007 3.37316 52.2646C3.64927 52.2879 4.18329 52.285 3.80098 52.956C3.54914 53.3976 3.75243 54.0774 3.75243 54.6758C3.53397 54.7804 3.33675 54.8908 3.13042 54.9721C2.39614 55.2597 1.65883 54.8414 1.60118 54.0861C1.57084 53.7055 1.59511 53.3221 1.59511 52.8805C0.587752 53.1565 1.19763 53.9815 0.863865 54.5915L0.866899 54.5944ZM2.25353 53.0461V54.2865C2.57819 54.2633 2.84824 54.2429 3.0576 54.2255C3.23055 53.5748 2.98478 53.2465 2.25353 53.0461Z" fill="white"/>
<path d="M91.7482 12.7635C90.9168 12.5224 90.4344 11.7032 89.3724 11.6567C89.5757 12.4817 89.9459 12.9872 90.7955 13.1092C90.9745 13.1354 91.1323 13.2864 91.2445 13.6089C90.7773 13.6379 90.313 13.667 89.9004 13.6931C88.3681 12.6299 88.3802 11.2355 89.8549 10.2245C90.6529 10.1083 91.5813 10.1287 92.0122 10.8753C92.3338 11.433 92.3945 12.258 91.7452 12.7606L91.7482 12.7635ZM91.5328 11.5085C91.2779 11.0399 90.8764 10.8443 90.3282 10.9217C90.5831 11.3904 90.9846 11.586 91.5328 11.5085Z" fill="white"/>
<path d="M9.28898 34.5566H7.82953C7.46542 34.2051 7.11042 33.8652 6.74935 33.5166C6.74935 32.8514 6.63405 32.1338 7.32888 31.6574C8.06316 31.1548 8.76406 31.3524 9.44676 31.7736C8.67304 33.0663 8.61539 33.2348 8.70641 34.0192C9.44676 33.7665 9.86548 33.3568 9.79873 32.5609C9.78963 32.4476 10.0475 32.311 10.3267 32.0525V33.598C10.0324 33.871 9.67129 34.2051 9.29202 34.5537L9.28898 34.5566ZM8.25735 32.16C7.92055 32.3401 7.57162 32.5289 6.99512 32.8398C7.46845 33.0518 7.69905 33.1564 7.85683 33.2261C7.93876 32.9356 8.46671 32.5841 8.25735 32.16Z" fill="white"/>
<path d="M4.00379 64.5801C3.53349 64.8967 3.83691 65.6201 3.25434 65.8786C2.82955 66.0645 2.38959 66.4422 1.99514 66.4015C1.52787 66.3521 1.02116 66.0152 0.678295 65.6695C0.393079 65.379 0.17765 64.8938 0.183719 64.4987C0.195856 63.6272 1.22749 62.6686 2.03762 62.6918C2.58681 62.7063 2.97823 63.0695 3.40605 63.3745C3.85815 63.697 3.53956 64.3041 4.00379 64.583V64.5801ZM1.97694 65.5794C2.68998 65.7217 3.20276 65.286 3.12083 64.6818C3.05105 64.1559 2.53523 63.5488 2.04672 63.5488C1.55518 63.5488 0.999922 64.1472 0.987785 64.6876C0.975648 65.347 1.21535 65.5649 1.9739 65.5794H1.97694Z" fill="white"/>
<path d="M69.5864 5.87034C68.8612 5.82096 68.3697 5.97492 67.9783 5.4985C67.6111 5.05113 67.2895 4.627 67.3138 4.03438C67.3381 3.43885 68.5153 2.41629 69.2284 2.37271C70.0173 2.32333 71.2795 3.41561 71.2219 4.21449C71.1915 4.62409 70.8729 5.02789 70.6423 5.41135C70.348 5.89649 69.8474 5.9052 69.5894 5.87034H69.5864ZM68.221 4.29873C68.2301 5.0337 68.4577 5.27482 69.1282 5.27191C69.7685 5.27191 70.3298 4.7432 70.3389 4.13024C70.351 3.43013 70.081 3.22097 69.192 3.24131C68.3636 3.25874 68.2089 3.43013 68.218 4.29873H68.221Z" fill="white"/>
<path d="M64.1585 5.27094H62.5989C62.2773 4.76547 61.4186 4.56793 61.5582 3.71676C61.6249 3.31587 61.4277 2.90336 61.8313 2.5199C62.7172 1.67744 63.8551 1.52929 64.6258 2.27588C65.002 2.639 65.1537 3.09799 65.2144 3.63252C65.3115 4.48659 64.5469 4.73352 64.1585 5.27094ZM62.6384 2.66224C62.4563 2.94693 62.1984 3.17352 62.1923 3.40593C62.1863 3.69643 62.3562 4.00436 62.5018 4.28033C62.7506 4.74804 63.2331 4.74514 63.673 4.67832C64.1191 4.61151 64.2799 4.30357 64.292 3.86201C64.3163 2.88883 64.1585 2.69129 63.1572 2.66224C62.963 2.65643 62.7658 2.66224 62.6353 2.66224H62.6384Z" fill="white"/>
<path d="M108.465 32.5666C109.724 31.9187 110.076 30.504 111.338 29.8242C111.569 30.2222 111.654 30.5272 111.314 30.8468C110.886 31.2506 110.464 31.6602 109.988 32.1163C110.932 32.584 111.836 31.4801 112.84 32.1628C112.612 32.3893 112.421 32.7583 112.182 32.7931C111.08 32.95 109.964 32.9907 108.856 33.1156C107.931 33.2202 107.245 33.0226 107.051 32.0349C107.755 31.573 108.019 32.4155 108.465 32.5666Z" fill="white"/>
<path d="M117.345 65.5822C118.341 65.5909 119.142 66.4188 119.096 67.3862C119.048 68.3768 118.265 69.0711 117.212 69.0624C116.147 69.0508 115.449 68.3332 115.461 67.2584C115.473 66.2387 116.223 65.5706 117.345 65.5822ZM118.556 67.238C117.649 66.3985 117.624 66.3869 116.857 66.4508C116.344 66.4944 116.095 66.7442 116.068 67.2409C116.035 67.8452 116.265 68.1183 117.048 68.4029C117.321 68.5017 117.955 68.2403 118.186 67.9149C118.313 67.7319 118.404 67.5256 118.559 67.238H118.556Z" fill="white"/>
<path d="M117.585 74.1783C116.717 74.3032 115.964 74.4107 114.969 74.556C115.749 75.0556 116.338 75.381 116.85 75.7935C117.005 75.9184 116.95 76.2844 117.023 76.7347C116.426 76.4297 115.986 76.2728 115.634 76.0114C114.899 75.4681 114.186 74.89 113.507 74.2829C112.612 73.4869 112.63 73.4695 113.146 72.293C113.68 72.4702 113.607 72.8972 113.664 73.3126C113.716 73.6845 113.795 74.0941 114.462 73.7368C114.848 73.5305 115.452 73.7164 115.952 73.6932C116.289 73.6787 116.632 73.6467 116.953 73.5625C117.533 73.4143 117.527 73.3969 117.582 74.1754L117.585 74.1783Z" fill="white"/>
<path d="M45.5268 6.96168C44.8744 7.04883 44.1796 6.98783 43.6395 7.47877C43.1631 7.91162 42.9629 7.03721 42.5077 7.18246C42.5866 6.87744 42.1163 6.70604 42.4319 6.24414C42.8112 5.69219 43.0691 5.21577 43.8428 5.25354C43.8853 5.25354 43.9702 5.02404 43.9824 4.89331C43.9884 4.8294 43.8762 4.69868 43.8185 4.69868C43.3846 4.69287 42.9295 4.59991 42.5684 4.96884C42.529 5.00661 42.2559 4.92236 42.2043 4.83521C42.1527 4.74806 42.2043 4.55052 42.2832 4.45756C42.6746 3.99276 43.33 3.8998 43.8216 3.87947C44.3131 3.85913 44.7379 4.39656 44.9048 4.9427C45.102 5.58471 45.3023 6.22962 45.5268 6.95878V6.96168ZM44.213 5.58471C43.8974 5.75901 43.5697 5.89264 43.3057 6.1018C43.1692 6.20928 43.1389 6.44459 43.0387 6.67699C44.2221 6.62761 44.2403 6.60727 44.2099 5.58761L44.213 5.58471Z" fill="white"/>
<path d="M14.9961 25.5696C13.6884 25.5812 13.127 25.0903 13.1058 23.9195C13.0876 22.9028 13.8067 22.1155 14.8353 22.0981C15.8973 22.0778 16.6194 22.7604 16.7287 23.754C16.8349 24.7184 15.9883 25.5609 14.9961 25.5696ZM14.0828 22.9609C14.0403 23.1584 14.0616 23.3356 13.9797 23.4141C13.5882 23.7888 13.5913 24.1113 13.9584 24.518C14.3256 24.9218 14.7443 25.1077 15.2631 24.9741C15.4755 24.9189 15.7395 24.7329 15.8154 24.547C16.1825 23.6465 15.697 23.0016 14.6654 22.9609C14.5137 22.9551 14.365 22.9609 14.0828 22.9609Z" fill="white"/>
<path d="M11.1429 25.8427C11.9166 26.8973 12.6569 27.8501 13.3275 28.8465C13.637 29.3055 13.8251 29.8517 13.7037 30.4269C13.6218 30.819 13.4124 31.1066 12.7995 31.0572C12.8299 30.7813 12.7601 30.4298 12.9088 30.2845C13.3002 29.904 13.0726 29.6628 12.7753 29.4769C12.4688 29.2852 12.1108 29.1283 11.7527 29.0586C10.9092 28.8988 10.0536 28.8001 9.20703 28.6751C9.33143 28.4224 9.44673 28.1871 9.58024 27.9169C9.95952 28.0012 10.36 28.0941 10.7605 28.1755C11.1095 28.2452 11.4645 28.3033 11.9318 28.3875C11.7042 27.7659 11.3006 27.2836 10.9062 26.7956C10.6179 26.4412 10.621 26.4412 11.1459 25.8398L11.1429 25.8427Z" fill="white"/>
<path d="M4.29292 70.9911C4.14424 70.7152 4.01681 70.474 3.87723 70.2184C3.1824 70.2184 2.47543 70.1893 1.77452 70.2271C1.24961 70.2562 1.25264 70.2939 0.949219 69.742C2.13863 69.4166 3.31894 69.1639 4.71164 69.0273C4.43249 69.5735 4.4507 69.9831 4.67523 70.4276C5.20925 71.485 4.7966 72.1328 3.61629 72.2548C2.96697 72.3216 2.32675 72.4669 1.61371 72.5889C1.5591 71.9033 1.86555 71.6564 2.37833 71.6767C3.09744 71.7029 3.70428 71.5053 4.28988 70.9882L4.29292 70.9911Z" fill="white"/>
<path d="M94.705 14.8413C94.1952 14.4752 93.6673 14.0976 93.0513 13.6589C92.8905 13.7809 92.4718 13.9785 92.493 14.1092C92.5385 14.3736 92.8055 14.6147 93.0119 14.8384C93.0968 14.9313 93.288 14.9313 93.376 15.0214C93.5611 15.2131 94.2256 15.065 93.8888 15.5937C93.8129 15.7099 93.3456 15.6837 93.1059 15.6024C91.9347 15.2044 91.7557 14.2864 91.8558 13.2435C92.1987 12.9123 92.5537 12.5696 92.8935 12.2413C93.7492 12.218 94.7626 12.0321 95.1115 12.9646C95.3088 13.4933 95.4817 14.298 94.705 14.8413ZM94.4774 13.9146C94.5108 13.0315 94.3803 12.831 93.7279 12.8223C93.6035 12.8223 93.4791 12.9153 93.3547 12.9646C93.4306 13.107 93.467 13.2987 93.5884 13.3859C93.8645 13.5892 94.177 13.7432 94.4774 13.9175V13.9146Z" fill="white"/>
<path d="M3.96835 51.6568C3.00954 51.558 2.09928 51.4999 1.20722 51.3459C1.00393 51.3111 0.861322 50.9509 0.691406 50.7417C1.2315 50.3408 0.724783 49.9428 0.700509 49.5419C0.651962 48.6908 1.3741 48.2172 2.31471 48.4293C2.50283 48.4729 2.70612 48.4467 2.89728 48.4758C3.45557 48.5542 4.01083 48.6414 4.65712 48.7401C4.15648 49.6146 3.47985 49.3444 2.85783 49.2398C2.48766 49.1788 2.12355 49.0713 1.75035 48.9842C1.51064 50.5558 1.75641 50.7533 3.96532 50.8376V51.6539L3.96835 51.6568Z" fill="white"/>
<path d="M78.9371 4.87702C78.2604 5.6759 77.6597 6.39924 77.0437 7.11097C76.8526 7.33175 76.4945 7.49443 76.4338 7.73264C76.3276 8.15968 76.1183 8.42985 75.6935 8.45018C75.2201 8.47342 74.671 8.63029 74.3008 8.00862C74.5739 8.04929 74.4343 7.31723 74.9683 7.79655C75.0502 7.86918 75.3324 7.8227 75.4659 7.74426C75.7147 7.59901 75.9211 7.38985 76.1456 7.20974C76.003 7.07321 75.8725 7.00639 75.8695 6.93667C75.8573 5.93735 75.8604 4.93802 75.8604 3.96484C76.2042 4.19724 76.5259 4.96514 76.8252 6.26852C77.1438 5.81243 77.3805 5.45221 77.6384 5.10651C77.9267 4.72015 78.2908 4.54294 78.9401 4.87992L78.9371 4.87702Z" fill="white"/>
<path d="M46.0398 3.22391C46.1946 3.49698 46.41 3.70033 46.3979 3.89206C46.3645 4.42077 46.5374 4.88557 46.7134 5.3649C46.9198 5.92847 47.3506 6.07953 47.6874 5.61764C47.8998 5.32423 48.364 5.06278 47.9666 4.49049C47.7177 4.13027 47.8361 3.53765 47.7875 3.00894C48.0667 2.97408 48.452 2.68067 48.5673 3.45631C48.6978 4.33072 49.1833 5.14993 49.1347 6.12311C48.6644 6.13182 48.3276 5.89071 47.8695 6.27998C46.9804 7.03238 46.0216 6.58791 45.8214 5.43462C45.7637 5.11216 45.6939 4.83328 45.5544 4.52535C45.3784 4.13899 45.3875 3.5696 46.0398 3.22391Z" fill="white"/>
<path d="M86.9555 11.982C87.4379 11.0843 87.8202 10.3668 88.2632 9.53887C88.0235 9.37909 87.7899 9.11473 87.5138 9.06244C87.0192 8.96948 86.6339 9.25417 86.3911 9.66088C86.115 10.1228 85.8723 10.6021 85.6144 11.0756C84.9074 10.7386 84.8922 10.7299 85.1774 10.2012C85.5658 9.48658 85.9694 8.77775 86.3972 8.08636C86.4639 7.97597 86.7037 7.96435 86.8614 7.90625C86.9251 8.6296 87.5472 8.33038 87.9386 8.49306C88.3694 8.67317 88.6971 9.08568 89.1007 9.42557C88.4028 10.2506 88.7821 11.828 86.9525 11.982H86.9555Z" fill="white"/>
<path d="M99.2039 19.9754C99.7106 20.1352 100.053 20.3153 100.402 20.3269C100.648 20.3356 100.936 20.1526 101.143 19.9812C101.549 19.6471 101.91 19.2637 102.287 18.9005C102.432 19.04 102.538 19.1417 102.687 19.284C102.366 20.2368 101.489 20.7859 100.788 21.454C100.679 21.5586 100.047 21.3669 100.05 21.3349C100.087 20.7685 99.4284 20.9921 99.2433 20.6552C99.0856 20.3705 98.7639 20.1671 98.4727 19.8882C98.7518 18.8395 99.6894 18.2527 100.418 17.5207C100.484 17.4538 100.682 17.5003 100.818 17.4974C100.818 17.663 100.888 17.8751 100.806 17.9826C100.357 18.581 99.8714 19.1562 99.2039 19.9783V19.9754Z" fill="white"/>
<path d="M39.1255 4.15186C39.2226 5.14247 38.3032 4.8171 37.8936 5.1599C38.3821 6.32771 38.8676 7.481 39.3743 8.68949C39.2408 8.78826 39.0223 8.95094 38.7007 9.18915C38.1606 7.93418 37.666 6.79251 37.1198 5.52302C36.8104 5.61598 36.4281 5.76414 36.0306 5.83967C35.8758 5.86872 35.6877 5.7438 35.5117 5.68861C35.5967 5.54917 35.6483 5.35744 35.7757 5.28191C36.6071 4.78224 37.6296 4.68347 38.4488 4.12862C38.5975 4.02694 38.904 4.13733 39.1255 4.14895V4.15186Z" fill="white"/>
<path d="M118.86 61.7873C118.815 61.0727 118.787 60.6166 118.745 59.9746C118.162 60.666 117.674 61.247 117.185 61.828C117.107 61.7728 117.073 61.7437 117.034 61.7234C115.911 61.0843 115.775 60.6398 116.375 59.5156C116.445 59.3849 116.612 59.3035 116.733 59.2018C116.812 59.3471 116.931 59.4836 116.961 59.6347C116.985 59.7538 116.949 59.9397 116.864 60.0152C116.348 60.4771 116.903 60.6544 117.146 60.9739C117.392 60.6224 117.647 60.2999 117.85 59.9513C118.408 58.9927 118.927 58.9026 119.497 59.7683C119.707 60.0879 119.731 60.5846 119.667 60.9739C119.628 61.2121 119.261 61.4009 118.86 61.7873Z" fill="white"/>
<path d="M34.31 10.4518C34.2949 10.1555 34.2827 9.89694 34.2645 9.5251C33.6 9.80979 33.0721 10.1932 32.4925 9.5251C32.1436 9.1242 32.0465 8.64778 32.2225 8.35728C32.5623 7.79371 33.1995 7.53516 33.9672 7.60488V8.35438C33.8094 8.69136 32.9082 8.09293 33.1601 9.03996C33.5272 9.03996 33.9217 9.08063 34.304 9.02834C34.7227 8.97314 35.0716 9.15907 35.1536 9.45538C35.2446 9.77783 35.1839 10.2136 35.0109 10.507C34.6984 11.0444 33.7912 11.2478 33.1874 11.0037C33.1297 10.9805 33.0964 10.8411 33.1024 10.7597C33.1085 10.6784 33.1661 10.536 33.2177 10.5302C33.5545 10.4896 33.8944 10.4779 34.3131 10.4518H34.31Z" fill="white"/>
<path d="M117.139 64.9953C116.559 64.9313 116.289 65.1696 116.007 64.6031C115.679 63.9407 115.773 63.4788 116.071 62.9472C116.389 62.3778 116.823 61.974 117.588 62.0961C117.831 62.1367 118.088 62.1019 118.331 62.1019C118.692 62.4447 119.047 62.7816 119.399 63.1157C119.399 63.505 119.451 63.8972 119.381 64.269C119.336 64.5159 119.138 64.7512 118.965 64.9575C118.917 65.0127 118.698 64.9662 118.577 64.9197C118.522 64.8994 118.492 64.757 118.501 64.6757C118.51 64.5944 118.58 64.5159 118.626 64.4404C118.889 63.9988 118.974 63.5689 118.55 63.168C118.128 62.7671 117.603 63.0169 117.13 62.9937C116.996 62.9879 116.735 63.2348 116.726 63.3801C116.69 63.8739 116.468 64.4172 117.142 64.9953H117.139Z" fill="white"/>
<path d="M5.74176 39.1843C4.79509 38.5917 4.3885 37.8364 4.66158 36.8254C5.02569 36.4972 5.408 36.1544 5.77817 35.8203C5.93899 36.1428 5.89954 36.4914 5.5142 36.7441C5.08637 37.023 5.21381 37.4355 5.25629 37.7899C5.27753 37.9816 5.50509 38.2373 5.70232 38.3099C6.5519 38.6266 7.20425 38.2111 7.36203 37.3425C7.40754 37.0869 7.57139 36.8487 7.68062 36.6018C8.89431 37.1043 8.07204 37.9003 7.90212 38.3651C7.55319 39.315 6.54279 39.225 5.74176 39.1843Z" fill="white"/>
<path d="M59.5632 0.952124H60.2398C60.4704 1.26877 60.1306 1.91368 60.874 1.86139C60.8588 2.02407 60.8406 2.332 60.8254 2.332C60.4431 2.332 60.3126 2.49468 60.343 2.85781C60.3764 3.23837 60.3642 3.62473 60.343 4.0082C60.3278 4.32484 60.5281 4.32484 60.7587 4.43814C60.9225 4.51948 60.8891 4.96104 60.9771 5.3997C60.4492 5.16439 60.0851 5.054 59.7908 4.85355C59.6208 4.73735 59.4873 4.48752 59.454 4.28127C59.3387 3.55501 59.5996 2.81133 59.1809 2.07636C59.0474 1.84396 59.4176 1.3443 59.5632 0.949219V0.952124Z" fill="white"/>
<path d="M9.22662 29.7956C9.74547 30.1065 10.2977 30.4376 10.8439 30.763C11.0775 30.5597 11.3233 30.3447 11.5963 30.1036C11.9726 30.9344 11.8421 31.3004 11.2019 31.3643C10.5071 31.4341 9.84559 31.3324 9.35102 30.8095C9.12042 30.5684 8.94443 30.4318 8.69866 30.7833C8.66832 30.8269 8.43165 30.8124 8.42255 30.7833C8.34973 30.5713 8.36793 30.3127 8.24657 30.1384C8.1343 29.9816 7.80661 29.9554 7.71254 29.7956C7.60938 29.6184 7.664 29.357 7.65489 29.2001C8.1343 28.7237 8.43469 29.7143 8.85948 29.2088C9.0476 28.9851 9.32978 28.9503 9.44811 29.2059C9.51183 29.3454 9.30854 29.601 9.22965 29.7956H9.22662Z" fill="white"/>
<path d="M119.531 47.0892C118.93 47.3797 118.384 47.5278 118.478 48.2047C118.49 48.2831 118.326 48.4487 118.232 48.4574C118.126 48.469 117.968 48.3761 117.892 48.286C117.719 48.074 117.583 47.8328 117.431 47.6063C117.394 47.6411 117.358 47.6731 117.325 47.7079C116.879 48.1553 115.659 47.522 115.75 48.745C115.756 48.8409 115.522 48.9513 115.401 49.0559C115.322 48.96 115.189 48.8699 115.173 48.7654C115.14 48.53 115.173 48.286 115.158 48.0449C115.131 47.6411 115.392 47.4261 115.726 47.3245C116.172 47.1879 116.639 47.0979 117.106 47.034C117.364 46.9991 117.598 47.034 117.601 46.6796C117.601 46.6011 117.816 46.4384 117.877 46.4588C118.399 46.636 118.912 46.8481 119.534 47.0892H119.531Z" fill="white"/>
<path d="M29.5737 9.9454C29.601 9.5416 29.7223 9.24239 29.6161 9.0797C29.34 8.65557 29.8528 8.67591 29.9226 8.46094C30.0713 8.53937 30.3262 8.60038 30.3474 8.70496C30.4384 9.14071 30.6629 9.15523 30.9451 8.91121C31.291 8.612 31.3001 9.05937 31.5975 9.10585C31.3578 9.37602 31.1606 9.60261 30.9482 9.84082C31.1879 10.233 31.3942 10.6426 31.6733 10.9999C31.8615 11.241 32.086 11.5925 32.5169 11.2207C32.5715 11.1742 32.8567 11.3659 33.0357 11.4502C32.9325 11.5867 32.8445 11.822 32.7232 11.8424C32.2923 11.9092 31.8311 11.976 31.4185 11.8889C31.2303 11.8511 31.115 11.4618 30.9785 11.2265C30.6296 10.6223 30.1896 10.1168 29.5797 9.9454H29.5737Z" fill="white"/>
<path d="M15.2696 21.5451C15.1391 20.8653 14.9995 20.2872 14.9358 19.7062C14.9145 19.5116 15.0511 19.2618 15.1937 19.102C15.2938 18.9887 15.5244 18.9771 15.6943 18.9219C15.7125 19.0875 15.8127 19.3344 15.7368 19.4012C15.2362 19.8428 15.6913 20.0519 15.9401 20.3192C16.2799 20.2814 16.0463 19.5435 16.5378 19.7934C17.1568 20.1071 16.3073 20.386 16.4772 20.8334C16.9566 21.2924 17.53 21.8211 18.0732 22.3788C18.1763 22.4863 18.2552 22.7652 18.1885 22.8524C17.9821 23.1138 17.7667 22.9569 17.5816 22.7652C17.4117 22.588 17.2114 22.4369 17.0537 22.251C16.5955 21.7194 16.0797 21.3127 15.2696 21.5509V21.5451Z" fill="white"/>
<path d="M4.56337 67.7289C4.12644 68.0542 3.84123 68.4435 3.59242 68.4232C2.61844 68.3389 1.71728 68.8647 0.597656 68.7398C0.764538 68.4087 0.964796 68.185 0.96783 67.9584C0.96783 67.7115 0.749367 67.4674 0.703854 67.2118C0.67958 67.0665 0.816119 66.8981 0.882872 66.7383C1.01941 66.8283 1.24698 66.8951 1.27732 67.0113C1.426 67.5343 1.7992 67.6127 2.28468 67.6156C2.96434 67.6214 3.65614 67.5343 4.56034 67.7289H4.56337Z" fill="white"/>
<path d="M67.2276 5.46461C66.0109 5.50528 65.7833 5.38617 65.8106 4.72092C65.841 3.93948 65.6286 3.15222 66.0655 2.37077C66.2688 2.00474 66.1019 1.44698 66.1019 0.953125H67.0486C66.9242 1.32497 66.7634 1.6358 66.7209 1.96407C66.6663 2.39111 66.7118 2.82686 66.7057 3.2597C66.7027 3.62864 66.7785 4.0121 66.4205 4.31132C66.3811 4.34327 66.5449 4.62796 66.6481 4.77321C66.7755 4.95914 66.9393 5.12182 67.2306 5.46461H67.2276Z" fill="white"/>
<path d="M115.762 53.9822C115.762 53.3548 116.038 53.1572 116.563 53.102C117.273 53.0294 118.019 53.3402 118.708 52.8435C118.951 52.6692 119.466 53.1863 119.372 53.5465C119.324 53.7266 119.03 53.7963 119.303 54.081C119.427 54.2117 119.372 54.7405 119.242 54.8102C118.838 55.0193 118.863 54.6126 118.732 54.3802C118.565 54.081 118.268 53.9445 117.864 53.9706C117.179 54.0142 116.49 53.9822 115.762 53.9822Z" fill="white"/>
<path d="M29.4849 9.91058C29.3726 10.5003 29.2391 11.0842 29.1603 11.671C29.0662 12.3653 29.9704 12.5716 29.9127 13.3763C29.8642 13.4169 29.6639 13.5854 29.4576 13.7539C28.8568 12.8969 28.3258 12.1097 27.7615 11.3427C27.5734 11.09 27.7281 10.9593 27.804 10.7356C27.9921 10.1633 28.4442 11.0145 28.5291 10.5933C28.605 10.2127 28.7931 10.0064 29.1542 9.91348C29.2482 9.89024 29.3544 9.91058 29.4819 9.91058H29.4849Z" fill="white"/>
<path d="M41.6985 4.87742C41.3253 5.30736 40.9915 5.69082 40.6668 6.06266C40.9005 6.71048 41.128 7.34377 41.3981 8.09326C41.0097 8.13103 40.7427 8.15717 40.4514 8.18622C40.1965 7.31763 39.9599 6.49551 39.7202 5.6792C39.5533 5.10982 39.6989 4.94133 40.327 5.12725C40.5697 5.19987 40.5576 5.23183 40.682 5.00233C40.855 4.68569 40.9156 4.71474 41.6985 4.87451V4.87742Z" fill="white"/>
<path d="M107.238 30.0592C107.314 29.9052 107.357 29.7251 107.472 29.606C107.96 29.0918 108.579 28.7578 109.232 28.4643C109.966 28.1361 109.954 28.1157 110.315 28.842C110.354 28.9204 110.424 28.9843 110.485 29.0512C110.738 29.3165 110.731 29.6118 110.464 29.9372C110.027 29.3126 109.499 29.147 108.81 29.6205C108.403 29.8994 107.909 30.0534 107.451 30.2625C107.381 30.1957 107.308 30.1289 107.238 30.0592Z" fill="white"/>
<path d="M114.082 45.1814C115.041 44.8938 115.83 44.612 116.643 44.4319C117.059 44.3389 117.835 44.3593 117.756 44.7863C117.681 45.2133 118.075 45.4864 117.884 45.8408C117.823 45.9512 117.759 46.1197 117.668 46.1371C117.553 46.1604 117.374 46.0906 117.286 46.0035C116.667 45.3905 116.676 45.4022 115.924 45.5561C115.636 45.6142 115.223 45.4515 115.041 45.5939C114.291 46.1807 114.458 45.3847 114.082 45.1785V45.1814Z" fill="white"/>
<path d="M101.542 22.8036C101.263 22.5509 101.12 22.4202 100.941 22.2575C102.003 21.7375 102.619 20.7585 103.572 20.0352C103.763 20.6946 104.44 20.9125 104.922 21.4325C104.619 21.569 104.212 21.8421 104.136 21.7753C103.399 21.1274 102.892 21.7346 102.358 22.0425C102.076 22.2081 101.867 22.4928 101.542 22.8036Z" fill="white"/>
<path d="M5.85066 34.2969C6.9187 34.7326 7.88965 35.1277 8.82419 35.5083V36.22C8.69372 36.2519 8.57842 36.3188 8.5147 36.2897C7.72884 35.915 6.97939 35.4502 6.16319 35.1626C5.60489 34.9679 5.91135 34.6571 5.85066 34.2969Z" fill="white"/>
<path d="M78.6134 7.25C78.8319 7.45916 78.9745 7.5957 79.1414 7.75547C78.7864 8.08083 78.4435 8.42072 78.0703 8.72284C78.0035 8.77804 77.7638 8.73446 77.688 8.65893C77.6152 8.58631 77.5909 8.36552 77.6516 8.2929C77.952 7.92977 78.2888 7.5957 78.6134 7.25Z" fill="white"/>
<path d="M4.77527 33.5742C4.96339 33.9257 5.09689 34.1727 5.22736 34.4167C5.09993 34.4632 4.93608 34.5852 4.85416 34.5474C4.4415 34.3557 4.60232 34.039 4.77223 33.5742H4.77527Z" fill="white"/>
<path d="M85.4847 33.181C86.0763 32.9834 86.398 32.998 86.9987 33.2246C86.9987 37.5908 87.0169 41.9774 86.9927 46.361C86.9805 48.4526 87.5206 50.5123 87.3022 52.6097C87.7421 53.5509 87.3355 54.6345 87.6663 55.5089C88.0941 56.6448 87.5419 57.8474 88.1851 58.9223C88.3156 59.1402 88.3702 59.6282 87.9909 59.8257C87.6663 59.9942 87.2748 60.0494 86.9593 60.1395C86.4131 59.6021 86.401 59.021 86.3767 58.411C86.3524 57.8213 86.1674 57.2374 86.0976 56.6477C86.0278 56.055 86.2462 55.4217 85.7941 54.8814C85.7456 54.8233 85.785 54.6926 85.7881 54.5967C85.8821 52.2175 85.2571 49.8645 85.4847 47.4794C85.606 46.2012 85.0386 44.9869 85.157 43.6884C85.2723 42.3957 85.1812 41.0855 85.1812 39.7812C85.1812 39.0578 85.157 38.3316 85.1873 37.6111C85.2207 36.8732 85.1388 36.1528 85.4331 35.3975C85.6788 34.7613 85.4847 33.9682 85.4847 33.181Z" fill="white"/>
<path d="M92.5412 58.4784C92.1073 58.5627 91.8858 59.0013 91.4793 58.7108C91.3063 58.5888 91.0454 58.522 90.9513 58.3622C90.7935 58.0979 90.6266 57.7667 90.654 57.4791C90.7298 56.6076 90.0714 55.9424 90.0228 55.1144C89.9773 54.3417 89.5343 53.6154 89.4736 52.8892C89.3614 51.5471 88.888 50.2805 88.7606 48.9413C88.6848 48.1685 88.7606 47.2883 88.4541 46.6202C88.0779 45.7951 88.4724 44.9905 88.1871 44.2642C87.7533 43.1487 88.1447 41.9867 87.8746 40.9089C87.3982 39.0149 87.6986 37.1208 87.6197 35.2325C87.5682 34.0182 87.6197 34.0182 88.9669 33.9805C89.3887 34.5382 89.4615 35.1599 89.4342 35.8281C89.3978 36.7925 89.4949 37.7628 89.4099 38.7214C89.237 40.6794 89.8408 42.588 89.7285 44.5373C90.123 45.2316 89.8317 46.0566 90.0835 46.7131C90.3566 47.4249 90.1715 48.1192 90.3566 48.7757C90.6297 49.7489 90.8603 50.7133 90.9665 51.7243C91.0636 52.6655 91.5946 53.5428 91.546 54.5247C92.0891 54.9576 91.7857 55.6373 92.0982 56.1951C92.4623 56.8458 92.4168 57.7086 92.5473 58.4755L92.5412 58.4784Z" fill="white"/>
<path d="M54.5337 32.2739C54.7157 32.7852 54.6975 33.1309 54.4609 33.7031C52.9316 33.5259 51.3356 34.0227 49.7852 33.3284V32.3494C51.3114 31.443 52.8892 32.21 54.5307 32.2739H54.5337Z" fill="white"/>
<path d="M51.0247 27.3796C52.5418 27.1211 54.0316 27.4116 55.5244 27.6033C56.0068 27.6643 56.3042 28.3354 55.9977 28.6927C55.7337 29.0006 55.4667 29.5061 54.9054 29.0471C53.9102 29.2592 52.9969 28.7508 52.0229 28.7508C51.1066 28.7508 50.9943 28.6113 50.9609 27.6498C50.9609 27.5626 51.0034 27.4755 51.0277 27.3796H51.0247Z" fill="white"/>
<path d="M53.243 31.3681C52.706 31.3942 52.0476 31.3681 51.3952 31.0921C50.8035 30.8423 50.579 30.6709 50.6549 30.2409C50.7489 29.6977 51.1525 29.6599 51.6349 29.6135C52.6271 29.5205 53.5647 29.779 54.5235 29.9185C54.751 29.9533 55.2608 30.6041 55.1849 30.8219C55.0757 31.1415 54.8633 31.3913 54.4416 31.371C54.0896 31.3536 53.7376 31.3681 53.243 31.3681Z" fill="white"/>
</g>
<defs>
<clipPath id="clip0_13115_15075">
<rect width="120" height="116" fill="white" transform="translate(0 0.953125)"/>
</clipPath>
</defs>
</svg>
