<svg width="121" height="120" viewBox="0 0 121 120" fill="none" xmlns="http://www.w3.org/2000/svg">
<path fill-rule="evenodd" clip-rule="evenodd" d="M60.1491 69.1321C60.2517 69.1305 60.3761 69.1289 60.5012 69.1289C60.6264 69.1289 60.7508 69.1305 60.8533 69.1321C60.882 69.1326 60.9085 69.133 60.9326 69.1334C60.9976 69.1345 61.0453 69.1353 61.073 69.1353C65.5599 69.1353 69.6232 70.7809 72.5623 73.4409C74.1946 72.9428 75.9427 72.672 77.7602 72.672C82.7091 72.672 87.1429 74.6732 90.121 77.8304C90.6981 77.7742 91.2844 77.7447 91.8784 77.7447C95.2312 77.7447 98.3481 78.6634 100.936 80.2381L100.488 80.868C98.0303 79.3724 95.0684 78.4987 91.8784 78.4987C91.2428 78.4987 90.6162 78.5342 90.0004 78.6015L89.7835 78.6252L89.6421 78.4712C86.8147 75.3902 82.5432 73.4259 77.7602 73.4259C75.9449 73.4259 74.2041 73.7097 72.5876 74.2289L72.3452 74.3068L72.1646 74.1381C69.3613 71.5194 65.4295 69.8892 61.073 69.8892C61.0375 69.8892 60.9782 69.8882 60.9094 69.8871C60.887 69.8867 60.8635 69.8863 60.8396 69.886C60.7384 69.8844 60.6194 69.8828 60.5012 69.8828C60.383 69.8828 60.2641 69.8844 60.1628 69.886C60.1389 69.8863 60.1155 69.8867 60.0931 69.8871C60.0243 69.8882 59.965 69.8892 59.9294 69.8892C55.5729 69.8892 51.6411 71.5194 48.8378 74.1381L48.6572 74.3068L48.4148 74.2289C46.7983 73.7097 45.0576 73.4259 43.2423 73.4259C38.4593 73.4259 34.1878 75.3902 31.3604 78.4712L31.2189 78.6253L31.002 78.6015C30.3862 78.5341 29.7597 78.4987 29.1241 78.4987C25.934 78.4987 22.9721 79.3724 20.514 80.868L20.0664 80.2381C22.6543 78.6634 25.7712 77.7447 29.1241 77.7447C29.7181 77.7447 30.3043 77.7741 30.8815 77.8304C33.8597 74.6732 38.2934 72.672 43.2423 72.672C45.0598 72.672 46.8078 72.9428 48.4401 73.4409C51.3792 70.7809 55.4425 69.1353 59.9294 69.1353C59.9571 69.1353 60.0048 69.1345 60.0699 69.1334C60.094 69.133 60.1204 69.1326 60.1491 69.1321Z" fill="white"/>
<path fill-rule="evenodd" clip-rule="evenodd" d="M60.5 1.02471C27.9288 1.02471 1.52471 27.4288 1.52471 60C1.52471 92.5712 27.9288 118.975 60.5 118.975C93.0712 118.975 119.475 92.5712 119.475 60C119.475 27.4288 93.0712 1.02471 60.5 1.02471ZM0.5 60C0.5 26.8629 27.3629 0 60.5 0C93.6371 0 120.5 26.8629 120.5 60C120.5 93.1371 93.6371 120 60.5 120C27.3629 120 0.5 93.1371 0.5 60Z" fill="white"/>
<path fill-rule="evenodd" clip-rule="evenodd" d="M61.1523 15.3764C36.8596 15.3764 17.1664 35.355 17.1664 59.9998C17.1664 84.6447 36.8596 104.623 61.1523 104.623C85.4451 104.623 105.138 84.6447 105.138 59.9998C105.138 35.355 85.4451 15.3764 61.1523 15.3764ZM16.1523 59.9998C16.1523 34.7868 36.2995 14.3477 61.1523 14.3477C86.0052 14.3477 106.152 34.7868 106.152 59.9998C106.152 85.2128 86.0052 105.652 61.1523 105.652C36.2995 105.652 16.1523 85.2128 16.1523 59.9998Z" fill="white"/>
<path fill-rule="evenodd" clip-rule="evenodd" d="M25.9359 45.6523L27.2034 50.1381L31.008 47.9451L28.9977 52.0955L33.1095 53.4782L28.9977 54.8624L31.0083 59.0119L27.2034 56.8186L25.9359 61.3045L24.667 56.8186L20.863 59.0122L22.8738 54.8624L18.7617 53.4782L22.8738 52.0955L20.8633 47.9448L24.667 50.1381L25.9359 45.6523ZM25.9355 48.4498L25.1203 51.332L22.676 49.9226L23.9681 52.5902L21.326 53.4786L23.9681 54.368L22.6763 57.034L25.1203 55.6247L25.9355 58.507L26.7499 55.6247L29.1952 57.0343L27.9033 54.368L30.5453 53.4786L27.9033 52.5902L29.1955 49.9223L26.7499 51.332L25.9355 48.4498Z" fill="white"/>
<path fill-rule="evenodd" clip-rule="evenodd" d="M57.9367 32.6094H63.0616V42.2921H57.9367V32.6094ZM58.5857 33.3444V41.557H62.4126V33.3444H58.5857ZM60.4987 46.4394L63.108 50.8702H57.8906L60.4987 46.4394ZM60.4988 47.7643L59.1033 50.1352H61.895L60.4988 47.7643Z" fill="white"/>
<path fill-rule="evenodd" clip-rule="evenodd" d="M37.0234 41.7383H47.4582V74.801L47.0073 74.67C45.8284 74.3274 44.5587 74.1398 43.2344 74.1398C41.1479 74.1398 39.1977 74.6041 37.5258 75.4094L37.0234 75.6513V41.7383ZM37.7466 42.5624V74.4215C39.3926 73.714 41.2588 73.3157 43.2344 73.3157C44.4518 73.3157 45.6272 73.4674 46.735 73.7487V42.5624H37.7466Z" fill="white"/>
<path fill-rule="evenodd" clip-rule="evenodd" d="M47.4582 45.652H37.0234V44.3477H47.4582V45.652Z" fill="white"/>
<path fill-rule="evenodd" clip-rule="evenodd" d="M47.4582 49.5661H37.0234V48.2617H47.4582V49.5661Z" fill="white"/>
<path fill-rule="evenodd" clip-rule="evenodd" d="M47.4582 52.1754H37.0234V50.8711H47.4582V52.1754Z" fill="white"/>
<path fill-rule="evenodd" clip-rule="evenodd" d="M47.4582 54.7809H37.0234V53.4766H47.4582V54.7809Z" fill="white"/>
<path fill-rule="evenodd" clip-rule="evenodd" d="M47.4582 62.609H37.0234V61.3047H47.4582V62.609Z" fill="white"/>
<path fill-rule="evenodd" clip-rule="evenodd" d="M39.6321 65.2184H37.0234V63.9141H39.6321V65.2184Z" fill="white"/>
<path fill-rule="evenodd" clip-rule="evenodd" d="M40.9336 44.347V41.7383H42.2379V44.347H40.9336Z" fill="white"/>
<path fill-rule="evenodd" clip-rule="evenodd" d="M39.6289 49.5654V45.6523H40.9333V49.5654H39.6289Z" fill="white"/>
<path fill-rule="evenodd" clip-rule="evenodd" d="M44.8477 49.5654V45.6523H46.152V49.5654H44.8477Z" fill="white"/>
<path fill-rule="evenodd" clip-rule="evenodd" d="M40.9336 50.8708V49.5664H42.2379V50.8708H40.9336Z" fill="white"/>
<path fill-rule="evenodd" clip-rule="evenodd" d="M39.6289 54.7845V52.1758H40.9333V54.7845H39.6289Z" fill="white"/>
<path fill-rule="evenodd" clip-rule="evenodd" d="M44.8477 54.7845V52.1758H46.152V54.7845H44.8477Z" fill="white"/>
<path fill-rule="evenodd" clip-rule="evenodd" d="M40.9336 57.3899V54.7812H42.2379V57.3899H40.9336Z" fill="white"/>
<path fill-rule="evenodd" clip-rule="evenodd" d="M39.6289 61.3037V57.3906H40.9333V61.3037H39.6289Z" fill="white"/>
<path fill-rule="evenodd" clip-rule="evenodd" d="M44.8477 61.3037V57.3906H46.152V61.3037H44.8477Z" fill="white"/>
<path fill-rule="evenodd" clip-rule="evenodd" d="M39.6321 69.1286H37.0234V67.8242H39.6321V69.1286Z" fill="white"/>
<path fill-rule="evenodd" clip-rule="evenodd" d="M39.6321 71.7379H37.0234V70.4336H39.6321V71.7379Z" fill="white"/>
<path fill-rule="evenodd" clip-rule="evenodd" d="M47.4564 65.2184H44.8477V63.9141H47.4564V65.2184Z" fill="white"/>
<path fill-rule="evenodd" clip-rule="evenodd" d="M47.4567 69.1286H46.1523V67.8242H47.4567V69.1286Z" fill="white"/>
<path fill-rule="evenodd" clip-rule="evenodd" d="M47.4567 71.7379H46.1523V70.4336H47.4567V71.7379Z" fill="white"/>
<path fill-rule="evenodd" clip-rule="evenodd" d="M73.543 41.7383H83.9778V75.6513L83.4754 75.4093C81.8036 74.6041 79.8534 74.1398 77.7667 74.1398C76.4426 74.1398 75.1729 74.3274 73.9939 74.67L73.543 74.801V41.7383ZM74.2662 42.5624V73.7487C75.374 73.4673 76.5494 73.3157 77.7667 73.3157C79.7424 73.3157 81.6087 73.714 83.2546 74.4215V42.5624H74.2662Z" fill="white"/>
<path fill-rule="evenodd" clip-rule="evenodd" d="M73.543 44.3477H83.9778V45.652H73.543V44.3477Z" fill="white"/>
<path fill-rule="evenodd" clip-rule="evenodd" d="M73.543 48.2617H83.9778V49.5661H73.543V48.2617Z" fill="white"/>
<path fill-rule="evenodd" clip-rule="evenodd" d="M73.543 50.8711H83.9778V52.1754H73.543V50.8711Z" fill="white"/>
<path fill-rule="evenodd" clip-rule="evenodd" d="M73.543 53.4766H83.9778V54.7809H73.543V53.4766Z" fill="white"/>
<path fill-rule="evenodd" clip-rule="evenodd" d="M81.3711 63.9141H83.9798V65.2184H81.3711V63.9141Z" fill="white"/>
<path fill-rule="evenodd" clip-rule="evenodd" d="M78.7617 44.347V41.7383H80.0661V44.347H78.7617Z" fill="white"/>
<path fill-rule="evenodd" clip-rule="evenodd" d="M78.7617 50.8704V48.2617H80.0661V50.8704H78.7617Z" fill="white"/>
<path fill-rule="evenodd" clip-rule="evenodd" d="M78.7617 57.3899V54.7812H80.0661V57.3899H78.7617Z" fill="white"/>
<path fill-rule="evenodd" clip-rule="evenodd" d="M81.3711 70.4336H83.9798V71.7379H81.3711V70.4336Z" fill="white"/>
<path fill-rule="evenodd" clip-rule="evenodd" d="M73.543 63.9141H76.1517V65.2184H73.543V63.9141Z" fill="white"/>
<path fill-rule="evenodd" clip-rule="evenodd" d="M73.543 70.4336H76.1517V71.7379H73.543V70.4336Z" fill="white"/>
<path d="M13.7513 45.064C13.7623 44.9331 13.7486 44.8045 13.7102 44.6785L8.0207 43.1609C7.79078 43.325 7.5788 43.5637 7.38449 43.8773L7.02344 43.7353L8.03484 41.4565L8.39235 41.6068C8.30158 41.9175 8.28527 42.1933 8.34343 42.434L14.033 43.9516C14.2606 43.7931 14.4738 43.5516 14.6727 43.227L15.0445 43.3719L14.033 45.6506L13.6649 45.4977C13.7113 45.3397 13.7401 45.1951 13.7513 45.064ZM15.2799 42.1512C15.1706 42.1496 15.0809 42.1576 15.01 42.1753L11.0769 43.0718L9.293 40.8787C9.22316 40.8237 9.16024 40.7885 9.10398 40.7735C9.01267 40.7492 8.91945 40.7776 8.8246 40.8589C8.72948 40.9401 8.64605 41.0533 8.57362 41.1985L8.21611 41.0481L9.06811 39.1289L9.43296 39.2627C9.37698 39.4245 9.34382 39.5693 9.33417 39.6977C9.32412 39.826 9.35959 39.9588 9.44017 40.0959L11.2207 42.2698L15.193 41.338C15.4107 41.2195 15.6048 41.0125 15.7752 40.717L16.1539 40.8728L15.5738 42.1797C15.4869 42.1624 15.3892 42.153 15.2799 42.1512Z" fill="white"/>
<path d="M15.7244 39.3416L11.7268 37.0843C11.5396 37.2413 11.358 37.4794 11.182 37.7987L10.9336 37.6052L11.9285 35.2188L12.1771 35.4122C12.0799 35.7477 12.0364 36.0496 12.0465 36.3177L16.0884 38.5999L16.7601 36.9889C16.6172 36.6884 16.3899 36.4073 16.0781 36.1462C16.0824 36.0919 16.0966 36.0361 16.1205 35.9785C16.1445 35.9211 16.1782 35.8621 16.2218 35.8016L17.4553 36.5939L15.8533 40.4361L15.6011 40.2298C15.7078 39.8715 15.749 39.5754 15.7244 39.3416Z" fill="white"/>
<path d="M18.437 34.1775L13.3604 31.6891C13.087 31.8254 12.8164 32.0322 12.5482 32.3098L12.2383 32.106L13.8166 30L14.1265 30.2038C13.9655 30.4991 13.8772 30.7713 13.862 31.0201L18.9385 33.5085C19.1828 33.3996 19.4517 33.1953 19.745 32.8955L20.0644 33.1039L18.4803 35.2174L18.1666 35.0013C18.3429 34.6859 18.4332 34.4113 18.437 34.1775Z" fill="white"/>
<path d="M21.0334 31.4423L17.1257 28.1566C16.8845 28.281 16.6377 28.4849 16.385 28.7677L16.1523 28.5091L17.0372 27.2509L22.2346 27.6548L19.2459 25.1417C19.0244 25.2494 18.7812 25.448 18.5163 25.7371L18.2836 25.4784L19.6915 23.4766L19.9242 23.7351C19.7491 24.0497 19.6435 24.3472 19.6076 24.6275L23.9784 28.3026L23.7392 28.6429L18.1204 28.1994L21.384 30.9437C21.5982 30.8467 21.8432 30.6457 22.1191 30.3405L22.3647 30.5972L20.9513 32.607L20.7168 32.3344C20.8983 32.0004 21.0038 31.7029 21.0334 31.4423Z" fill="white"/>
<path d="M24.9243 26.0405L21.1359 21.6389C20.867 21.7505 20.5834 21.954 20.2851 22.2492L20.0664 21.9133L21.9357 19.5664L22.1545 19.9021C21.9444 20.2453 21.8028 20.5757 21.7299 20.8933L25.5183 25.2948C25.7556 25.2118 26.0369 25.0112 26.3623 24.6932L26.5881 25.037L24.7119 27.3925L24.4929 27.0401C24.7211 26.6746 24.865 26.3414 24.9243 26.0405Z" fill="white"/>
<path d="M23.91 17.5324L22.6758 17.3262L22.6791 16.9897L23.8061 16.9144L24.0472 15.6523L24.3404 15.6991L24.3278 17.1239C24.3312 17.2627 24.2924 17.3717 24.2116 17.4507C24.1352 17.5255 24.0346 17.5526 23.91 17.5324ZM26.5722 23.4321C25.9709 23.2827 25.3322 22.761 24.656 21.8669C23.984 20.978 23.6282 20.1798 23.5891 19.4717C23.5499 18.7637 23.8269 18.1198 24.42 17.54C24.6761 17.2897 24.9391 17.1082 25.2092 16.9951C25.4793 16.8822 25.7296 16.8462 25.96 16.8875C26.1906 16.9288 26.3792 17.0465 26.5259 17.2406C26.6534 17.4091 26.7234 17.5895 26.7358 17.7817C26.7484 17.974 26.7007 18.1226 26.5928 18.228C26.5029 18.3159 26.4008 18.3669 26.2864 18.3808C26.1722 18.395 26.0687 18.3717 25.976 18.3112C25.9608 18.095 25.907 17.9255 25.8142 17.803C25.6945 17.6446 25.5359 17.5798 25.3388 17.6082C25.1415 17.6366 24.9395 17.7518 24.7328 17.9538C24.3689 18.3096 24.2355 18.7531 24.3325 19.2846C24.4297 19.816 24.7621 20.4571 25.33 21.2081C25.8902 21.9487 26.388 22.4083 26.8237 22.5865C27.2593 22.7649 27.6613 22.674 28.0297 22.3136C28.2634 22.0854 28.4442 21.8 28.5719 21.4573C28.6996 21.1148 28.7559 20.8043 28.7407 20.5259L29.1968 20.5865C29.2044 20.9169 29.1483 21.287 29.0286 21.6971C28.909 22.1072 28.6851 22.4726 28.3573 22.7931C27.7686 23.3687 27.1736 23.5818 26.5722 23.4321Z" fill="white"/>
<path d="M31.4439 18.9411C31.5354 18.838 31.6091 18.7249 31.6652 18.6018L28.9139 14.5646C28.6577 14.588 28.3651 14.6821 28.0359 14.8467L27.8906 14.5526L30.0205 13.1605L30.1582 13.4595C29.8986 13.6725 29.7103 13.8927 29.5934 14.1205L32.3445 18.1579C32.5958 18.1379 32.8911 18.0421 33.2303 17.8707L33.3808 18.1722L31.2507 19.5644L31.108 19.2579C31.2402 19.1498 31.3523 19.0442 31.4439 18.9411ZM34.3207 17.2769C34.2504 17.222 34.1863 17.1848 34.1286 17.1648L30.974 15.9846L31.217 13.2969C31.2067 13.2171 31.1882 13.1575 31.1609 13.1174C31.1169 13.0527 31.0373 13.0307 30.923 13.0515C30.8084 13.0723 30.6807 13.1251 30.5399 13.2099L30.4023 12.9109L32.1963 11.7383L32.3492 12.0275C32.2083 12.1341 32.0935 12.2378 32.0044 12.3392C31.9153 12.4407 31.8528 12.5679 31.8174 12.7207L31.5846 15.3909L34.7876 16.561C35.0065 16.5692 35.2669 16.4928 35.569 16.3313L35.7167 16.6453L34.4953 17.4437C34.4494 17.3874 34.3914 17.3317 34.3207 17.2769Z" fill="white"/>
<path d="M36.5372 16.0319L34.1655 11.7097C33.8889 11.712 33.5757 11.7771 33.2256 11.9047L33.1094 11.5956L35.4309 10.4336L35.5469 10.7427C35.2659 10.9312 35.0511 11.1305 34.903 11.3406L37.2748 15.6628C37.5148 15.672 37.8252 15.6084 38.2063 15.4721L38.3268 15.7892L35.9971 16.9553L35.8848 16.634C36.1883 16.4346 36.4058 16.2338 36.5372 16.0319Z" fill="white"/>
<path d="M43.1761 13.3793L41.7983 7.96016C41.5875 7.9054 41.3174 7.92555 40.9877 8.02073L40.9336 7.64259L42.894 6.76646C43.4742 6.50714 43.9445 6.45535 44.3045 6.6111C44.6644 6.76698 44.9132 7.11567 45.0511 7.6577C45.2449 8.42031 45.0747 9.04395 44.5405 9.52851C44.9228 9.50681 45.2458 9.59528 45.5099 9.79377C45.7739 9.99253 45.9579 10.2959 46.0615 10.7039C46.2096 11.2859 46.1738 11.8141 45.9545 12.2884C45.7351 12.7627 45.3503 13.1228 44.8002 13.3685L42.6052 14.3495L42.5487 13.9613C42.8294 13.7837 43.0386 13.5898 43.1761 13.3793ZM44.3775 9.02032C44.4979 8.74291 44.5049 8.39344 44.3976 7.97191C44.2905 7.55051 44.1248 7.28008 43.9005 7.16049C43.6762 7.04103 43.3772 7.06466 43.0038 7.23152C42.8373 7.30591 42.6465 7.40625 42.4312 7.53204L43.0462 9.95056L43.6517 9.67987C44.015 9.51753 44.2568 9.29772 44.3775 9.02032ZM45.372 12.1688C45.4881 11.8525 45.4893 11.47 45.3754 11.0217C45.2614 10.5736 45.0685 10.2743 44.7971 10.1235C44.5256 9.97303 44.1828 9.99008 43.7691 10.175L43.1712 10.4422L43.8702 13.1919C44.0891 13.1239 44.3574 13.0189 44.6753 12.8767C45.0235 12.7213 45.2558 12.4853 45.372 12.1688Z" fill="white"/>
<path d="M48.6282 11.2399C48.1365 10.7733 47.7894 10.0274 47.5869 9.0024C47.3832 7.97111 47.4191 7.14207 47.6947 6.51504C47.9705 5.88836 48.5524 5.48212 49.4405 5.29658C50.3225 5.11242 51.0098 5.25506 51.502 5.72461C51.9942 6.19439 52.3423 6.94493 52.546 7.9761C52.7484 9.00124 52.7115 9.82577 52.4354 10.4493C52.1591 11.0731 51.58 11.4771 50.6979 11.6613C49.8097 11.8468 49.1196 11.7064 48.6282 11.2399ZM51.52 10.6407C51.6994 10.3542 51.7896 10.007 51.7907 9.59928C51.792 9.19131 51.7386 8.71411 51.6306 8.16745C51.5214 7.6144 51.3887 7.15042 51.2331 6.7755C51.0771 6.40058 50.862 6.11553 50.5875 5.92059C50.3133 5.72565 49.9615 5.67301 49.5325 5.76253C49.1035 5.85217 48.7982 6.04201 48.6164 6.33239C48.4347 6.62254 48.3431 6.97021 48.3411 7.3747C48.3393 7.77954 48.393 8.25836 48.5023 8.81117C48.6704 9.66225 48.9092 10.3063 49.2188 10.7428C49.5283 11.1796 49.9914 11.3334 50.6076 11.2046C51.0365 11.1152 51.3406 10.9272 51.52 10.6407Z" fill="white"/>
<path d="M55.4559 9.89455L55.0096 5.80619C54.7386 5.71987 54.3944 5.67088 53.9766 5.65884L53.9994 5.38341L56.9159 5.21875L56.893 5.49418C56.5108 5.55141 56.1952 5.63782 55.9466 5.75331L56.3979 9.88695L58.367 9.77591C58.5602 9.54151 58.6799 9.24793 58.7263 8.8948C58.7807 8.87646 58.8429 8.86544 58.9132 8.86146C58.9832 8.85748 59.0614 8.86063 59.1473 8.871L59.194 10.171L54.4981 10.4361L54.5306 10.1524C54.9407 10.0938 55.2493 10.0078 55.4559 9.89455Z" fill="white"/>
<path d="M60.1777 9.65999L60.3891 4.54597C60.1405 4.40993 59.8249 4.31226 59.4428 4.25308L59.5056 3.91406L61.0585 3.97451L63.9486 8.60202L64.1103 4.69069C63.8872 4.56204 63.5782 4.4646 63.1832 4.3986L63.2461 4.05947L65.7171 4.15564L65.6542 4.49489C65.2944 4.5187 64.9913 4.59232 64.7451 4.71554L64.5083 10.4358L64.0885 10.4194L60.9696 5.41287L60.793 9.68414C61.003 9.81244 61.3151 9.91 61.7296 9.97669L61.6762 10.3255L59.1953 10.2289L59.2685 9.88087C59.648 9.85151 59.9509 9.77777 60.1777 9.65999Z" fill="white"/>
<path d="M68.1219 9.76229L68.9632 5.78717C68.7192 5.65975 68.4003 5.55677 68.0069 5.47812L68.114 5.21875L70.9365 5.53052L70.8294 5.78998C70.4551 5.78381 70.1319 5.81587 69.86 5.88625L69.0186 9.86137C69.223 9.97934 69.5384 10.082 69.9648 10.1693L69.8561 10.4361L67.0234 10.1231L67.1424 9.85755C67.5432 9.86672 67.87 9.83494 68.1219 9.76229Z" fill="white"/>
<path d="M71.1289 10.4991C70.8601 9.91925 70.8687 9.11576 71.1551 8.08855C71.4398 7.06711 71.8562 6.35698 72.4048 5.95817C72.9533 5.55925 73.655 5.45769 74.5097 5.65339C74.8787 5.738 75.1965 5.86392 75.4634 6.03104C75.7303 6.19839 75.9217 6.38888 76.0377 6.60284C76.1537 6.81681 76.1806 7.03532 76.1184 7.25826C76.0647 7.45196 75.9635 7.6038 75.8158 7.71355C75.6681 7.82342 75.5167 7.86041 75.3611 7.82486C75.2317 7.79518 75.124 7.73626 75.0385 7.64799C74.9528 7.55972 74.9045 7.46116 74.8936 7.35251C75.059 7.22803 75.1614 7.09535 75.2009 6.95448C75.2513 6.77262 75.2011 6.6065 75.0504 6.45632C74.8994 6.30637 74.6748 6.19706 74.377 6.12884C73.8526 6.00878 73.4065 6.12673 73.0386 6.48268C72.6708 6.83863 72.3666 7.44809 72.1263 8.31094C71.8889 9.16227 71.8391 9.81581 71.9772 10.272C72.1153 10.7283 72.4498 11.0172 72.9807 11.1388C73.3174 11.2158 73.6661 11.2193 74.0266 11.1489C74.3873 11.0786 74.6756 10.9649 74.8913 10.8083L75.1381 11.2208C74.8751 11.3979 74.5386 11.5425 74.1285 11.6546C73.7184 11.7667 73.2768 11.7687 72.8045 11.6605C71.9563 11.4661 71.3978 11.079 71.1289 10.4991ZM74.1855 5.22312L73.5519 4.08528L73.8268 3.91406L74.6189 4.81667L75.7984 4.36559L75.9508 4.63471L74.7875 5.36112C74.6772 5.43565 74.5638 5.45969 74.4471 5.433C74.337 5.40774 74.2498 5.33786 74.1855 5.22312Z" fill="white"/>
<path d="M76.7342 12.1461C76.8619 12.1609 76.9879 12.1547 77.1122 12.1278L78.762 7.38928C78.6084 7.18843 78.3811 6.9994 78.0801 6.82242L78.2296 6.52344L80.4281 7.47272L80.2709 7.76814C79.9696 7.6785 79.7005 7.65303 79.4634 7.69205L77.8136 12.4304C77.9619 12.6291 78.1919 12.8193 78.5033 13.0008L78.3509 13.3084L76.1523 12.3593L76.3127 12.055C76.4658 12.1009 76.6064 12.1313 76.7342 12.1461ZM79.5376 13.5583C79.5424 13.4664 79.5371 13.39 79.5221 13.3295L78.7601 9.97246L80.9565 8.55869C81.0125 8.50211 81.0487 8.45046 81.065 8.40364C81.0914 8.32766 81.0662 8.24766 80.9896 8.16422C80.913 8.08055 80.8048 8.00538 80.6651 7.93823L80.8223 7.6427L82.6741 8.4422L82.5326 8.74451C82.376 8.69045 82.2353 8.65659 82.1102 8.64294C81.985 8.62928 81.8541 8.65349 81.7176 8.71582L79.5401 10.1275L80.3354 13.5191C80.4448 13.7077 80.6416 13.8802 80.9257 14.0365L80.7624 14.3495L79.5015 13.8052C79.5205 13.7327 79.5325 13.6506 79.5376 13.5583Z" fill="white"/>
<path d="M82.4636 15.6901L84.7827 11.329C84.6231 11.1134 84.3893 10.9049 84.081 10.7036L84.2774 10.4336L86.5885 11.5851L86.3921 11.8551C86.0717 11.7433 85.7799 11.6898 85.517 11.6949L83.1979 16.0559C83.327 16.2497 83.558 16.4568 83.8913 16.6772L83.6907 16.9553L81.3711 15.7996L81.5799 15.5257C81.9223 15.6488 82.217 15.7038 82.4636 15.6901Z" fill="white"/>
<path d="M89.1956 17.7346C89.1869 17.1846 89.4002 16.5341 89.8354 15.7831C90.2683 15.0364 90.6984 14.5812 91.126 14.4177C91.5535 14.2541 91.9945 14.377 92.4488 14.7863C92.6451 14.9631 92.8003 15.1583 92.9148 15.3725C93.029 15.5866 93.0928 15.7975 93.1059 16.0053C93.1191 16.2132 93.0784 16.3986 92.984 16.5617C92.9018 16.7033 92.8029 16.7971 92.6873 16.843C92.5715 16.8891 92.4724 16.8749 92.3898 16.8004C92.3209 16.7383 92.2725 16.659 92.2449 16.5621C92.2171 16.4654 92.2141 16.3712 92.2358 16.2796C92.3658 16.2269 92.4608 16.1491 92.5205 16.0461C92.5976 15.9131 92.6109 15.7635 92.5605 15.5972C92.5102 15.431 92.4059 15.2765 92.2475 15.1339C91.9687 14.8828 91.6745 14.8479 91.3649 15.0295C91.0553 15.2112 90.7176 15.6174 90.352 16.2482C89.9913 16.8706 89.7926 17.3873 89.7561 17.7985C89.7193 18.2097 89.8422 18.5424 90.1245 18.7967C90.3035 18.9579 90.5086 19.0629 90.7401 19.1111C90.9714 19.1595 91.1712 19.1516 91.3394 19.0876L91.3782 19.4949C91.1769 19.5619 90.9406 19.5809 90.6692 19.552C90.3978 19.523 90.1364 19.3953 89.8852 19.169C89.434 18.7628 89.2041 18.2848 89.1956 17.7346Z" fill="white"/>
<path d="M92.438 21.7483C92.5791 21.8319 92.689 21.8762 92.7679 21.881L95.7971 18.0142C95.7157 17.7536 95.5648 17.4763 95.3446 17.1823L95.5773 16.957L98.3264 19.8636L97.5232 21.0041C97.4509 20.9716 97.3841 20.9227 97.3225 20.8574C97.302 20.8357 97.2747 20.7984 97.2413 20.7453C97.4345 20.3738 97.5391 20.0391 97.5545 19.7413L96.3956 18.516L94.9933 20.3063L95.7178 21.0069C95.8078 21.0935 95.9132 21.1218 96.0339 21.0924C96.1546 21.0629 96.2898 20.9963 96.4387 20.8922L96.636 21.1006L95.5253 22.5184L95.328 22.3099C95.4395 22.0526 95.5007 21.864 95.5117 21.7447C95.5224 21.6252 95.4785 21.5089 95.3795 21.3955L94.7351 20.6357L93.2766 22.4975L94.5894 23.8856C94.8699 23.8154 95.1693 23.6391 95.4885 23.3566C95.5453 23.3993 95.588 23.4358 95.6168 23.4661C95.6373 23.4878 95.6767 23.5382 95.7351 23.6174L94.7204 24.7831L91.8047 21.7007L92.0491 21.4749C92.1672 21.5735 92.2968 21.6646 92.438 21.7483Z" fill="white"/>
<path d="M96.8284 25.7447L100.9 23.0402C100.834 22.8201 100.693 22.5822 100.477 22.3266L100.78 22.1758L101.797 23.1141L100.223 27.3573L103.338 25.2889C103.284 25.0877 103.147 24.8539 102.927 24.5871L103.231 24.4364L104.849 25.9296L104.546 26.0804C104.281 25.884 104.017 25.7481 103.754 25.6726L99.1993 28.6975L98.9242 28.4438L100.632 23.8577L97.2315 26.1164C97.2766 26.3098 97.4155 26.5457 97.6485 26.8242L97.3439 26.9859L95.7188 25.4867L96.0363 25.3368C96.3184 25.5417 96.5826 25.6777 96.8284 25.7447Z" fill="white"/>
<path d="M102.002 32.1587L106.713 29.3205C106.428 28.9189 106.171 28.5862 105.941 28.3225C105.735 28.3126 105.524 28.3377 105.306 28.3979C105.089 28.4581 104.905 28.5297 104.755 28.6127C104.724 28.5792 104.683 28.5255 104.632 28.4519C104.574 28.3678 104.535 28.3056 104.516 28.2654L105.968 27.3906C106.446 28.1301 106.899 28.8101 107.327 29.4309C107.614 29.8464 107.895 30.2451 108.17 30.6266C108.445 31.0082 108.642 31.2788 108.76 31.4384L107.308 32.3133C107.276 32.2799 107.236 32.2263 107.185 32.1527C107.13 32.0737 107.091 32.0115 107.068 31.9662C107.448 31.6851 107.706 31.3954 107.843 31.0971C107.647 30.7315 107.429 30.3706 107.192 30.0149L102.481 32.853C102.501 33.1016 102.603 33.4051 102.786 33.7636L102.447 33.9124L100.934 31.7188L101.279 31.578C101.532 31.8647 101.773 32.0581 102.002 32.1587Z" fill="white"/>
<path d="M104.076 35.8663C104.143 35.939 104.229 36.0027 104.333 36.0575L109.835 35.2188L110.065 35.7005L106.057 39.6982C106.026 39.8785 106.044 40.0873 106.112 40.3249L105.803 40.4361L104.847 38.429L105.16 38.3258C105.344 38.618 105.533 38.8295 105.725 38.9598L106.727 37.9653L105.955 36.3437L104.582 36.5594C104.566 36.7851 104.618 37.0795 104.739 37.4427L104.43 37.5539L103.543 35.6913L103.855 35.5882C103.935 35.7008 104.009 35.7936 104.076 35.8663ZM107.074 37.6274L108.806 35.9097L106.428 36.2705L107.074 37.6274Z" fill="white"/>
<path d="M106.961 42.8607L111.494 41.3757C111.541 41.146 111.525 40.8513 111.447 40.4913L111.763 40.4336L112.481 42.5582C112.907 43.8203 112.628 44.6127 111.643 44.9353C111.274 45.0565 110.943 45.0621 110.651 44.9527C110.359 44.8431 110.1 44.6084 109.872 44.2482C109.84 44.3749 109.779 44.4975 109.689 44.616C109.598 44.7343 109.476 44.8614 109.323 44.9973L108.066 46.1344C108.01 46.3363 108.016 46.5916 108.083 46.9003L107.747 46.9553L107.325 45.707L108.955 44.3746C109.164 44.202 109.304 44.0657 109.376 43.9656C109.448 43.8655 109.48 43.7553 109.474 43.6352C109.467 43.5147 109.422 43.3278 109.336 43.0744L109.28 42.9091L107.206 43.5882C107.184 43.6874 107.175 43.8036 107.18 43.9367C107.184 44.0698 107.208 44.2458 107.25 44.4644L106.926 44.5248L106.152 42.2348L106.477 42.1746C106.624 42.4812 106.785 42.71 106.961 42.8607ZM110.422 44.0957C110.693 44.2822 111.022 44.3124 111.408 44.1859C111.778 44.0648 112.023 43.8757 112.145 43.6187C112.266 43.3616 112.262 43.0429 112.134 42.6627C112.071 42.4753 111.981 42.2751 111.866 42.062L109.666 42.7824L109.753 43.0387C109.928 43.5568 110.151 43.9092 110.422 44.0957Z" fill="white"/>
<path d="M7.03268 71.9473C7.05535 71.6373 7.0946 71.4084 7.15043 71.2601L8.36147 70.9526L8.48381 71.3319C8.25458 71.4237 8.06311 71.51 7.9093 71.5908C7.75557 71.6718 7.60382 71.7731 7.45385 71.8948C7.39877 72.188 7.4086 72.5036 7.48307 72.8422C7.54827 73.1381 7.67717 73.358 7.86995 73.5017C8.06255 73.6454 8.29439 73.6829 8.56512 73.614C8.75715 73.5653 8.90825 73.4726 9.0185 73.3357C9.12867 73.1988 9.20792 73.0447 9.25588 72.8734C9.30403 72.7021 9.34918 72.4771 9.39199 72.1983C9.44229 71.8841 9.50028 71.6222 9.56604 71.4129C9.6317 71.2036 9.74037 71.0127 9.89212 70.8402C10.0439 70.6678 10.2528 70.5478 10.5186 70.4803C10.9174 70.379 11.2665 70.4424 11.5663 70.6708C11.866 70.8989 12.0722 71.2693 12.1852 71.7822C12.2434 72.0465 12.2559 72.3044 12.2229 72.5557C12.1897 72.807 12.1166 73.0181 12.0036 73.1892C11.8904 73.3602 11.7477 73.4678 11.5755 73.5114C11.2604 73.5914 11.0738 73.4991 11.0158 73.2348C10.9889 73.1131 10.9854 73.0149 11.0054 72.9402C11.0251 72.8652 11.0638 72.7927 11.1212 72.7223C11.2489 72.8072 11.3866 72.8308 11.5344 72.7933C11.6624 72.7608 11.7536 72.6622 11.8084 72.4976C11.8631 72.333 11.8628 72.1237 11.8068 71.8701C11.7416 71.5739 11.6267 71.3589 11.462 71.2249C11.2972 71.0909 11.0944 71.0544 10.8532 71.1156C10.6762 71.1606 10.5391 71.247 10.4426 71.3748C10.3459 71.5027 10.275 71.6477 10.2303 71.8097C10.1853 71.9718 10.1416 72.1924 10.099 72.471C10.0434 72.8089 9.98233 73.0868 9.9161 73.3046C9.84968 73.5224 9.734 73.7234 9.56922 73.9076C9.40435 74.0918 9.17438 74.2214 8.87912 74.2965C8.43107 74.4101 8.05103 74.3308 7.73899 74.0582C7.42687 73.7858 7.21038 73.3747 7.08926 72.8248C7.02884 72.5498 7.01011 72.2573 7.03268 71.9473Z" fill="white"/>
<path d="M7.67236 76.3747C7.78098 76.4975 7.8761 76.5781 7.95757 76.6169L13.0715 75.2022C13.113 74.9794 13.089 74.7138 12.9994 74.4049L13.3571 74.3477L14.8495 77.6544L13.4366 78.1121C13.376 78.0564 13.3291 77.9916 13.2957 77.9174C13.2846 77.8927 13.2739 77.8539 13.2645 77.801C13.6521 77.6214 13.9272 77.4285 14.0897 77.2224L13.4609 75.8286L11.0932 76.4835L11.5186 77.3082C11.5717 77.4103 11.6697 77.4777 11.8123 77.5105C11.9549 77.5432 12.1308 77.5558 12.3405 77.5479L12.4477 77.7851L10.5725 78.3038L10.4653 78.0666C10.71 77.9322 10.8676 77.8248 10.9377 77.7441C11.0077 77.6636 11.018 77.5606 10.9687 77.4353L10.6574 76.6041L8.19516 77.2853L8.90782 78.8646C9.24015 78.9395 9.64441 78.947 10.122 78.8872C10.1613 78.9431 10.1888 78.9882 10.2045 79.0229C10.2156 79.0475 10.2326 79.1012 10.2558 79.1837L8.60624 79.565L7.02344 76.0581L7.39384 76.0057C7.47085 76.1287 7.5636 76.2518 7.67236 76.3747Z" fill="white"/>
<path d="M10.9698 82.3825C10.9304 82.0195 10.9231 81.7456 10.9482 81.56L12.0667 80.879L12.2612 81.2821C12.0561 81.4496 11.8867 81.6007 11.753 81.7353C11.6193 81.8699 11.4915 82.0276 11.3696 82.2082C11.3741 82.5603 11.4463 82.9209 11.586 83.2901C11.7081 83.6131 11.8774 83.8313 12.0937 83.9445C12.31 84.0575 12.5433 84.038 12.7933 83.8858C12.9706 83.7777 13.0994 83.6301 13.1796 83.4429C13.2599 83.2557 13.3064 83.057 13.3191 82.8469C13.3319 82.637 13.3314 82.3656 13.3177 82.0335C13.3042 81.6584 13.3089 81.3416 13.3314 81.083C13.3537 80.8246 13.4217 80.5755 13.5355 80.3361C13.649 80.0965 13.8287 79.9019 14.0742 79.7524C14.4426 79.5281 14.7953 79.5067 15.1326 79.6882C15.4697 79.8696 15.7441 80.2401 15.9559 80.7996C16.065 81.0881 16.1285 81.3812 16.146 81.6792C16.1636 81.9774 16.1345 82.2399 16.0582 82.4673C15.9819 82.6947 15.8642 82.8568 15.7052 82.9537C15.414 83.1308 15.214 83.0752 15.1049 82.7869C15.0546 82.6542 15.0319 82.5422 15.0365 82.4506C15.041 82.3591 15.0641 82.2652 15.106 82.1687C15.2474 82.2318 15.3863 82.2218 15.5226 82.1386C15.6409 82.0667 15.7103 81.9285 15.731 81.7243C15.7515 81.5201 15.7095 81.2796 15.6048 81.0027C15.4825 80.6796 15.3279 80.4633 15.141 80.3535C14.9538 80.2439 14.7491 80.257 14.5262 80.3925C14.3626 80.4922 14.2463 80.6285 14.1776 80.8017C14.1088 80.9748 14.0687 81.1607 14.0572 81.3595C14.0456 81.5582 14.0466 81.8236 14.0607 82.1558C14.0735 82.5595 14.0692 82.8959 14.0477 83.1644C14.0263 83.4331 13.9535 83.6954 13.8297 83.9518C13.7055 84.2084 13.5072 84.4196 13.2344 84.5859C12.8206 84.8378 12.4349 84.8493 12.0767 84.6201C11.7187 84.391 11.4261 83.9764 11.1991 83.3766C11.0856 83.0766 11.0093 82.7454 10.9698 82.3825Z" fill="white"/>
<path d="M13.2984 88.224L18.0543 85.4327C17.776 85.0236 17.5247 84.6846 17.2995 84.4154C17.0936 84.4024 16.8816 84.4246 16.6633 84.4821C16.445 84.5395 16.2602 84.6091 16.1091 84.6903C16.0785 84.6562 16.0385 84.6015 15.989 84.5268C15.9324 84.441 15.8944 84.3777 15.8756 84.3369L17.3415 83.4766C17.8071 84.229 18.2485 84.9211 18.6662 85.553C18.9456 85.976 19.2198 86.3819 19.4885 86.7707C19.757 87.1592 19.9488 87.4349 20.0644 87.5975L18.5983 88.4579C18.5678 88.4237 18.5279 88.3691 18.4783 88.2943C18.4254 88.2139 18.3873 88.1506 18.3648 88.1045C18.7492 87.8268 19.0121 87.5387 19.1538 87.24C18.9635 86.8685 18.7529 86.5018 18.5215 86.1396L13.7656 88.9309C13.7814 89.1816 13.878 89.4891 14.0555 89.8533L13.7138 89.9983L12.2383 87.765L12.5855 87.6281C12.8337 87.9208 13.0714 88.1194 13.2984 88.224Z" fill="white"/>
<path d="M17.1075 92.8045L20.7248 89.7134C20.6875 89.4723 20.5705 89.1897 20.3739 88.8661L20.6424 88.6953L22.0367 90.5119C22.8649 91.5909 22.8861 92.4664 22.0999 93.1381C21.8052 93.39 21.5056 93.5152 21.2014 93.5138C20.8971 93.5124 20.5786 93.3768 20.246 93.1073C20.2611 93.2425 20.248 93.3845 20.2066 93.5329C20.1653 93.6813 20.0984 93.8496 20.0062 94.0378L19.2557 95.6036C19.2748 95.8214 19.3689 96.0691 19.5373 96.3462L19.2502 96.5214L18.431 95.454L19.4528 93.5625C19.5833 93.3182 19.664 93.1343 19.6947 93.0105C19.7254 92.8866 19.7169 92.7672 19.6692 92.652C19.6213 92.5369 19.5144 92.3707 19.348 92.154L19.2395 92.0126L17.5848 93.4266C17.599 93.5316 17.6312 93.6484 17.6816 93.7768C17.7322 93.9053 17.815 94.0686 17.9301 94.2666L17.6551 94.4431L16.1523 92.4851L16.4274 92.3087C16.6684 92.5554 16.8951 92.7206 17.1075 92.8045ZM20.6944 92.7592C21.0067 92.8434 21.3171 92.7538 21.6251 92.4904C21.9199 92.2386 22.0778 91.9651 22.0989 91.6699C22.1201 91.3747 22.006 91.0646 21.7565 90.7395C21.6336 90.5793 21.4822 90.416 21.3029 90.2495L19.5478 91.7493L19.7158 91.9683C20.0557 92.4112 20.3818 92.675 20.6944 92.7592Z" fill="white"/>
<path d="M20.8194 97.8301C20.9848 97.9041 21.1144 97.9446 21.2082 97.9508L24.9365 94.8048C24.8476 94.5845 24.6764 94.3481 24.4232 94.0955L24.7075 93.9141L27.8925 96.4261L26.9001 97.3568C26.8152 97.3273 26.7372 97.2844 26.6657 97.2281C26.6419 97.2093 26.6106 97.1774 26.5722 97.132C26.8142 96.8268 26.9488 96.5499 26.9767 96.3012L25.6341 95.2423L23.9081 96.6987L24.7494 97.3061C24.8539 97.3811 24.9787 97.408 25.1236 97.3869C25.268 97.3658 25.431 97.314 25.612 97.2312L25.8403 97.4114L24.4735 98.5649L24.245 98.3846C24.3857 98.1727 24.4645 98.0167 24.4811 97.9171C24.4978 97.8176 24.4488 97.719 24.3345 97.6212L23.5904 96.9666L21.7953 98.4815L23.3164 99.6812C23.6526 99.6307 24.0148 99.4919 24.4037 99.265C24.47 99.3023 24.5198 99.334 24.5531 99.3604C24.577 99.3792 24.6224 99.4225 24.6894 99.4903L23.4443 100.436L20.0664 97.7717L20.3648 97.5899C20.5022 97.6758 20.6538 97.7559 20.8194 97.8301Z" fill="white"/>
<path d="M28.8876 104.938L31.391 100.196C31.2728 99.9409 31.0813 99.6833 30.8161 99.4227L31.0123 99.1289L32.4196 100.206L31.531 106.234L35.6283 102.663L37.0211 103.729L36.8177 104.017C36.5316 103.848 36.2663 103.755 36.0217 103.741L33.5181 108.482C33.6197 108.716 33.8139 108.976 34.1003 109.261L33.8996 109.564L31.8723 108.012L32.0804 107.715C32.2305 107.805 32.3671 107.872 32.4904 107.917C32.6134 107.962 32.742 107.987 32.8764 107.991L35.0323 103.908L35.0029 103.886L31.0702 107.397L30.6399 107.068L31.581 101.155L31.5518 101.133L29.3542 105.295C29.4593 105.548 29.6535 105.807 29.9364 106.073L29.7356 106.376L27.8906 104.963L28.0987 104.666C28.3944 104.844 28.6574 104.934 28.8876 104.938Z" fill="white"/>
<path d="M36.8425 109.653L39.061 105.222C38.8874 105.013 38.6374 104.813 38.3111 104.624L38.5028 104.348L40.9361 105.411L40.7445 105.687C40.409 105.587 40.1053 105.545 39.834 105.559L37.6156 109.991C37.7568 110.18 38.0038 110.377 38.3567 110.585L38.1608 110.869L35.7188 109.802L35.9234 109.522C36.2819 109.632 36.5885 109.676 36.8425 109.653Z" fill="white"/>
<path d="M40.8201 111.682L42.7573 106.559C42.558 106.349 42.2699 106.155 41.8927 105.977L42.0718 105.652L44.8463 106.593L44.6671 106.918C44.2829 106.838 43.9435 106.819 43.6488 106.862L41.69 112.041L43.5629 112.677C43.875 112.469 44.1538 112.16 44.3991 111.751C44.4596 111.75 44.5232 111.761 44.59 111.784C44.6566 111.806 44.7266 111.841 44.7997 111.887L44.0959 113.478L39.6289 111.963L39.8217 111.632C40.2322 111.722 40.5652 111.738 40.8201 111.682Z" fill="white"/>
<path d="M46.3587 112.39C46.1004 111.883 46.0845 111.222 46.3114 110.407C46.5395 109.588 46.9035 108.996 47.4037 108.634C47.9038 108.271 48.5928 108.174 49.4707 108.341C50.3425 108.507 50.9071 108.844 51.1649 109.353C51.4224 109.863 51.4371 110.527 51.209 111.347C50.9823 112.162 50.6192 112.749 50.1198 113.109C49.6203 113.469 48.9347 113.566 48.0629 113.401C47.1851 113.234 46.6171 112.897 46.3587 112.39ZM49.2153 112.937C49.492 112.79 49.7125 112.568 49.8767 112.271C50.0409 111.975 50.1836 111.61 50.3045 111.175C50.4269 110.735 50.4923 110.353 50.5013 110.027C50.5103 109.701 50.4295 109.42 50.2591 109.185C50.0889 108.95 49.7916 108.792 49.3679 108.711C48.9436 108.63 48.5916 108.665 48.3111 108.814C48.0304 108.964 47.8086 109.185 47.6451 109.479C47.4814 109.773 47.3386 110.14 47.2164 110.58C47.0281 111.256 46.9866 111.806 47.0923 112.229C47.1976 112.652 47.5551 112.922 48.1641 113.038C48.588 113.118 48.9386 113.085 49.2153 112.937Z" fill="white"/>
<path d="M53.3094 114.538C53.0118 114.418 52.8009 114.308 52.6758 114.208L52.8334 112.958L53.2544 112.962C53.2576 113.209 53.27 113.419 53.2912 113.591C53.3125 113.763 53.355 113.94 53.4179 114.121C53.6863 114.267 54.0018 114.358 54.3642 114.395C54.6813 114.427 54.9475 114.374 55.1629 114.237C55.3781 114.099 55.5033 113.89 55.5387 113.611C55.5637 113.413 55.5295 113.239 55.4364 113.091C55.3433 112.943 55.2213 112.818 55.0706 112.718C54.9196 112.618 54.7147 112.503 54.4557 112.374C54.1647 112.226 53.9283 112.088 53.7468 111.958C53.5651 111.829 53.4181 111.665 53.3057 111.466C53.1931 111.266 53.1541 111.03 53.1887 110.755C53.2408 110.344 53.4362 110.031 53.7758 109.819C54.1151 109.606 54.5595 109.528 55.109 109.584C55.3921 109.613 55.6513 109.683 55.8868 109.794C56.1222 109.906 56.3029 110.042 56.4287 110.204C56.5545 110.366 56.6061 110.536 56.5838 110.714C56.5427 111.039 56.3807 111.188 56.0974 111.159C55.9672 111.145 55.8689 111.118 55.8027 111.075C55.7363 111.032 55.6792 110.972 55.6317 110.895C55.7641 110.801 55.8399 110.677 55.8591 110.525C55.8758 110.393 55.8134 110.274 55.6717 110.17C55.53 110.065 55.3232 109.999 55.0514 109.972C54.7342 109.939 54.4782 109.98 54.2831 110.094C54.0881 110.208 53.9748 110.39 53.9434 110.639C53.9204 110.822 53.9534 110.98 54.0428 111.112C54.1322 111.245 54.2484 111.358 54.3913 111.452C54.5343 111.547 54.7354 111.659 54.9943 111.788C55.3066 111.948 55.5579 112.095 55.7476 112.227C55.9373 112.36 56.0917 112.534 56.211 112.749C56.33 112.964 56.3703 113.225 56.3319 113.529C56.2736 113.992 56.0504 114.328 55.6626 114.538C55.2747 114.749 54.7863 114.824 54.1973 114.764C53.9026 114.734 53.6067 114.659 53.3094 114.538Z" fill="white"/>
<path d="M58.7816 114.282L58.7743 110.061C58.5636 109.957 58.2693 109.887 57.8906 109.851L57.9351 109.569L60.2515 109.566C61.6273 109.565 62.3161 110.022 62.3178 110.94C62.3183 111.284 62.2181 111.563 62.0174 111.776C61.8163 111.99 61.5025 112.142 61.0762 112.231C61.1904 112.293 61.2913 112.379 61.3786 112.489C61.4659 112.598 61.5518 112.736 61.6362 112.903L62.3505 114.278C62.531 114.382 62.7836 114.449 63.108 114.48L63.0546 114.777L61.6936 114.779L60.9066 113.036C60.8039 112.813 60.715 112.656 60.64 112.568C60.5646 112.479 60.4669 112.421 60.3469 112.392C60.2264 112.364 60.0281 112.35 59.7518 112.35L59.5716 112.351L59.5749 114.281C59.6651 114.328 59.7763 114.368 59.9086 114.402C60.0408 114.436 60.221 114.466 60.4495 114.491L60.405 114.781L57.9084 114.784L57.953 114.494C58.3011 114.457 58.5775 114.387 58.7816 114.282ZM61.1024 111.727C61.3724 111.552 61.5072 111.285 61.5065 110.925C61.506 110.581 61.3987 110.322 61.1853 110.147C60.9717 109.973 60.6575 109.886 60.243 109.887C60.0388 109.887 59.8135 109.906 59.5672 109.943L59.5707 111.991L59.8502 111.99C60.4149 111.99 60.8322 111.902 61.1024 111.727Z" fill="white"/>
<path d="M65.5485 114.387C65.664 114.349 65.7712 114.294 65.87 114.222L65.2693 110.197C65.0566 110.125 64.7715 110.09 64.4141 110.09L64.4164 109.818L66.2462 109.609C67.239 109.496 68.0119 109.609 68.5648 109.95C69.1177 110.29 69.4584 110.892 69.5871 111.755C69.7167 112.623 69.5625 113.281 69.1246 113.73C68.6865 114.178 67.9569 114.461 66.9359 114.577L65.1231 114.784L65.1246 114.504C65.2918 114.464 65.4332 114.426 65.5485 114.387ZM68.4777 113.542C68.7646 113.184 68.8505 112.618 68.7351 111.845C68.6203 111.076 68.3747 110.551 67.9983 110.272C67.6218 109.992 67.0959 109.89 66.4208 109.967L66.0123 110.014L66.6386 114.21C66.738 114.219 66.8671 114.214 67.0261 114.196C67.7069 114.118 68.1907 113.9 68.4777 113.542Z" fill="white"/>
<path d="M73.2626 112.776L71.9303 108.592C71.6623 108.544 71.3443 108.543 70.9771 108.59L70.9336 108.301L72.3719 107.965L76.396 110.987L75.3769 107.787C75.1345 107.739 74.823 107.737 74.4419 107.781L74.3984 107.492L76.6871 106.957L76.7307 107.247C76.4088 107.355 76.1536 107.49 75.9651 107.65L77.4553 112.329L77.0663 112.42L72.72 109.149L73.8328 112.643C74.063 112.694 74.3775 112.696 74.7768 112.647L74.8319 112.942L72.534 113.479L72.4972 113.179C72.8352 113.062 73.0905 112.927 73.2626 112.776Z" fill="white"/>
<path d="M80.6818 111.313L78.6017 106.791C78.2984 106.766 77.9468 106.799 77.5472 106.891L77.457 106.573L80.1443 105.652L80.2343 105.97C79.9032 106.129 79.6433 106.305 79.4556 106.499L81.5354 111.02C81.7976 111.053 82.1458 111.021 82.5805 110.924L82.6744 111.25L79.9776 112.174L79.8932 111.844C80.2503 111.677 80.5133 111.5 80.6818 111.313Z" fill="white"/>
<path d="M83.9963 109.376C83.3085 109.084 82.6709 108.438 82.0838 107.437C81.4998 106.442 81.2745 105.61 81.4087 104.944C81.5422 104.277 82.0414 103.75 82.9056 103.363C83.2787 103.196 83.6429 103.094 83.9979 103.058C84.3527 103.022 84.6642 103.052 84.9318 103.149C85.1994 103.246 85.3969 103.403 85.5244 103.62C85.6352 103.809 85.6735 103.994 85.6396 104.175C85.6054 104.357 85.5099 104.483 85.3528 104.553C85.2217 104.612 85.0853 104.633 84.9437 104.617C84.8021 104.601 84.6832 104.553 84.5868 104.474C84.6237 104.269 84.6022 104.098 84.5215 103.961C84.4177 103.784 84.2429 103.683 83.9975 103.659C83.7521 103.636 83.4785 103.691 83.1774 103.826C82.6472 104.064 82.3729 104.441 82.354 104.959C82.3352 105.477 82.5725 106.156 83.0659 106.997C83.5525 107.827 84.0361 108.379 84.5163 108.656C84.9966 108.932 85.5051 108.95 86.0422 108.709C86.3824 108.557 86.6737 108.338 86.9155 108.052C87.1574 107.767 87.3047 107.493 87.3578 107.231L87.8928 107.403C87.8174 107.712 87.6549 108.041 87.4057 108.391C87.1561 108.741 86.7926 109.023 86.3147 109.237C85.4569 109.621 84.6841 109.668 83.9963 109.376Z" fill="white"/>
<path d="M89.2883 106.368C89.417 106.252 89.4957 106.157 89.5243 106.084L86.4391 102.443C86.1454 102.467 85.814 102.553 85.444 102.701L85.2812 102.436L89.1078 100.434L90.0448 101.422C89.9896 101.484 89.9191 101.537 89.833 101.582C89.8045 101.597 89.7577 101.615 89.693 101.636C89.3672 101.378 89.0528 101.212 88.7498 101.137L87.1369 101.981L88.5651 103.666L89.5062 103.125C89.6227 103.058 89.6837 102.964 89.6893 102.844C89.6952 102.725 89.6666 102.584 89.6038 102.422L89.8783 102.278L91.0097 103.613L90.7353 103.757C90.5029 103.6 90.3265 103.504 90.2065 103.469C90.0864 103.435 89.953 103.453 89.8063 103.523L88.828 103.976L90.3137 105.729L92.1412 104.773C92.1527 104.494 92.0606 104.176 91.8644 103.818C91.9255 103.773 91.9759 103.74 92.0161 103.719C92.0445 103.704 92.1085 103.677 92.2073 103.638L93.1073 104.832L89.0491 106.955L88.8891 106.679C89.0264 106.588 89.1597 106.484 89.2883 106.368Z" fill="white"/>
<path d="M95.3806 95.0306C95.2488 95.1645 95.0075 95.4215 94.657 95.8015L94.0689 96.4526C94.0398 96.4933 93.9881 96.5536 93.9139 96.6342C93.9021 96.7815 93.9314 96.9578 94.0024 97.1632C94.0731 97.3687 94.1623 97.5656 94.2696 97.7538L94.1454 97.9019C94.096 97.9554 94.0589 97.9911 94.0344 98.0088L93.1094 97.0495L93.1306 96.7041C93.6655 96.169 94.1331 95.6846 94.5331 95.2509C94.7764 94.987 95.1668 94.5415 95.7041 93.9141L95.9929 94.1385L97.1761 100.65L97.9056 99.8728L98.6918 99.0071C98.6681 98.531 98.5538 98.0774 98.3486 97.6457C98.3903 97.5826 98.4297 97.531 98.4669 97.4906C98.4997 97.4549 98.549 97.4105 98.6146 97.3573L99.6311 98.7281C99.3349 99.0225 98.8133 99.5743 98.0669 100.384C97.7741 100.701 97.5202 100.983 97.3054 101.229C97.0906 101.476 96.9438 101.646 96.8651 101.74L96.5553 101.404L95.3806 95.0306Z" fill="white"/>
<path d="M101.35 97.216C101.389 97.1166 101.411 97.0027 101.418 96.8742L98.3242 91.7481L98.6727 91.3047L104.057 93.5344C104.236 93.4857 104.422 93.3749 104.613 93.2019L104.846 93.4607L103.394 95.3075L103.166 95.0411C103.359 94.7267 103.475 94.4444 103.514 94.1943L102.173 93.6347L100.999 95.1267L101.777 96.4028C101.993 96.3189 102.243 96.1359 102.528 95.8537L102.76 96.1127L101.413 97.8264L101.186 97.5602C101.256 97.4302 101.311 97.3155 101.35 97.216ZM101.714 93.4376L99.3966 92.4693L100.732 94.6859L101.714 93.4376Z" fill="white"/>
<path d="M105.497 91.3008C104.963 91.3322 104.351 91.0313 103.66 90.3983C102.97 89.7655 102.527 89.0957 102.334 88.3892C102.14 87.6828 102.241 86.9033 102.638 86.0506C102.774 85.7584 102.937 85.4976 103.127 85.2676C103.317 85.0379 103.518 84.8867 103.73 84.8141C103.942 84.7415 104.139 84.7893 104.322 84.9569C104.468 85.0904 104.563 85.2503 104.607 85.4363C104.651 85.6224 104.64 85.7854 104.575 85.9257C104.52 86.0425 104.449 86.1268 104.359 86.1781C104.27 86.2296 104.182 86.2405 104.095 86.2106C104.03 85.993 103.952 85.8421 103.86 85.7583C103.723 85.6324 103.575 85.6281 103.417 85.7453C103.258 85.8625 103.112 86.0643 102.979 86.3504C102.702 86.9461 102.674 87.4928 102.893 87.9897C103.113 88.487 103.506 88.9947 104.072 89.5133C104.634 90.0281 105.121 90.3293 105.535 90.4165C105.948 90.5039 106.292 90.2526 106.567 89.6627C106.678 89.4232 106.754 89.1805 106.794 88.934C106.835 88.688 106.849 88.5009 106.837 88.3734L105.745 87.3724C105.562 87.5471 105.38 87.8051 105.198 88.1458L104.983 87.8991L105.689 86.2095L107.456 87.8282C107.44 88.1554 107.38 88.5133 107.277 88.9013C107.173 89.2899 107.047 89.6446 106.898 89.9657C106.498 90.8244 106.031 91.2696 105.497 91.3008Z" fill="white"/>
<path d="M108.911 86.0607L104.443 83.3094C104.237 83.4835 104.03 83.7761 103.821 84.1876L103.543 83.9523L104.589 81.2889C105.21 79.7067 106.006 79.2144 106.977 79.8124C107.341 80.0365 107.591 80.3341 107.726 80.7048C107.861 81.0757 107.879 81.5351 107.781 82.0833C107.898 81.9929 108.035 81.9332 108.19 81.9044C108.345 81.8756 108.53 81.867 108.745 81.8789L110.522 81.9568C110.714 81.8175 110.899 81.5716 111.079 81.2187L111.369 81.4747L110.755 83.0396L108.556 82.8049C108.272 82.7765 108.067 82.7765 107.939 82.805C107.812 82.8337 107.705 82.9078 107.621 83.0272C107.536 83.1469 107.431 83.3655 107.307 83.6833L107.225 83.8906L109.269 85.1489C109.36 85.0758 109.452 84.9744 109.548 84.8447C109.644 84.7147 109.756 84.5269 109.887 84.2812L110.173 84.5216L109.046 87.3925L108.76 87.152C108.879 86.7275 108.929 86.3638 108.911 86.0607ZM107.259 81.7234C107.196 81.2987 106.974 80.9692 106.594 80.7348C106.23 80.5107 105.907 80.4645 105.626 80.5957C105.345 80.7273 105.111 81.0314 104.924 81.5079C104.831 81.7428 104.749 82.014 104.676 82.3208L106.844 83.6558L106.97 83.3345C107.226 82.6854 107.322 82.1482 107.259 81.7234Z" fill="white"/>
<path d="M112.174 78.9842C112.187 78.831 112.177 78.7183 112.145 78.6462L107.052 77.2116C106.843 77.3698 106.651 77.5953 106.475 77.8885L106.152 77.7546L107.615 74.3477L109.075 74.6904C109.078 74.7655 109.063 74.8412 109.031 74.9176C109.02 74.9431 108.997 74.9795 108.963 75.0268C108.519 74.9762 108.153 74.9928 107.863 75.0766L107.246 76.5128L109.604 77.177L109.928 76.3006C109.967 76.1919 109.945 76.0885 109.86 75.9904C109.775 75.8924 109.648 75.7938 109.479 75.6948L109.584 75.4504L111.452 75.9765L111.347 76.2209C111.05 76.2059 110.843 76.2131 110.724 76.2425C110.606 76.272 110.516 76.3495 110.455 76.475L110.038 77.2994L112.49 77.9901L113.189 76.363C112.99 76.1359 112.682 75.9264 112.264 75.7344C112.278 75.6698 112.292 75.6196 112.308 75.5839C112.318 75.5584 112.348 75.5068 112.395 75.4287L113.978 75.9517L112.427 79.565L112.098 79.4209C112.136 79.2832 112.161 79.1378 112.174 78.9842Z" fill="white"/>
<path d="M114.264 73.3913L109.497 72.3757C109.335 72.5516 109.192 72.8156 109.07 73.1683L108.762 73.0575L109.261 70.8286C109.409 70.169 109.645 69.7022 109.968 69.4284C110.292 69.1546 110.692 69.0686 111.169 69.1701C111.84 69.313 112.197 69.7409 112.24 70.4535C112.447 70.0828 112.7 69.815 112.999 69.6502C113.298 69.4855 113.627 69.4414 113.986 69.5178C114.498 69.6269 114.863 69.8868 115.083 70.2971C115.302 70.7076 115.342 71.2254 115.201 71.8508L114.642 74.3463L114.325 74.2337C114.358 73.8925 114.338 73.6116 114.264 73.3913ZM111.774 70.3902C111.641 70.1576 111.389 70.0019 111.018 69.9227C110.648 69.8436 110.353 69.8846 110.135 70.0456C109.917 70.2066 109.761 70.4994 109.665 70.9239C109.623 71.1132 109.585 71.3367 109.552 71.594L111.68 72.0473L111.834 71.3589C111.927 70.9457 111.907 70.6229 111.774 70.3902ZM114.656 70.797C114.492 70.5517 114.213 70.387 113.819 70.303C113.425 70.2191 113.093 70.2734 112.825 70.4654C112.557 70.6579 112.37 70.9891 112.265 71.4596L112.112 72.1395L114.531 72.6548C114.609 72.4189 114.688 72.1201 114.769 71.7588C114.858 71.3628 114.82 71.0424 114.656 70.797Z" fill="white"/>
<path d="M4.4232 59.2402V54.5846H3.14746V54.0207C3.55351 53.9884 3.97253 53.9252 4.40428 53.8312C4.8358 53.7374 5.2071 53.6191 5.51806 53.4766L5.83236 53.6222V59.2402C5.95279 59.3116 6.1432 59.3747 6.40359 59.4298C6.66361 59.4849 6.87009 59.5189 7.02242 59.5318L6.99386 59.9983H3.10938L3.12842 59.5318C3.69322 59.4671 4.12486 59.3698 4.4232 59.2402Z" fill="white"/>
<path d="M7.71735 59.5324C7.25457 59.2218 7.02344 58.7782 7.02344 58.2014C7.02344 57.9036 7.12766 57.6072 7.33648 57.3127C7.54518 57.0179 7.83735 56.7564 8.213 56.5282C7.89983 56.3698 7.65631 56.1798 7.48244 55.9578C7.30857 55.736 7.22157 55.4604 7.22157 55.1307C7.22157 54.6238 7.43731 54.2213 7.86865 53.9234C8.29987 53.6256 8.87731 53.4766 9.6007 53.4766C10.3313 53.4766 10.912 53.6192 11.3434 53.9044C11.7745 54.1896 11.9904 54.573 11.9904 55.0548C11.9904 55.3147 11.886 55.5746 11.6772 55.8344C11.4687 56.0942 11.1937 56.3066 10.853 56.4713C11.2842 56.6614 11.6234 56.8834 11.8704 57.1368C12.1172 57.3902 12.2408 57.7167 12.2408 58.116C12.2408 58.6928 12.0113 59.1508 11.552 59.4897C11.093 59.8288 10.4737 59.9983 9.69474 59.9983C8.83909 59.9982 8.17974 59.843 7.71735 59.5324ZM10.4927 59.0285C10.6841 58.8194 10.7797 58.5278 10.7797 58.1539C10.7797 57.9447 10.7085 57.7656 10.5659 57.6167C10.4232 57.468 10.244 57.3444 10.0285 57.246C9.81279 57.1478 9.52765 57.0384 9.17287 56.918C8.96418 57.0701 8.81105 57.2446 8.71374 57.4409C8.61631 57.6373 8.56752 57.872 8.56752 58.1444C8.56752 58.5182 8.66835 58.8115 8.87026 59.0236C9.07192 59.236 9.34661 59.3421 9.69461 59.3421C10.0354 59.3422 10.3015 59.2376 10.4927 59.0285ZM10.3313 55.6536C10.4356 55.4635 10.4877 55.2606 10.4877 55.0452C10.4877 54.7728 10.4059 54.5556 10.2424 54.394C10.0789 54.2323 9.86509 54.1515 9.6007 54.1515C9.32248 54.1515 9.10335 54.2323 8.94331 54.394C8.78326 54.5556 8.70344 54.7728 8.70344 55.0452C8.70344 55.2861 8.80596 55.4841 9.01126 55.6393C9.21631 55.7947 9.51735 55.9483 9.91387 56.1004C10.0875 55.9928 10.2267 55.8437 10.3313 55.6536Z" fill="white"/>
<path d="M107.536 58.2866L107.457 57.9424L109.947 53.4766C110.474 53.502 110.902 53.6137 111.232 53.8113L108.88 57.5599H110.392L110.491 56.0011C110.701 56.0011 110.854 55.9597 110.95 55.8768C111.045 55.7939 111.12 55.6537 111.172 55.4559H111.736L111.726 57.6075C111.976 57.6778 112.292 57.7511 112.674 57.8275L112.625 58.2865H111.677V59.9983H110.392V58.2865L107.536 58.2866Z" fill="white"/>
<path d="M114.488 59.3719C114.147 58.9541 113.977 58.3499 113.977 57.5587C113.977 56.5653 114.238 55.7187 114.761 55.0192C115.285 54.32 116.043 53.8059 117.036 53.4766L117.229 53.9512C116.145 54.5019 115.493 55.35 115.273 56.4955C115.584 56.3183 115.879 56.2296 116.159 56.2296C116.695 56.2296 117.118 56.4005 117.427 56.7423C117.735 57.084 117.89 57.546 117.89 58.1282C117.89 58.4889 117.808 58.8117 117.644 59.0966C117.48 59.3814 117.252 59.6029 116.96 59.761C116.667 59.9193 116.333 59.9983 115.957 59.9983C115.318 59.9983 114.829 59.7893 114.488 59.3719ZM116.537 59.03C116.66 58.821 116.722 58.5237 116.722 58.1375C116.722 57.7454 116.654 57.4399 116.517 57.2216C116.38 57.0032 116.185 56.8941 115.933 56.8941C115.708 56.8941 115.463 57.0017 115.2 57.2168V57.3402C115.2 58.03 115.265 58.5364 115.394 58.8591C115.522 59.1818 115.726 59.3433 116.005 59.3433C116.236 59.3434 116.413 59.239 116.537 59.03Z" fill="white"/>
<path fill-rule="evenodd" clip-rule="evenodd" d="M50.9948 104.261C50.9948 104.261 50.9948 104.261 50.5885 104.305C50.1823 104.349 50.1822 104.349 50.1822 104.349L50.1821 104.348L50.1818 104.345L50.1806 104.334C50.1796 104.324 50.1781 104.311 50.1763 104.293C50.1728 104.257 50.1677 104.205 50.1618 104.137C50.1498 104.002 50.1342 103.803 50.1191 103.548C50.0888 103.038 50.0604 102.304 50.0675 101.398C50.0817 99.5875 50.2375 97.0896 50.8053 94.3398C51.9394 88.8465 54.7295 82.2973 61.3744 78.2617L61.8055 78.9414C55.4282 82.8145 52.7176 89.1171 51.6066 94.4982C51.0517 97.1858 50.8989 99.6308 50.885 101.404C50.8781 102.29 50.9059 103.007 50.9352 103.502C50.9499 103.749 50.965 103.94 50.9763 104.069C50.982 104.133 50.9867 104.182 50.9899 104.214C50.9916 104.23 50.9928 104.242 50.9937 104.25L50.9946 104.259L50.9948 104.261Z" fill="white"/>
<path fill-rule="evenodd" clip-rule="evenodd" d="M53.9766 104.346V83.4766H55.2809V104.346H53.9766Z" fill="white"/>
<path fill-rule="evenodd" clip-rule="evenodd" d="M70.8318 104.349C70.8318 104.349 70.8318 104.349 70.4707 104.305C70.1095 104.261 70.1095 104.261 70.1095 104.261L70.1096 104.261L70.1097 104.259L70.1106 104.25C70.1113 104.242 70.1124 104.23 70.1139 104.214C70.1168 104.182 70.121 104.133 70.126 104.069C70.136 103.94 70.1494 103.749 70.1625 103.502C70.1886 103.007 70.2133 102.29 70.2071 101.404C70.1948 99.6308 70.0589 97.1858 69.5657 94.4982C68.5782 89.1171 66.1687 82.8145 60.5 78.9414L60.8832 78.2617C66.7898 82.2973 69.2699 88.8465 70.278 94.3398C70.7827 97.0896 70.9212 99.5875 70.9338 101.398C70.9401 102.304 70.9149 103.038 70.888 103.548C70.8745 103.803 70.8606 104.002 70.85 104.137C70.8447 104.205 70.8403 104.257 70.8371 104.293C70.8355 104.311 70.8342 104.324 70.8333 104.334L70.8322 104.345L70.8318 104.349Z" fill="white"/>
<path fill-rule="evenodd" clip-rule="evenodd" d="M65.7188 104.346V83.4766H67.0231V104.346H65.7188Z" fill="white"/>
<path fill-rule="evenodd" clip-rule="evenodd" d="M70.9336 35.2188H75.738V38.4004H77.2504L77.2093 35.2188H81.6447L81.6856 38.4863H83.209V35.2188H87.8901V43.0448H70.9336V35.2188ZM71.7557 36.0797V42.1839H87.068V36.0797H84.0311V39.3473H80.8743L80.8333 36.0797H78.0426L78.0837 39.2613H74.9159V36.0797H71.7557Z" fill="white"/>
<path fill-rule="evenodd" clip-rule="evenodd" d="M33.1094 35.2188H37.9137V38.4004H39.4262L39.3851 35.2188H43.8203L43.8613 38.4863H45.3846V35.2188H50.0659V43.0448H33.1094V35.2188ZM33.9315 36.0797V42.1839H49.2438V36.0797H46.2068V39.3473H43.0499L43.0089 36.0797H40.2184L40.2595 39.2613H37.0916V36.0797H33.9315Z" fill="white"/>
<path fill-rule="evenodd" clip-rule="evenodd" d="M50.0664 23.4766H56.2167V26.984H58.315V23.8747H59.1968V27.7802H55.3349V24.2728H50.9482V31.3084H54.3542V70.4331H53.4723V32.1045H50.0664V23.4766Z" fill="white"/>
<path fill-rule="evenodd" clip-rule="evenodd" d="M65.6638 23.4766H70.9355V32.1045H68.0161V70.4331H67.2602V31.3084H70.1796V24.2728H66.4196V27.7802H63.1094V23.8747H63.8652V26.984H65.6638V23.4766Z" fill="white"/>
<path fill-rule="evenodd" clip-rule="evenodd" d="M63.108 24.7809H57.8906V23.4766H63.108V24.7809Z" fill="white"/>
<path fill-rule="evenodd" clip-rule="evenodd" d="M76.8017 65.0093C76.8032 65.0018 76.8051 64.9932 76.8072 64.9834C76.817 64.9394 76.8335 64.8734 76.8588 64.7929C76.9099 64.6309 76.9952 64.4166 77.1313 64.2065C77.3938 63.8011 77.8651 63.3764 78.7351 63.4196L78.761 62.6131C77.6733 62.559 77.0091 63.1078 76.6254 63.7004C76.4385 63.9892 76.3231 64.2799 76.2543 64.4983C76.2197 64.6079 76.1964 64.7008 76.1814 64.7683C76.1739 64.8021 76.1684 64.8296 76.1646 64.8499C76.1628 64.86 76.1613 64.8684 76.1602 64.8747C76.1597 64.8779 76.1592 64.8806 76.1589 64.8829L76.1584 64.8858L76.1582 64.887L76.1582 64.8875C76.1581 64.8877 76.1581 64.888 76.477 64.9635L76.1581 64.888L76.1523 64.9254V73.0442H76.8017V65.0093Z" fill="white"/>
<path fill-rule="evenodd" clip-rule="evenodd" d="M78.7617 61.3047H79.6318V62.635C80.8246 62.697 81.5823 63.1899 82.0409 63.7175C82.2914 64.0058 82.4459 64.296 82.5382 64.5139C82.5845 64.6234 82.6158 64.7161 82.6359 64.7835C82.6459 64.8172 82.6533 64.8447 82.6583 64.8649C82.6608 64.875 82.6628 64.8834 82.6642 64.8897C82.6649 64.8929 82.6655 64.8956 82.666 64.8978L82.6666 64.9008L82.6669 64.9019L82.667 64.9025C82.667 64.9027 82.6671 64.9029 82.2397 64.9783L82.6671 64.9029L82.6748 64.9403V73.0438H81.8047V65.024C81.8027 65.0166 81.8002 65.0079 81.7973 64.9982C81.7842 64.9543 81.7622 64.8883 81.7282 64.808C81.6597 64.6463 81.5454 64.4324 81.3631 64.2227C81.0114 63.818 80.3799 63.394 79.2141 63.4372L78.7617 63.454V61.3047Z" fill="white"/>
<path fill-rule="evenodd" clip-rule="evenodd" d="M40.2782 65.0093C40.2798 65.0018 40.2816 64.9932 40.2838 64.9834C40.2936 64.9394 40.31 64.8734 40.3354 64.7929C40.3864 64.6309 40.4718 64.4166 40.6078 64.2065C40.8703 63.8011 41.3416 63.3764 42.2117 63.4196L42.2376 62.6131C41.1499 62.559 40.4856 63.1078 40.102 63.7004C39.915 63.9892 39.7997 64.2799 39.7308 64.4983C39.6963 64.6079 39.6729 64.7008 39.6579 64.7683C39.6504 64.8021 39.645 64.8296 39.6412 64.8499C39.6393 64.86 39.6379 64.8684 39.6368 64.8747C39.6362 64.8779 39.6358 64.8806 39.6354 64.8829L39.635 64.8858L39.6348 64.887L39.6347 64.8875C39.6347 64.8877 39.6346 64.888 39.9536 64.9635L39.6346 64.888L39.6289 64.9254V73.0442H40.2782V65.0093Z" fill="white"/>
<path fill-rule="evenodd" clip-rule="evenodd" d="M40.9336 61.3047H42.0936V62.635C43.6841 62.697 44.6944 63.1899 45.3058 63.7175C45.6398 64.0058 45.8459 64.296 45.9689 64.5139C46.0307 64.6234 46.0723 64.7161 46.0991 64.7835C46.1126 64.8172 46.1223 64.8447 46.129 64.8649C46.1324 64.875 46.135 64.8834 46.1369 64.8897C46.1379 64.8929 46.1387 64.8956 46.1393 64.8978L46.1401 64.9008L46.1405 64.9019L46.1406 64.9025C46.1407 64.9027 46.1407 64.9029 45.571 64.9783L46.1407 64.9029L46.151 64.9403V73.0438H44.9909V65.024C44.9882 65.0166 44.9849 65.0079 44.981 64.9982C44.9636 64.9543 44.9342 64.8883 44.8888 64.808C44.7976 64.6463 44.6452 64.4324 44.4021 64.2227C43.9332 63.818 43.0912 63.394 41.5368 63.4372L40.9336 63.454V61.3047Z" fill="white"/>
<path fill-rule="evenodd" clip-rule="evenodd" d="M25.3407 81.7092H21.3711V80.8711H26.1482V85.2504H29.7908V80.8711H34.8184V85.2504H38.2309V80.8711H43.4885V85.2504H47.1311V80.8711H52.3887V85.2504H53.9798V86.0885H51.5811V81.7092H47.9386V86.0885H42.6809V81.7092H39.0384V86.0885H34.0108V81.7092H30.5984V86.0885H25.3407V81.7092Z" fill="white"/>
<path fill-rule="evenodd" clip-rule="evenodd" d="M68.6147 80.8711H73.8722V85.2504H77.5148V80.8711H82.7724V85.2504H86.1849V80.8711H91.2124V85.2504H94.855V80.8711H99.6321V81.7092H95.6626V86.0885H90.4049V81.7092H86.9924V86.0885H81.9649V81.7092H78.3224V86.0885H73.0647V81.7092H69.4222V86.0885H67.0234V85.2504H68.6147V80.8711Z" fill="white"/>
<path fill-rule="evenodd" clip-rule="evenodd" d="M88.9765 46.957L89.0977 48.8025C89.3085 52.0156 91.8988 54.5549 95.0645 54.5549C98.2303 54.5549 100.821 52.0156 101.031 48.8025L101.153 46.957L101.782 48.6888C102.076 49.4984 102.238 50.375 102.238 51.2903C102.238 55.3805 99.0266 58.6962 95.0645 58.6962C91.1025 58.6962 87.8906 55.3805 87.8906 51.2903C87.8906 50.375 88.0527 49.4984 88.347 48.6888L88.9765 46.957ZM88.6919 50.704C88.6754 50.8971 88.6669 51.0926 88.6669 51.2903C88.6669 54.9378 91.5313 57.8947 95.0645 57.8947C98.5978 57.8947 101.462 54.9378 101.462 51.2903C101.462 51.0926 101.454 50.8971 101.437 50.704C100.51 53.4143 98.0076 55.3563 95.0645 55.3563C92.1215 55.3563 89.6193 53.4143 88.6919 50.704Z" fill="white"/>
</svg>
