<svg width="121" height="122" viewBox="0 0 121 122" fill="none" xmlns="http://www.w3.org/2000/svg">
<g clip-path="url(#clip0_13133_16206)">
<path d="M120.501 61.4592C117.814 61.5657 115.127 61.6711 112.38 61.7801C112.316 59.9539 112.255 58.2139 112.191 56.4033C112.691 56.4692 113.13 56.4895 113.539 56.6057C113.663 56.6404 113.77 56.9362 113.783 57.1194C113.844 57.9265 113.868 58.7348 113.906 59.5384H115.312C115.312 58.8199 115.294 58.1301 115.328 57.4427C115.335 57.3026 115.524 57.0727 115.651 57.0559C116.039 57.0044 116.438 57.0368 116.916 57.0368V59.403H118.672V56.0872C119.154 56.0644 119.676 56.0405 120.285 56.0117C120.327 57.3038 120.362 58.5289 120.409 59.7539C120.417 59.9647 120.47 60.173 120.501 60.3826V61.4592Z" fill="white"/>
<path d="M93.2534 94.846V94.0856C93.2534 91.2942 93.2534 88.5028 93.2534 85.7114C93.2534 85.5713 93.281 85.424 93.2426 85.2959C93.2113 85.1905 93.102 85.1091 93.0264 85.0157C92.9603 85.1151 92.8642 85.2073 92.8354 85.3175C92.8017 85.448 92.8258 85.5941 92.8258 85.7342C92.8258 88.625 92.7897 91.5169 92.8486 94.4065C92.8654 95.222 92.5591 95.7034 91.8408 96.1249V95.4399C91.8408 92.1696 91.8227 88.9004 91.8564 85.63C91.8636 84.9917 91.7122 84.6995 91.0468 84.7642C90.8774 84.781 90.6996 84.7151 90.4125 84.6696C90.4125 86.1461 90.4125 87.57 90.4125 88.9926C90.4125 90.4152 90.4125 91.9037 90.4125 93.3587C90.4125 94.7622 90.4149 96.1644 90.4101 97.5679C90.3128 97.5655 90.2155 97.5619 90.117 97.5595C90.117 97.332 90.117 97.1045 90.117 96.8781C90.117 93.0102 90.1182 89.1423 90.1122 85.2743C90.1122 85.06 90.0509 84.8468 90.0185 84.6325C89.9392 84.6409 89.8612 84.6493 89.7819 84.6576C89.7699 84.8816 89.747 85.1043 89.747 85.3282C89.7446 89.2165 89.7014 93.1048 89.7759 96.9919C89.7951 97.9966 89.323 98.4517 88.5086 98.8971V84.4624C87.5164 84.3451 86.5782 84.2337 85.5728 84.1152V84.8816C85.5728 90.0656 85.574 95.2495 85.568 100.434C85.568 100.673 85.4984 100.911 85.4599 101.15C85.3842 101.141 85.3074 101.134 85.2317 101.126C85.2317 100.901 85.2317 100.674 85.2317 100.449C85.2317 95.2256 85.2317 90.0009 85.2317 84.7774C85.2317 84.6181 85.2533 84.4529 85.2197 84.3008C85.2005 84.2134 85.0923 84.1463 85.0239 84.0697C84.9662 84.1547 84.8749 84.2337 84.8569 84.3259C84.8281 84.4804 84.8473 84.6433 84.8473 84.8025C84.8473 89.9865 84.8161 95.1705 84.8737 100.354C84.8845 101.344 84.5686 101.875 83.5836 102.117V83.8936C83.0911 83.8254 82.6659 83.7679 82.0977 83.6889V103.064C82.0232 103.068 81.9488 103.07 81.8743 103.074C81.8611 102.836 81.8359 102.597 81.8359 102.36C81.8335 96.3189 81.8359 90.2775 81.8298 84.2361C81.8298 83.9691 81.9572 83.5799 81.3722 83.6505V84.3535C81.3722 90.4152 81.3578 96.4758 81.3914 102.538C81.395 103.252 81.2016 103.658 80.5145 103.832C80.3463 103.874 80.1938 103.976 79.9163 104.104V103.358C79.9163 96.938 79.9091 90.517 79.9295 84.0972C79.9307 83.5547 79.7746 83.3655 79.2388 83.3416C78.5445 83.3104 77.8538 83.1943 77.0454 83.1021V105.355C76.9721 105.36 76.9001 105.366 76.8268 105.371C76.804 105.141 76.7619 104.912 76.7619 104.682C76.7583 98.1619 76.7595 91.6427 76.7595 85.1223C76.7595 84.5834 76.7811 84.0445 76.7451 83.508C76.7343 83.3404 76.5649 83.1835 76.4676 83.0218C76.3968 83.1799 76.2634 83.338 76.2622 83.4973C76.249 85.8504 76.2526 88.2022 76.2526 90.5553C76.2526 95.2807 76.2526 100.006 76.2526 104.731C76.2526 105.35 75.9551 105.755 75.3601 105.947C75.1931 106 75.0214 106.037 74.7871 106.099V105.349C74.7871 98.0721 74.7811 90.7936 74.8003 83.5164C74.8015 82.9596 74.6694 82.7237 74.0856 82.7345C73.6328 82.7428 73.1775 82.6434 72.5937 82.5776V106.802C72.5156 106.805 72.4376 106.81 72.3607 106.814C72.3415 106.58 72.3042 106.347 72.3042 106.114C72.3018 98.478 72.3042 90.8415 72.2958 83.2051C72.2958 82.9656 72.2081 82.7261 72.1601 82.4866C72.0652 82.4985 71.9703 82.5117 71.8754 82.5237C71.8754 82.7668 71.8754 83.0111 71.8754 83.2542C71.8754 90.8104 71.8754 98.3678 71.8754 105.924C71.8754 107.116 71.7421 107.241 70.3859 107.256C70.3859 106.986 70.3859 106.716 70.3859 106.445C70.3859 87.4442 70.3823 68.4423 70.4015 49.4415C70.4015 48.7948 70.2393 48.5314 69.5799 48.3865C67.7696 47.9901 65.981 47.4979 64.184 47.0453C63.9762 46.9926 63.7648 46.9543 63.4873 46.8944V108.337C63.2411 108.367 63.0489 108.39 62.7966 108.421V97.8888C62.0675 97.823 61.5354 98.0457 61.2266 98.6672C60.9624 99.1989 60.5011 99.3127 59.9606 99.3857C56.0458 99.9138 52.1347 100.465 48.2223 101.008C44.9622 101.461 41.7021 101.918 38.4396 102.346C38.2126 102.376 37.9063 102.233 37.7213 102.073C37.2 101.619 36.5537 101.618 36.1129 102.127C35.5147 102.05 35.5627 101.609 35.5783 101.187C35.6612 98.8995 35.7441 96.6135 35.8246 94.3263C35.833 94.0724 35.8258 93.8173 35.8258 93.5C35.4318 93.5491 35.1063 93.5886 34.7879 93.6281C34.7879 92.6318 34.7819 91.6618 34.7903 90.6907C34.7987 89.7937 34.8444 88.8968 34.8288 88.0011C34.8216 87.6155 34.9321 87.3808 35.3165 87.3353C35.9687 87.2586 36.1405 86.9006 36.0949 86.2755C36.036 85.4851 36.0804 84.6876 36.0804 83.8326C35.7681 83.9128 35.4378 83.9978 35.1591 84.0697C35.1591 82.3728 35.1423 80.7059 35.1855 79.0402C35.1903 78.8701 35.5363 78.6378 35.7657 78.56C36.2678 78.3899 36.4504 78.0989 36.3819 77.5816C36.3387 77.2523 36.3735 76.9134 36.3735 76.4895C35.4678 76.9397 34.615 77.3589 33.7657 77.7864C31.2888 79.033 28.8191 80.2939 26.3314 81.519C25.923 81.7202 25.8209 81.9549 25.8125 82.3848C25.7452 86.0479 25.6503 89.7111 25.5602 93.3743C25.5578 93.4868 25.5206 93.5982 25.5002 93.7107C25.4329 93.7287 25.3656 93.7455 25.2984 93.7634C25.2011 93.4677 25.0137 93.1695 25.0197 92.8749C25.0797 89.9099 25.1698 86.9461 25.2539 83.981C25.2671 83.5044 25.338 83.0254 25.3092 82.5524C25.2875 82.1992 25.147 81.8531 25.0269 81.3705C26.2437 80.4376 27.6143 79.385 28.9861 78.3372C31.302 76.5685 33.6107 74.7914 35.9447 73.0455C36.3904 72.7126 36.5693 72.3246 36.5826 71.8025C36.6366 69.6925 36.6979 67.5837 36.7555 65.4737C36.7603 65.3144 36.7231 65.1467 36.7615 64.9971C37.1387 63.5241 36.1958 62.7002 35.2108 61.9374C34.251 61.195 34.2198 61.2225 34.7999 60.1975C38.6943 53.3214 42.5934 46.4477 46.4793 39.5657C46.6763 39.2172 46.9322 39.0604 47.301 38.9729C50.4217 38.2245 53.5329 37.4365 56.662 36.724C57.5149 36.53 58.0662 35.9289 58.7702 35.5469C59.6591 35.0643 59.6687 34.3458 59.641 33.498C59.5978 32.1891 59.629 30.8754 59.6927 29.5666C59.7071 29.2696 59.9293 28.9295 60.1528 28.7044C61.3251 27.52 62.8219 27.0925 64.4207 27.2326C65.6988 27.344 66.9552 27.7068 68.2213 27.9571C68.3534 27.9835 68.5576 28.0697 68.6069 28.0158C68.9973 27.5895 69.3276 27.9068 69.6616 28.0769C75.9751 31.2802 82.2875 34.4871 88.5999 37.6928C90.7873 38.8041 92.9999 39.8663 95.1477 41.0494C95.9297 41.4793 96.5904 42.1559 97.2402 42.787C98.1123 43.6336 98.9207 44.5473 99.7604 45.4263C99.8529 45.5233 99.973 45.5987 100.092 45.6658C100.766 46.0478 101.444 46.4238 102.081 46.9112C89.2798 43.1582 76.4784 39.4064 63.6915 35.6582C63.3155 36.2546 63.6375 36.4115 64.118 36.5468C72.0616 38.7801 80.004 41.0231 87.9452 43.266C92.7212 44.6156 97.4961 45.9687 102.272 47.3207C102.344 47.3411 102.414 47.3638 102.61 47.5399C102.471 47.6141 102.308 47.6608 102.201 47.7662C101.326 48.6224 100.452 49.4822 99.6018 50.3636C99.4709 50.4989 99.4048 50.7492 99.4012 50.948C99.3832 52.1407 99.3928 53.3334 99.3928 54.5608C100.411 54.8422 101.305 55.0937 102.201 55.3344C103.741 55.7463 105.282 56.1595 106.827 56.5547C107.162 56.6409 107.31 56.7774 107.321 57.151C107.35 58.2647 107.433 59.376 107.487 60.4885C107.496 60.6801 107.471 60.8729 107.458 61.1375C104.849 60.5112 102.299 59.8981 99.7435 59.2838C99.6895 59.9196 99.6883 59.922 100.236 60.0466C102.336 60.5232 104.434 61.001 106.535 61.4728C107.535 61.6967 107.536 61.6919 107.393 62.838C104.862 62.3194 102.337 61.8021 99.8348 61.2896C99.8348 62.4464 99.8156 63.5565 99.8384 64.6641C99.8793 66.6544 99.9453 68.6446 100.003 70.6349C100.126 74.8321 100.248 79.0306 100.374 83.2278C100.392 83.8433 100.486 84.4624 100.449 85.0732C100.417 85.5989 100.248 86.115 100.141 86.6359C100.046 86.6251 99.9514 86.6156 99.8565 86.6048C99.5405 76.3398 99.2258 66.0748 98.9075 55.7332C97.1585 55.2937 95.4108 54.8542 93.5092 54.3764C93.5092 67.8363 93.5092 81.2244 93.5044 94.6137C93.5044 94.652 93.4252 94.6903 93.2582 94.8436L93.2534 94.846ZM62.7918 45.7268C62.5948 45.8741 62.4399 45.9819 62.2933 46.1005C56.9491 50.4091 51.6061 54.7201 46.2631 59.0299C43.4367 61.3099 40.6054 63.5852 37.7922 65.8832C37.5808 66.0568 37.4054 66.3885 37.385 66.6604C37.3021 67.7705 37.2829 68.8853 37.2444 69.999C37.1603 72.4647 37.0787 74.9303 36.9982 77.3972C36.8744 81.1765 36.7519 84.9558 36.6318 88.7339C36.5441 91.5193 36.4504 94.3047 36.3843 97.0901C36.3531 98.4373 36.3783 99.7857 36.3783 101.176C45.1208 99.8539 53.9269 98.5223 62.7894 97.1811V45.7268H62.7918ZM77.1235 50.2857V81.416C78.0737 81.513 78.9722 81.604 79.9175 81.6998C79.9175 81.3968 79.9175 81.2005 79.9175 81.0029C79.9175 71.2157 79.9175 61.4297 79.9175 51.6425C79.9175 51.5024 79.9451 51.3539 79.9067 51.227C79.8719 51.1144 79.7782 50.9635 79.6809 50.9372C78.84 50.7073 77.992 50.5025 77.1235 50.2845V50.2857ZM88.5002 82.6446V81.907C88.5002 72.5425 88.5002 63.1768 88.5002 53.8124C88.5002 53.6735 88.5326 53.5214 88.4882 53.3968C88.4437 53.2735 88.3416 53.1106 88.2323 53.0807C87.3722 52.8424 86.5038 52.6328 85.6017 52.4053V82.3225C86.5482 82.4279 87.4731 82.5309 88.5002 82.6446ZM37.6516 64.1001C37.7093 64.0558 37.869 63.9432 38.018 63.8187C41.7297 60.7315 45.4403 57.6408 49.1532 54.5548C53.5869 50.8689 58.0254 47.1878 62.4555 43.4971C62.6249 43.3558 62.8315 43.1343 62.8363 42.9438C62.8711 41.7212 62.8543 40.4962 62.8543 39.1561C54.0854 46.9543 45.3934 54.6854 36.7555 62.3673C37.0678 62.9697 37.3477 63.5098 37.6528 64.1001H37.6516ZM63.4957 38.6532C63.4957 39.1729 63.5402 39.5573 63.4861 39.9249C63.3936 40.5488 63.6615 40.75 64.2489 40.9033C69.3024 42.2194 74.3439 43.5773 79.3902 44.9185C85.747 46.6082 92.105 48.2931 98.4642 49.972C98.654 50.0223 98.9459 50.0582 99.0625 49.9564C99.5357 49.5385 99.9586 49.0643 100.439 48.5721C88.1482 45.2718 75.8814 41.9787 63.4957 38.652V38.6532ZM63.8032 34.8344C75.3337 38.2772 86.7572 41.6877 98.1796 45.0982C97.3423 44.1533 96.451 43.3306 95.5441 42.5223C95.4192 42.411 95.227 42.3643 95.0576 42.3116C86.0833 39.4926 77.1079 36.6749 68.1324 33.8596C66.8615 33.4608 65.5882 33.0728 64.2657 32.6633C64.1071 33.4069 63.9594 34.0967 63.802 34.8332L63.8032 34.8344ZM72.6538 80.931C73.3901 81.0065 74.058 81.0747 74.7883 81.149V80.4568C74.7883 70.4289 74.7883 60.401 74.7883 50.372C74.7883 50.2318 74.8148 50.0858 74.7787 49.9552C74.7463 49.8403 74.6646 49.675 74.5721 49.6499C73.9463 49.4786 73.312 49.3397 72.655 49.184V80.9298L72.6538 80.931ZM63.4957 41.55C63.4957 41.9655 63.539 42.308 63.4861 42.6361C63.396 43.1977 63.6651 43.3738 64.1624 43.5055C74.7187 46.2933 85.2701 49.0966 95.8228 51.8976C96.7922 52.155 97.7615 52.4101 98.7453 52.6712V50.7168C86.9975 47.662 75.2784 44.6144 63.4945 41.55H63.4957ZM62.8855 36.0151C62.8687 35.9768 62.8531 35.9385 62.8363 35.9001C62.7618 35.9121 62.6861 35.9193 62.6128 35.9373C57.6927 37.1312 52.7749 38.3335 47.8523 39.5106C47.3634 39.628 47.0667 39.8447 46.8181 40.2854C43.731 45.7652 40.6222 51.233 37.5195 56.7043C36.83 57.9198 36.1429 59.1365 35.4546 60.3519C35.4834 60.3723 35.5123 60.3939 35.5411 60.4142C44.6559 52.2808 53.7707 44.1485 62.8855 36.0151ZM83.5572 82.0986V81.3633C83.5572 71.7593 83.5572 62.1542 83.5572 52.5502C83.5572 52.4113 83.586 52.2616 83.5464 52.1347C83.5127 52.0245 83.4179 51.8832 83.3193 51.8521C82.9506 51.7347 82.5698 51.6581 82.1518 51.5551V81.9405C82.5962 81.9908 83.0251 82.0387 83.5572 82.0998V82.0986ZM91.8396 83.0099V82.2722C91.8396 73.0658 91.8396 63.8582 91.8396 54.6518C91.8396 54.4926 91.86 54.3285 91.8288 54.1752C91.8095 54.0806 91.7242 53.9501 91.6414 53.9249C91.2666 53.8112 90.8822 53.7298 90.4606 53.6256V82.8398C90.9194 82.8961 91.3326 82.9464 91.8408 83.0099H91.8396ZM63.5474 45.2347C63.4381 45.728 63.4417 46.0214 64.0038 46.1627C75.3265 49.0068 86.6443 51.8724 97.9633 54.7309C98.2456 54.8027 98.5339 54.8482 98.8222 54.9069C98.9111 54.293 98.6937 53.9218 98.17 53.7932C89.0419 51.5359 79.9151 49.2762 70.7871 47.0189C68.3883 46.4262 65.9882 45.8358 63.5462 45.2347H63.5474ZM76.5709 81.3909C76.6334 81.3418 76.6959 81.2939 76.7595 81.2448V80.652C76.7595 70.7091 76.7595 60.7675 76.7595 50.8246C76.7595 50.7049 76.7992 50.5624 76.7475 50.4713C76.661 50.3181 76.5157 50.1983 76.3956 50.0654C76.3487 50.1025 76.3019 50.1408 76.2538 50.178C76.2538 50.336 76.2538 50.4941 76.2538 50.6522C76.2538 60.6741 76.2538 70.696 76.2538 80.7191C76.2538 80.8184 76.2202 80.9382 76.2634 81.0136C76.3427 81.1538 76.4664 81.2675 76.5709 81.392V81.3909ZM81.5115 51.3551C81.4647 51.3803 81.419 51.4066 81.3722 51.4317V52.0197C81.3722 61.7614 81.3722 71.5043 81.3722 81.2459C81.3722 81.3657 81.347 81.4938 81.3806 81.6016C81.4154 81.7094 81.5115 81.798 81.58 81.8962C81.6641 81.7956 81.783 81.7082 81.8226 81.5932C81.8647 81.4675 81.8335 81.3178 81.8335 81.1777C81.8335 71.5151 81.8335 61.8524 81.8335 52.1898C81.8335 52.0305 81.8731 51.8557 81.819 51.7156C81.765 51.5766 81.6172 51.4725 81.5115 51.3539V51.3551ZM92.9699 54.2339C92.9219 54.2578 92.8738 54.2818 92.8245 54.3057C92.8245 54.5369 92.8245 54.768 92.8245 55.0003C92.8245 64.1325 92.8245 73.2634 92.8245 82.3956C92.8245 82.5548 92.7897 82.7285 92.8426 82.8698C92.8858 82.9847 93.0348 83.0614 93.251 83.2602V82.5452C93.251 73.3341 93.251 64.1217 93.251 54.9105C93.251 54.7716 93.2822 54.6183 93.2342 54.4962C93.1933 54.3908 93.0612 54.3201 92.9687 54.2339H92.9699ZM72.0316 48.9793C71.9799 48.9996 71.9282 49.0188 71.8754 49.0391C71.8754 49.2918 71.8754 49.5445 71.8754 49.7972C71.8754 59.8993 71.8742 70.0026 71.885 80.1047C71.885 80.3514 72.034 80.5969 72.112 80.8436C72.1745 80.6005 72.2922 80.3562 72.2922 80.1131C72.3018 70.011 72.3006 59.9077 72.2994 49.8055C72.2994 49.6463 72.3307 49.4762 72.285 49.3301C72.2442 49.1996 72.118 49.0954 72.0291 48.9793H72.0316ZM85.132 52.0592C85.0371 52.1299 84.9422 52.2017 84.8473 52.2724V52.9131C84.8473 62.4607 84.8473 72.0084 84.8473 81.5549C84.8473 81.7142 84.8197 81.8818 84.8617 82.0303C84.8917 82.1345 85.0179 82.2123 85.1007 82.301C85.144 82.2794 85.1884 82.2566 85.2317 82.2351C85.2317 82.0399 85.2317 81.8447 85.2317 81.6507C85.2317 72.0839 85.2317 62.5158 85.2317 52.949C85.2317 52.7897 85.2365 52.6292 85.2197 52.4712C85.2053 52.3323 85.162 52.1957 85.132 52.0592ZM90.117 82.8614V82.0351C90.117 72.7652 90.117 63.4942 90.117 54.2243C90.117 54.0651 90.1434 53.8974 90.1038 53.7489C90.0738 53.6375 89.9561 53.5489 89.7867 53.3346C89.7867 63.2355 89.7867 72.958 89.7939 82.6806C89.7939 82.7153 89.9116 82.7488 90.117 82.8614ZM59.2542 35.9732C59.2651 36.0055 59.2759 36.0391 59.2867 36.0714C60.4459 35.7912 61.6074 35.5181 62.7642 35.2236C62.8963 35.19 63.0753 35.0619 63.1029 34.9457C63.2759 34.2392 63.4116 33.5231 63.5858 32.6872C62.0711 33.8356 60.6633 34.9038 59.2555 35.972L59.2542 35.9732ZM61.4056 33.2094C61.802 32.7567 61.8032 29.2983 61.4068 28.8349C60.9768 29.369 60.9756 32.6789 61.4056 33.2094ZM63.2038 27.9032C62.8255 28.4301 62.8795 31.6813 63.2723 31.9975C63.6435 31.4095 63.5918 28.3116 63.2038 27.9032ZM64.9504 30.703C65.4417 30.0563 65.3924 28.2912 64.8987 27.8853C64.5108 28.3978 64.5228 30.2216 64.9504 30.703ZM85.6569 82.6339C85.6065 82.6889 85.556 82.7428 85.5068 82.7979C85.6245 82.9213 85.7278 83.132 85.8599 83.1524C86.7152 83.2829 87.5752 83.3715 88.4341 83.4733L88.5518 83.3152C88.4329 83.1739 88.3296 82.9284 88.1939 82.9093C87.3518 82.7895 86.5038 82.7201 85.6569 82.6351V82.6339ZM79.8514 82.4447C79.8863 82.3812 79.9199 82.3165 79.9548 82.2531C79.8106 82.1525 79.6761 81.986 79.5199 81.9633C78.8148 81.8639 78.1037 81.7968 77.3926 81.7393C77.2917 81.7309 77.1812 81.8435 77.0754 81.8998C77.1595 81.9848 77.234 82.1321 77.3277 82.1453C78.1674 82.2578 79.0094 82.3477 79.8514 82.4447ZM74.7259 81.8303C74.7559 81.7621 74.7871 81.6938 74.8172 81.6256C74.6958 81.5585 74.5793 81.4507 74.4508 81.4316C73.9595 81.3573 73.4646 81.301 72.9697 81.2615C72.8628 81.2531 72.7475 81.3406 72.6358 81.3837C72.7247 81.4699 72.8051 81.6184 72.9048 81.6315C73.5102 81.7142 74.1193 81.7669 74.7271 81.8291L74.7259 81.8303ZM90.4666 83.1811C90.4281 83.7523 90.8197 83.9152 91.7975 83.7799C91.8103 83.4422 91.3667 83.2426 90.4666 83.1811ZM82.1626 82.3105C82.2034 82.774 82.5794 82.9069 83.5067 82.8195C83.5128 82.3584 83.2425 82.2519 82.1626 82.3105ZM66.9949 28.8828L67.169 28.569C66.972 28.4912 66.757 28.3259 66.5829 28.3619C66.4459 28.3894 66.2825 28.6577 66.2717 28.8277C66.2621 28.969 66.4579 29.1235 66.5624 29.2732C66.7066 29.1426 66.8519 29.0133 66.9961 28.8828H66.9949Z" fill="white"/>
<path d="M20.9167 93.1301C21.6195 93.8115 22.2741 94.4462 22.9612 95.1132C21.7972 97.0675 20.6429 99.0027 19.4573 100.992C21.3552 99.9846 23.2027 99.0218 25.0285 98.0195C25.4021 97.8147 25.6051 97.8459 25.8922 98.1428C26.4171 98.6853 26.9913 99.1811 27.5583 99.708C25.1895 102.459 22.918 105.097 20.6212 107.765C20.1011 107.221 19.6218 106.719 19.1185 106.192C20.6152 104.521 22.0819 102.883 23.5486 101.244L23.4825 101.151C22.9252 101.435 22.3666 101.716 21.8104 102.001C20.4435 102.699 19.0717 103.388 17.7155 104.106C17.3912 104.278 17.2038 104.238 16.9539 103.983C16.6344 103.656 16.256 103.387 15.8909 103.084C17.1377 100.943 18.3005 98.9464 19.4621 96.9501C19.4393 96.931 19.4176 96.9118 19.3948 96.8927C17.6927 98.3177 15.9918 99.7415 14.3617 101.105C13.8152 100.593 13.2987 100.107 12.7461 99.5882C15.4704 97.4351 18.1876 95.288 20.9191 93.1289L20.9167 93.1301Z" fill="white"/>
<path d="M59.9075 113.908C60.6282 113.85 61.2997 113.771 61.9723 113.759C62.1309 113.757 62.3471 113.947 62.4468 114.105C63.2696 115.415 64.0721 116.74 64.8793 118.058C64.7736 116.749 64.6931 115.423 64.5453 114.104C64.4949 113.66 64.633 113.519 65.0306 113.516C65.4883 113.515 65.946 113.516 66.4781 113.516C66.6631 116.146 66.8481 118.792 67.0331 121.418C66.9466 121.463 66.9141 121.492 66.8781 121.496C65.576 121.658 64.603 121.174 63.9591 120.044C63.3525 118.979 62.7471 117.913 62.0504 116.873C62.1898 118.501 62.3303 120.13 62.4744 121.814C61.809 121.859 61.2 121.901 60.4804 121.951C60.2906 119.294 60.102 116.648 59.9062 113.909L59.9075 113.908Z" fill="white"/>
<path d="M31.7578 114.994C32.917 112.515 34.0413 110.112 35.2149 107.602C36.481 108.265 37.7435 108.816 38.8834 109.556C39.9801 110.268 40.4126 111.396 40.23 112.722C40.0906 113.732 39.705 114.637 39.0516 115.415C38.033 116.627 36.4966 117.016 34.935 116.41C33.8804 116.001 32.8653 115.492 31.7578 114.995V114.994ZM36.5122 109.944C35.8095 111.446 35.1104 112.94 34.4029 114.455C34.6383 114.566 34.7981 114.642 34.9578 114.717C35.9993 115.208 36.5807 115.08 37.1585 114.105C37.5092 113.515 37.7879 112.866 37.9885 112.21C38.3068 111.173 37.9981 110.601 37.0119 110.156C36.8858 110.098 36.7573 110.047 36.5122 109.943V109.944Z" fill="white"/>
<path d="M113.675 89.6795C113.173 90.4855 112.763 91.1884 112.298 91.853C112.195 92.0003 111.901 92.0745 111.692 92.0781C110.283 92.0973 108.873 92.0877 107.428 92.1979C108.533 92.89 109.638 93.5822 110.781 94.2995C110.401 94.9066 110.034 95.491 109.629 96.1389C107.343 94.715 105.085 93.3092 102.766 91.865C103.145 91.2483 103.506 90.6639 103.903 90.0184C104.888 90.6256 105.856 91.2231 106.961 91.9045C106.385 90.6519 105.888 89.5358 105.354 88.4365C105.204 88.1276 105.212 87.9025 105.403 87.6234C105.784 87.0654 106.129 86.4834 106.549 85.8164C106.674 86.1098 106.772 86.3313 106.863 86.5541C107.251 87.5109 107.68 88.4545 108.009 89.4317C108.195 89.9825 108.483 90.0987 109.016 90.0472C110.521 89.9035 112.032 89.8065 113.676 89.6795H113.675Z" fill="white"/>
<path d="M82.326 117.65C81.6281 117.929 81.0035 118.178 80.3128 118.454C79.8011 117.191 79.3026 115.962 78.8053 114.735C78.3056 113.503 77.8059 112.272 77.2773 110.972C77.9428 110.704 78.5831 110.447 79.2894 110.163C79.7242 111.221 80.1506 112.259 80.6443 113.46C80.8666 112.375 81.1332 111.449 81.2269 110.505C81.3194 109.576 81.6882 109.016 82.6239 108.809C83.0372 108.718 83.4216 108.498 83.9104 108.301C83.5609 109.713 83.2606 111.023 82.9026 112.318C82.7981 112.694 82.9074 112.846 83.2041 113.026C84.5651 113.855 85.9141 114.703 87.3711 115.609C86.4979 115.964 85.7255 116.3 84.9315 116.578C84.7801 116.631 84.5195 116.489 84.3549 116.373C83.3423 115.662 82.3441 114.93 81.3386 114.208C81.2173 114.121 81.0876 114.046 80.8089 113.869C81.3507 115.218 81.8275 116.408 82.326 117.65Z" fill="white"/>
<path d="M107.234 84.3328C107.514 83.6454 107.765 83.0263 108.044 82.3377C109.073 82.7485 110.064 83.1437 111.055 83.54C111.777 83.8286 112.492 84.1352 113.22 84.4082C113.861 84.6489 114.329 84.407 114.641 83.7161C114.962 83.0072 114.816 82.3521 114.199 82.0887C112.697 81.4456 111.177 80.8469 109.666 80.2278C109.466 80.1463 109.272 80.0517 109.019 79.9391C109.287 79.2733 109.543 78.6387 109.822 77.9453C111.709 78.7213 113.56 79.4446 115.377 80.2469C116.388 80.6936 116.743 81.5869 116.526 82.994C116.356 84.0909 115.895 85.08 115.13 85.9123C114.449 86.6547 113.637 86.8895 112.693 86.5194C110.896 85.8129 109.107 85.0848 107.234 84.3328Z" fill="white"/>
<path d="M75.3704 112.096C75.1374 112.678 75.0749 113.264 74.7506 113.517C74.4623 113.742 73.8809 113.566 73.4353 113.622C72.9284 113.686 72.4022 113.743 71.9398 113.937C71.7307 114.024 71.5121 114.464 71.5626 114.685C71.6082 114.888 71.9986 115.121 72.2557 115.147C72.9272 115.211 73.6118 115.141 74.2881 115.176C75.2863 115.228 76.1308 115.584 76.5164 116.591C76.9188 117.641 76.6341 118.575 75.8305 119.302C74.4239 120.574 72.6989 120.869 70.8683 120.748C70.6725 120.735 70.4779 120.685 70.2052 120.638C70.2977 120.109 70.3878 119.593 70.4899 119.008C71.2815 119.008 72.0719 119.044 72.8563 118.992C73.2202 118.968 73.607 118.825 73.917 118.631C74.1344 118.495 74.389 118.15 74.3518 117.949C74.3061 117.707 73.9998 117.395 73.7524 117.334C73.2791 117.219 72.7686 117.262 72.2725 117.237C71.8365 117.215 71.386 117.252 70.968 117.154C69.213 116.74 68.5992 114.671 69.8244 113.349C70.9031 112.186 72.3193 111.931 73.8124 111.934C74.2989 111.934 74.7866 112.032 75.3692 112.095L75.3704 112.096Z" fill="white"/>
<path d="M108.055 98.4913C107.584 99.0242 107.191 99.4996 106.756 99.9343C106.657 100.035 106.36 100.079 106.247 100.006C105.162 99.3104 104.449 99.7104 103.768 100.664C103.248 101.392 103.125 101.369 103.644 102.147C104.037 102.736 104.007 103.153 103.473 103.602C103.157 103.869 102.9 104.206 102.578 104.552C102.468 104.383 102.361 104.251 102.285 104.103C101.131 101.835 99.9887 99.5607 98.8223 97.2998C98.6457 96.9585 98.6878 96.7514 98.9412 96.4711C100.048 95.2533 100.038 95.2425 101.562 95.8592C103.704 96.7262 105.845 97.5944 108.055 98.4889V98.4913ZM101.017 97.5968C100.987 97.6184 100.957 97.6399 100.927 97.6615C101.412 98.4075 101.897 99.1535 102.413 99.9475C102.774 99.5427 103.07 99.211 103.392 98.8506C102.557 98.4099 101.787 98.0027 101.017 97.5968Z" fill="white"/>
<path d="M96.9837 109.351C94.729 106.672 92.5104 104.035 90.2461 101.345C91.7584 100.078 93.2611 98.8209 94.8191 97.5156C95.1266 98.0102 95.4065 98.4605 95.7248 98.9706C94.8443 99.7178 93.9723 100.46 93.0665 101.229C93.5783 101.841 94.0599 102.416 94.5801 103.037C95.2984 102.442 95.9843 101.876 96.7302 101.258C97.0906 101.683 97.4438 102.101 97.8342 102.563C97.1278 103.164 96.4383 103.752 95.7104 104.374C96.705 105.559 97.6744 106.716 98.6846 107.921C98.1249 108.391 97.5831 108.848 96.9861 109.351H96.9837Z" fill="white"/>
<path d="M28.6975 103.539C30.2219 104.528 31.6897 105.48 33.2501 106.492C32.8045 106.854 32.4093 107.175 31.9672 107.534C31.2885 107.097 30.4861 106.581 29.6273 106.027C29.357 106.443 29.1023 106.833 28.8236 107.262C29.5191 107.722 30.1954 108.169 30.8909 108.628C30.5918 109.083 30.3216 109.494 30.0273 109.943C29.3426 109.505 28.6927 109.089 27.9624 108.621C27.6477 109.098 27.3377 109.57 26.9942 110.092C27.9287 110.703 28.8405 111.298 29.799 111.925C29.4987 112.384 29.2092 112.826 28.8969 113.302C27.357 112.306 25.8554 111.334 24.2891 110.318C25.7605 108.057 27.2092 105.829 28.6999 103.539H28.6975Z" fill="white"/>
<path d="M102.535 66.716C103.318 66.843 104.08 66.9675 104.886 67.098C104.886 67.3543 104.886 67.5699 104.886 67.7854C104.886 70.4534 104.897 73.1215 104.875 75.7895C104.872 76.2553 104.808 76.7487 104.642 77.1786C104.022 78.7821 103.347 80.3652 102.693 81.9566C102.64 81.9423 102.588 81.9279 102.535 81.9135V66.7148V66.716Z" fill="white"/>
<path d="M101.747 24.8502C101.784 25.4406 101.943 26.0453 101.83 26.5938C101.625 27.5949 100.503 28.1937 99.4865 27.8943C99.0216 27.7578 98.5316 27.5302 98.1856 27.2045C97.2583 26.3327 96.403 25.3855 95.4805 24.4299C97.412 22.6313 99.3039 20.8685 101.273 19.0352C102.152 20.0315 103.052 20.9595 103.83 21.981C104.129 22.3738 104.267 22.9737 104.276 23.4839C104.295 24.5556 103.304 25.255 102.263 25.0011C102.054 24.9496 101.848 24.8814 101.747 24.8526V24.8502ZM96.9988 24.7185C97.6186 25.2933 98.182 25.8549 98.7874 26.3651C99.3376 26.8297 100.008 26.8069 100.469 26.377C100.91 25.9663 100.998 25.3161 100.583 24.7532C100.103 24.1042 99.543 23.5138 98.9892 22.8636C98.3177 23.4899 97.7099 24.0551 97 24.7173L96.9988 24.7185ZM99.6943 22.2002C100.188 22.7175 100.608 23.1977 101.071 23.6324C101.607 24.1353 102.234 24.1677 102.679 23.7689C103.091 23.4001 103.129 22.7833 102.693 22.2037C102.294 21.6721 101.823 21.1931 101.362 20.6638C100.784 21.1966 100.259 21.6792 99.6931 22.2014L99.6943 22.2002Z" fill="white"/>
<path d="M0.764221 76.4455C1.11738 76.5437 1.40327 76.6239 1.68675 76.7018C1.64711 77.3867 1.49936 78.0693 1.60027 78.7112C1.70117 79.353 1.97504 80.0021 2.31499 80.5625C2.63091 81.0846 3.20989 81.2415 3.84413 81.0966C4.48558 80.9493 4.89039 80.5565 4.94564 79.923C5.02853 78.9734 5.03453 78.0178 5.06336 77.0646C5.08498 76.3281 5.26637 75.6492 5.74805 75.0732C6.62254 74.0289 8.10483 73.8074 9.33007 74.5355C11.0382 75.5498 12.0424 78.7471 11.2208 80.632C10.9037 80.5613 10.5805 80.4883 10.4304 80.4547C10.3547 79.389 10.3055 78.413 10.2046 77.443C10.1745 77.158 10.0184 76.8778 9.88383 76.6131C9.461 75.7857 8.60093 75.3234 7.82976 75.4911C6.96969 75.6779 6.41353 76.3772 6.38229 77.37C6.35827 78.146 6.38109 78.9243 6.37509 79.7015C6.36548 81.0703 5.81412 81.9337 4.7078 82.3181C3.52341 82.73 2.29937 82.3803 1.51978 81.3193C0.444698 79.856 0.266919 78.2286 0.765422 76.4455H0.764221Z" fill="white"/>
<path d="M53.5359 114.04C53.1575 114.382 52.7804 114.724 52.5593 114.924C51.7761 114.738 51.1455 114.518 50.4993 114.453C49.7533 114.378 49.2116 114.828 49.0074 115.504C48.7683 116.295 48.5689 117.123 48.5353 117.944C48.4848 119.177 49.5311 119.803 50.7755 119.782C51.1023 119.777 51.5551 119.551 51.7269 119.693C52.0416 119.953 52.1894 120.413 52.4008 120.778C51.3437 121.77 48.0476 121.085 47.0662 119.868C45.7064 118.183 45.9791 115.309 47.7028 113.762C49.1791 112.436 52.1197 112.561 53.5383 114.039L53.5359 114.04Z" fill="white"/>
<path d="M56.5586 10.1345C56.716 9.70935 56.8012 9.23873 57.0403 8.86511C58.6859 6.30724 60.364 3.76854 62.0986 1.12086H57.0907C57.2133 0.0586776 57.2757 0 58.191 0C59.964 0 61.7382 0 63.5196 0C63.6421 0.652639 63.6145 1.11727 63.2998 1.59388C61.6625 4.06791 60.0529 6.56111 58.4349 9.04833C58.4049 9.09503 58.3892 9.15131 58.3136 9.32615H63.4331C63.1989 10.4231 63.1989 10.4135 62.2391 10.4099C60.4061 10.4039 58.573 10.4075 56.7388 10.4075L56.5586 10.1333V10.1345Z" fill="white"/>
<path d="M113.634 67.6932C113.598 68.0716 113.569 68.4213 113.531 68.7698C113.494 69.1194 113.449 69.4691 113.402 69.8607C112.883 69.8188 112.41 69.7804 111.828 69.7325C112.026 67.4441 112.221 65.1892 112.414 62.9607C112.518 62.9379 112.537 62.9259 112.552 62.9307C113.511 63.1894 113.956 63.7953 113.888 64.7485C113.871 64.9844 113.843 65.2204 113.813 65.5137C115.954 65.7053 118.089 65.8957 120.274 66.0909C120.208 66.8322 120.147 67.5184 120.08 68.25C117.923 68.0632 115.809 67.8812 113.631 67.6932H113.634Z" fill="white"/>
<path d="M86.6313 13.8003C86.9172 15.2481 87.1887 16.6217 87.4878 18.1425C86.9809 17.8718 86.5869 17.691 86.2313 17.4551C86.122 17.3821 86.0932 17.1581 86.0668 16.9965C85.901 15.999 85.7809 14.9919 85.5695 14.0039C85.4842 13.6027 85.2055 13.2423 84.9304 12.6926C84.2974 13.8626 83.7652 14.8458 83.2103 15.872C82.8463 15.6804 82.4992 15.4984 82.0859 15.2828C83.316 12.9753 84.5352 10.6868 85.8025 8.30859C86.9052 8.94566 88.0091 9.5025 89.0229 10.1911C89.9659 10.8317 90.1953 11.9718 89.7172 12.8914C89.1899 13.9069 88.2806 14.2757 87.0926 13.9536C86.9605 13.9177 86.8307 13.8674 86.6301 13.7991L86.6313 13.8003ZM85.2199 12.131C85.8469 12.4172 86.4079 12.7226 87.0025 12.9333C87.6367 13.1585 88.1857 12.913 88.4836 12.3729C88.7659 11.8616 88.6842 11.2904 88.1629 10.8844C87.6524 10.488 87.0722 10.1803 86.4656 9.79948C86.0319 10.6102 85.6427 11.3383 85.2187 12.131H85.2199Z" fill="white"/>
<path d="M113.172 52.3822C113.308 53.1151 113.433 53.7905 113.569 54.5245C113.036 54.6275 112.555 54.7197 112.002 54.8263C111.563 52.5798 111.13 50.368 110.68 48.0664C111.251 48.1059 111.758 48.1406 112.323 48.1802C112.463 48.8436 112.602 49.4962 112.759 50.2339C114.867 49.8291 116.967 49.4244 119.113 49.0124C119.254 49.7226 119.388 50.3979 119.534 51.1344C117.408 51.5511 115.307 51.9643 113.172 52.3822Z" fill="white"/>
<path d="M81.0917 10.1328C80.6965 11.2728 80.3349 12.341 79.9457 13.4008C79.8977 13.5313 79.7043 13.6894 79.5709 13.6954C77.7944 13.778 76.1883 13.3637 75.0268 11.9147C73.9697 10.5963 74.0598 8.63475 75.1877 6.95346C76.0526 5.66495 77.5529 5.15601 79.2058 5.57992C80.2857 5.85655 81.1758 6.40261 81.84 7.35582C81.5734 7.52826 81.3247 7.68873 81.0412 7.87194C80.4166 7.11991 79.6394 6.63492 78.6712 6.48164C77.8796 6.3559 77.2034 6.54751 76.7012 7.19655C76.025 8.07073 75.6214 9.05148 75.6177 10.1676C75.6129 11.5315 77.3487 12.9529 78.688 12.6763C78.8202 12.6488 78.9691 12.4763 79.0244 12.3374C79.2262 11.8225 79.3908 11.2932 79.589 10.71C79.0208 10.5052 78.4694 10.3053 77.888 10.0945C77.9421 9.75561 77.9913 9.44786 78.049 9.09339C79.0556 9.43708 80.0286 9.76998 81.0917 10.1328Z" fill="white"/>
<path d="M71.9565 11.5424C71.0443 11.441 70.5002 10.9756 70.324 10.1461C70.103 9.10546 70.103 9.10186 69.0063 8.90787C68.5354 8.82524 68.0405 8.82165 67.5937 8.67196C66.9594 8.45761 66.6267 8.69471 66.3996 9.24676C66.3396 9.39286 66.2447 9.52458 66.163 9.6611C65.773 10.3173 65.1796 10.5369 64.3828 10.3197C65.0519 9.17731 65.7126 8.04686 66.3756 6.91642C67.0303 5.80035 67.7042 4.69625 68.3336 3.56581C68.5546 3.16944 68.7756 3.06526 69.2321 3.16345C70.2015 3.37062 70.2135 3.33469 70.4177 4.26875C70.909 6.52005 71.3955 8.77255 71.8808 11.0251C71.9144 11.1783 71.9264 11.3364 71.9565 11.5412V11.5424ZM69.2045 4.27713C68.5294 5.47703 67.942 6.52005 67.3282 7.61217C68.2159 7.75228 69.0315 7.88041 69.9276 8.02172C69.6874 6.77632 69.4639 5.61833 69.2045 4.27713Z" fill="white"/>
<path d="M21.5646 26.677C21.454 26.2806 21.37 25.9765 21.2811 25.6567C21.7483 25.428 22.2264 25.2328 22.6649 24.9718C23.3748 24.549 24.0186 24.0425 24.3057 23.2222C24.4571 22.7899 24.4751 22.366 24.1315 21.9948C23.776 21.6104 23.3231 21.6235 22.9123 21.79C22.3622 22.0127 21.8625 22.3576 21.3195 22.6031C20.7994 22.839 20.2672 23.1156 19.7135 23.1971C18.4414 23.3839 17.4288 22.2965 17.6162 21.0188C17.8228 19.6081 18.7753 18.7483 19.9093 18.0538C20.3273 17.7975 20.8078 17.6418 21.3459 17.4023C21.4312 17.8035 21.4985 18.1184 21.5585 18.4047C21.0012 18.6909 20.4306 18.8777 19.9994 19.2345C19.5405 19.6129 19.1465 20.1147 18.8642 20.6392C18.7405 20.8703 18.8642 21.3769 19.0588 21.5924C19.2294 21.7816 19.6847 21.8451 19.9657 21.7744C20.3994 21.6666 20.7946 21.3996 21.2042 21.196C21.7027 20.9469 22.1832 20.6524 22.7009 20.4536C23.4937 20.1494 24.2697 20.1853 24.9292 20.8068C25.5946 21.4331 25.7556 22.2295 25.5009 23.0546C24.9075 24.9813 23.3892 25.9465 21.5646 26.6794V26.677Z" fill="white"/>
<path d="M47.9508 3.65579C48.3845 3.554 48.7484 3.46778 49.1737 3.36719C49.5136 4.72515 49.8451 6.04839 50.1743 7.37044C50.2944 7.85183 50.4349 8.33083 50.5214 8.81822C50.7256 9.96902 50.3593 10.8109 49.3274 11.3641C48.3292 11.8994 47.2553 12.2036 46.1046 11.9329C45.3118 11.7461 44.7148 11.2671 44.4961 10.4827C43.9868 8.65057 43.534 6.80162 43.0391 4.88323C43.4631 4.77425 43.8367 4.67725 44.2763 4.56349C44.6078 5.87116 44.9274 7.13573 45.2505 8.39909C45.3826 8.91761 45.5076 9.43972 45.6649 9.95105C45.8559 10.5726 46.2931 10.9007 46.9526 10.9055C47.1712 10.9067 47.3923 10.8995 47.6085 10.8671C49.0031 10.6564 49.498 9.92591 49.1616 8.57512C48.8025 7.13094 48.4361 5.68795 48.0733 4.24376C48.0313 4.07371 48.0001 3.90127 47.9496 3.65459L47.9508 3.65579Z" fill="white"/>
<path d="M2.22359 48.3737C2.30527 47.9414 2.37494 47.575 2.45782 47.1367C3.76835 47.3846 5.05245 47.6253 6.33414 47.8708C6.82303 47.9654 7.31073 48.0684 7.79722 48.1773C9.10414 48.4719 9.75399 49.1401 9.82727 50.4646C9.88492 51.5064 9.66991 52.5243 9.05369 53.4092C8.5708 54.1026 7.86929 54.5026 7.05367 54.3768C5.12932 54.0798 3.22059 53.6799 1.25781 53.3122C1.3419 52.8847 1.41277 52.5231 1.50166 52.0704C2.35812 52.2273 3.19177 52.3782 4.02541 52.5339C4.82782 52.6835 5.62783 52.8488 6.43264 52.9889C7.89331 53.2428 8.41945 52.8644 8.70053 51.3819C8.91915 50.2275 8.49272 49.6024 7.33355 49.3749C5.65545 49.0455 3.97616 48.7174 2.22599 48.3737H2.22359Z" fill="white"/>
<path d="M107.807 26.5742C108.062 26.955 108.278 27.2807 108.521 27.6436C107.424 28.3585 106.358 29.053 105.293 29.7488C104.992 29.9452 104.689 30.138 104.39 30.3368C103.005 31.2565 102.961 32.648 104.285 33.6862C104.816 34.1029 105.372 34.1269 106.056 33.6958C107.339 32.8863 108.605 32.0516 109.879 31.2301C110.094 31.0912 110.314 30.9619 110.57 30.805C110.803 31.163 111.018 31.4912 111.269 31.8768C109.58 32.9461 107.932 34.0287 106.241 35.0406C105.411 35.5363 104.557 35.3052 103.842 34.7292C103.052 34.0909 102.486 33.2659 102.212 32.2779C101.944 31.3139 102.109 30.3966 102.943 29.8063C104.518 28.6914 106.157 27.6651 107.807 26.5766V26.5742Z" fill="white"/>
<path d="M69.0679 27.6624C67.439 27.1115 65.869 26.7259 64.209 26.7355C62.5345 26.7451 61.0389 27.1762 59.7585 28.3282C59.6095 26.587 59.481 26.5343 61.0882 25.8146C61.8209 25.4865 62.6486 25.3715 63.5315 25.1332C63.7357 21.5455 63.9447 17.8656 64.1537 14.1869L64.2582 14.1797C64.3002 14.9485 64.3435 15.7185 64.3855 16.4873C64.5345 19.1864 64.6882 21.8844 64.8252 24.5836C64.8492 25.065 64.9693 25.2973 65.5339 25.3596C66.418 25.4566 67.2805 25.7452 68.1609 25.9008C68.7964 26.0122 69.1111 26.3224 69.0691 26.9726C69.0571 27.1666 69.0667 27.363 69.0667 27.6612L69.0679 27.6624Z" fill="white"/>
<path d="M117.275 74.9884C117.543 73.937 117.796 72.9419 118.072 71.8594C118.586 72.1408 119.059 72.3994 119.552 72.6701C119.147 74.2879 118.753 75.8602 118.347 77.4805C115.713 76.8278 113.135 76.1895 110.492 75.5357C110.67 74.8244 110.836 74.1598 111.014 73.4497C113.108 73.9646 115.15 74.4663 117.277 74.9884H117.275Z" fill="white"/>
<path d="M31.2461 9.86761C32.8029 9.10839 34.3008 8.37911 35.8539 7.62109C35.9609 7.94322 36.057 8.23302 36.1771 8.59347C35.0816 9.13114 34.0005 9.66164 32.8545 10.2245C33.1716 10.8795 33.4779 11.513 33.8167 12.2123C34.7404 11.7692 35.6461 11.3357 36.6071 10.8759C36.7597 11.1837 36.8966 11.4591 37.054 11.7788C36.1302 12.2339 35.2425 12.671 34.2948 13.1368C34.6599 13.8888 35.0107 14.6121 35.3891 15.3929C36.5879 14.8169 37.7603 14.2541 38.9735 13.6709C39.1393 13.9894 39.2822 14.2648 39.46 14.6061C37.872 15.3797 36.3236 16.1353 34.702 16.9245C33.5512 14.575 32.4125 12.2494 31.2461 9.86641V9.86761Z" fill="white"/>
<path d="M95.6282 18.411C95.4048 18.702 95.215 18.9499 95.0144 19.2109C94.1904 18.5942 93.3952 18.0003 92.5579 17.3728C92.0438 18.0541 91.5573 18.6984 91.042 19.3822C92.1147 20.1941 93.1573 20.9844 94.2204 21.7892C94.0138 22.0658 93.8252 22.3173 93.5909 22.6322C92.1855 21.5796 90.8053 20.5473 89.3555 19.4624C90.9327 17.374 92.4966 15.3035 94.0943 13.1875C95.4757 14.2245 96.8246 15.2364 98.206 16.2723C97.9417 16.5225 97.7147 16.7381 97.4577 16.9824C96.4667 16.2423 95.4997 15.519 94.5015 14.773C94.0498 15.3729 93.6198 15.943 93.1705 16.5381C93.9813 17.1548 94.7717 17.756 95.6294 18.4086L95.6282 18.411Z" fill="white"/>
<path d="M3.94074 61.1275C3.99119 60.0366 4.03684 59.0331 4.08369 58.0116C4.42723 58.0391 4.70231 58.0607 5.01823 58.0858V61.1083C5.81824 61.1502 6.62305 61.1921 7.55159 61.24V57.2943H8.59064V62.5537C5.91434 62.4591 3.33293 62.3681 0.785156 62.2795V57.1602C1.99958 57.3697 1.81219 57.1697 1.82661 58.2068C1.83862 59.1001 1.82901 59.9934 1.82901 61.0257C2.43202 61.0544 3.15035 61.0892 3.94074 61.1275Z" fill="white"/>
<path d="M1.7734 73.0795C1.70613 72.6748 1.60162 72.3598 1.62204 72.0521C1.63406 71.8664 1.79742 71.6233 1.96439 71.5252C3.67852 70.5133 5.40587 69.5241 7.14402 68.5218C6.34762 68.3278 5.53079 68.1338 4.71757 67.9279C3.7518 67.6836 2.78842 67.4321 1.82625 67.177C0.74636 66.892 0.745159 66.886 0.778793 65.6406C1.84307 65.9053 2.89293 66.1651 3.94279 66.4274C5.47073 66.8082 6.99147 67.2225 8.52902 67.5566C9.1044 67.6812 8.9999 68.0991 9.1068 68.4464C9.21251 68.7901 9.05875 68.9757 8.75245 69.1481C6.56263 70.3791 4.38363 71.6293 2.19983 72.8723C2.08331 72.9382 1.95838 72.9909 1.7746 73.0795H1.7734Z" fill="white"/>
<path d="M85.2539 107.354C85.9098 106.955 86.4888 106.605 87.1434 106.207C88.5308 108.506 89.9122 110.796 91.3188 113.127C90.7002 113.502 90.0936 113.871 89.4317 114.273C88.0359 111.961 86.6617 109.686 85.2551 107.354H85.2539Z" fill="white"/>
<path d="M55.1367 113.602C55.8911 113.657 56.595 113.708 57.3469 113.764C57.1571 116.456 56.9709 119.1 56.7811 121.796C56.0448 121.757 55.3553 121.718 54.5781 121.676C54.7655 118.968 54.9493 116.323 55.1379 113.602H55.1367Z" fill="white"/>
<path d="M43.4187 111.172C44.1274 111.385 44.8001 111.589 45.5316 111.81C45.1268 113.127 44.7376 114.392 44.3496 115.657C43.9616 116.925 43.5748 118.193 43.1664 119.529C42.4541 119.312 41.7802 119.107 41.0547 118.885C41.8439 116.308 42.6199 113.778 43.4187 111.173V111.172Z" fill="white"/>
<path d="M12.6598 40.0466C13.0646 42.1925 11.8814 44.3779 10.0327 45.0042C8.17682 45.6329 5.8729 44.6893 4.96958 42.9313C4.0939 41.2273 4.66087 38.8838 6.25849 37.7617C6.42305 38.0312 6.58522 38.2982 6.66089 38.4227C6.28251 39.182 5.86329 39.813 5.64707 40.5064C5.34196 41.48 5.70953 42.3625 6.53957 42.9062C7.19183 43.3325 7.9522 43.6858 8.71256 43.8402C10.3426 44.1696 11.8249 42.79 11.7396 40.9866C11.7012 40.1891 12.1312 40.1926 12.6598 40.0466Z" fill="white"/>
<path d="M23.2539 15.0834C24.9716 13.8835 26.6654 12.6992 28.4167 11.4766C28.5741 11.7664 28.7206 12.0346 28.9008 12.3675C28.2305 12.8441 27.5723 13.3123 26.8792 13.8057C28.1789 15.6606 29.4666 17.4964 30.7927 19.3897C30.4576 19.6304 30.1441 19.8543 29.7849 20.1129C28.4732 18.2484 27.1831 16.4151 25.8545 14.5266C25.1891 14.9828 24.5404 15.4271 23.8425 15.9049C23.6515 15.6379 23.4701 15.3864 23.2539 15.0834Z" fill="white"/>
<path d="M16.0207 35.0073C13.7877 33.5607 11.6339 32.1656 9.42969 30.7382C9.66753 30.3658 9.88735 30.0233 10.1156 29.6641C12.0483 30.9131 13.9342 32.1321 15.8562 33.3751C16.5229 32.3608 17.1643 31.3873 17.8298 30.3754C18.1036 30.6328 18.3295 30.846 18.5793 31.0807C17.7205 32.3992 16.8868 33.6793 16.0207 35.0073Z" fill="white"/>
<path d="M19.7993 29.6917C17.7476 28.0344 15.7344 26.4094 13.6875 24.7568C13.9542 24.4227 14.1992 24.1174 14.4839 23.7617C16.5224 25.4083 18.5452 27.0429 20.6041 28.705C20.3314 29.0391 20.096 29.3289 19.7993 29.6917Z" fill="white"/>
<path d="M7.125 34.8994C7.34122 34.4994 7.52741 34.157 7.73281 33.7773C10.0644 35.0132 12.3479 36.2238 14.671 37.4561C14.474 37.8297 14.295 38.1722 14.0776 38.5853C11.7461 37.3495 9.45295 36.134 7.125 34.8994Z" fill="white"/>
<path d="M31.7681 99.3646C31.2492 98.967 30.717 98.5862 30.2209 98.1623C30.0804 98.0425 29.9831 97.803 29.9735 97.6114C29.941 97.0402 29.9615 96.4654 29.9615 95.8918C28.8792 95.8247 28.8551 95.8451 28.7915 96.8534C28.5312 96.7153 28.4692 96.3273 28.6053 95.6894C30.3158 95.432 32.0432 95.1733 33.8234 94.9062C33.7513 96.8366 33.6816 98.6844 33.6119 100.533C33.5435 100.543 33.4762 100.551 33.4077 100.561C33.3705 100.283 33.2924 100.004 33.302 99.7274C33.3501 98.397 33.4222 97.0677 33.4834 95.7373C33.4882 95.6212 33.4726 95.5038 33.463 95.3074C33.0065 95.3685 32.5753 95.3948 32.1645 95.5014C32.0588 95.529 31.9603 95.808 31.9567 95.972C31.9387 97.0845 31.9471 98.197 31.9471 99.3107C31.887 99.3286 31.8269 99.3466 31.7681 99.3646Z" fill="white"/>
<path d="M33.6581 87.9309C33.6581 89.8014 33.6641 91.6491 33.6449 93.4981C33.6437 93.6214 33.4815 93.8082 33.3554 93.8525C33.0983 93.9423 32.8149 93.9555 32.4365 94.0166C32.4365 93.6513 32.4293 93.3256 32.4377 92.9999C32.4689 91.7677 32.5157 90.5354 32.535 89.3032C32.5518 88.2183 32.5386 88.2183 33.6593 87.9297L33.6581 87.9309Z" fill="white"/>
<path d="M33.9671 79.427C33.9671 81.0843 33.9755 82.6914 33.9527 84.2972C33.9503 84.4385 33.7797 84.6313 33.6368 84.7068C33.3809 84.8409 33.0866 84.9032 32.7995 84.9978C32.7995 83.4051 32.7863 81.8567 32.8188 80.3095C32.8224 80.1419 33.0722 79.9479 33.2488 79.821C33.483 79.6521 33.7569 79.5383 33.9659 79.4258L33.9671 79.427Z" fill="white"/>
<path d="M31.4928 88.7148C31.4928 90.4297 31.4988 92.1553 31.4784 93.8797C31.4772 93.9958 31.2958 94.1695 31.1648 94.2114C30.9438 94.282 30.6964 94.2701 30.4609 94.2928C30.4609 93.5635 30.4609 92.8546 30.4609 92.1457C30.4609 91.4296 30.4609 90.7135 30.4609 89.9974C30.4609 89.286 30.8045 88.8589 31.4916 88.716L31.4928 88.7148Z" fill="white"/>
<path d="M29.8251 81.5625C29.8251 83.0175 29.8347 84.4808 29.8082 85.9442C29.8058 86.0699 29.5848 86.2244 29.4335 86.307C29.2281 86.4184 28.9926 86.4711 28.7031 86.5729C28.7031 85.4137 28.7031 84.2988 28.7031 83.1827C28.7031 83.0833 28.7151 82.9851 28.7175 82.8857C28.738 81.8906 28.8148 81.7996 29.8251 81.5625Z" fill="white"/>
<path d="M31.8053 80.6028C31.8053 82.1416 31.8137 83.666 31.7885 85.1892C31.7861 85.3101 31.5554 85.4586 31.4017 85.5353C31.1939 85.6395 30.9584 85.6874 30.6401 85.7891C30.6401 85.2994 30.6317 84.8743 30.6413 84.4491C30.6581 83.6767 30.7687 82.896 30.6882 82.1344C30.5945 81.2482 30.9753 80.8147 31.8053 80.6016V80.6028Z" fill="white"/>
<path d="M29.4412 89.3789V94.4635C29.0339 94.5234 28.7228 94.5677 28.5078 94.6C28.5078 93.3091 28.5078 92.0469 28.509 90.7836C28.509 90.6854 28.5559 90.5824 28.539 90.4902C28.4033 89.7513 28.7841 89.446 29.44 89.3801L29.4412 89.3789Z" fill="white"/>
<path d="M27.4802 90.1094C27.4802 91.5787 27.5102 93.0457 27.4406 94.5066C27.4322 94.6826 26.876 94.8323 26.5156 95.0251C26.5156 93.7737 26.5156 92.7116 26.5156 91.6494C26.5156 91.55 26.5312 91.4518 26.5348 91.3524C26.5525 90.677 26.8676 90.2627 27.4802 90.1094Z" fill="white"/>
<path d="M27.8482 82.2891C27.8482 83.8626 27.8915 85.2732 27.8074 86.6755C27.793 86.9222 27.2404 87.1366 26.9353 87.3665C26.8849 87.3282 26.8356 87.2886 26.7852 87.2503C26.856 85.872 26.8861 84.4901 27.0326 83.1189C27.0626 82.8363 27.5275 82.6004 27.8482 82.2891Z" fill="white"/>
<path d="M18.593 16.9808C18.5222 18.8824 18.593 18.7052 16.8633 18.4322C17.2104 18.2645 17.5576 18.0969 17.9648 17.8993C18.0837 17.6454 18.2555 17.2778 18.4261 16.9102C18.4813 16.9341 18.5366 16.9581 18.5918 16.982L18.593 16.9808Z" fill="white"/>
<path d="M3.91528 37.9492C3.94771 38.0402 3.98014 38.1312 4.01258 38.2234C4.50868 39.6281 4.74772 39.494 3.0492 40.1107C3.00716 40.0736 2.96512 40.0353 2.92188 39.9981C3.18134 39.7083 3.4396 39.4186 3.72308 39.1024V37.954C3.78675 37.9528 3.85161 37.9504 3.91528 37.9492Z" fill="white"/>
<path d="M58.0267 51.2333V81.1912C58.3378 81.1217 58.5552 81.0726 58.9156 80.9912C58.9156 81.6869 59.0045 82.3695 58.888 83.0162C58.7931 83.5419 58.4772 83.9646 57.8333 84.1634C51.4356 86.1369 45.05 88.1511 38.6019 90.1736C38.4157 89.8216 38.1995 89.4887 38.0613 89.1258C37.9508 88.8348 37.767 88.4732 38.2872 88.3055C38.3713 88.278 38.4193 88.0349 38.4253 87.8888C38.4746 86.4757 38.513 85.0639 38.5526 83.6508C38.6752 79.2728 38.7965 74.8947 38.9202 70.5178C38.9574 69.185 38.9839 67.851 39.0559 66.5206C39.0704 66.2595 39.2145 65.9482 39.4019 65.7638C40.0373 65.1363 40.7184 64.5543 41.5196 63.8322C41.2542 71.7824 40.9947 79.5745 40.7352 87.3715C41.7587 87.2433 41.8548 87.1523 41.8836 86.1285C41.9401 84.1382 41.9761 82.1468 42.0265 80.1565C42.1455 75.4791 42.2668 70.8016 42.3929 66.1242C42.4109 65.468 42.5383 64.8058 42.4722 64.1603C42.3929 63.3759 42.6944 62.8981 43.3275 62.5018C43.826 62.1904 44.2728 61.7952 44.8566 61.351C44.6524 69.6928 44.4518 77.8956 44.2488 86.18C44.6428 86.0494 44.9935 85.9728 45.2999 85.8111C45.426 85.7441 45.5149 85.4962 45.5209 85.3285C45.5677 83.8161 45.6014 82.3037 45.6194 80.79C45.641 78.9962 45.6362 77.2023 45.6554 75.4084C45.6915 72.0423 45.7335 68.6749 45.7803 65.3087C45.7996 63.8956 45.8284 62.4814 45.8728 61.0683C45.8788 60.8732 45.9401 60.6133 46.0746 60.4983C46.8734 59.8146 47.7023 59.1643 48.6572 58.3931C48.5443 67.2403 48.4326 75.9437 48.3209 84.6615C49.4885 84.446 49.4765 84.446 49.4909 83.3934C49.5257 80.7649 49.5702 78.1352 49.6122 75.5066C49.6518 73.0769 49.6927 70.6472 49.7359 68.2186C49.7972 64.7938 49.8585 61.3689 49.9341 57.9453C49.9389 57.7513 50.023 57.5022 50.16 57.3788C51.0188 56.6088 51.9029 55.8676 52.9047 55.0102V83.0736C53.4321 82.8928 53.8465 82.7671 54.2441 82.603C54.3378 82.5635 54.4099 82.3971 54.4315 82.2773C54.4639 82.1037 54.4423 81.9205 54.4423 81.7408C54.4423 72.6889 54.4459 63.637 54.4339 54.5851C54.4339 54.1264 54.5492 53.8163 54.9288 53.5277C55.9258 52.7709 56.8844 51.9637 57.8585 51.1758C57.9138 51.1961 57.969 51.2165 58.0255 51.2369L58.0267 51.2333ZM55.4573 78.8572C56.0063 78.5914 56.4699 78.3124 56.9696 78.1411C57.4393 77.9795 57.5378 77.7112 57.5366 77.2514C57.5138 70.3574 57.5102 63.4634 57.5018 56.5693C57.5018 56.4208 57.5018 56.2712 57.5018 55.9838C56.8231 56.5933 56.2429 57.0974 55.6867 57.6279C55.5918 57.7177 55.5666 57.9129 55.5618 58.0602C55.5282 59.2529 55.4909 60.4468 55.4861 61.6396C55.4705 66.3421 55.4657 71.0435 55.4585 75.7461C55.4573 76.7413 55.4585 77.7352 55.4585 78.8572H55.4573ZM50.6525 80.9529C51.032 80.784 51.366 80.6068 51.7179 80.4894C52.0471 80.3793 52.1071 80.1805 52.1119 79.8631C52.1564 77.0167 52.2212 74.1714 52.2741 71.3261C52.3366 68.0019 52.393 64.6776 52.4483 61.3534C52.4591 60.7283 52.4495 60.102 52.4495 59.4122C51.9209 59.9247 51.4573 60.3546 51.0224 60.8121C50.9311 60.9079 50.9179 61.1031 50.9155 61.254C50.8699 63.6621 50.8278 66.0703 50.7906 68.4797C50.7414 71.6255 50.6933 74.7714 50.6525 77.9172C50.6392 78.9075 50.6501 79.8979 50.6501 80.9541L50.6525 80.9529ZM46.5431 82.7312C46.8422 82.5958 47.1209 82.4342 47.4212 82.342C47.8632 82.2055 47.9726 81.9312 47.9545 81.4929C47.9305 80.899 47.9954 80.3014 48.0038 79.7039C48.0482 76.7963 48.0807 73.8876 48.1287 70.9801C48.1587 69.1682 48.2164 67.3576 48.244 65.5458C48.262 64.4022 48.2476 63.2574 48.2476 62C47.8032 62.3892 47.4632 62.7185 47.0885 63.0035C46.787 63.2334 46.7041 63.4981 46.7005 63.8693C46.6752 67.0163 46.6284 70.1634 46.5876 73.3116C46.5755 74.2481 46.5467 75.1833 46.5443 76.1198C46.5383 78.3088 46.5419 80.499 46.5419 82.7324L46.5431 82.7312ZM42.8217 84.2328C43.05 84.1382 43.3335 84.0748 43.5485 83.9179C43.7239 83.7898 43.9161 83.555 43.9281 83.3587C43.9965 82.2078 44.0194 81.0535 44.0458 79.8991C44.1359 75.9389 44.2248 71.9788 44.3028 68.0175C44.3257 66.8798 44.3064 65.7422 44.3064 64.6046C43.862 64.9578 43.271 65.3758 43.2362 65.8368C43.0716 67.9767 43.0524 70.1274 42.9995 72.2746C42.9323 74.9606 42.8722 77.6478 42.8266 80.335C42.8049 81.6235 42.823 82.912 42.823 84.234L42.8217 84.2328ZM39.5004 85.5704C40.2451 85.4926 40.4494 85.0651 40.4602 84.3993C40.507 81.5947 40.5923 78.7914 40.6584 75.988C40.7196 73.4014 40.7761 70.816 40.8325 68.2294C40.8421 67.8091 40.8337 67.39 40.8337 66.9696C40.7557 66.9433 40.6764 66.9157 40.5983 66.8894C40.3124 67.3313 39.8091 67.76 39.7791 68.2198C39.6566 70.0245 39.6854 71.8387 39.653 73.6493C39.6049 76.2563 39.5436 78.862 39.504 81.4678C39.4836 82.8341 39.5004 84.2017 39.5004 85.5716V85.5704ZM38.686 89.1917C38.9094 89.1138 39.0596 89.0624 39.2097 89.0097C45.4152 86.8386 51.6206 84.6723 57.8201 82.4869C58.118 82.3815 58.7643 82.4306 58.5492 81.8749C58.3691 81.4079 57.9138 81.7923 57.6159 81.8953C52.0831 83.8161 46.5551 85.7513 41.0271 87.684C40.256 87.9535 39.4836 88.2193 38.722 88.5151C38.5911 88.5666 38.4613 88.751 38.4349 88.8923C38.4193 88.9785 38.6043 89.1007 38.6836 89.1905L38.686 89.1917ZM57.5234 78.5854C56.8315 78.9219 56.2417 79.1997 55.6627 79.5003C55.5618 79.553 55.4465 79.6979 55.4441 79.8033C55.4261 80.5733 55.4345 81.3433 55.4345 82.1815C56.0855 81.9504 56.6681 81.76 57.2351 81.5289C57.3624 81.4774 57.5066 81.2822 57.5102 81.1493C57.5354 80.3374 57.5234 79.5231 57.5234 78.5866V78.5854ZM50.6116 83.9035C51.026 83.7586 51.4393 83.6269 51.8405 83.464C51.9426 83.4221 52.0699 83.2784 52.0723 83.179C52.0927 82.4929 52.0831 81.8043 52.0831 81.0343C51.611 81.2475 51.1954 81.4235 50.7942 81.6259C50.7089 81.669 50.6224 81.8067 50.62 81.9037C50.6044 82.5515 50.6116 83.2006 50.6116 83.9035ZM46.471 85.3896C46.8722 85.2519 47.2398 85.1549 47.5774 84.9944C47.7191 84.9262 47.8789 84.7274 47.8885 84.5789C47.9257 84.0293 47.9029 83.476 47.9029 82.912C46.4326 83.2772 46.2068 83.6664 46.471 85.3896ZM43.9389 84.5454C42.6308 84.8986 42.4902 85.1693 42.7881 86.8039C43.1713 86.5632 43.689 86.4219 43.8164 86.1165C44.0025 85.671 43.91 85.1094 43.9389 84.5454ZM39.4415 87.8637C40.5455 87.5691 40.3497 87.9068 40.3184 86.0219C39.3022 86.4542 39.3623 86.0506 39.4415 87.8637Z" fill="white"/>
<path d="M54.3708 98.0787C54.3708 96.413 54.3612 94.8419 54.3732 93.2708C54.3864 91.5787 54.4321 89.8866 54.4333 88.1934C54.4333 87.7886 54.5438 87.5922 54.957 87.4844C55.9552 87.2246 56.939 86.9084 57.9649 86.6055C57.9853 86.8557 58.0129 87.0521 58.0153 87.2497C58.0465 90.0172 58.0742 92.7846 58.1042 95.552C58.109 96.0298 58.151 96.5076 58.127 96.9842C58.1186 97.1387 57.9769 97.3938 57.8567 97.4189C56.7108 97.6596 55.5552 97.8596 54.3708 98.0775V98.0787ZM54.8465 97.5411C55.3714 97.4321 55.8351 97.3111 56.3072 97.2477C56.6351 97.2034 56.7408 97.0645 56.7396 96.7447C56.73 94.794 56.7372 92.8433 56.7288 90.8937C56.7288 90.7476 56.694 90.5189 56.6003 90.4698C56.0501 90.1836 55.4783 89.9393 54.8465 89.6507V97.5422V97.5411Z" fill="white"/>
<path d="M49.5597 98.6912C49.5597 97.3524 49.5573 96.1238 49.5597 94.8951C49.5645 93.2246 49.5849 91.5529 49.5729 89.8824C49.5705 89.5279 49.6726 89.3471 50.0149 89.2357C50.9927 88.9196 51.9609 88.5747 52.9867 88.2227C53.0011 88.4646 53.0204 88.637 53.0216 88.8082C53.0336 91.6535 53.0312 94.4976 53.0648 97.3428C53.0708 97.8997 52.9987 98.1943 52.3321 98.2446C51.4071 98.314 50.4942 98.5332 49.5597 98.6912ZM49.9236 90.8919V98.199C50.5254 98.1056 51.1272 98.011 51.8444 97.8997C51.8444 96.283 51.8444 94.6976 51.8444 93.1109C51.8444 91.9333 51.2041 91.1937 49.9236 90.8919Z" fill="white"/>
<path d="M48.2352 89.6133V99.0232C47.2105 99.1669 46.2111 99.3083 45.1648 99.4556C45.1648 98.3598 45.1528 97.3108 45.1673 96.2618C45.1889 94.6715 45.2369 93.0824 45.2597 91.4934C45.2742 90.5042 45.2609 90.5006 46.2183 90.2096C46.879 90.0085 47.5445 89.818 48.2352 89.6145V89.6133ZM45.8231 91.649C45.757 94.1195 45.6934 96.5145 45.6273 98.9766C46.2039 98.8568 46.7228 98.749 47.2454 98.6412C47.2586 98.4904 47.273 98.3934 47.2754 98.2964C47.3174 96.6857 47.3583 95.0763 47.3991 93.4656C47.4199 92.6657 47.0556 92.1216 46.306 91.8334C46.1955 91.7915 46.085 91.7496 45.8231 91.649Z" fill="white"/>
<path d="M41.4252 99.9704C41.4252 98.7777 41.406 97.6281 41.4301 96.4797C41.4613 94.9696 41.5382 93.4596 41.567 91.9484C41.5742 91.5915 41.6691 91.4143 42.0271 91.3149C42.6961 91.1293 43.3508 90.891 44.0655 90.6562C44.0655 91.1448 44.0727 91.5939 44.0655 92.0418C44.0247 94.3697 43.9718 96.6964 43.9466 99.0244C43.9418 99.4423 43.8301 99.6124 43.3856 99.6519C42.7178 99.7106 42.0583 99.8626 41.4276 99.9704H41.4252ZM41.9682 99.4914C43.2199 99.3753 43.2175 99.3753 43.2211 98.1825C43.2259 96.6905 43.2175 95.1996 43.2523 93.7087C43.2751 92.7136 43.0505 92.3926 41.967 92.1843V99.4926L41.9682 99.4914Z" fill="white"/>
<path d="M40.3385 100.173C39.5661 100.303 38.8441 100.424 38.1234 100.545C38.1234 99.3412 38.1066 98.1545 38.1282 96.9677C38.1522 95.617 38.2303 94.2662 38.2387 92.9154C38.2411 92.4532 38.3889 92.2292 38.8393 92.1286C39.3787 92.0089 39.9036 91.8305 40.5331 91.6484C40.4682 94.5296 40.4033 97.3354 40.3397 100.172L40.3385 100.173ZM38.5126 93.2663V100.021C38.8754 99.9675 39.2393 99.9136 39.6622 99.8501C39.6622 98.1652 39.5997 96.533 39.6874 94.9092C39.7354 94.0363 39.3883 93.5908 38.5126 93.2663Z" fill="white"/>
<path d="M37.6562 57.7518C39.3151 54.8742 40.9728 51.9954 42.6329 49.119C44.2437 46.3276 45.8521 43.5339 47.4822 40.7533C47.6143 40.5281 47.8846 40.3006 48.1332 40.2383C52.0516 39.2456 55.9784 38.278 59.9027 37.308C60.0108 37.2817 60.1237 37.2757 60.3676 37.2422C52.7579 44.1637 45.2431 50.9979 37.7295 57.8308C37.7055 57.8045 37.6803 57.7781 37.6562 57.7518ZM41.4473 53.6348L41.535 53.7102C45.7236 49.8339 49.9122 45.9576 54.0997 42.0801C51.9843 42.5076 49.9351 43.0118 47.8918 43.5399C47.7056 43.5878 47.505 43.7542 47.4017 43.9207C45.4089 47.1539 43.4281 50.3944 41.4461 53.6348H41.4473Z" fill="white"/>
<path d="M48.0625 46.081C47.7814 46.6689 47.4979 47.3096 47.164 47.9227C47.0907 48.058 46.7736 48.2053 46.6787 48.1514C46.5238 48.064 46.3664 47.8149 46.3712 47.6389C46.3952 46.8486 46.6319 46.1133 47.1796 45.5217C47.2925 45.3996 47.6181 45.2882 47.6853 45.3493C47.8415 45.4894 47.8979 45.7373 48.0613 46.081H48.0625Z" fill="white"/>
</g>
<defs>
<clipPath id="clip0_13133_16206">
<rect width="120" height="121.951" fill="white" transform="translate(0.5)"/>
</clipPath>
</defs>
</svg>
