<svg width="120" height="121" viewBox="0 0 120 121" fill="none" xmlns="http://www.w3.org/2000/svg">
<g clip-path="url(#clip0_13115_15149)">
<path d="M0.0184674 61.2008C-0.0367072 58.4864 0.214644 55.7965 0.559484 53.1067C0.953369 50.0346 1.61546 47.0239 2.49672 44.0638C3.66458 40.1427 5.24319 36.3858 7.19422 32.7856C9.45485 28.6126 12.1768 24.7683 15.3493 21.2463C18.9387 17.2607 22.9941 13.8155 27.5122 10.9245C30.6986 8.8872 34.0458 7.16614 37.5632 5.77209C39.8637 4.86166 42.2009 4.06638 44.5964 3.45841C47.91 2.6186 51.2603 1.96917 54.6842 1.78187C56.3869 1.68975 58.0912 1.5224 59.7939 1.53162C62.3672 1.54543 64.9344 1.72353 67.4908 2.06283C69.8418 2.37449 72.1714 2.8013 74.4658 3.38778C77.577 4.1846 80.6116 5.22706 83.5558 6.52132C86.713 7.90768 89.7369 9.54431 92.5998 11.4634C95.7202 13.556 98.6445 15.8958 101.33 18.5365C103.701 20.8702 105.892 23.3589 107.846 26.0472C110.616 29.8593 112.973 33.9186 114.717 38.3049C115.611 40.5526 116.434 42.8387 117.102 45.1631C117.698 47.2403 118.08 49.3836 118.48 51.5131C119.119 54.9091 119.344 58.3513 119.315 61.8011C119.294 64.2238 119.168 66.651 118.779 69.0492C118.455 71.0374 118.178 73.0394 117.73 75C116.889 78.6893 115.683 82.265 114.121 85.7163C112.529 89.2367 110.63 92.5745 108.412 95.7433C106.234 98.8553 103.77 101.705 101.002 104.289C99.607 105.591 98.0881 106.761 96.6306 107.998C94.6213 109.702 92.4649 111.201 90.2074 112.547C87.2034 114.339 84.06 115.843 80.7909 117.095C78.4092 118.005 75.9785 118.751 73.5033 119.344C72.2435 119.645 70.9576 119.841 69.6794 120.062C68.5774 120.253 67.4739 120.428 66.3658 120.58C65.9137 120.643 65.4493 120.612 64.9911 120.652C62.6048 120.858 60.2154 121.014 57.8169 120.927C57.2069 120.905 56.5999 120.822 55.99 120.792C53.5715 120.667 51.1607 120.432 48.7805 119.999C47.205 119.714 45.657 119.279 44.0983 118.9C41.8408 118.35 39.6537 117.584 37.4942 116.735C34.7845 115.67 32.1852 114.379 29.6702 112.916C25.9735 110.766 22.5849 108.199 19.4093 105.342C14.5876 101.002 10.6074 95.9951 7.45937 90.313C5.41178 86.616 3.76267 82.7532 2.54883 78.7123C1.99249 76.8592 1.60627 74.9539 1.16794 73.067C0.472125 70.0717 0.217709 67.018 0.0245979 63.9612C-0.0336419 63.0446 0.0154021 62.1219 0.0154021 61.2023L0.0184674 61.2008ZM102.838 37.6709L102.827 37.6601C102.821 37.7615 102.816 37.8643 102.81 37.9656C102.747 39.0189 103.322 39.6145 104.367 39.527C105.236 39.4533 105.972 39.0496 106.59 38.4477C107.44 37.6202 107.334 36.7174 106.308 36.1448C106.07 36.0112 106.012 35.9759 106.17 35.7226C106.317 35.4861 106.144 35.3372 105.886 35.3649C105.739 35.3802 105.592 35.4478 105.459 35.5184C103.952 36.3137 102.448 37.1166 100.94 37.9104C100.715 38.0286 100.519 38.1606 100.669 38.4324C100.804 38.6749 101.003 38.5583 101.196 38.4615C101.74 38.1898 102.291 37.9334 102.839 37.6709H102.838ZM35.9156 79.503V79.5061C40.7373 79.5061 45.5604 79.5061 50.3821 79.5061C50.9691 79.5061 51.5561 79.5168 52.1415 79.4953C52.6182 79.4769 52.6948 79.3541 52.4818 78.938C52.1339 78.2609 51.9653 77.5547 52.0603 76.7947C52.117 76.348 52.2657 75.9181 52.6703 75.7016C53.1132 75.4636 53.2849 75.1305 53.2925 74.6545C53.2987 74.2983 53.363 73.9422 53.3615 73.586C53.3554 72.846 53.2604 72.1013 53.3217 71.369C53.3676 70.8286 53.2542 70.4355 52.868 70.0732C52.4343 69.6648 52.1017 69.1827 51.9837 68.5809C51.8427 67.8655 52.0603 67.2022 52.7086 67.0011C53.4106 66.7831 53.5929 66.2918 53.5347 65.65C53.432 64.5078 53.314 63.3655 53.1837 62.2263C53.1653 62.0605 53.078 61.864 52.9569 61.7565C52.4986 61.3466 52.048 60.9628 51.9162 60.298C51.8841 60.1322 51.53 59.9495 51.3109 59.9326C51.1775 59.9219 50.9568 60.1905 50.8894 60.3748C50.7867 60.6573 50.7867 60.9751 50.7392 61.2775C50.6733 61.7013 50.5476 61.8149 50.1292 61.7381C49.8579 61.689 49.6004 61.5616 49.3353 61.4725C49.0947 61.3927 48.8587 61.2898 48.6119 61.2437C47.7628 61.081 47.6724 61.1486 47.3981 61.9561C47.2019 62.5349 47.0011 63.1153 46.759 63.6772C46.6072 64.0288 46.3268 64.0948 46.0095 63.8891C45.821 63.7662 45.6493 63.6004 45.5083 63.4223C45.2064 63.0431 44.9321 62.6439 44.6424 62.2555C44.4217 61.9607 44.1933 61.9116 43.8684 62.1496C43.2324 62.6163 42.5412 63.0109 41.9205 63.496C41.5281 63.8031 41.1296 63.5958 41.0821 63.1659C41.0377 62.7637 41.0637 62.3522 41.0683 61.9438C41.0729 61.5877 41.122 61.2284 41.0974 60.8737C41.03 59.9372 41.0193 59.9418 40.0997 60.0247C39.5418 60.0739 38.9793 60.169 38.4261 60.1383C37.7333 60.1 37.2613 60.3563 36.8827 60.9167C36.6559 61.253 36.3815 61.5662 36.0842 61.8425C35.7072 62.1926 35.2964 62.0943 35.1217 61.6122C35.0007 61.2806 34.97 60.9167 34.8949 60.5682C34.8244 60.2458 34.7524 59.9234 34.6727 59.6025C34.596 59.2955 34.3891 59.1742 34.078 59.0989C33.3883 58.9316 32.7032 58.7305 32.0335 58.4925C31.2672 58.2192 31.2028 58.0457 31.6427 57.3994C32.1883 56.5995 32.7569 55.8103 33.3653 55.0596C33.6519 54.7065 33.7516 54.3733 33.6811 53.9388C33.606 53.4875 33.5554 53.0269 33.5462 52.5693C33.5309 51.8032 33.7608 51.6497 34.4658 51.9046C35.065 52.121 35.6581 52.3513 36.2589 52.5617C36.8613 52.7735 37.0804 52.6461 37.2444 52.0136C37.2567 51.9644 37.2674 51.9138 37.2766 51.8631C37.5801 50.2894 37.4513 50.0561 36.0689 49.2424C35.5248 48.9215 35.0221 48.5177 34.5424 48.1047C34.2512 47.8545 34.3094 47.6871 34.6681 47.5704C35.37 47.3447 36.0781 47.1359 36.7831 46.9179C37.0268 46.8427 37.2674 46.7598 37.5096 46.68C37.7364 46.6047 37.9893 46.4957 37.9188 46.2209C37.8805 46.0751 37.6628 45.9139 37.4988 45.8755C36.9563 45.7511 36.4015 45.6866 35.8543 45.5822C35.7164 45.5561 35.5907 45.4732 35.4589 45.4164C35.5187 45.3105 35.5739 45.203 35.6367 45.1001C35.8742 44.7102 36.1409 44.3356 36.3478 43.9303C36.567 43.5019 36.5042 43.3729 36.1118 43.0244C35.8068 42.7527 35.508 42.4748 35.2214 42.1846C34.8964 41.8545 34.8964 41.81 35.3056 41.5859C35.6842 41.3786 36.0888 41.2174 36.4766 41.0255C37.0115 40.7614 37.0574 40.6632 36.9701 40.0705C36.9026 39.6161 36.8168 39.1632 36.7724 38.7057C36.7356 38.3326 36.9057 38.1591 37.2659 38.2251C37.6122 38.2896 37.9556 38.4109 38.2805 38.5491C39.0315 38.8699 39.7181 38.8991 40.4231 38.3756C40.7526 38.1299 40.7863 37.9488 40.6193 37.6248C40.3863 37.1719 40.2009 36.6913 39.9464 36.2523C39.7273 35.873 39.7886 35.5813 40.0767 35.2927C40.4737 34.8951 40.84 34.4652 41.2645 34.1013C41.6032 33.8111 41.6952 33.5102 41.5909 33.0896C41.4499 32.52 41.3411 31.9427 41.2277 31.367C41.1465 30.9524 41.2093 30.8879 41.6323 30.8603C42.2408 30.8204 42.8492 30.7697 43.4592 30.7283C43.7903 30.7052 44.0324 30.5855 44.1642 30.2477C44.4508 29.5123 44.7374 28.8015 44.693 27.9694C44.6547 27.2401 44.7742 26.497 44.8662 25.7662C44.906 25.4453 45.0654 25.215 45.4945 25.2903C45.7842 25.3409 46.0984 25.2304 46.4019 25.2243C46.7773 25.2181 47.0088 25.0538 47.1728 24.7115C47.4149 24.2064 47.6893 23.7151 47.9759 23.233C48.2855 22.7156 48.4311 22.6849 48.9552 22.9843C49.1989 23.1224 49.4334 23.279 49.6587 23.4448C49.9637 23.6705 50.1997 23.5922 50.33 23.2714C50.5399 22.7524 50.8955 22.6388 51.4258 22.7048C52.1477 22.7939 52.3898 22.5882 52.5676 21.885C52.6182 21.6885 52.6151 21.4766 52.6718 21.2816C52.8358 20.7212 52.986 20.1516 53.2021 19.6097C53.4075 19.0954 53.6175 19.0631 54.0711 19.3917C54.8129 19.9306 55.5731 20.448 56.2796 21.0283C56.6582 21.3384 56.9846 21.3876 57.3663 21.1235C57.9808 20.6982 58.5816 20.6429 59.1748 21.1588C59.4782 21.4229 59.7265 21.3016 59.9671 21.0513C60.1618 20.8487 60.361 20.6491 60.5786 20.4741C61.0246 20.1148 61.1105 20.1163 61.5825 20.4357C61.9197 20.6644 62.2507 20.9055 62.5879 21.1358C63.2592 21.5933 63.2899 21.5902 63.8815 21.0544C64.4485 20.5401 65.0033 20.0104 65.5857 19.5145C66.0041 19.1568 66.2923 19.2642 66.3812 19.7862C66.5513 20.7919 66.726 21.799 66.8639 22.8092C66.982 23.669 67.3176 23.8686 68.1222 23.4986C68.2142 23.4571 68.2847 23.3696 68.3751 23.3282C68.7046 23.1823 68.9422 23.2959 68.9759 23.6536C69.002 23.93 68.9453 24.214 68.9437 24.4935C68.9407 24.8911 69.0142 24.9402 69.3989 24.8189C69.7131 24.7207 70.0196 24.5748 70.3415 24.5318C70.7629 24.475 70.8994 24.6009 70.9561 25.017C70.9928 25.2933 70.9806 25.5774 70.9928 25.8583C71.0281 26.5814 71.186 26.7119 71.8879 26.6075C72.4182 26.5292 72.9469 26.4402 73.4788 26.3788C74.1807 26.2974 74.2865 26.4233 74.1746 27.1403C74.0734 27.7959 73.9646 28.4514 73.888 29.1116C73.8588 29.3588 73.8221 29.6735 73.9416 29.8562C74.3278 30.4504 74.6957 31.1167 75.2413 31.5312C75.7946 31.9519 76.1225 32.3695 76.2543 33.0466C76.4015 33.7989 76.708 33.9892 77.5004 34.0199C77.882 34.0353 78.2651 34.0245 78.6483 34.0245C79.4713 34.0245 79.6614 34.2809 79.4253 35.0532C79.1801 35.8577 78.964 36.6729 78.7081 37.4743C78.5993 37.8136 78.682 38.0501 78.9226 38.2973C79.7426 39.1417 79.7349 39.1494 80.8721 38.9006C81.0469 38.8623 81.2139 38.7793 81.3886 38.764C82.1473 38.701 82.9075 38.6258 83.6677 38.6151C84.0646 38.6089 84.1213 38.7517 83.9849 39.1755C83.8516 39.5869 83.7029 39.9953 83.5481 40.3991C83.401 40.7844 83.3903 41.1422 83.6876 41.4707C84.0125 41.83 84.3313 42.1938 84.647 42.5608C85.0348 43.0106 85.0118 43.2087 84.5382 43.5464C84.4355 43.6201 84.3251 43.6877 84.2133 43.746C83.7642 43.9809 83.3029 44.1943 82.8707 44.4569C82.7619 44.5229 82.7466 44.7394 82.6868 44.8867C82.8216 44.8821 82.981 44.9205 83.0883 44.8622C83.355 44.7194 83.5818 44.4999 83.8546 44.3724C84.3604 44.136 84.6194 44.2665 84.7711 44.7854C84.8079 44.9082 84.8309 45.0341 84.857 45.1585C84.9949 45.7941 85.0072 45.788 85.6693 45.7404C86.2287 45.7005 86.7896 45.6774 87.3506 45.6882C88.0387 45.7005 88.1123 45.8663 87.746 46.4773C87.5881 46.7398 87.4211 46.9962 87.2632 47.2588C86.5429 48.4548 86.7774 49.6461 87.303 50.8253C87.4563 51.1692 87.4134 51.2981 87.0486 51.3104C86.5413 51.3273 86.031 51.3196 85.5237 51.3426C84.7987 51.3734 84.6777 51.5468 84.8692 52.2408C84.9918 52.686 85.0853 52.7306 85.5099 52.5709C86.0555 52.3652 86.5965 52.1349 87.1574 51.9783C87.6418 51.8416 87.8962 52.1303 87.7582 52.6154C87.6816 52.8841 87.5621 53.1405 87.4502 53.3984C87.3214 53.6916 87.3781 53.8728 87.7077 53.9757C88.5292 54.229 89.2663 54.7218 90.166 54.771C90.612 54.7955 90.6733 55.0627 90.3806 55.4618C90.048 55.9147 89.7169 56.3692 89.366 56.8068C88.8663 57.4316 88.5966 58.1164 88.7039 58.9331C88.7407 59.2095 88.7207 59.495 88.7023 59.776C88.6671 60.3149 88.4265 60.5421 87.91 60.4254C87.3184 60.2903 86.7406 60.0861 86.1704 59.8727C85.6907 59.6916 85.6034 59.6701 85.3765 60.1015C85.044 60.7325 84.7497 61.3835 84.46 62.036C84.2577 62.4919 84.0048 62.5672 83.6998 62.1849C83.5129 61.95 83.424 61.6399 83.2508 61.3896C83.0822 61.147 82.9044 60.8538 82.6592 60.7325C82.0891 60.4546 80.5426 60.9459 80.1579 61.4725C79.7825 61.9868 79.4085 62.5042 79.0483 63.0293C78.8506 63.3195 78.636 63.3978 78.3571 63.1537C78.0889 62.9188 77.8115 62.6915 77.5601 62.4382C77.0728 61.9515 76.6007 61.4495 76.1225 60.9536C75.8651 60.6864 75.6091 60.6772 75.3225 60.9259C74.9961 61.2115 74.6543 61.4786 74.3125 61.7458C73.1983 62.6209 73.0297 62.5733 72.5377 61.2545C72.3906 60.8599 72.1653 60.7908 71.8618 61.0933C71.3745 61.58 70.9101 62.0897 70.4457 62.5979C70.0472 63.0339 69.9323 63.0462 69.5276 62.6393C69.1491 62.2601 68.7813 61.8701 68.3966 61.4971C67.8632 60.9812 67.8678 61.0027 67.2425 61.3359C66.6601 61.646 66.0532 61.9116 65.4585 62.1987C65.3436 62.254 65.2194 62.2954 65.1198 62.3722C64.7842 62.627 64.8041 62.8927 65.129 63.1629C65.316 63.3179 65.5336 63.496 65.6133 63.7094C65.8248 64.2729 65.4187 65.2294 64.8991 65.5518C64.7765 65.6285 64.6278 65.7283 64.5834 65.8512C64.4194 66.3056 64.2355 66.7662 64.1681 67.2406C64.0087 68.3783 64.9574 69.6525 66.0762 69.9258C66.277 69.975 66.4915 70.1208 66.6203 70.2836C67.0417 70.8163 67.0663 71.4181 66.7705 72.0138C66.5988 72.3608 66.634 72.631 66.8823 72.9196C67.0632 73.1315 67.2119 73.3741 67.3544 73.6151C68.3291 75.2671 68.5253 77.0127 67.9674 78.8443C67.8249 79.3141 67.9 79.4508 68.3782 79.4938C68.556 79.5107 68.7353 79.4984 68.9131 79.4984C72.996 79.4984 77.0774 79.4984 81.1603 79.4984C87.1559 79.4984 93.1515 79.4984 99.1472 79.4938C100.071 79.4938 100.107 79.4661 100.432 78.6156C100.911 77.352 101.442 76.1038 101.834 74.8127C102.338 73.1561 102.795 71.478 103.146 69.7815C103.592 67.6321 103.803 65.4474 103.914 63.2488C104.065 60.2489 103.869 57.2719 103.422 54.315C103 51.5361 102.274 48.8248 101.317 46.1795C100.088 42.7788 98.4652 39.5731 96.4436 36.5808C94.1585 33.2016 91.4779 30.1664 88.3667 27.518C84.883 24.5533 81.0407 22.1798 76.8337 20.3881C74.5286 19.407 72.1546 18.6455 69.7223 18.0606C67.6624 17.5647 65.5704 17.2423 63.46 17.0688C61.043 16.8692 58.6261 16.8707 56.203 17.0457C53.9332 17.21 51.6955 17.5647 49.487 18.0836C47.0532 18.6547 44.6823 19.4316 42.3818 20.4234C39.0192 21.8742 35.8574 23.669 32.9439 25.8921C30.2986 27.9095 27.8847 30.171 25.7497 32.7349C23.2531 35.7318 21.1534 38.9759 19.4981 42.5086C18.0421 45.616 16.9433 48.8478 16.2735 52.2147C15.97 53.7392 15.7248 55.2822 15.5593 56.8283C15.3325 58.9592 15.2114 61.104 15.3815 63.2458C15.5256 65.0513 15.6604 66.8629 15.9424 68.65C16.3164 71.019 16.8988 73.3495 17.7019 75.6156C18.0943 76.721 18.5464 77.8034 18.9709 78.8965C19.1395 79.331 19.443 79.5352 19.9165 79.4984C20.1955 79.4769 20.4775 79.4984 20.758 79.4984C25.8095 79.4984 30.861 79.4984 35.9126 79.4984L35.9156 79.503ZM41.7074 93.749V93.7428C38.6207 93.7428 35.534 93.7428 32.4488 93.7428C31.7086 93.7428 30.9698 93.7351 30.2296 93.7505C30.0656 93.7536 29.9047 93.838 29.7422 93.8856C29.8342 94.0222 29.8985 94.1911 30.0212 94.2909C31.3499 95.3641 32.6588 96.4664 34.0305 97.4813C36.7478 99.4879 39.7028 101.091 42.8216 102.376C46.1796 103.759 49.6572 104.725 53.2604 105.228C56.1938 105.638 59.138 105.821 62.0975 105.634C64.9512 105.452 67.7667 105.035 70.5453 104.326C73.1692 103.656 75.7057 102.763 78.1579 101.628C82.0952 99.8072 85.6877 97.4536 88.9322 94.5719C89.1514 94.3769 89.5545 94.0729 89.51 93.9516C89.3706 93.5678 88.9429 93.7551 88.638 93.7536C81.2921 93.7428 73.9462 93.7443 66.5988 93.7459C65.6486 93.7459 65.4769 94.01 65.8432 94.9004C65.8923 95.0186 65.9551 95.1307 66.0149 95.2428C66.3996 95.9659 66.7459 96.0933 67.5598 96.0197C68.1605 95.9659 68.8165 95.9122 69.3698 96.0934C70.4763 96.4557 71.5691 96.9055 72.5944 97.4567C73.9907 98.2075 75.4221 98.7233 77.0191 98.7525C77.3686 98.7586 77.7211 98.8676 78.0598 98.9705C78.2866 99.0396 78.3096 99.23 78.1211 99.3758C77.9847 99.4817 77.813 99.5754 77.646 99.6061C76.823 99.7596 75.9999 99.973 75.1692 100.011C73.6458 100.084 72.1868 99.7166 70.789 99.1133C70.4855 98.9812 70.1867 98.8323 69.8771 98.7202C69.4587 98.5698 68.9361 98.6573 68.9805 98.817C69.051 99.0611 69.2196 99.319 69.4204 99.4741C70.1315 100.021 70.9177 100.441 71.7959 100.664C72.4872 100.84 73.1845 100.997 73.8711 101.192C74.2604 101.304 74.6436 101.456 75.0098 101.631C75.2076 101.725 75.2413 101.901 75.0007 102.03C74.5884 102.251 74.1654 102.357 73.6811 102.31C71.6151 102.107 69.7116 101.45 67.9444 100.361C67.382 100.014 66.7827 99.7289 66.1865 99.4403C66.0777 99.3881 65.8616 99.4111 65.7819 99.4894C65.6976 99.5723 65.647 99.8041 65.7037 99.8963C65.9015 100.217 66.1099 100.553 66.3919 100.794C66.8946 101.223 67.4571 101.582 67.9889 101.977C68.1713 102.112 68.3613 102.25 68.5085 102.42C68.6985 102.641 68.6188 102.864 68.3291 102.925C68.133 102.967 67.9199 102.975 67.7222 102.945C66.3735 102.74 65.1704 102.238 64.2769 101.155C63.9688 100.782 63.6945 100.38 63.4186 99.9823C63.1075 99.5309 63.0155 99.4864 62.591 99.8533C62.1297 100.251 61.6837 100.678 61.2882 101.143C60.3717 102.221 59.3817 103.208 58.1387 103.902C57.3402 104.349 56.531 104.805 55.57 104.782C55.4352 104.778 55.3033 104.693 55.17 104.643C55.2237 104.536 55.2543 104.401 55.3371 104.326C56.0283 103.687 56.721 103.048 57.4322 102.433C57.7969 102.116 58.2092 101.857 58.5832 101.551C58.6629 101.485 58.6736 101.335 58.7165 101.223C58.5816 101.194 58.4468 101.141 58.3119 101.143C58.2184 101.143 58.128 101.223 58.0314 101.258C56.8896 101.673 55.7279 101.843 54.5064 101.697C53.4213 101.567 52.327 101.502 51.2342 101.464C50.1139 101.425 48.9889 101.47 47.867 101.448C47.5007 101.441 47.136 101.339 46.7697 101.281C46.9321 100.779 47.4272 100.748 47.8027 100.632C49.5821 100.076 51.3967 99.712 53.2757 99.6445C54.6413 99.5954 55.9256 99.1563 57.1026 98.4516C57.3433 98.3072 57.7203 97.9894 57.6805 97.8589C57.5732 97.5058 57.1655 97.6501 56.8774 97.6563C56.0881 97.6701 55.2987 97.6962 54.511 97.7484C54.0895 97.776 53.8152 97.621 53.688 97.231C53.6251 97.0406 53.5822 96.8318 53.5899 96.6322C53.619 95.8938 53.665 95.1568 53.7217 94.4199C53.7646 93.8702 53.7079 93.7827 53.1807 93.7474C53.0289 93.7367 52.8741 93.7474 52.7224 93.7474C49.0487 93.7474 45.3765 93.7474 41.7028 93.7474L41.7074 93.749ZM59.3188 36.1371C59.3188 36.2876 59.302 36.5194 59.3219 36.7482C59.3587 37.1535 59.4951 37.2395 59.8767 37.0767C60.1572 36.957 60.4162 36.7896 60.6905 36.653C61.3618 36.3183 62.0147 36.5516 62.3381 37.2364C62.4025 37.3715 62.427 37.5803 62.5297 37.6294C63.0079 37.8566 63.0079 38.2297 62.9297 38.6627C62.8944 38.8607 62.8914 39.0757 62.9266 39.2722C62.9649 39.4856 63.0646 39.6882 63.1381 39.894C63.3006 39.7573 63.4738 39.6299 63.6209 39.4779C63.7067 39.3889 63.7634 39.266 63.8171 39.1509C64.4225 37.8674 64.5727 37.2732 63.5826 36.2369C63.4784 36.1279 63.3481 35.9974 63.3328 35.8638C63.3159 35.718 63.4125 35.4293 63.4722 35.4263C64.0485 35.3971 64.2324 35.0593 64.2922 34.5481C64.306 34.4329 64.4822 34.3147 64.6079 34.238C64.9757 34.0138 65.2164 33.7374 65.2761 33.2784C65.3114 33.0159 65.4693 32.7487 65.6317 32.5276C66.0195 32.001 66.5436 31.9949 66.8655 32.5629C67.549 33.7712 67.9414 33.6684 67.1597 35.2835C67.1367 35.3295 67.1092 35.3725 67.0908 35.4201C66.8931 35.9283 67.0341 36.2215 67.5628 36.2968C67.8341 36.3352 68.1207 36.2937 68.3966 36.263C68.5728 36.243 68.7414 36.174 68.9161 36.134C69.3238 36.0419 69.5982 36.2231 69.8081 36.5624C70.0212 36.9063 69.8188 37.1397 69.6181 37.3776C69.4204 37.611 69.2318 37.8551 69.0127 38.0654C68.6816 38.3832 68.628 38.741 68.7062 39.1816C68.8502 39.9938 68.5575 40.4052 67.759 40.5004C67.3467 40.5495 67.0954 40.7353 66.9682 41.1038C66.8609 41.4154 66.7352 41.7302 66.6938 42.0541C66.5084 43.4804 65.6149 43.6508 64.4822 43.3837C64.2631 43.3315 64.0255 43.1611 63.8401 43.2087C63.109 43.3975 62.332 43.1734 61.6101 43.5664C61.1043 43.8412 60.6568 43.442 60.6905 42.8525C60.7013 42.6775 60.7733 42.5055 60.8024 42.3289C60.8744 41.9021 60.9664 41.4738 60.9894 41.0439C60.9986 40.8796 60.8392 40.7061 60.7564 40.5373C60.6369 40.6539 60.4867 40.7522 60.4055 40.8904C60.3181 41.0393 60.2752 41.2235 60.2461 41.3986C60.0484 42.6237 59.4154 43.5495 58.4115 44.2742C57.2544 45.1094 56.134 45.9952 55.0014 46.8657C54.6091 47.1667 54.1968 47.159 53.7769 46.964C53.4167 46.7966 53.1148 46.8642 52.7668 47.0438C52.209 47.3325 51.6082 47.5397 51.0304 47.7946C50.9047 47.8499 50.7223 47.9481 50.7101 48.0464C50.6947 48.1615 50.8174 48.3135 50.9139 48.4179C51.0335 48.5484 51.2051 48.6298 51.3201 48.7618C51.7614 49.2669 52.0343 49.7966 51.6925 50.4967C51.5561 50.7761 51.6051 51.14 51.5193 51.4501C51.4626 51.6512 51.3568 51.8877 51.1974 52.0013C50.8817 52.2239 50.517 52.3053 50.1077 52.1901C49.6434 52.0596 49.1637 51.9752 48.6855 51.9015C47.4471 51.7096 46.5475 52.0688 46.7865 53.5519C46.8494 53.9404 46.8049 54.3104 46.434 54.576C46.2042 54.7418 46.198 54.989 46.2609 55.2669C46.3973 55.8687 46.6563 56.3093 47.3506 56.3462C47.7873 56.3692 48.1261 56.555 48.2947 57.0002C48.4464 57.3994 48.7958 57.3902 49.0472 57.1906C49.838 56.5596 50.7974 56.0222 50.6963 54.7694C50.6641 54.3779 50.8235 54.1246 51.2526 54.1154C51.5791 54.1077 51.7109 53.902 51.7032 53.6149C51.6909 53.1374 51.9684 53.0008 52.3745 52.9716C52.5262 52.9608 52.6749 52.9102 52.8266 52.901C53.4167 52.8626 53.8903 52.6553 54.255 52.1471C54.5845 51.6896 55.0627 51.6083 55.5256 51.9522C55.8796 52.2147 56.0957 52.1134 56.4038 51.9184C56.9187 51.5929 57.4398 51.2521 58.0023 51.0341C58.9648 50.6625 59.6606 50.9235 59.9687 51.946C60.315 53.0975 61.04 53.9619 62.0117 54.6359C62.3044 54.8385 62.6017 55.0366 62.9036 55.2269C63.4646 55.5801 64.0378 55.9132 64.5911 56.2771C65.3773 56.7975 65.5306 57.2766 65.2179 58.1716C65.1597 58.339 65.0815 58.5033 64.9849 58.6506C64.8485 58.8594 64.752 59.0667 64.9497 59.274C65.1781 59.515 65.4371 59.4275 65.6271 59.2387C66.0409 58.8303 66.4409 58.4035 66.8195 57.9613C67.0264 57.7202 67.1092 57.3472 67.5812 57.5805C67.6793 57.6297 67.9751 57.404 68.0931 57.2412C68.1529 57.1583 68.0747 56.8651 67.9705 56.7899C67.5628 56.4936 67.1475 56.1773 66.6846 55.9946C65.5443 55.5447 64.5727 54.8754 63.7466 53.9803C63.5734 53.793 63.4033 53.5965 63.201 53.4429C62.2385 52.7167 62.2155 51.7188 62.4101 50.6748C62.4515 50.4522 62.614 50.1927 62.7994 50.0806C62.8929 50.0238 63.1902 50.2265 63.3466 50.3662C63.7604 50.7408 64.0945 51.2336 64.5573 51.5207C65.7022 52.227 66.7781 53.0622 68.0655 53.5212C68.7782 53.7761 69.1767 54.2751 69.2656 55.0504C69.2978 55.3329 69.4418 55.6507 69.6349 55.8579C70.0303 56.2848 70.4932 56.6502 70.9315 57.0355C70.9836 57.0816 71.1139 57.1307 71.1262 57.1153C71.1798 57.0478 71.2289 56.9572 71.2304 56.8728C71.2365 56.4644 71.1921 56.0529 71.2319 55.6491C71.2886 55.0934 71.5216 54.9137 72.0841 54.8723C72.5408 54.8385 72.9975 54.7971 73.4542 54.7617C74.0167 54.7188 74.1546 54.8677 74.357 55.4296C74.6144 56.1466 74.9118 56.8543 75.2551 57.536C75.649 58.3206 75.8467 58.3666 76.6375 57.992C77.0958 57.7755 77.5371 57.6066 77.9739 58.0319C78.1655 58.2177 78.3724 58.1686 78.4858 57.9598C78.7663 57.4439 79.1847 57.2673 79.7518 57.3134C80.0399 57.3364 80.2637 57.1675 80.2376 56.8528C80.2055 56.4536 80.4016 56.1788 80.63 55.8948C80.9994 55.4357 80.9595 55.3252 80.3909 55.2653C80.0047 55.2254 79.7365 55.0811 79.5372 54.7264C79.1173 53.9834 79.0345 53.9634 78.1855 54.1062C77.9341 54.1492 77.6506 54.1369 77.4391 54.2536C76.8061 54.6036 76.2298 54.447 75.6122 54.209C74.5777 53.8114 74.2006 53.3186 74.1822 52.2039C74.1638 51.1277 74.6175 50.2311 75.229 49.3913C75.8666 48.5162 76.1869 48.4195 77.2322 48.7342C77.4253 48.7925 77.7287 48.7879 77.8529 48.6743C77.977 48.5607 77.9985 48.2598 77.9602 48.0602C77.8988 47.7378 77.7517 47.4323 77.6398 47.1191C77.5586 46.8934 77.6031 46.7076 77.8406 46.6216C78.0858 46.5326 78.3694 46.465 78.3326 46.1365C78.3019 45.8647 78.2069 45.5945 78.1088 45.335C78.0276 45.1186 77.8513 45.0157 77.6169 45.1001C76.7463 45.4103 76.0888 44.962 75.4421 44.486C74.9577 44.1298 74.7049 43.6554 74.7141 43.0429C74.7233 42.507 74.7033 41.9697 74.7141 41.4339C74.7233 41.0239 74.57 40.7798 74.1623 40.6355C73.5171 40.4083 72.8887 40.1243 72.2603 39.851C71.8205 39.6606 71.6028 39.3259 71.6059 38.8285C71.6105 37.9856 71.3561 37.2118 70.8518 36.5409C70.4089 35.9529 69.9062 35.4094 69.4526 34.8306C69.2717 34.5987 69.0372 34.3316 69.0158 34.066C68.9529 33.2692 68.6556 32.5814 68.2019 31.9519C67.9674 31.6264 67.923 31.304 68.0808 30.9463C68.4701 30.0712 68.1529 30.0236 67.5368 29.6459C67.2394 29.4632 66.9298 29.2713 66.6984 29.0164C66.2632 28.5405 66.0287 28.4084 65.4432 28.6848C65.0187 28.8859 64.5635 29.1546 64.2937 29.52C63.555 30.5256 62.8301 31.5589 62.2446 32.6566C61.7542 33.5762 61.0813 34.1965 60.1403 34.5389C59.5487 34.7538 59.2652 35.1115 59.3357 35.7425C59.3464 35.8423 59.3265 35.9467 59.3158 36.1279L59.3188 36.1371ZM71.5614 82.1022C71.5614 82.1022 71.5614 82.093 71.5614 82.0899C71.1277 82.0899 70.6955 82.0884 70.2618 82.0899C69.828 82.0915 69.3958 82.0961 68.9621 82.1038C68.746 82.1068 68.5422 82.1544 68.5238 82.42C68.5039 82.6856 68.6893 82.7424 68.91 82.7916C69.7361 82.9758 69.7575 82.9988 69.7606 83.8525C69.7698 85.6134 69.7713 87.3744 69.7606 89.1339C69.7591 89.4855 69.7897 89.8923 69.6288 90.1702C69.5231 90.3544 69.0863 90.3253 68.8242 90.4481C68.6954 90.508 68.5698 90.6861 68.5468 90.8273C68.533 90.9133 68.7031 91.0622 68.8211 91.1236C68.9238 91.1773 69.0694 91.1543 69.1966 91.1543C70.2158 91.1574 71.235 91.1605 72.2527 91.1543C72.4289 91.1543 72.622 91.1543 72.7753 91.0822C72.8856 91.03 72.9853 90.8672 73.0021 90.7413C73.0128 90.66 72.878 90.5371 72.7829 90.4711C72.7063 90.4189 72.5883 90.4251 72.4887 90.4036C71.8756 90.2715 71.7622 90.161 71.7423 89.5545C71.7224 88.9435 71.7193 88.3294 71.7454 87.7183C71.7546 87.5126 71.8419 87.161 71.9507 87.138C72.196 87.0827 72.5178 87.1226 72.7324 87.2516C72.9822 87.4021 73.1753 87.6692 73.347 87.9195C73.678 88.4031 73.9677 88.9128 74.2895 89.4025C74.5838 89.8493 74.8719 90.3038 75.2137 90.7122C75.3792 90.9102 75.6505 91.1144 75.8911 91.1374C76.4704 91.1927 77.0605 91.1574 77.646 91.1251C77.7609 91.119 77.9464 90.9762 77.9586 90.878C77.9724 90.769 77.8483 90.5648 77.7441 90.531C77.1203 90.3345 76.8459 89.8109 76.5317 89.3166C76.4091 89.1231 76.2927 88.9251 76.1578 88.7408C75.6781 88.0853 75.2597 87.3729 74.4719 87.0121C74.1577 86.8678 74.3569 86.7526 74.5255 86.6636C74.7937 86.5223 75.0941 86.4241 75.3302 86.2414C76.0888 85.6549 76.403 84.5894 76.1225 83.6959C75.8298 82.7685 75.0344 82.1483 74.0044 82.1068C73.1906 82.0746 72.3753 82.1007 71.5599 82.1007L71.5614 82.1022ZM59.7051 81.7875C56.9157 81.677 54.56 83.7158 54.5784 86.682C54.5953 89.4701 56.7118 91.4491 59.5027 91.4522C62.3688 91.4552 64.4056 89.3703 64.4792 86.5715C64.5527 83.7926 62.0745 81.637 59.7035 81.786L59.7051 81.7875ZM34.9731 91.1574C36.0934 91.1574 37.2153 91.1666 38.3356 91.1528C38.82 91.1466 38.918 91.0515 38.9594 90.577C39.0039 90.0689 39.0253 89.5591 39.0483 89.0494C39.0544 88.8974 39.0636 88.7347 39.0177 88.595C38.9839 88.4906 38.8751 88.3586 38.7801 88.3401C38.6851 88.3217 38.515 88.4015 38.469 88.4875C38.3525 88.7101 38.2851 88.9588 38.1992 89.1983C37.9801 89.8033 37.6506 90.3299 36.9502 90.3867C36.2927 90.4404 35.6275 90.4097 34.9654 90.4005C34.6006 90.3943 34.3953 90.1779 34.3907 89.8186C34.3784 88.9512 34.3861 88.0837 34.3861 87.2163C34.3861 86.9 34.5577 86.7757 34.8612 86.7434C35.629 86.6605 35.8421 86.7972 36.0888 87.6093C36.1547 87.8243 36.2559 88.0377 36.4888 87.9594C36.6314 87.9118 36.8015 87.6846 36.8092 87.531C36.8413 86.7925 36.826 86.051 36.8199 85.311C36.8183 85.073 36.777 84.7951 36.4781 84.8212C36.3325 84.8335 36.1517 85.0331 36.0781 85.1912C35.79 85.8023 35.5478 85.9574 34.9118 85.9113C34.5715 85.8867 34.3922 85.7439 34.3922 85.3939C34.3922 84.68 34.3953 83.9645 34.3922 83.2506C34.3907 82.9251 34.5562 82.7931 34.8658 82.7946C35.3746 82.7946 35.885 82.79 36.3938 82.7885C37.0115 82.787 37.3808 83.1293 37.6015 83.6713C37.6674 83.8356 37.6782 84.0382 37.7824 84.1687C37.8774 84.287 38.0613 84.376 38.213 84.3852C38.2774 84.3898 38.4169 84.1626 38.4199 84.0382C38.4276 83.6314 38.3985 83.2245 38.3663 82.8177C38.3111 82.1114 38.2973 82.0899 37.5969 82.0884C35.7118 82.0823 33.8251 82.0884 31.94 82.0915C31.8388 82.0915 31.7362 82.0915 31.635 82.0976C31.4235 82.1084 31.2059 82.1345 31.1813 82.4016C31.1538 82.7133 31.3745 82.7563 31.6243 82.7946C32.2864 82.8975 32.3691 82.9973 32.3722 83.6867C32.3783 85.2695 32.3737 86.8524 32.3737 88.4338C32.3737 88.8161 32.3799 89.1999 32.3691 89.5822C32.3538 90.1825 32.2634 90.2899 31.7024 90.4143C31.6044 90.4358 31.4725 90.4112 31.4082 90.468C31.307 90.5586 31.1844 90.7045 31.1936 90.815C31.2043 90.9271 31.3469 91.076 31.4634 91.119C31.6243 91.1758 31.8143 91.1528 31.9921 91.1543C32.9852 91.1559 33.9799 91.1543 34.9731 91.1543V91.1574ZM46.808 82.093V82.0961C45.8654 82.0961 44.9229 82.093 43.9803 82.0992C43.8041 82.0992 43.6171 82.1022 43.4562 82.1606C43.3611 82.1944 43.2508 82.3356 43.2462 82.4339C43.2416 82.529 43.3458 82.6534 43.4362 82.7225C43.5083 82.7778 43.6293 82.7716 43.729 82.7885C44.4416 82.9083 44.529 82.9896 44.5351 83.7158C44.5489 85.0178 44.5413 86.3197 44.5413 87.6201C44.5413 88.2588 44.5489 88.8959 44.5321 89.5346C44.5152 90.1487 44.4033 90.2669 43.8087 90.4097C43.7351 90.4281 43.6339 90.4128 43.588 90.4558C43.4745 90.5694 43.332 90.6983 43.3075 90.8396C43.2937 90.9179 43.4791 91.0637 43.6017 91.1221C43.7075 91.1727 43.8516 91.1512 43.9788 91.1528C44.998 91.1559 46.0172 91.1574 47.0364 91.1574C47.1636 91.1574 47.3153 91.1912 47.4119 91.1344C47.5452 91.0561 47.6939 90.9225 47.7291 90.7843C47.7506 90.6983 47.5988 90.531 47.487 90.4573C47.3904 90.3928 47.2417 90.4082 47.1161 90.3897C46.7206 90.3345 46.5352 90.0811 46.5275 89.7081C46.5122 88.8667 46.5183 88.0238 46.5153 87.1825C46.5153 86.8524 46.7069 86.7557 47.0042 86.7373C47.7169 86.6943 47.9529 86.834 48.2563 87.5817C48.3483 87.8089 48.4311 88.0638 48.71 87.9655C48.8418 87.9195 48.9736 87.6661 48.9797 87.5019C49.0073 86.7634 49.0089 86.0218 48.9782 85.2834C48.9721 85.1206 48.828 84.8811 48.6885 84.8228C48.4525 84.7245 48.3682 84.9456 48.287 85.1559C48.0203 85.8437 47.7031 86.0264 47.0226 85.9942C46.7007 85.9788 46.5536 85.8422 46.5536 85.5321C46.5536 84.766 46.5582 84.0014 46.5521 83.2353C46.549 82.9006 46.7222 82.79 47.0302 82.7946C47.5145 82.8023 47.9989 82.7993 48.4816 82.7916C49.0288 82.7824 49.3981 83.0234 49.6035 83.5362C49.7077 83.7957 49.8196 84.0582 49.9775 84.2839C50.0403 84.3745 50.2457 84.4174 50.3714 84.3944C50.4495 84.3806 50.5522 84.204 50.5522 84.1012C50.5491 83.6943 50.52 83.2859 50.4817 82.8791C50.4173 82.1805 50.3361 82.1022 49.6372 82.0946C48.6947 82.0853 47.7521 82.093 46.8095 82.093H46.808ZM84.6685 82.093V82.0976C83.9543 82.0976 83.2401 82.0976 82.5258 82.0976C82.0415 82.0976 81.5557 82.0915 81.0714 82.0976C80.7802 82.1022 80.5932 82.2174 80.5825 82.5521C80.5671 83.0357 80.512 83.5178 80.4936 84.0014C80.4844 84.2286 80.4951 84.4635 80.5472 84.6846C80.5687 84.7752 80.7158 84.8873 80.8154 84.8949C80.9151 84.9041 81.0806 84.8243 81.1204 84.7383C81.2369 84.485 81.3135 84.2117 81.3902 83.943C81.594 83.2368 82.1197 82.919 82.7895 82.8085C83.5006 82.6902 83.6508 82.8238 83.6508 83.5515C83.6539 85.4937 83.6477 87.4358 83.637 89.378C83.6324 90.2516 83.6263 90.2546 82.8063 90.4235C82.5688 90.4726 82.3021 90.531 82.3802 90.8273C82.4155 90.9639 82.6653 91.1328 82.8216 91.1359C84.0462 91.162 85.2708 91.1543 86.4953 91.1528C86.5704 91.1528 86.6655 91.1512 86.716 91.1067C86.8049 91.0284 86.9137 90.924 86.923 90.8227C86.9337 90.7198 86.8601 90.5709 86.7758 90.5049C86.6854 90.4358 86.5383 90.4343 86.4156 90.4112C85.7673 90.2884 85.6999 90.2285 85.6968 89.5699C85.6892 87.5249 85.6907 85.4814 85.6984 83.4364C85.6999 82.833 85.8241 82.724 86.4356 82.8008C87.1896 82.8944 87.8425 83.2138 88.1138 84.4175C88.1736 84.6815 88.2104 84.9548 88.5598 84.9057C88.9154 84.855 88.8663 84.5633 88.8556 84.3054C88.8341 83.8202 88.8188 83.3366 88.7974 82.8515C88.7667 82.179 88.7008 82.1007 88.0341 82.093C86.9122 82.0807 85.7888 82.0899 84.6669 82.0899L84.6685 82.093ZM52.6136 35.4201C52.6442 35.4109 52.6764 35.4017 52.7071 35.3925C52.7178 35.2912 52.7638 35.1776 52.7316 35.0916C52.6688 34.9227 52.563 34.7692 52.4741 34.6095C52.3914 34.7492 52.2519 34.8812 52.2335 35.0286C52.1584 35.6427 51.8841 36.1218 51.4181 36.5301C50.9599 36.9324 50.9492 37.1688 51.1928 37.7461C51.3308 38.0731 51.484 38.4001 51.5729 38.7425C51.7752 39.5209 51.6864 40.2855 51.1683 40.9103C50.8802 41.2588 50.8265 41.5383 50.9951 41.9421C51.1806 42.3827 51.0656 42.7803 50.6855 43.1027C50.4924 43.2655 50.3162 43.4574 50.1736 43.6646C49.9346 44.0147 50.0418 44.2742 50.4603 44.288C50.8863 44.3018 51.3155 44.222 51.7431 44.1836C52.1048 44.1513 52.3822 43.9548 52.5293 43.6478C52.8082 43.0674 53.2772 42.6851 53.8014 42.3673C54.1171 42.1754 54.1416 41.9866 53.8627 41.7947C53.1132 41.2834 53.032 40.5649 53.1914 39.765C53.2558 39.4411 53.1791 39.1739 52.9875 38.9068C52.4986 38.2297 52.4833 37.9058 52.9676 37.2809C53.1807 37.0076 53.1485 36.8387 52.983 36.5501C52.7898 36.2139 52.7316 35.7993 52.6136 35.4186V35.4201ZM63.1121 72.9442C63.2899 72.9442 63.4707 72.955 63.647 72.9427C64.5328 72.8767 65.3344 72.5803 66.044 72.043C66.3275 71.8296 66.5084 71.5671 66.4287 71.1909C66.3628 70.8808 66.1421 70.7733 65.8631 70.9253C65.7298 70.9975 65.6195 71.1095 65.4938 71.1971C64.8087 71.6684 64.0592 71.9539 63.2209 72.0108C61.8783 72.1029 60.5848 71.8296 59.2943 71.5195C58.0253 71.2139 56.8375 70.6996 55.6559 70.1577C54.6642 69.7032 53.7125 69.2288 53.406 68.0497C53.3937 68.0021 53.3646 67.956 53.337 67.9131C53.1301 67.586 52.822 67.586 52.6274 67.9223C52.4098 68.2984 52.4588 68.7007 52.7209 68.9985C53.1025 69.433 53.5117 69.8736 53.9899 70.1868C55.5838 71.2293 57.3693 71.8403 59.1947 72.3316C60.476 72.6771 61.7787 72.8982 63.109 72.9442H63.1121ZM12.4557 40.5004C12.4557 40.4728 12.4557 40.4451 12.4557 40.4175C12.8634 40.4175 13.2711 40.4267 13.6788 40.4144C14.1615 40.4006 14.6443 40.3822 15.1256 40.3423C15.5133 40.31 15.7478 40.0214 15.7524 39.6882C15.7539 39.5255 15.4597 39.2998 15.2528 39.2062C13.7232 38.5091 12.1814 37.8367 10.6426 37.1581C10.5277 37.1074 10.3989 37.0307 10.2871 37.046C10.1844 37.0598 10.0541 37.1642 10.0158 37.2609C9.979 37.3546 10.0035 37.5358 10.0725 37.5972C10.2012 37.7108 10.379 37.7722 10.5415 37.8444C11.7277 38.3725 12.9155 38.896 14.1002 39.4288C14.1999 39.4733 14.2719 39.5808 14.3577 39.6591C14.2458 39.6959 14.1355 39.7635 14.0221 39.765C12.9523 39.788 11.8825 39.7957 10.8128 39.8187C10.2794 39.831 9.74604 39.8725 9.21422 39.894C8.86019 39.9093 8.63336 40.1104 8.5368 40.419C8.42952 40.7676 8.70233 40.9242 8.96287 41.0439C9.33224 41.2143 9.71233 41.3648 10.0848 41.5306C11.271 42.0572 12.4557 42.5884 13.642 43.115C13.8857 43.2225 14.1615 43.3131 14.2811 42.9738C14.3838 42.6805 14.1294 42.5946 13.9117 42.4994C13.2343 42.203 12.563 41.8991 11.8887 41.5951C11.2848 41.3233 10.6825 41.05 10.0817 40.7722C10.0204 40.743 9.97747 40.6739 9.92536 40.6232C10.0051 40.5818 10.0832 40.5066 10.1629 40.505C10.9262 40.4958 11.6909 40.4989 12.4557 40.4989V40.5004ZM95.193 19.9475C95.216 18.4321 93.4243 17.3236 92.376 17.9009C91.0105 18.6532 90.0786 19.7294 89.6035 21.1895C89.3108 22.0861 89.6096 22.8323 90.3683 23.4019C91.1239 23.9684 91.8274 24.0298 92.632 23.5139C93.7523 22.7939 94.5677 21.8005 95.0535 20.5539C95.144 20.3205 95.1685 20.0626 95.193 19.949V19.9475ZM65.1336 64.3512C65.1505 64.0886 64.9696 63.863 64.5849 63.7018C63.1228 63.0907 61.5794 62.776 60.033 62.4797C57.7034 62.0329 55.3953 61.5339 53.3983 60.1476C53.1561 59.9802 52.9477 59.9004 52.7347 60.1537C52.5201 60.4116 52.6259 60.6511 52.8527 60.8108C53.2665 61.101 53.6834 61.4019 54.1386 61.6122C55.2267 62.1158 56.3992 62.3507 57.5624 62.6286C59.9058 63.189 62.2507 63.7647 64.4593 64.7688C64.801 64.9238 65.1076 64.7181 65.1321 64.3496L65.1336 64.3512ZM98.8391 96.9178C98.7793 96.6645 98.718 96.4204 99.1211 96.7059C99.2024 96.7643 99.4537 96.7336 99.4935 96.6645C99.5533 96.5616 99.5441 96.362 99.4798 96.253C99.3786 96.0826 99.2115 95.9475 99.0659 95.8063C98.4406 95.206 97.8123 94.6087 97.1839 94.0115C97.0551 93.8887 96.9417 93.7336 96.79 93.6538C96.6842 93.5985 96.462 93.597 96.4053 93.6645C96.3333 93.7505 96.3164 93.9854 96.3839 94.0637C96.6153 94.3324 96.9249 94.5366 97.1456 94.8129C97.5073 95.2658 97.8766 95.7264 98.1433 96.2377C98.3885 96.7059 98.2782 97.208 98.0299 97.3738C97.7586 97.5549 97.3908 97.4475 96.9509 97.0422C96.3885 96.5232 95.8413 95.9889 95.2681 95.4838C95.1639 95.3933 94.9646 95.4101 94.8098 95.3779C94.8298 95.5345 94.793 95.7372 94.8788 95.8385C95.1378 96.1517 95.4444 96.425 95.7325 96.7151C96.1739 97.1588 96.4881 97.6778 96.6337 98.2873C96.6996 98.5652 96.6888 98.8553 96.4283 99.0549C96.1586 99.2607 95.8796 99.1655 95.6451 99.0058C95.3739 98.8216 95.1271 98.5959 94.888 98.3702C94.4436 97.9495 94.0236 97.5027 93.5669 97.0959C93.4719 97.0115 93.2588 97.0621 93.101 97.0498C93.1224 97.208 93.0872 97.4198 93.1761 97.5166C93.5746 97.9464 94.0022 98.3487 94.4298 98.7494C94.7823 99.078 95.1194 99.4388 95.521 99.6967C96.1616 100.11 96.8544 99.8318 97.1057 99.1133C97.164 98.949 97.1961 98.7648 97.1885 98.5913C97.1778 98.318 97.1885 98.1921 97.5502 98.2121C98.3058 98.252 98.8345 97.6854 98.8391 96.9178ZM33.8665 12.9895C34.1899 14.8487 34.5087 16.7095 34.8443 18.5672C34.8658 18.687 35.0129 18.8712 35.1003 18.8697C35.2183 18.8681 35.3761 18.7392 35.439 18.6225C35.5034 18.4997 35.5034 18.3231 35.4819 18.1773C35.4329 17.8502 35.37 17.5232 35.2842 17.2039C35.1892 16.8508 35.2735 16.6251 35.6244 16.4715C36.0198 16.2981 36.4045 16.0939 36.7754 15.8728C37.0697 15.6993 37.2919 15.7423 37.5188 15.9803C37.7992 16.2766 38.0996 16.5545 38.3847 16.8462C38.5717 17.0365 38.751 17.1087 38.9732 16.8953C39.2215 16.6542 39.056 16.4961 38.8813 16.3257C37.5663 15.0422 36.2528 13.7587 34.9424 12.4736C34.7309 12.2664 34.5179 12.0944 34.2067 12.2817C33.9401 12.4429 33.7929 12.6579 33.868 12.9864L33.8665 12.9895ZM77.154 110.253C77.0421 109.929 76.895 109.305 76.6222 108.741C76.0336 107.53 75.0865 107.405 74.1516 108.365C74.1163 108.402 74.0826 108.474 74.0504 108.472C73.9707 108.468 73.8466 108.454 73.8221 108.403C73.3224 107.412 73.7715 106.555 74.875 106.389C75.0252 106.366 75.1892 106.392 75.3256 106.341C75.4206 106.306 75.5417 106.176 75.5401 106.088C75.5386 105.993 75.4267 105.875 75.3317 105.813C75.2566 105.764 75.134 105.764 75.0374 105.78C73.586 106.014 72.6266 106.716 73.1845 108.462C73.3853 109.091 73.5799 109.724 73.7807 110.353C73.9753 110.958 74.1577 111.569 74.3799 112.163C74.5041 112.493 74.7447 112.535 74.9286 112.235C75.0957 111.962 75.2137 111.968 75.4696 112.074C75.6398 112.145 75.8666 112.139 76.052 112.096C76.7509 111.93 77.1555 111.346 77.1525 110.252L77.154 110.253ZM30.9131 105.566C30.8993 106.331 31.658 106.997 32.4473 106.885C32.6665 106.854 32.7814 106.745 32.7937 107.114C32.8044 107.464 33.1569 107.516 33.3699 107.203C33.7408 106.655 34.0749 106.082 34.4198 105.517C35.0298 104.518 35.6428 103.52 36.2344 102.509C36.3018 102.393 36.3095 102.141 36.2313 102.059C36.0505 101.869 35.8635 101.981 35.7394 102.185C35.4742 102.62 35.2106 103.056 34.9485 103.492C34.8126 103.717 34.6737 103.703 34.5317 103.45C34.1332 102.743 33.5309 102.474 32.8872 102.717C32.032 103.039 30.9331 104.628 30.9147 105.566H30.9131ZM110.076 48.1953C109.206 48.1953 108.288 48.4317 107.839 48.7204C106.954 49.29 106.835 50.1374 107.552 50.8928C107.711 51.0617 107.779 51.1584 107.672 51.4071C107.532 51.7326 107.666 51.8785 108.004 51.8677C108.156 51.8631 108.308 51.8263 108.456 51.7925C109.997 51.4455 111.538 51.0985 113.077 50.7454C113.249 50.7055 113.422 50.6472 113.578 50.5643C113.653 50.5243 113.747 50.3877 113.727 50.3309C113.69 50.225 113.592 50.0945 113.494 50.0668C113.358 50.03 113.195 50.0637 113.05 50.0929C112.625 50.1789 112.205 50.2833 111.779 50.3677C111.64 50.3954 111.491 50.3785 111.347 50.3816C111.396 50.2679 111.448 50.1559 111.492 50.0392C111.796 49.2347 111.468 48.553 110.642 48.3028C110.401 48.2291 110.145 48.2091 110.076 48.1953ZM11.7691 84.2516C11.7293 85.334 12.4772 85.9865 13.5194 85.7547C14.2489 85.5919 14.9248 85.2926 15.5072 84.8197C16.5218 83.9968 16.3547 82.9083 15.1409 82.4047C14.9018 82.3049 14.9631 82.2588 15.1041 82.116C15.1869 82.0331 15.1838 81.8658 15.2206 81.7368C15.0826 81.7031 14.9432 81.6386 14.8083 81.6462C14.6903 81.6539 14.5753 81.7399 14.4604 81.7967C12.9998 82.5152 11.5377 83.2337 10.0786 83.9553C9.94222 84.0229 9.79662 84.0904 9.6924 84.1948C9.61884 84.2685 9.5468 84.4343 9.58052 84.5065C9.6219 84.594 9.78436 84.6846 9.88398 84.6738C10.0526 84.6539 10.2166 84.5648 10.376 84.4911C10.7223 84.3315 11.0656 84.1626 11.4105 83.9983C11.6787 83.8693 11.8687 83.8525 11.7706 84.2547L11.7691 84.2516ZM49.6035 110.255C49.5054 110.676 49.4135 111.099 49.3077 111.517C49.1453 112.156 49.1422 112.153 48.5046 112.025C48.1046 111.945 47.7046 111.865 47.3015 111.818C47.208 111.807 47.041 111.911 47.0134 111.997C46.9873 112.077 47.0777 112.26 47.1605 112.295C47.4149 112.404 47.6862 112.484 47.9575 112.542C49.0135 112.768 49.0977 112.893 48.8311 113.926C48.7866 114.099 48.7192 114.265 48.6747 114.439C48.6042 114.71 48.4586 114.81 48.1705 114.738C47.726 114.626 47.2755 114.54 46.8264 114.455C46.6042 114.414 46.3298 114.348 46.2655 114.666C46.2087 114.944 46.4632 114.985 46.6578 115.033C47.3521 115.197 48.0464 115.36 48.7422 115.51C49.0962 115.587 49.2372 115.395 49.3016 115.06C49.4487 114.31 49.6296 113.567 49.7936 112.82C50.0066 111.849 50.212 110.877 50.4327 109.906C50.4909 109.65 50.4802 109.412 50.2074 109.344C49.3935 109.143 48.5705 108.971 47.7475 108.81C47.6632 108.793 47.4655 108.931 47.4686 108.99C47.4747 109.114 47.5498 109.272 47.6494 109.346C47.7644 109.43 47.9345 109.441 48.0831 109.476C48.4556 109.564 48.8265 109.653 49.2004 109.731C49.4886 109.791 49.6878 109.903 49.6035 110.256V110.255ZM107.935 74.1172C107.042 73.9897 106 74.9017 106.464 75.9426C106.562 76.1622 106.432 76.2282 106.283 76.3587C105.972 76.632 106.01 76.8131 106.396 76.9513C106.898 77.131 107.414 77.2707 107.923 77.4242C109.14 77.7927 110.358 78.1596 111.575 78.5296C111.784 78.5926 111.995 78.6371 112.086 78.3761C112.178 78.1135 111.968 78.003 111.776 77.937C111.319 77.7819 110.855 77.6453 110.391 77.5132C110.125 77.438 110.009 77.3305 110.279 77.1217C111.022 76.5491 111.152 75.5803 110.087 74.8326C109.48 74.4058 108.778 74.1586 107.934 74.1156L107.935 74.1172ZM100.756 28.6694C100.861 28.7447 101.184 28.8568 101.256 29.0609C101.333 29.2759 101.238 29.6244 101.097 29.8286C100.913 30.0911 100.614 30.2769 100.353 30.4826C99.8936 30.848 99.4154 31.1904 98.974 31.5758C98.8744 31.6617 98.8912 31.8828 98.8544 32.0409C99.0123 32.044 99.2192 32.1146 99.3188 32.0409C100.111 31.4391 100.914 30.848 101.65 30.1786C102.284 29.6014 102.139 28.757 101.391 28.3225C101.199 28.2119 100.963 28.1797 100.749 28.1091C100.68 28.086 100.612 28.0615 100.543 28.0369C100.586 27.954 100.608 27.845 100.674 27.7913C101.13 27.4228 101.595 27.0651 102.061 26.7073C102.237 26.5707 102.376 26.4095 102.234 26.1915C102.071 25.9443 101.884 26.0809 101.714 26.2084C101.653 26.2544 101.59 26.2974 101.529 26.345C100.206 27.3875 98.8851 28.4315 97.564 29.4755C97.4843 29.5384 97.3724 29.5998 97.3463 29.6827C97.3065 29.8132 97.3264 29.9637 97.3203 30.1049C97.4552 30.1096 97.6283 30.171 97.7172 30.1096C98.0958 29.8501 98.459 29.5676 98.81 29.2697C99.3265 28.8307 99.9441 28.7186 100.756 28.6664V28.6694ZM59.5533 76.1284C59.5794 76.1284 59.6039 76.1284 59.6299 76.1284C59.6299 76.9175 59.6146 77.7082 59.633 78.4974C59.656 79.4523 59.7664 79.5429 60.7105 79.5014C61.2729 79.4769 61.4277 79.351 61.5212 78.7968C61.5718 78.4958 61.6208 78.1888 61.6193 77.8848C61.6178 77.4273 61.6009 76.9621 61.2959 76.5736C60.8561 76.0133 60.4239 75.4483 59.9794 74.8925C59.9242 74.8234 59.8047 74.7497 59.7342 74.7651C59.6606 74.782 59.564 74.9017 59.561 74.9815C59.5426 75.3638 59.5533 75.7461 59.5533 76.1284ZM59.5288 10.0586C59.538 10.0586 59.5457 10.0556 59.5549 10.0556C59.5549 9.82526 59.5656 9.59497 59.5533 9.36621C59.5089 8.59857 59.1978 8.10881 58.5878 7.96603C57.9042 7.80789 57.2697 7.943 56.7701 8.48342C56.6107 8.65537 56.436 8.87031 56.6582 9.07911C56.862 9.27256 57.1057 9.18351 57.236 8.95168C57.4858 8.50645 57.8935 8.51259 58.3042 8.5479C58.6966 8.58014 58.8989 8.88567 58.9219 9.37235C58.9403 9.77767 58.7104 9.86518 58.3625 9.93427C57.9195 10.0218 57.4628 10.1446 57.0689 10.3565C56.5049 10.6605 56.3455 11.3038 56.5938 11.8856C56.8007 12.3692 57.3509 12.6548 57.9303 12.5197C58.1939 12.4583 58.4498 12.3155 58.6736 12.1589C58.8575 12.0299 58.9173 12.0038 59.0813 12.2096C59.3035 12.489 59.5411 12.4322 59.607 12.1067C59.6667 11.8135 59.656 11.5003 59.6407 11.1963C59.6223 10.8155 59.5686 10.4363 59.5303 10.0571L59.5288 10.0586ZM25.8018 20.8886C25.8647 20.9623 25.9903 21.2402 26.1329 21.2494C26.4042 21.2663 26.4701 20.9991 26.4501 20.7473C26.4486 20.7212 26.4455 20.6967 26.4425 20.6706C26.4133 20.2883 26.6448 20.0472 26.9191 19.8523C27.2808 19.5943 27.6962 19.7095 28.0502 20.1332C28.323 20.4602 28.2923 20.4679 27.9015 20.9439C27.5996 21.3123 27.3099 21.7146 27.1214 22.1475C26.9053 22.6434 27.1398 23.1762 27.5873 23.4771C28.0042 23.7565 28.605 23.7089 28.9943 23.3312C29.1736 23.1577 29.3192 22.9382 29.4388 22.7171C29.5537 22.5037 29.6625 22.3655 29.9323 22.3103C30.3338 22.2274 30.3859 22.0692 30.1238 21.7345C29.5108 20.9531 28.8809 20.1808 28.2218 19.4377C28.0517 19.2458 27.7529 19.0892 27.5 19.0662C26.7643 18.9986 25.7712 20.0165 25.8003 20.8886H25.8018ZM84.7972 15.2909C84.7573 14.4281 84.3205 13.9368 83.6477 13.6359C82.9841 13.338 82.4017 13.5376 81.899 14.0043C81.3396 14.5217 81.0453 15.2034 80.8323 15.9127C80.6484 16.5284 80.9687 17.2899 81.5005 17.6645C82.1427 18.1174 82.837 18.1773 83.4224 17.7412C84.2608 17.1164 84.6899 16.2443 84.7987 15.2909H84.7972ZM10.9093 74.151C11.9086 74.1571 12.491 73.3004 12.1753 72.4775C12.0802 72.2272 11.8795 72.0108 11.7017 71.8004C11.5775 71.6546 11.5086 71.5824 11.6388 71.3629C11.835 71.0328 11.6772 70.8363 11.3032 70.8915C10.9767 70.9391 10.6549 71.0174 10.3361 71.0988C9.67248 71.2661 8.99812 71.4028 8.35595 71.6315C7.75363 71.8465 7.51454 72.3547 7.60343 72.9734C7.71378 73.7303 8.19349 74.369 8.72838 74.4703C8.7529 74.4749 8.78356 74.4902 8.80195 74.481C8.90923 74.4334 9.06556 74.4043 9.10541 74.3198C9.14679 74.2354 9.10541 74.068 9.04104 73.9836C8.97054 73.8915 8.83566 73.8408 8.72072 73.7932C8.29311 73.6213 8.22261 73.2298 8.18123 72.8536C8.13832 72.4729 8.49695 72.1643 8.97054 72.0676C9.35982 71.9862 9.42572 72.2564 9.556 72.5128C9.7721 72.9381 9.98973 73.3741 10.2825 73.7456C10.4541 73.9637 10.7729 74.0665 10.9062 74.1479L10.9093 74.151ZM111.1 68.4351C112.257 68.4734 112.971 67.3726 112.594 66.3609C112.499 66.106 112.331 65.8619 112.139 65.67C112.056 65.5871 111.83 65.6516 111.667 65.6485C111.672 65.8066 111.635 65.9832 111.695 66.1168C111.762 66.2703 111.948 66.3701 112.026 66.5221C112.207 66.8752 112.107 67.2237 111.903 67.5338C111.778 67.7242 111.181 67.7979 110.893 67.6874C110.527 67.5461 110.696 67.216 110.634 66.9627C110.522 66.4991 110.446 66.0093 110.234 65.5932C109.998 65.1296 109.459 64.9899 108.974 65.128C108.47 65.2724 108.196 65.6301 108.171 66.1291C108.156 66.4499 108.272 66.7754 108.315 67.1009C108.332 67.2375 108.355 67.4003 108.298 67.5139C108.05 68.0144 108.059 68.0712 108.614 68.1449C109.497 68.2631 110.384 68.3537 111.1 68.4366V68.4351ZM37.1555 104.86C36.9701 104.954 36.6283 105.069 36.3555 105.276C35.6505 105.81 35.3072 106.582 35.1646 107.427C35.0206 108.274 35.4604 108.962 36.2697 109.305C36.9241 109.581 37.6919 109.407 38.1686 108.75C38.5196 108.265 38.7694 107.696 39.0023 107.137C39.4299 106.114 38.5763 104.977 37.1571 104.86H37.1555ZM91.7293 98.3594C91.2557 98.3963 90.8526 98.6987 90.6104 99.1762C90.4541 99.4817 90.3407 99.7535 89.9453 99.8195C89.6863 99.8625 89.6449 100.077 89.8181 100.283C90.4587 101.043 91.0871 101.814 91.7599 102.543C91.95 102.75 92.2672 102.924 92.5431 102.951C93.2037 103.018 94.232 102.006 94.2504 101.335C94.2581 101.075 94.2458 100.779 93.8857 100.781C93.5853 100.782 93.524 101.005 93.5669 101.27C93.6466 101.763 93.3355 102.035 92.9692 102.239C92.632 102.428 92.1814 102.216 91.8626 101.791C91.5975 101.438 91.9285 101.321 92.0818 101.106C92.3745 100.698 92.7101 100.288 92.8711 99.8241C93.1102 99.1348 92.5201 98.3871 91.7277 98.3579L91.7293 98.3594ZM14.8328 36.6867C14.9187 37.4467 15.2896 37.9349 15.9271 38.0485C16.531 38.156 16.9693 37.8597 17.2268 37.1473C17.3034 36.937 17.3203 36.7052 17.3877 36.4902C17.4276 36.3643 17.4904 36.2323 17.5808 36.1402C17.9103 35.804 17.9272 35.7072 17.5257 35.4647C16.7869 35.0179 16.0375 34.588 15.2758 34.1827C14.6152 33.8311 14.2014 33.8526 13.8106 34.2533C13.314 34.7615 12.937 35.3434 13.1745 36.0972C13.2328 36.2799 13.4811 36.5562 13.6037 36.5363C13.927 36.4872 13.8918 36.1893 13.8152 35.9298C13.7937 35.8562 13.7677 35.7825 13.76 35.7072C13.7201 35.305 13.7814 34.9227 14.1615 34.7078C14.5355 34.4959 14.8957 34.6202 15.2313 34.8521C15.4306 34.9887 15.4765 35.1161 15.3601 35.3587C15.1547 35.7871 15.0075 36.243 14.8344 36.6883L14.8328 36.6867ZM87.746 105.655C87.5513 104.717 87.0992 103.808 86.1536 103.208C85.5482 102.823 84.9826 102.998 84.4416 103.354C83.9098 103.704 83.6201 104.206 83.6998 104.845C83.8148 105.77 84.273 106.532 84.998 107.109C85.5175 107.524 86.1137 107.605 86.716 107.29C87.3168 106.977 87.7061 106.496 87.7475 105.657L87.746 105.655ZM9.43492 48.8816L9.4058 48.9614C9.22802 48.9706 9.0487 48.9614 8.87551 48.9952C8.16131 49.1257 7.68773 49.5387 7.48695 50.2434C7.29538 50.9143 7.49155 51.6359 8.04636 52.0197C8.75137 52.5064 9.54834 52.7643 10.4189 52.6676C11.1898 52.5832 11.8105 52.0013 11.9515 51.2812C12.1109 50.466 11.7936 49.7628 11.0089 49.3974C10.5124 49.1656 9.96214 49.0489 9.43492 48.8816ZM25.6486 101.27C25.2118 101.372 24.9114 101.152 24.6738 100.828C24.424 100.487 24.5405 100.071 24.9313 99.6767C25.2363 99.3681 25.4233 99.6598 25.6562 99.7781C26.0608 99.9838 26.4578 100.233 26.8885 100.355C27.4463 100.515 27.9261 100.223 28.1958 99.6783C28.441 99.1839 28.3399 98.7156 27.851 98.3318C27.6379 98.1629 27.3574 98.08 27.1184 97.9418C26.9544 97.8467 26.7735 97.7484 26.6601 97.6041C26.3873 97.2617 26.3137 97.2156 26.0409 97.5166C25.3911 98.2335 24.7581 98.9659 24.1481 99.7182C23.9995 99.9009 23.8876 100.182 23.8952 100.414C23.9182 101.114 24.9589 102.007 25.6639 101.954C25.9275 101.934 26.3214 101.906 26.3076 101.565C26.2938 101.22 25.952 101.197 25.6501 101.272L25.6486 101.27ZM45.4501 11.2761C45.5926 11.8119 45.6877 12.3677 45.89 12.882C46.198 13.6681 47.0226 14.1333 47.7046 13.9844C48.8311 13.7403 49.4365 12.8375 49.1928 11.7075C49.1023 11.2884 48.9659 10.8677 48.7805 10.4808C48.3835 9.65024 47.6234 9.26181 46.8647 9.44451C46.0218 9.64717 45.5405 10.3027 45.4501 11.2761ZM103.337 87.8151C103.342 86.9799 103.02 86.5223 102.484 86.3703C101.947 86.2183 101.506 86.3703 101.187 86.9123C101.026 87.1856 100.991 87.531 100.893 87.8412C100.853 87.9686 100.832 88.1467 100.74 88.2066C100.314 88.4844 100.268 88.595 100.622 88.8268C101.432 89.3565 102.246 89.8862 103.095 90.3468C103.351 90.4849 103.754 90.4849 104.045 90.3974C104.639 90.2162 105.169 89.2122 105.085 88.5827C105.026 88.1513 104.799 87.8473 104.579 87.944C104.213 88.1037 104.358 88.4 104.447 88.6656C104.588 89.0924 104.413 89.4409 104.094 89.6758C103.782 89.9061 103.416 89.8171 103.083 89.6359C102.783 89.4732 102.726 89.2813 102.893 88.9527C103.109 88.5274 103.247 88.0622 103.34 87.8166L103.337 87.8151ZM81.4484 108.518C81.4331 108.009 81.0898 107.253 80.4921 106.625C79.925 106.031 79.3732 105.938 78.6928 106.248C77.9479 106.587 77.5785 107.161 77.6169 107.932C77.6567 108.727 77.9709 109.42 78.4629 110.025C78.9272 110.594 79.6261 110.783 80.2468 110.557C81.0346 110.272 81.4484 109.698 81.4484 108.518ZM8.62876 64.474C8.92456 64.4341 9.25867 64.4203 9.57745 64.342C10.3974 64.1393 10.9798 63.4162 10.9783 62.6501C10.9752 61.8348 10.3698 61.0856 9.49623 60.9643C8.92915 60.886 8.32836 60.8876 7.76742 60.9858C6.86471 61.1455 6.30836 61.9223 6.34821 62.7929C6.38653 63.6158 7.00111 64.2422 7.91762 64.385C8.14292 64.4203 8.36975 64.4418 8.63029 64.474H8.62876ZM108.367 41.1852C108.39 41.5951 108.177 41.8192 107.859 41.9866C107.403 42.2261 107.4 42.1969 107.115 41.7655C106.839 41.3479 106.537 40.9165 106.153 40.6079C105.653 40.2056 105.083 40.3177 104.642 40.7737C104.246 41.1821 104.199 41.724 104.559 42.2399C104.715 42.4641 104.954 42.6299 105.141 42.8356C105.215 42.917 105.313 43.0597 105.285 43.1304C105.216 43.3039 105.098 43.4896 105.322 43.5817C105.46 43.6385 105.668 43.5879 105.822 43.5265C106.603 43.2148 107.38 42.8955 108.15 42.5546C108.354 42.4641 108.542 42.309 108.699 42.1478C109.14 41.6903 109.066 41.1729 108.813 40.657C108.556 40.135 108.213 39.7036 107.575 39.6406C107.551 39.6376 107.517 39.6345 107.5 39.6483C107.408 39.7236 107.287 39.7896 107.241 39.8878C107.212 39.9508 107.265 40.1028 107.33 40.1519C107.446 40.2409 107.592 40.3024 107.736 40.3438C108.174 40.4712 108.317 40.8044 108.367 41.1852ZM23.4186 28.2058C23.532 26.8624 21.5258 25.235 20.3334 25.6142C19.3648 25.9213 18.7947 27.0083 19.2422 27.9156C19.6499 28.7447 20.3166 29.3496 21.1794 29.6751C22.145 30.0389 23.3328 29.2329 23.4201 28.2058H23.4186ZM102.015 35.589C103.017 35.3925 103.872 34.9519 104.439 34.0553C104.841 33.4212 104.799 32.8255 104.34 32.2068C103.904 31.6203 103.248 31.3455 102.597 31.5497C101.834 31.7892 101.153 32.1853 100.64 32.8239C100.189 33.3843 100.157 34.0046 100.47 34.6172C100.778 35.2205 101.267 35.6074 102.015 35.589ZM17.2544 92.358C17.1793 92.4394 17.121 92.5223 17.0444 92.5806C16.7195 92.8278 16.3838 93.0611 16.062 93.3099C15.7509 93.5494 15.5087 93.4941 15.2911 93.1794C15.0443 92.8216 14.7868 92.4731 14.5294 92.1231C14.4052 91.9542 14.2566 91.7715 14.0282 91.9296C13.7876 92.0955 13.9332 92.2874 14.0558 92.4562C14.4297 92.9721 14.8022 93.491 15.1853 94.0007C15.5562 94.4967 15.6007 94.5151 16.0957 94.1619C17.4659 93.1855 18.8269 92.1952 20.1894 91.2081C20.292 91.1344 20.4223 91.0514 20.456 90.9455C20.4959 90.8212 20.4821 90.6431 20.4162 90.5341C20.3733 90.4634 20.1878 90.4389 20.0805 90.4604C19.9641 90.4849 19.8614 90.5832 19.7587 90.6569C19.3234 90.9685 18.8851 91.2756 18.456 91.5965C17.8812 92.0248 17.8368 92.0264 17.426 91.4813C17.2268 91.2157 17.0429 90.9394 16.8452 90.6722C16.7057 90.4834 16.5432 90.2669 16.2904 90.468C16.0712 90.6431 16.2398 90.8334 16.3578 91.0008C16.5938 91.3339 16.8329 91.664 17.0643 92.0018C17.1348 92.1047 17.1823 92.2229 17.2528 92.358H17.2544ZM66.3674 11.1809C66.3674 11.3084 66.3612 11.4358 66.3674 11.5632C66.4088 12.3662 66.841 12.9281 67.5766 13.1338C68.3399 13.3472 69.0173 13.1338 69.4495 12.4752C69.9767 11.6707 70.1116 10.7679 69.871 9.84522C69.5399 8.57247 67.8234 8.19478 67.0187 9.19733C66.5482 9.78381 66.3658 10.4486 66.3674 11.1809ZM22.1128 97.6317C21.6775 97.6317 21.325 97.6379 21.1656 97.2617C21.0124 96.8994 21.207 96.6215 21.4538 96.3789C21.9258 95.9137 22.4025 95.4531 22.8745 94.9895C23.0554 94.8114 23.2423 94.6348 23.4033 94.4383C23.4538 94.3769 23.4768 94.2141 23.4339 94.1696C23.3588 94.0867 23.2132 94.0023 23.1182 94.0207C22.9818 94.0483 22.85 94.1527 22.7427 94.2525C22.2186 94.7362 21.6959 95.2213 21.1856 95.7187C20.9863 95.9137 20.7901 96.121 20.6399 96.3544C20.2093 97.0253 20.4836 97.8282 21.23 98.1077C21.394 98.1691 21.5794 98.2105 21.7511 98.1998C22.076 98.1813 22.2048 98.2259 21.9749 98.5575C21.9228 98.6327 21.9825 98.7863 21.9902 98.9029C22.1266 98.8922 22.2783 98.9152 22.3963 98.863C22.5312 98.8031 22.6431 98.6849 22.7534 98.579C23.4201 97.948 24.0822 97.3154 24.7459 96.6814C24.8378 96.5939 24.9635 96.514 25.0049 96.405C25.06 96.2592 25.0462 96.0872 25.0616 95.9275C24.9006 95.9444 24.6953 95.903 24.588 95.9874C24.2677 96.2361 23.9795 96.5294 23.6914 96.8165C23.2224 97.2817 22.663 97.5488 22.1097 97.6317H22.1128ZM14.1416 78.9887C14.0726 78.7814 13.9562 78.396 13.8106 78.0199C13.7217 77.7881 13.5975 77.4641 13.2925 77.6008C12.9768 77.7405 13.245 77.9969 13.3247 78.1842C13.7768 79.2435 13.3385 79.9682 12.4266 80.4518C12.1216 80.613 11.9362 80.5393 11.8182 80.2599C11.6404 79.8377 11.4978 79.4016 11.3246 78.9764C11.0656 78.3438 10.8572 78.2947 10.3055 78.7C9.92996 78.9764 9.73532 79.3479 9.72305 79.807C9.69547 80.8018 10.7024 81.657 11.671 81.4559C11.9929 81.3899 12.3239 81.3116 12.6197 81.1703C13.6772 80.6683 14.1416 80.1002 14.1431 78.9887H14.1416ZM74.5715 11.1241C74.5654 10.5469 74.4581 10.1415 74.0106 9.91431C73.5355 9.67327 73.0695 9.67941 72.6557 10.0295C72.3247 10.3089 72.2389 10.2766 72.2986 9.83601C72.3124 9.73008 72.1684 9.60265 72.0963 9.48443C71.9799 9.56273 71.845 9.62568 71.7515 9.72547C71.6887 9.79303 71.6795 9.91278 71.6534 10.011C71.3929 10.9952 71.1323 11.9793 70.8764 12.9649C70.838 13.1108 70.7982 13.2689 70.8181 13.4132C70.8319 13.5176 70.93 13.662 71.0189 13.6865C71.1047 13.7096 71.284 13.6282 71.3208 13.5468C71.4373 13.295 71.5093 13.0217 71.5906 12.7546C71.7024 12.3907 71.7469 11.99 71.9293 11.6661C72.1607 11.2562 72.4688 10.8739 72.8075 10.5453C73.0297 10.3304 73.3791 10.3073 73.6611 10.5069C73.9186 10.6912 73.9508 10.9783 73.888 11.2669C73.8006 11.6645 73.6949 12.0576 73.5937 12.4522C73.4742 12.922 73.3454 13.3871 73.2397 13.86C73.1937 14.0642 73.2014 14.3145 73.4696 14.3314C73.583 14.339 73.7378 14.1609 73.8236 14.0335C73.9064 13.9122 73.9294 13.7495 73.9677 13.6006C74.1271 12.9849 74.2865 12.3677 74.4382 11.749C74.4995 11.5033 74.5424 11.2531 74.57 11.1195L74.5715 11.1241ZM15.3141 89.5484C15.9072 89.5622 16.3869 89.2736 16.8528 88.9588C18.154 88.0776 18.3441 86.9323 17.3862 85.7132C17.2559 85.5459 17.118 85.2434 16.8605 85.4108C16.5739 85.5966 16.8421 85.8038 16.9509 85.9881C17.4981 86.9138 17.3509 87.6846 16.5065 88.3232C16.1202 88.6149 16.0528 88.6149 15.7892 88.2188C15.521 87.8166 15.2926 87.3882 15.0244 86.9875C14.7531 86.5807 14.5171 86.5638 14.1677 86.8923C13.7171 87.3161 13.5745 87.9348 13.7983 88.4998C14.0788 89.2091 14.5799 89.5561 15.3125 89.5484H15.3141ZM46.2011 109.145C46.1582 108.974 46.1398 108.821 46.0815 108.683C45.775 107.955 44.998 107.708 44.3006 108.112C44.1719 108.185 44.0523 108.274 43.9282 108.356C43.9359 108.218 43.9726 108.073 43.9405 107.944C43.9098 107.817 43.824 107.625 43.7382 107.611C43.6293 107.594 43.4945 107.723 43.378 107.801C43.3427 107.826 43.3335 107.891 43.3167 107.94C42.9596 109.03 42.5918 110.117 42.2622 111.214C42.2209 111.353 42.3373 111.644 42.4599 111.703C42.6944 111.815 42.8063 111.589 42.8722 111.382C42.9795 111.041 43.0822 110.7 43.1956 110.361C43.3918 109.774 43.6416 109.219 44.1474 108.824C44.506 108.543 44.9597 108.459 45.2049 108.641C45.5313 108.884 45.4746 109.231 45.3857 109.552C45.2095 110.19 45.0026 110.821 44.8125 111.457C44.7466 111.677 44.6623 111.898 44.6501 112.12C44.6439 112.235 44.7635 112.438 44.8539 112.455C44.9597 112.475 45.1206 112.358 45.211 112.258C45.2892 112.171 45.303 112.025 45.3413 111.904C45.5635 111.199 45.7842 110.493 46.0049 109.787C46.0723 109.569 46.1382 109.351 46.2026 109.142L46.2011 109.145ZM108.599 43.9963C108.331 44.0853 107.773 44.2005 107.282 44.4461C105.958 45.1109 105.823 46.2946 106.498 47.5658C106.544 47.6518 106.697 47.681 106.8 47.7362C106.85 47.6119 106.936 47.4906 106.942 47.3632C106.948 47.2449 106.869 47.1221 106.832 46.9993C106.571 46.1349 106.885 45.4164 107.692 45.0372C108.272 44.7639 108.378 44.8069 108.571 45.4041C108.705 45.8171 108.815 46.2393 108.968 46.6447C109.14 47.096 109.316 47.1498 109.725 46.9256C110.383 46.5648 110.669 45.9446 110.498 45.2583C110.3 44.4707 109.699 44.0009 108.599 43.9963ZM31.2105 101.866C31.2074 101.134 30.5729 100.283 29.7621 99.9561C29.6441 99.9086 29.4832 99.9669 29.3437 99.9761C29.402 100.119 29.4541 100.263 29.52 100.401C29.5384 100.44 29.6043 100.457 29.6457 100.486C30.5514 101.125 30.7062 102.001 30.0978 102.932C29.9169 103.206 29.7529 103.251 29.4847 103.037C29.0862 102.721 28.6694 102.426 28.2464 102.142C27.8464 101.872 27.6778 101.924 27.4663 102.334C27.1521 102.947 27.2027 103.481 27.6456 103.959C28.1115 104.461 28.6709 104.72 29.3606 104.49C30.2449 104.195 31.2151 102.806 31.2089 101.866H31.2105ZM10.2978 57.0846C10.2978 57.0954 10.2978 57.1046 10.2978 57.1153C10.3484 57.1153 10.4005 57.1184 10.4511 57.1153C10.6748 57.1015 10.9568 57.1414 10.9783 56.819C10.9997 56.4951 10.7361 56.4859 10.5001 56.4736C9.55906 56.426 8.61956 56.3646 7.677 56.3339C7.1743 56.317 6.78961 56.5488 6.58424 57.0217C6.37733 57.4992 6.48768 58.0319 6.92141 58.405C7.21261 58.6552 7.29691 58.7489 6.82946 58.8134C6.70378 58.8318 6.60263 59.0268 6.49075 59.1404C6.62255 59.2341 6.74976 59.3983 6.8877 59.4091C8.0295 59.4997 9.17284 59.5749 10.3177 59.6194C10.474 59.6256 10.7423 59.4643 10.776 59.3323C10.8449 59.0652 10.5721 59.0253 10.3729 59.0007C9.81655 58.9331 9.25101 58.9224 8.70386 58.8103C8.31457 58.7305 7.92375 58.5693 7.58504 58.362C7.18809 58.1194 7.06242 57.7064 7.18043 57.3748C7.3245 56.9664 7.67853 56.9772 8.00805 56.9864C8.77129 57.0063 9.53454 57.0493 10.2978 57.0816V57.0846ZM111.46 70.8731C111.751 70.9698 111.957 70.9499 112.006 70.6873C112.053 70.4279 111.842 70.3388 111.633 70.2928C110.964 70.1454 110.292 70.0011 109.621 69.8613C109.174 69.7677 108.723 69.6833 108.274 69.5973C108.061 69.5558 107.84 69.5543 107.773 69.8076C107.705 70.0655 107.889 70.1684 108.113 70.2114C108.237 70.236 108.361 70.2651 108.485 70.2928C108.858 70.3741 109.238 70.4309 109.603 70.5399C110.194 70.7165 110.761 70.9514 111.079 71.5379C111.381 72.0952 111.1 72.5865 110.478 72.5773C110.251 72.5742 110.026 72.5159 109.802 72.4729C109.178 72.3516 108.554 72.2242 107.931 72.1013C107.682 72.0522 107.368 71.9493 107.31 72.3071C107.252 72.6633 107.598 72.6602 107.836 72.7124C108.556 72.8736 109.275 73.0363 109.998 73.1791C110.245 73.2282 110.507 73.2636 110.755 73.239C111.701 73.1453 112.142 72.132 111.588 71.3567C111.528 71.2738 111.45 71.2063 111.387 71.1264C111.342 71.0696 111.31 71.0021 111.273 70.9407C111.355 70.9115 111.434 70.8839 111.462 70.8731H111.46ZM69.7192 112.71C69.7192 112.71 69.7284 112.71 69.733 112.71C69.7269 112.811 69.7146 112.914 69.7177 113.015C69.7223 113.227 69.6043 113.533 69.9399 113.56C70.2602 113.586 70.3461 113.312 70.3706 113.04C70.3936 112.787 70.4028 112.53 70.4273 112.277C70.4871 111.667 70.5453 111.058 70.6189 110.451C70.6296 110.364 70.717 110.286 70.7691 110.203C70.8472 110.259 70.9484 110.301 70.999 110.376C71.4511 111.055 71.8925 111.741 72.3385 112.424C72.4212 112.552 72.4826 112.716 72.6006 112.793C72.7048 112.862 72.9117 112.888 73.0021 112.828C73.0818 112.774 73.1063 112.564 73.0757 112.441C73.0404 112.301 72.9209 112.182 72.8366 112.054C72.3814 111.377 71.9431 110.689 71.4634 110.029C70.9836 109.371 70.6342 108.704 70.8733 107.848C70.9346 107.63 71.0112 107.264 70.6572 107.218C70.32 107.174 70.3108 107.516 70.2648 107.765C70.2556 107.815 70.2511 107.866 70.2465 107.917C70.0702 109.513 69.8955 111.11 69.7208 112.707L69.7192 112.71ZM98.3272 91.4844C98.4422 91.9373 98.4468 92.1569 98.0207 91.9557C97.9441 91.9204 97.7464 91.9926 97.708 92.0678C97.6651 92.1507 97.7218 92.3058 97.7755 92.4087C97.8184 92.4931 97.9165 92.553 97.9962 92.6144C98.8207 93.2531 99.6453 93.8902 100.471 94.5258C100.551 94.5872 100.635 94.6717 100.726 94.684C100.838 94.6993 100.999 94.6886 101.061 94.6195C101.12 94.5535 101.126 94.3631 101.071 94.2878C100.954 94.1266 100.792 93.9946 100.634 93.8687C100.336 93.6307 100.015 93.4219 99.728 93.1717C99.2514 92.7556 98.9357 92.2382 98.9234 91.5873C98.9142 91.0499 99.2713 90.7904 99.7771 90.9731C100.033 91.0668 100.274 91.2249 100.496 91.3892C101.026 91.7838 101.541 92.1983 102.064 92.6036C102.223 92.7264 102.389 92.9045 102.588 92.685C102.809 92.4409 102.626 92.2643 102.444 92.1139C102.189 91.9035 101.927 91.7009 101.664 91.5044C101.155 91.1236 100.66 90.7198 100.127 90.379C99.5395 90.0044 98.9633 90.1241 98.6092 90.6937C98.4437 90.9593 98.3931 91.2956 98.3288 91.4844H98.3272ZM22.7964 23.3005C22.8822 23.7319 22.8623 23.9162 22.4684 23.5892C22.3871 23.5216 22.2002 23.5846 22.0607 23.5892C22.0837 23.7273 22.0607 23.9085 22.1389 23.996C22.9082 24.8481 23.6914 25.6864 24.4776 26.5216C24.6278 26.6812 24.8133 26.9207 25.0508 26.692C25.3068 26.4463 25.103 26.2299 24.916 26.0426C24.6646 25.7892 24.4041 25.5436 24.1573 25.2857C23.7588 24.8711 23.4983 24.3768 23.391 23.8118C23.296 23.3113 23.4584 22.8645 23.7726 22.7355C24.1864 22.5667 24.4347 22.8768 24.7106 23.0933C24.7505 23.124 24.7811 23.167 24.8164 23.2038C25.3221 23.7427 25.8294 24.2816 26.3337 24.822C26.4777 24.9755 26.634 25.1628 26.844 24.9832C27.077 24.7836 26.9452 24.5825 26.7689 24.3983C26.4179 24.0298 26.0915 23.6352 25.7298 23.276C25.3497 22.8998 24.9589 22.5313 24.5389 22.2043C24.2493 21.9786 23.8937 21.885 23.5397 22.1153C23.0876 22.4101 22.7902 22.8 22.7964 23.3005ZM110.544 82.615C110.504 82.5444 110.466 82.3878 110.378 82.3525C110.296 82.3187 110.128 82.3786 110.055 82.4523C109.952 82.5567 109.895 82.7087 109.83 82.8453C109.611 83.2916 109.269 83.4093 108.804 83.1984C107.508 82.6104 106.213 82.0224 104.914 81.439C104.778 81.3776 104.628 81.287 104.491 81.2977C104.361 81.3085 104.183 81.4083 104.133 81.5188C104.093 81.6063 104.188 81.7936 104.275 81.8873C104.375 81.9948 104.527 82.0592 104.665 82.1222C105.869 82.6657 107.077 83.2015 108.282 83.7435C109.178 84.1472 109.177 84.1503 108.843 85.05C108.817 85.1206 108.746 85.2004 108.761 85.2588C108.795 85.3908 108.87 85.5136 108.928 85.6395C109.053 85.5797 109.244 85.552 109.292 85.4553C109.71 84.5817 110.104 83.6974 110.502 82.8146C110.522 82.7701 110.524 82.7148 110.542 82.615H110.544ZM48.7866 38.9329C48.7805 38.5076 48.3621 38.1806 48.0402 38.3172C47.5038 38.546 46.9812 38.8116 46.457 39.0695C46.1597 39.2169 45.9574 39.4533 46.0233 39.8034C46.1183 40.31 45.8455 40.6217 45.5129 40.9226C45.3428 41.0761 45.165 41.2297 45.0363 41.4154C44.8585 41.6703 45.0056 41.9252 45.3152 41.9513C46.0187 42.0096 47.0118 41.3295 47.159 40.6294C47.2601 40.1534 47.5283 39.8648 47.9268 39.6453C48.1475 39.5224 48.3728 39.4011 48.5721 39.2461C48.6809 39.1601 48.7376 39.0066 48.7866 38.9329ZM110.777 55.7459C110.781 55.7704 110.786 55.7965 110.791 55.8211C110.994 55.8211 111.204 55.7904 111.401 55.8272C111.92 55.9255 112.3 56.4275 112.162 56.882C112.095 57.1 111.894 57.298 111.712 57.4562C111.508 57.6343 111.272 57.797 111.489 58.0749C111.701 58.3451 111.954 58.167 112.167 58.0242C112.666 57.6865 112.817 57.1998 112.749 56.621C112.673 55.9608 112.384 55.4096 111.744 55.2054C110.81 54.9091 109.869 54.9736 109.036 55.5432C108.303 56.0437 107.97 57.3211 108.341 58.101C108.386 58.1947 108.524 58.2438 108.619 58.3144C108.686 58.2192 108.8 58.1302 108.812 58.0288C108.836 57.8293 108.797 57.622 108.798 57.4178C108.803 56.7346 109.094 56.231 109.751 55.9992C110.082 55.8825 110.435 55.8272 110.778 55.7443L110.777 55.7459ZM50.7606 10.5883C50.799 10.2091 50.7959 9.97419 50.8526 9.75464C50.9415 9.40613 51.1852 9.1958 51.5377 9.11135C51.8733 9.03152 52.1354 9.1221 52.3301 9.41381C52.399 9.51821 52.4787 9.65792 52.5799 9.68862C52.7316 9.73315 52.9216 9.73008 53.0657 9.67174C53.1163 9.65024 53.1178 9.39692 53.0749 9.2741C52.9508 8.91637 52.6826 8.68915 52.327 8.56326C51.4243 8.24238 50.2901 8.83807 50.1553 9.79149C50.0756 10.3549 50.097 10.9767 50.2549 11.5187C50.6273 12.8068 52.0373 13.401 53.2696 12.859C53.3738 12.8129 53.4259 12.6471 53.5025 12.5366C53.3998 12.4813 53.2987 12.3815 53.196 12.3815C52.9692 12.3815 52.7423 12.4445 52.5155 12.4537C51.8994 12.4767 51.412 12.2188 51.1407 11.6707C50.9538 11.293 50.8572 10.8677 50.7622 10.5898L50.7606 10.5883ZM108.961 60.0416C108.979 59.8436 109.016 59.7131 108.996 59.5918C108.97 59.4352 108.938 59.1911 108.84 59.1511C108.596 59.0529 108.449 59.2617 108.433 59.4736C108.4 59.9265 108.352 60.3932 108.421 60.8354C108.51 61.4065 108.875 61.7949 109.472 61.9085C110.078 62.0237 110.42 61.646 110.734 61.2253C110.824 61.104 110.879 60.9566 110.956 60.8246C111.125 60.5391 111.27 60.2351 111.474 59.9771C111.753 59.6271 112.176 59.6946 112.285 60.1261C112.369 60.4577 112.302 60.8246 112.329 61.1747C112.34 61.3052 112.434 61.428 112.49 61.5554C112.622 61.4664 112.852 61.3911 112.869 61.2837C112.925 60.9121 112.967 60.5191 112.909 60.1506C112.814 59.5442 112.42 59.1711 111.937 59.1066C111.402 59.036 111.08 59.2417 110.74 59.8543C110.53 60.2335 110.315 60.6097 110.09 60.9797C109.938 61.2299 109.676 61.3297 109.431 61.21C109.253 61.1225 109.083 60.9183 109.019 60.7294C108.939 60.4976 108.973 60.2258 108.962 60.0401L108.961 60.0416ZM6.76355 45.3965C6.81873 45.6329 6.84938 45.8325 6.91222 46.0229C7.05322 46.4573 7.43331 46.6339 7.8088 46.7951C8.09081 46.9164 8.42032 46.9686 8.27932 47.42C8.25786 47.4891 8.38507 47.6687 8.46937 47.6887C8.55519 47.7101 8.73451 47.6242 8.76976 47.5413C8.95674 47.0976 9.27093 47.2035 9.60044 47.3033C10.4051 47.5474 11.2128 47.7808 12.0174 48.0264C12.2887 48.1093 12.5523 48.1354 12.6274 47.7977C12.6887 47.5198 12.4235 47.4891 12.2335 47.4323C11.4519 47.202 10.6641 46.987 9.88704 46.7444C9.17131 46.5203 9.17437 46.508 9.31384 45.7373C9.32304 45.6866 9.35982 45.6268 9.34296 45.5899C9.29239 45.484 9.23874 45.3366 9.14985 45.3043C9.07169 45.2767 8.90157 45.355 8.85099 45.4364C8.7575 45.5838 8.75443 45.7895 8.65481 45.9292C8.56286 46.0566 8.4004 46.1994 8.25633 46.2132C7.75976 46.2639 7.32909 45.7972 7.3812 45.2921C7.39959 45.117 7.49155 44.9512 7.50994 44.7762C7.52067 44.6733 7.45324 44.5628 7.42105 44.4553C7.30764 44.4906 7.12832 44.4937 7.09 44.5689C6.9536 44.8361 6.86624 45.1262 6.76509 45.398L6.76355 45.3965ZM39.9817 16.6128C40.4399 16.4055 40.866 16.2443 41.2614 16.0248C41.7411 15.7576 42.0201 15.3492 41.9205 14.7643C41.8224 14.187 41.4178 13.817 40.7741 13.708C40.348 13.6359 39.9158 13.5959 39.4958 13.4946C39.3196 13.4516 39.0483 13.2966 39.0407 13.1783C39.0284 12.988 39.1479 12.7178 39.3027 12.6041C39.5372 12.4322 39.8453 12.3524 40.1304 12.2587C40.3173 12.1973 40.5089 12.1205 40.4078 11.9102C40.3556 11.7997 40.112 11.6906 39.9909 11.7214C39.6767 11.8027 39.3748 11.947 39.0805 12.0914C38.61 12.3232 38.3173 12.6932 38.3678 13.2428C38.4153 13.7633 38.7556 14.0765 39.3978 14.2039C39.7702 14.2792 40.1503 14.3114 40.5288 14.3559C40.8737 14.3958 41.1894 14.4665 41.2722 14.8764C41.3442 15.2341 41.2047 15.489 40.7511 15.6978C40.4767 15.8252 40.1687 15.8728 39.8882 15.9879C39.7702 16.0371 39.6859 16.1676 39.5863 16.2612C39.7073 16.3687 39.8269 16.4762 39.9802 16.6113L39.9817 16.6128ZM86.4678 15.2756C86.3911 15.317 86.2609 15.3477 86.2026 15.4306C86.1658 15.4828 86.2026 15.6548 86.2593 15.6993C86.641 15.9895 86.4448 16.2566 86.2639 16.5483C85.8455 17.2192 85.4394 17.8963 85.0317 18.5734C84.9397 18.7254 84.8309 18.8789 84.7911 19.0447C84.7681 19.1384 84.8416 19.3103 84.9244 19.3594C85.0041 19.407 85.185 19.3794 85.2585 19.3134C85.3873 19.1982 85.4777 19.0355 85.5696 18.8835C85.8869 18.36 86.1873 17.8272 86.5137 17.3098C86.7023 17.0104 86.8724 16.6374 87.1528 16.4838C87.3153 16.3948 87.6755 16.688 87.9559 16.7771C88.0571 16.8093 88.1874 16.7464 88.3038 16.7279C88.2625 16.5974 88.2548 16.4378 88.172 16.3441C88.0571 16.2152 87.864 16.1568 87.746 16.0294C87.654 15.9296 87.5682 15.7638 87.5835 15.6379C87.6387 15.1604 88.2134 14.8088 88.6763 14.9531C88.8188 14.9977 88.9414 15.1113 89.0855 15.1527C89.2372 15.1973 89.4043 15.1942 89.5637 15.2111C89.4901 15.0437 89.464 14.8165 89.3368 14.7198C88.4908 14.0734 87.7644 14.1932 87.2356 14.97C87.0609 15.2264 86.9061 15.5212 86.4678 15.2771V15.2756ZM43.4853 10.4762C42.9075 10.5545 42.4063 10.7249 42.0293 11.1487C41.5465 11.6922 41.7136 12.509 42.3787 12.816C42.6071 12.922 42.8646 12.9695 43.1144 13.0217C43.4132 13.0832 43.7366 13.0739 44.014 13.1845C44.2255 13.2689 44.4662 13.4639 44.5367 13.6635C44.5903 13.817 44.4432 14.0934 44.3114 14.253C44.0294 14.5954 43.6125 14.6384 43.1956 14.6522C42.9887 14.6599 42.7481 14.6814 42.7956 14.9777C42.8339 15.2218 43.0362 15.3124 43.26 15.2556C43.6293 15.1604 44.0064 15.0698 44.3481 14.9086C44.9796 14.6108 45.2279 14.164 45.162 13.576C45.0945 12.9772 44.7711 12.6625 44.0493 12.4967C43.6263 12.4 43.1987 12.3232 42.7849 12.1958C42.6377 12.1512 42.4339 11.99 42.4247 11.8703C42.4124 11.7014 42.5151 11.4665 42.6485 11.3606C42.8416 11.2101 43.1021 11.1395 43.3397 11.0566C43.4577 11.0151 43.6033 11.0489 43.7136 10.9982C43.8087 10.9537 43.9037 10.8478 43.9359 10.7495C43.9512 10.7035 43.8301 10.5883 43.7489 10.5407C43.6646 10.4931 43.5558 10.49 43.4868 10.4747L43.4853 10.4762ZM76.4796 15.3984C77.0467 15.3907 77.3195 15.2679 77.5617 14.9501C77.9402 14.4511 77.9494 13.926 77.5571 13.4086C77.2812 13.0448 76.9471 12.7208 76.6957 12.3416C76.5885 12.1789 76.5287 11.8641 76.616 11.726C76.7065 11.5847 77.0099 11.5033 77.2076 11.5248C77.4758 11.554 77.7257 11.7198 77.9923 11.795C78.1196 11.8319 78.2667 11.795 78.4062 11.7935C78.3648 11.6415 78.3617 11.3897 78.2743 11.3544C77.8345 11.1794 77.3808 11.0136 76.9164 10.9368C76.475 10.8631 76.1302 11.1149 75.931 11.5141C75.7317 11.9148 75.7792 12.3063 76.0704 12.6548C76.3463 12.9864 76.6283 13.315 76.9057 13.6451C77.1279 13.9107 77.3073 14.1947 77.085 14.5401C76.8689 14.8748 76.518 14.8748 76.1946 14.7843C75.8804 14.6952 75.5953 14.514 75.2873 14.4004C75.1876 14.3636 75.0558 14.4143 74.9394 14.425C74.9654 14.5586 74.9455 14.7474 75.0267 14.8165C75.4666 15.188 75.9938 15.3585 76.4827 15.3999L76.4796 15.3984ZM6.51833 69.803C6.8877 69.6894 7.05016 69.8844 7.21108 70.1484C7.35668 70.3849 7.60803 70.3741 7.63255 70.0901C7.67393 69.6311 7.95134 69.5788 8.30231 69.5343C8.88164 69.4606 9.45944 69.3701 10.0357 69.2718C10.284 69.2288 10.5384 69.1766 10.7683 69.0768C11.3246 68.8358 11.5714 68.0497 11.2649 67.5262C11.2235 67.4555 11.1024 67.388 11.0258 67.3957C10.9446 67.4033 10.8434 67.4878 10.802 67.5661C10.7591 67.649 10.7668 67.7641 10.7744 67.8624C10.8051 68.303 10.5767 68.5287 10.1675 68.5932C9.51462 68.6961 8.86325 68.8097 8.20576 68.8834C7.61569 68.9494 7.61416 68.9294 7.43178 68.3291C7.40266 68.2324 7.38273 68.128 7.33216 68.0436C7.29844 67.9868 7.20648 67.9161 7.15897 67.9269C7.07468 67.9484 6.97659 68.0113 6.93368 68.085C6.88616 68.1664 6.8831 68.28 6.88003 68.3798C6.86011 69.0553 6.86011 69.0461 6.22867 69.1981C6.08 69.2334 5.95126 69.3532 5.81333 69.433C5.95586 69.5604 6.08767 69.7063 6.24706 69.8076C6.31603 69.8521 6.44323 69.8061 6.51374 69.803H6.51833ZM87.6724 101.362C87.5391 101.436 87.2417 101.573 86.9812 101.762C86.8923 101.826 86.8984 102.021 86.8601 102.156C86.9919 102.172 87.1406 102.233 87.254 102.193C87.8946 101.964 87.9897 101.972 88.4019 102.508C88.7284 102.932 89.0303 103.375 89.3414 103.813C89.7706 104.416 89.7675 104.436 89.2296 105C89.1943 105.036 89.1345 105.069 89.1269 105.11C89.1069 105.222 89.0824 105.348 89.1161 105.448C89.1299 105.489 89.2985 105.505 89.3859 105.485C89.4794 105.463 89.5591 105.382 89.6464 105.331C89.9785 105.14 90.2631 105.192 90.5001 105.488C90.5476 105.548 90.5706 105.64 90.6304 105.674C90.7514 105.744 90.8909 105.786 91.0212 105.838C91.061 105.683 91.1132 105.528 91.1315 105.371C91.1392 105.308 91.0764 105.23 91.0304 105.17C90.8082 104.883 90.6855 104.605 91.0166 104.303C91.0718 104.252 91.0917 104.052 91.0626 104.034C90.9691 103.98 90.802 103.922 90.7377 103.968C90.3591 104.243 90.192 103.983 90.0081 103.718C89.602 103.13 89.1928 102.543 88.779 101.96C88.5537 101.642 88.3038 101.35 87.6709 101.362H87.6724ZM61.463 10.3887C61.463 10.7679 61.4492 11.1748 61.466 11.5816C61.4967 12.3263 62.2599 12.8083 62.9358 12.5166C62.9956 12.4905 63.0784 12.4061 63.0707 12.36C63.0584 12.2741 63.0017 12.1835 62.9358 12.1221C62.8852 12.076 62.7964 12.0637 62.7228 12.053C62.2569 11.9824 62.0883 11.6968 62.1113 11.2469C62.1373 10.7388 62.1419 10.2306 62.1603 9.7224C62.1695 9.44298 62.1297 9.14513 62.217 8.89181C62.3519 8.50031 62.7534 8.74595 63.0171 8.64463C63.1381 8.59857 63.227 8.4696 63.3297 8.37748C63.2301 8.28383 63.1259 8.10727 63.0308 8.11188C62.4469 8.13644 62.1772 7.89233 62.2431 7.29971C62.2477 7.25058 62.2431 7.1907 62.217 7.15232C62.1634 7.07249 62.0913 6.94352 62.03 6.94506C61.9212 6.94813 61.794 7.01107 61.7128 7.08937C61.65 7.15079 61.6208 7.27514 61.6224 7.37033C61.6316 7.74801 61.5182 7.9737 61.0951 8.05814C60.8147 8.11495 60.807 8.46039 61.0905 8.53255C61.558 8.65077 61.5181 8.96397 61.5105 9.29252C61.5028 9.64871 61.4814 10.0034 61.4645 10.3872L61.463 10.3887ZM97.9379 25.1736C97.8276 25.3056 97.7157 25.4668 97.5778 25.6004C97.0107 26.15 96.4145 26.669 95.8704 27.2401C95.3631 27.7713 95.5532 28.6372 96.2091 28.9627C96.2689 28.9919 96.3869 29.0072 96.4191 28.9719C96.4789 28.9074 96.5172 28.8046 96.5249 28.714C96.531 28.6464 96.4865 28.565 96.4421 28.5052C96.0988 28.0277 96.2628 27.6577 96.6613 27.3107C97.0444 26.976 97.4077 26.6183 97.7847 26.2759C97.9717 26.1055 98.1648 25.8153 98.3609 25.8123C98.5832 25.8077 98.8023 26.0779 99.0399 26.1946C99.1518 26.2498 99.302 26.2299 99.4353 26.2452C99.4169 26.1301 99.4276 25.9996 99.3771 25.9029C99.2606 25.6818 98.9955 25.4714 99.0092 25.2703C99.0215 25.0692 99.3004 24.8865 99.4614 24.6961C99.4782 24.6762 99.5043 24.6593 99.5104 24.6378C99.5395 24.5226 99.5625 24.4044 99.587 24.2877C99.4491 24.2662 99.305 24.2094 99.1748 24.234C99.0613 24.2555 98.9525 24.3553 98.8621 24.4428C98.6429 24.6516 98.4406 24.8097 98.1479 24.538C98.0789 24.475 97.918 24.5119 97.8 24.5011C97.8015 24.6378 97.7923 24.7759 97.8107 24.9095C97.8199 24.9801 97.8751 25.0446 97.9425 25.1751L97.9379 25.1736ZM16.6429 30.7329C16.5816 30.65 16.5279 30.5133 16.4712 30.5133C16.3655 30.5133 16.2321 30.5625 16.157 30.6377C15.6313 31.1689 15.6405 31.1628 15.0918 30.8618C14.96 30.7897 14.7777 30.8066 14.6198 30.782C14.655 30.9632 14.6734 31.1505 14.7347 31.3224C14.7654 31.4069 14.8727 31.4698 14.957 31.5266C15.1715 31.6679 15.3003 31.8168 15.1378 32.0916C15.0888 32.1761 15.1409 32.3188 15.1455 32.4355C15.2819 32.4278 15.4781 32.4739 15.544 32.4002C15.8106 32.1039 16.0313 32.2421 16.2766 32.4094C16.9065 32.8408 17.5272 33.2891 18.177 33.6899C18.8621 34.1136 19.6208 33.805 19.8629 33.0343C19.889 32.9529 19.8629 32.781 19.82 32.7656C19.7219 32.7303 19.5962 32.7564 19.4859 32.7764C19.4445 32.784 19.4138 32.8454 19.374 32.8777C18.8544 33.2876 18.6797 33.3045 18.1632 32.9606C17.6329 32.6075 17.1195 32.2329 16.5846 31.8874C16.2735 31.6878 16.1356 31.4867 16.4068 31.1536C16.5003 31.0384 16.5555 30.8926 16.6444 30.7313L16.6429 30.7329ZM9.17284 77.4718C9.37055 77.4227 9.52075 77.392 9.66635 77.3474C10.3714 77.1294 11.0764 76.9099 11.7814 76.6888C12.1216 76.5829 12.4665 76.4892 12.7944 76.3526C12.9063 76.3065 12.9692 76.1422 13.0535 76.0332C12.914 75.9503 12.7638 75.7799 12.6396 75.7983C12.2902 75.849 11.95 75.9687 11.6112 76.0777C10.6242 76.3955 9.66941 76.5767 8.90617 75.5941C8.84486 75.5158 8.58585 75.4836 8.52148 75.5435C8.44025 75.6172 8.3958 75.8613 8.45557 75.938C8.63642 76.1699 8.86632 76.3679 9.09468 76.5583C9.24947 76.6873 9.42266 76.7609 9.09774 76.9007C8.99199 76.9452 8.86019 77.131 8.88164 77.2169C8.90923 77.3244 9.08088 77.3966 9.17284 77.4703V77.4718ZM32.0733 20.7673C31.9982 20.623 31.9507 20.5048 31.8802 20.4019C30.9009 18.9787 29.9185 17.5585 28.933 16.1399C28.792 15.9388 28.6449 15.6363 28.3429 15.8482C28.0103 16.0831 28.3276 16.2981 28.4533 16.4838C29.4219 17.9147 30.4012 19.3379 31.3791 20.7627C31.4358 20.8456 31.4879 20.9454 31.5676 20.9961C31.6427 21.0421 31.776 21.0744 31.8419 21.0375C31.9369 20.9838 31.9952 20.864 32.0718 20.7673H32.0733ZM81.8638 104.838C81.7304 105 81.5771 105.102 81.571 105.213C81.5618 105.377 81.6323 105.558 81.709 105.713C82.463 107.218 83.2263 108.717 83.988 110.218C84.0462 110.332 84.0907 110.468 84.1826 110.542C84.2654 110.608 84.4294 110.651 84.5137 110.611C84.601 110.568 84.6869 110.413 84.6807 110.312C84.6731 110.167 84.5903 110.025 84.5229 109.888C84.3098 109.453 84.0907 109.022 83.8715 108.589C83.3289 107.521 82.7864 106.452 82.2362 105.388C82.1473 105.215 82.017 105.064 81.8638 104.84V104.838ZM40.1104 110.932L40.2851 110.966C40.4062 110.794 40.561 110.637 40.6407 110.448C40.9871 109.632 41.312 108.806 41.6431 107.983C41.7381 107.748 41.853 107.514 41.9005 107.269C41.922 107.158 41.827 106.948 41.735 106.913C41.64 106.876 41.4591 106.968 41.3626 107.055C41.2768 107.132 41.2553 107.279 41.2063 107.396C41.0193 107.84 40.8476 108.291 40.6392 108.726C40.3495 109.332 39.9388 109.787 39.1863 109.748C39.0621 109.742 38.9165 109.748 38.8184 109.811C38.705 109.882 38.5579 110.023 38.5625 110.129C38.5671 110.232 38.7418 110.41 38.8429 110.411C39.1372 110.415 39.4376 110.367 39.7273 110.298C39.9311 110.25 39.9939 110.279 39.9939 110.497C39.9939 110.642 40.069 110.788 40.112 110.932H40.1104ZM93.4581 25.7892C93.5286 25.7386 93.6619 25.6695 93.7631 25.5697C94.088 25.2473 94.3853 24.8957 94.7225 24.5871C95.357 24.0037 96.0497 23.646 96.9341 24.0774C97.0322 24.125 97.2207 23.9914 97.3663 23.9423C97.3034 23.7964 97.2789 23.5753 97.1701 23.5185C96.9325 23.3942 96.6459 23.2806 96.3869 23.2959C96.0191 23.3174 96.0574 23.2222 96.1861 22.972C96.2306 22.886 96.1953 22.6603 96.157 22.6511C96.0298 22.6173 95.8765 22.6296 95.7478 22.6695C95.662 22.6972 95.5991 22.8031 95.5286 22.8753C94.7884 23.6444 94.0497 24.4152 93.3094 25.1859C93.2573 25.2411 93.2006 25.2949 93.1623 25.3594C93.0397 25.5651 93.1577 25.7862 93.4596 25.7908L93.4581 25.7892ZM103.23 83.7404C103.13 83.8264 103.009 83.8878 102.957 83.986C102.921 84.0536 102.945 84.204 103 84.2608C103.124 84.3852 103.276 84.4881 103.431 84.5725C103.765 84.7567 104.116 84.9118 104.445 85.1007C105.17 85.5182 105.718 86.0525 105.577 86.9952C105.569 87.0443 105.558 87.1104 105.584 87.1457C105.667 87.2593 105.765 87.3621 105.857 87.4696C105.977 87.3621 106.165 87.2746 106.199 87.1457C106.254 86.9338 106.246 86.6851 106.196 86.4686C106.131 86.1923 106.076 86.0126 106.476 86.114C106.556 86.1339 106.755 86.0111 106.757 85.9512C106.76 85.8207 106.685 85.681 106.614 85.5597C106.582 85.5044 106.484 85.4875 106.416 85.4522C105.475 84.9471 104.533 84.4405 103.592 83.9354C103.481 83.8755 103.37 83.8172 103.23 83.7419V83.7404ZM53.9792 79.5045C54.5355 79.4846 54.6244 79.2926 54.4022 78.9088C54.0221 78.2517 53.6558 77.5869 53.2788 76.9283C53.2205 76.8285 53.1132 76.6658 53.055 76.675C52.9247 76.698 52.7469 76.787 52.701 76.8961C52.6167 77.0972 52.5477 77.3459 52.586 77.5532C52.7071 78.2149 53.0167 78.8029 53.4902 79.2804C53.6343 79.4262 53.8872 79.4646 53.9807 79.5045H53.9792ZM9.15445 65.7744C9.15445 65.7744 9.15445 65.7729 9.15445 65.7713C8.47243 65.8404 7.78888 65.9095 7.10686 65.9801C6.89229 66.0032 6.68232 66.0569 6.70685 66.3317C6.73137 66.6019 6.94134 66.6265 7.1605 66.6081C7.76896 66.5589 8.37741 66.5144 8.98433 66.4591C9.51615 66.41 10.048 66.3547 10.5767 66.2903C10.8189 66.2611 11.0442 66.169 10.9951 65.8634C10.9507 65.5794 10.7331 65.6224 10.5185 65.647C10.0633 65.6992 9.60811 65.7329 9.15139 65.7759L9.15445 65.7744ZM64.2432 12.0914C64.2477 12.0315 64.214 12.119 64.2416 12.1804C64.306 12.3263 64.3995 12.4598 64.4807 12.598C64.6079 12.4967 64.7459 12.403 64.8577 12.2863C64.9022 12.2403 64.8991 12.1436 64.9068 12.0683C65.011 11.0335 65.1183 9.99875 65.2118 8.96243C65.2271 8.79048 65.2056 8.60317 65.1474 8.44197C65.0692 8.22396 64.7765 8.21014 64.6677 8.41126C64.6095 8.5172 64.5895 8.65077 64.5773 8.77513C64.4669 9.83601 64.3627 10.8954 64.2432 12.0929V12.0914ZM54.3163 8.71832C54.373 9.4307 54.4129 10.0126 54.4681 10.5929C54.5202 11.1487 54.5708 11.7045 54.6642 12.2541C54.6857 12.3769 54.8803 12.4706 54.9968 12.5765C55.0918 12.4491 55.193 12.3247 55.2804 12.1912C55.3018 12.1574 55.2773 12.0929 55.2727 12.0422C55.1731 10.9829 55.0781 9.92199 54.9723 8.86264C54.957 8.71678 54.9187 8.55558 54.8405 8.43736C54.7823 8.34985 54.6275 8.26234 54.5355 8.28076C54.4497 8.29765 54.3685 8.4435 54.3271 8.54944C54.2934 8.63695 54.3194 8.74903 54.3194 8.71832H54.3163ZM108.275 54.0616C109.512 53.8575 110.671 53.6763 111.822 53.4629C111.952 53.4383 112.049 53.2403 112.162 53.1221C112.027 53.0361 111.897 52.9378 111.753 52.8703C111.695 52.8426 111.604 52.8825 111.529 52.8933C110.547 53.0361 109.563 53.1789 108.58 53.3247C108.455 53.3431 108.311 53.3477 108.214 53.4168C108.105 53.4951 107.954 53.6594 107.977 53.7438C108.01 53.8728 108.179 53.9665 108.274 54.0601L108.275 54.0616ZM49.4181 29.5814C50.1737 29.5814 50.7085 29.4386 51.1637 29.0794C51.2587 29.0041 51.3017 28.826 51.3063 28.694C51.3063 28.651 51.1101 28.5804 50.9982 28.5604C50.6242 28.499 50.2426 28.4791 49.8733 28.4008C49.251 28.2687 48.7636 28.4714 48.5169 29.0395C48.4786 29.1285 48.5598 29.3649 48.6334 29.391C48.9414 29.497 49.2694 29.5492 49.4196 29.5814H49.4181ZM20.9097 31.5543C20.7212 31.3455 20.6231 31.1996 20.4913 31.0967C19.6284 30.4274 18.7594 29.7672 17.892 29.1055C17.8322 29.0594 17.7663 28.9873 17.7034 28.9857C17.59 28.9826 17.4061 28.9934 17.3755 29.0563C17.3233 29.1669 17.3295 29.3388 17.3801 29.454C17.426 29.5584 17.5609 29.6244 17.6605 29.7012C18.4222 30.2922 19.184 30.8849 19.9487 31.4714C20.1081 31.5942 20.2767 31.737 20.4622 31.783C20.5679 31.8091 20.7181 31.6587 20.9097 31.5543ZM62.6155 59.9295C62.496 59.9388 62.3519 59.9127 62.2492 59.9679C62.0852 60.0554 61.8921 60.1706 61.8247 60.3241C61.7864 60.4101 61.9473 60.6358 62.0714 60.7294C62.312 60.9106 62.5818 61.0611 62.8561 61.1915C63.2669 61.3865 63.5749 61.2391 63.7451 60.7939C63.8707 60.4654 63.7221 60.2059 63.2945 60.0693C63.0784 60.0002 62.8485 59.9771 62.6155 59.9311V59.9295ZM81.4224 59.5733C81.548 59.5396 81.827 59.5273 82.0216 59.3922C82.1825 59.2816 82.3465 59.013 82.3205 58.841C82.2975 58.6829 82.0323 58.4572 81.8607 58.4449C81.5189 58.4219 81.1434 58.4649 80.8308 58.5954C80.6407 58.6737 80.4369 58.9608 80.4231 59.168C80.4001 59.4904 80.7388 59.5058 80.9886 59.5442C81.0898 59.5595 81.1925 59.558 81.4208 59.5733H81.4224ZM113.92 52.4312C113.509 52.4097 113.306 52.6093 113.31 52.8933C113.315 53.1789 113.485 53.2986 113.747 53.3078C114.027 53.3186 114.201 53.1635 114.159 52.8948C114.13 52.7106 113.981 52.5448 113.92 52.4312ZM16.0651 28.6863C16.2612 28.41 16.4911 28.2257 16.4712 28.0738C16.4497 27.9141 16.1907 27.7836 16.0359 27.6423C15.9103 27.8081 15.7126 27.9632 15.685 28.1444C15.665 28.2718 15.8781 28.4345 16.0651 28.6879V28.6863ZM65.0294 7.12161C65.4126 7.14157 65.5045 6.96962 65.5152 6.747C65.5275 6.51057 65.4095 6.3555 65.1597 6.34783C64.9083 6.34015 64.6524 6.42459 64.6937 6.70709C64.7198 6.88057 64.9451 7.02489 65.0294 7.12008V7.12161ZM54.5278 6.13903C54.3025 6.38928 54.088 6.52285 54.0665 6.68252C54.0512 6.80074 54.2596 7.01107 54.4129 7.07556C54.629 7.16614 54.888 6.94352 54.8451 6.7163C54.8129 6.55356 54.6826 6.40924 54.5278 6.13903ZM5.71984 66.5482C5.4409 66.3271 5.2953 66.1275 5.12824 66.1076C5.00257 66.0922 4.75275 66.2933 4.73129 66.4254C4.69604 66.6434 4.82325 66.8998 5.11138 66.8675C5.27384 66.8491 5.42404 66.7094 5.71984 66.5482Z" fill="white"/>
<path d="M120 1.21111C119.841 1.30016 119.729 1.41223 119.649 1.39381C119.563 1.37385 119.506 1.22953 119.438 1.14049C119.528 1.07293 119.618 0.950111 119.706 0.953182C119.788 0.956252 119.868 1.08982 119.998 1.21265L120 1.21111Z" fill="white"/>
<path d="M71.7364 84.4661C71.7364 84.0838 71.7318 83.7015 71.7364 83.3192C71.7425 82.8295 71.7533 82.8249 72.2529 82.7957C73.9296 82.699 74.4093 83.6708 74.1687 85.0495C74.0016 86.0106 73.0361 86.5541 72.0859 86.2839C71.8054 86.204 71.7441 86.0091 71.741 85.7649C71.7364 85.332 71.741 84.899 71.741 84.4661H71.7349H71.7364Z" fill="white"/>
<path d="M62.2159 86.5836C62.0733 87.3605 61.986 88.0944 61.799 88.8037C61.4664 90.0642 60.6832 90.4956 59.5276 90.5984C58.3797 90.7013 57.3498 90.0058 56.9283 88.9772C56.5896 88.1512 56.5528 87.2791 56.5758 86.4224C56.5942 85.7223 56.634 85.0176 56.8716 84.3176C57.3682 82.8544 58.7429 82.3938 59.9798 82.6349C60.9147 82.816 61.5492 83.3764 61.7883 84.293C61.986 85.0499 62.0795 85.8329 62.2159 86.5852V86.5836Z" fill="white"/>
<path d="M93.1425 18.3906C94.0115 18.4643 94.5418 19.0232 94.4207 19.8461C94.367 20.2146 94.2674 20.6245 94.0498 20.9131C93.564 21.5579 93.0107 22.1582 92.4436 22.7355C92.2627 22.9213 91.9624 23.0287 91.6987 23.0871C90.8175 23.279 90.1201 22.6372 90.2351 21.7406C90.2734 21.4443 90.37 21.1419 90.5064 20.8763C90.9079 20.0994 91.452 19.4223 92.1509 18.8957C92.4421 18.6762 92.8084 18.5564 93.1394 18.3922L93.1425 18.3906Z" fill="white"/>
<path d="M34.5859 13.4199C34.6135 13.3738 34.6457 13.2786 34.7116 13.2249C34.7407 13.2018 34.8587 13.2479 34.9032 13.294C35.4488 13.8559 35.996 14.4193 36.5201 15.0012C36.5722 15.0596 36.5017 15.253 36.4557 15.3697C36.4328 15.4249 36.3331 15.451 36.2672 15.4879C35.1791 16.1082 35.0748 16.0544 34.8725 14.8108C34.799 14.361 34.6902 13.9188 34.5859 13.4199Z" fill="white"/>
<path d="M76.4904 110.788C76.3801 110.971 76.2666 111.29 76.0444 111.49C75.8115 111.7 75.3026 111.557 75.0145 111.272C74.3309 110.593 74.2727 109.749 74.4244 108.867C74.4765 108.565 74.7279 108.408 75.0268 108.365C75.3609 108.316 75.6275 108.453 75.8145 108.72C76.2176 109.297 76.3494 109.97 76.4904 110.788Z" fill="white"/>
<path d="M32.4411 106.376C31.9216 106.38 31.5967 106.099 31.6503 105.634C31.7606 104.704 32.2588 103.967 32.9959 103.43C33.468 103.086 34.0504 103.359 34.1791 103.905C34.3646 104.688 33.4818 106.144 32.7017 106.337C32.6036 106.362 32.5024 106.368 32.4396 106.377L32.4411 106.376Z" fill="white"/>
<path d="M109.923 48.8242C110.622 48.9163 110.973 49.1036 111.054 49.5028C111.143 49.9481 110.904 50.3165 110.315 50.6067C109.682 50.9184 109.03 51.0166 108.329 50.8462C107.951 50.7541 107.748 50.5223 107.692 50.1814C107.633 49.8268 107.791 49.4998 108.128 49.3754C108.714 49.1574 109.324 49.0038 109.923 48.8242Z" fill="white"/>
<path d="M14.4499 82.7656C14.8208 82.804 15.2959 82.7364 15.4859 83.2692C15.6315 83.676 15.4982 84.023 14.8974 84.3792C14.4039 84.6709 13.8475 84.8766 13.2958 85.0455C12.9556 85.1499 12.5586 85.1008 12.3548 84.7293C12.1647 84.3823 12.2613 84.0491 12.4942 83.7359C12.8927 83.2001 13.7173 82.7687 14.4483 82.7672L14.4499 82.7656Z" fill="white"/>
<path d="M107.924 74.8229C108.519 74.8736 109.169 75.0901 109.765 75.4509C110.061 75.6305 110.28 75.8976 110.225 76.2692C110.167 76.6668 109.903 76.8971 109.506 76.9508C108.629 77.0691 107.845 76.8741 107.193 76.2461C106.91 75.9729 106.795 75.6397 106.934 75.2712C107.084 74.8751 107.443 74.8106 107.924 74.8214V74.8229Z" fill="white"/>
<path d="M105.71 36.4883C105.908 36.4883 106.3 36.5006 106.455 36.9566C106.594 37.3711 106.435 37.7012 106.113 37.9637C105.555 38.4182 104.936 38.7498 104.214 38.8419C103.906 38.8803 103.586 38.8634 103.406 38.5517C103.222 38.2339 103.301 37.9177 103.475 37.6152C103.842 36.9811 104.738 36.4837 105.71 36.4883Z" fill="white"/>
<path d="M58.5273 10.3672C58.8523 10.4194 58.9825 10.5468 58.9228 10.8493C58.8231 11.3528 58.604 11.7566 58.0768 11.9224C57.7135 12.0361 57.4147 11.9516 57.2829 11.6906C57.1495 11.4235 57.2262 10.9521 57.4944 10.8001C57.8162 10.6159 58.181 10.5084 58.5289 10.3672H58.5273Z" fill="white"/>
<path d="M29.158 21.8877C29.0799 22.1702 29.0477 22.3744 28.9664 22.5555C28.8101 22.901 28.4714 23.0561 28.1649 22.9563C27.8354 22.8488 27.6576 22.4757 27.7741 22.0857C27.8231 21.9184 27.8936 21.7418 28.0055 21.6129C28.2109 21.378 28.4055 20.9466 28.7488 21.117C28.9741 21.2275 29.0431 21.6528 29.1595 21.8877H29.158Z" fill="white"/>
<path d="M84.1115 15.1989C83.9476 15.9174 83.6839 16.6513 83.0402 17.1795C82.7414 17.4251 82.3904 17.4773 82.0379 17.3268C81.6655 17.1687 81.5275 16.8417 81.5398 16.4579C81.5674 15.5659 81.9643 14.8504 82.6356 14.2839C82.9146 14.0475 83.2395 14.0367 83.5629 14.1995C83.9046 14.3699 84.1253 14.7522 84.1131 15.1974L84.1115 15.1989Z" fill="white"/>
<path d="M10.4243 71.7422C11.0235 71.8282 11.3944 72.0554 11.6044 72.5068C11.7193 72.7524 11.7331 72.9996 11.514 73.2022C11.2902 73.408 11.0358 73.4679 10.7492 73.3297C10.3676 73.147 9.93842 72.473 10.038 72.0784C10.0764 71.9234 10.3292 71.822 10.4258 71.7422H10.4243Z" fill="white"/>
<path d="M110.123 66.9403C110.134 67.6281 109.978 67.7355 109.483 67.5329C109.051 67.3548 108.761 67.06 108.709 66.5779C108.674 66.2525 108.723 65.9561 109.08 65.8272C109.363 65.7243 109.776 65.8917 109.912 66.2033C110.031 66.4797 110.08 66.7852 110.123 66.9403Z" fill="white"/>
<path d="M35.822 107.783C35.9155 106.975 36.245 106.281 36.8627 105.735C37.1631 105.469 37.5033 105.44 37.8574 105.592C38.1991 105.739 38.4382 106.131 38.3861 106.528C38.2834 107.304 37.9984 107.999 37.4037 108.541C37.0834 108.833 36.7201 108.882 36.3447 108.719C35.9538 108.549 35.7822 108.222 35.822 107.784V107.783Z" fill="white"/>
<path d="M90.9165 99.9661C90.9196 99.5884 91.0284 99.2537 91.3993 99.0986C91.6399 98.9988 91.8928 99.0219 92.0783 99.2614C92.302 99.5515 92.3081 99.9215 92.0767 100.325C92.0277 100.411 91.971 100.502 91.8974 100.566C91.715 100.728 91.5188 100.875 91.3288 101.027C91.1909 100.774 91.0437 100.525 90.9211 100.264C90.8828 100.181 90.915 100.064 90.915 99.9645L90.9165 99.9661Z" fill="white"/>
<path d="M16.785 36.4773C16.7774 37.1037 16.5413 37.3846 16.1122 37.3324C15.7137 37.2833 15.4808 36.9102 15.5405 36.4128C15.5528 36.313 15.5758 36.2117 15.6064 36.115C15.703 35.811 15.7566 35.332 16.1091 35.3918C16.3605 35.4348 16.5551 35.877 16.7467 36.161C16.808 36.2531 16.7774 36.4082 16.7835 36.4773H16.785Z" fill="white"/>
<path d="M87.0103 105.826C86.9965 106.641 86.4585 107.002 85.7918 106.78C85.0531 106.532 84.2469 105.102 84.4125 104.329C84.5458 103.704 85.2018 103.42 85.7903 103.789C86.5796 104.282 86.9198 105.06 87.0087 105.826H87.0103Z" fill="white"/>
<path d="M9.37227 49.6328C9.77995 49.7541 10.3271 49.8723 10.8375 50.0827C11.239 50.2485 11.4428 50.6231 11.4122 51.0745C11.3831 51.5059 11.0612 51.8298 10.5555 51.9112C9.82592 52.0294 9.14391 51.8452 8.51246 51.4828C8.16149 51.2817 7.93466 50.9992 7.98831 50.5509C8.04501 50.0688 8.3684 49.857 8.77914 49.7311C8.92321 49.6865 9.078 49.6804 9.3738 49.6328H9.37227Z" fill="white"/>
<path d="M26.8209 99.8162C26.476 99.6212 26.1189 99.4462 25.791 99.2266C25.558 99.07 25.65 98.8919 25.8369 98.7307C26.1986 98.4206 26.614 98.3623 27.0538 98.4636C27.4217 98.548 27.6378 98.8597 27.5933 99.1883C27.5474 99.5337 27.296 99.7195 26.8209 99.8162Z" fill="white"/>
<path d="M46.2527 11.2299C46.2527 11.078 46.2312 10.9214 46.2557 10.774C46.3768 10.0631 47.1201 9.76067 47.7025 10.1906C47.842 10.2934 48.0075 10.4285 48.0504 10.5805C48.2236 11.1808 48.432 11.7888 48.4734 12.4044C48.5133 12.9848 48.1746 13.3087 47.7102 13.3886C47.2412 13.4699 46.8397 13.2857 46.6144 12.7637C46.4075 12.2847 46.3002 11.7612 46.1484 11.256C46.1837 11.2468 46.2174 11.2376 46.2527 11.2284V11.2299Z" fill="white"/>
<path d="M102.706 87.9657C102.671 88.0809 102.627 88.3358 102.513 88.5538C102.429 88.715 102.257 88.933 102.121 88.9345C101.966 88.936 101.761 88.7579 101.663 88.6029C101.531 88.3956 101.439 88.1408 101.404 87.8967C101.341 87.4437 101.608 87.0937 101.982 87.0584C102.429 87.0185 102.696 87.301 102.706 87.9642V87.9657Z" fill="white"/>
<path d="M80.7586 108.722C80.7586 109.558 80.6192 109.846 80.2345 109.97C79.7808 110.116 79.3808 110.018 79.0682 109.644C78.5976 109.081 78.3402 108.444 78.3478 107.692C78.3524 107.268 78.452 106.922 78.8659 106.772C79.2812 106.621 79.6858 106.701 79.9785 107.042C80.4521 107.595 80.7341 108.238 80.7586 108.722Z" fill="white"/>
<path d="M8.72651 61.5352C9.11426 61.6242 9.4683 61.6718 9.79628 61.7885C10.1978 61.9328 10.3649 62.2583 10.3557 62.6897C10.348 63.1012 10.1442 63.3483 9.78095 63.5003C9.04376 63.8059 8.29277 63.7874 7.54945 63.5648C7.1525 63.4466 6.92107 63.1395 6.91801 62.705C6.91494 62.2828 7.08813 61.9497 7.505 61.8238C7.91115 61.701 8.33262 61.6257 8.72651 61.5352Z" fill="white"/>
<path d="M106.209 42.5618C105.696 42.5741 105.341 42.4727 105.096 42.1319C104.899 41.8571 104.869 41.5669 105.101 41.2967C105.308 41.0557 105.584 41.0142 105.86 41.1386C106.301 41.3366 106.571 41.7051 106.707 42.1549C106.736 42.2486 106.632 42.439 106.535 42.5004C106.419 42.5741 106.244 42.5572 106.207 42.5618H106.209Z" fill="white"/>
<path d="M21.7608 29.0738C20.9715 29.0278 19.8496 28.0191 19.73 27.2484C19.6381 26.6558 20.1193 26.1691 20.7431 26.2274C21.5309 26.3011 22.5731 27.2238 22.7493 28.0022C22.8949 28.6501 22.4658 29.1153 21.7608 29.0738Z" fill="white"/>
<path d="M104.058 33.1584C104.042 33.2352 104.033 33.3933 103.976 33.5299C103.713 34.1594 102.505 34.9132 101.809 34.8948C101.153 34.8779 100.785 34.4097 100.93 33.7725C100.952 33.6743 100.974 33.5653 101.029 33.4854C101.549 32.7423 102.24 32.2557 103.158 32.1942C103.73 32.1559 104.047 32.509 104.058 33.1569V33.1584Z" fill="white"/>
<path d="M66.9805 11.2081C67.1276 10.7275 67.2349 10.2301 67.4311 9.77104C67.6242 9.31967 68.0594 9.12929 68.4916 9.20913C68.9315 9.28896 69.1292 9.59295 69.1997 9.9998C69.3208 10.6938 69.2334 11.3693 68.9269 12.0003C68.671 12.5269 68.2939 12.7203 67.8372 12.6205C67.3958 12.5238 67.1077 12.1554 67.0617 11.6134C67.051 11.4875 67.0602 11.3601 67.0602 11.2326C67.0341 11.225 67.0065 11.2173 66.9805 11.2081Z" fill="white"/>
<path d="M10.3287 79.8374C10.3593 79.753 10.3915 79.5979 10.4697 79.4735C10.5831 79.2908 10.7685 79.2279 10.8835 79.452C11.0459 79.7668 11.1777 80.0999 11.2804 80.4377C11.3586 80.6956 11.2099 80.8169 10.9448 80.7555C10.5723 80.6695 10.3149 80.3149 10.3287 79.8374Z" fill="white"/>
<path d="M15.0645 88.8797C14.6154 88.8536 14.2752 88.5572 14.2813 88.1166C14.2844 87.914 14.4346 87.7128 14.5189 87.5117C14.6614 87.6269 14.83 87.7205 14.9404 87.8618C15.0967 88.0598 15.2162 88.2886 15.3373 88.5112C15.4967 88.8075 15.4231 88.9012 15.066 88.8812L15.0645 88.8797Z" fill="white"/>
<path d="M109.973 45.6726C109.954 45.7233 109.929 45.8507 109.86 45.949C109.793 46.0442 109.685 46.1624 109.589 46.167C109.508 46.1716 109.383 46.0442 109.34 45.9459C109.221 45.6711 109.111 45.3886 109.04 45.0984C108.974 44.8267 109.172 44.6808 109.445 44.7668C109.737 44.8574 109.986 45.2489 109.972 45.6726H109.973Z" fill="white"/>
<path d="M29.3251 103.686C29.2592 103.757 29.2086 103.844 29.1319 103.884C28.6154 104.162 27.9334 103.769 27.9181 103.181C27.915 103.067 27.9641 102.909 28.0468 102.851C28.1173 102.8 28.2936 102.828 28.3794 102.885C28.6522 103.066 28.9066 103.273 29.1626 103.477C29.2178 103.522 29.253 103.592 29.3251 103.684V103.686Z" fill="white"/>
</g>
<defs>
<clipPath id="clip0_13115_15149">
<rect width="120" height="120" fill="white" transform="translate(0 0.953125)"/>
</clipPath>
</defs>
</svg>
