<svg width="141" height="36" viewBox="0 0 141 36" fill="none" xmlns="http://www.w3.org/2000/svg">
<g clip-path="url(#clip0_13133_16267)">
<path d="M6.41862 21.6083C5.17738 20.1371 3.93072 18.7585 2.79788 17.2872C1.10676 15.0804 0.272042 12.5465 0.553896 9.74573C0.830329 7.01574 1.82224 4.56366 3.88736 2.68374C5.02561 1.64841 6.40778 0.989077 7.89293 0.640336C11.08 -0.100737 14.0395 0.44417 16.6575 2.45488C18.2944 3.70816 19.2592 5.44641 19.8338 7.40808C20.4679 9.58225 20.5384 11.7728 19.8338 13.9415C19.308 15.5708 18.4028 16.9984 17.3079 18.2953C16.4841 19.2707 15.6222 20.2079 14.7441 21.1343C14.4406 21.4558 14.4731 21.7119 14.6899 22.0443C15.5951 23.4229 16.3594 24.8778 16.8472 26.4689C17.476 28.5232 17.6657 30.5884 16.7225 32.5937C15.9745 34.1848 14.6032 34.9531 12.9013 35.0893C12.202 35.1493 11.4866 34.9749 10.7765 34.9803C9.93637 34.9803 9.09623 35.1002 8.26151 35.1002C5.67063 35.1111 3.63261 32.9805 3.5242 30.3922C3.39411 27.4061 4.38602 24.8178 5.94706 22.3712C6.07715 22.1696 6.20181 21.968 6.32648 21.7664C6.359 21.7119 6.3861 21.6519 6.4132 21.6029L6.41862 21.6083ZM13.2536 20.1316C14.2455 19.0091 15.194 18.0011 16.0613 16.933C17.812 14.7643 18.9286 12.3667 18.4625 9.46782C18.1752 7.70233 17.5898 6.04036 16.3594 4.72714C14.4027 2.62925 11.9581 1.7356 9.10707 2.23146C4.4077 3.05427 2.51603 6.6888 2.2667 10.6503C2.19082 11.8491 2.42389 13.135 3.096 14.214C3.84942 15.4182 4.61367 16.6224 5.46466 17.7504C6.08257 18.5732 6.85224 19.2761 7.61108 20.0935C8.14227 19.4996 8.61383 18.9764 9.13959 18.3879C9.03119 18.3171 8.9282 18.2681 8.85232 18.1918C7.66528 17.0202 6.4403 15.8596 5.71399 14.3393C5.237 13.3367 4.80338 12.225 4.74376 11.1461C4.66788 9.72393 5.09608 8.31807 6.06088 7.16287C7.01485 6.02401 8.18563 5.223 9.67078 5.07043C11.3402 4.89606 12.8362 5.29929 14.1425 6.49263C15.5897 7.81676 16.1697 9.48417 16.0884 11.3151C16.0071 13.0969 15.194 14.688 13.9907 16.0339C13.2698 16.8404 12.5327 17.6305 11.7793 18.4533C12.24 18.9819 12.6899 19.4941 13.2482 20.1371L13.2536 20.1316ZM10.3754 17.0475C11.2156 16.4208 12.9988 14.6771 13.7089 13.2113C14.1262 12.3504 14.3539 11.4785 14.2563 10.5304C14.1317 9.35339 13.5788 8.38346 12.6953 7.64239C12.0069 7.06479 11.1397 6.69425 10.2453 6.78688C7.36717 7.08658 5.75735 10.1326 6.94981 12.819C7.70864 14.5246 9.02577 15.7724 10.3754 17.0475ZM7.78453 22.9761C7.6978 23.0796 7.61108 23.1504 7.56772 23.2431C6.91729 24.5563 6.16387 25.8314 5.65436 27.1991C5.16654 28.5014 5.05272 29.8964 5.50802 31.2804C5.85491 32.3484 6.96065 33.2094 7.87125 33.0514C6.59749 29.9018 7.18288 27.0356 9.28594 24.3383C8.78728 23.8861 8.31571 23.4556 7.78995 22.9761H7.78453ZM13.0151 33.1876C14.1967 33.0296 14.9339 32.3321 15.3512 31.2532C15.8174 30.038 15.6222 28.8229 15.3187 27.6078C14.8851 25.8913 14.0504 24.3765 13.0368 22.8398C12.7549 23.1395 12.5435 23.3793 12.3159 23.6081C11.5841 24.3165 11.5896 24.3056 12.1424 25.1284C13.3295 26.8994 13.9257 28.8284 13.5625 30.9698C13.4379 31.7055 13.2102 32.4193 13.0205 33.1876H13.0151ZM10.538 25.9621C10.4621 25.973 10.3863 25.9839 10.3104 25.9894C10.0556 26.4362 9.7575 26.8612 9.55695 27.3299C8.83606 29.0136 8.63009 30.7083 9.67078 32.3539C10.0936 33.0187 10.6681 33.0459 11.1668 32.4356C11.3402 32.2231 11.4866 31.9616 11.5733 31.7C12.0232 30.3323 12.0178 28.97 11.4432 27.6405C11.1939 27.0574 10.847 26.518 10.5434 25.9567L10.538 25.9621ZM11.8822 21.3304C11.4107 20.8128 10.95 20.3115 10.4134 19.723C9.89301 20.3224 9.43771 20.84 8.98783 21.3577C10.6464 23.1068 10.1532 23.2158 11.8822 21.3304Z" fill="white"/>
<path d="M71.5854 22.6825C70.6965 22.6825 69.9485 22.6934 69.2059 22.6716C69.0921 22.6716 68.9674 22.5081 68.8807 22.3937C67.2329 20.0942 65.5906 17.7893 63.9428 15.4843C63.8344 15.3317 63.6935 15.201 63.4659 14.9448C63.4659 15.2936 63.4659 15.4952 63.4659 15.7023C63.4659 17.8111 63.455 19.9198 63.4713 22.0341C63.4713 22.5299 63.3304 22.7316 62.8046 22.7207C61.249 22.6825 61.4929 22.8405 61.4875 21.3965C61.4766 17.0046 61.482 12.6072 61.482 8.21525C61.482 7.41969 61.482 7.40879 62.2734 7.40879C63.6014 7.40879 63.455 7.29436 63.4604 8.60213C63.4713 10.4494 63.4604 12.2966 63.5797 14.2147C64.0513 13.6534 64.5228 13.0976 64.9835 12.5309C66.2952 10.9289 67.6015 9.31596 68.9132 7.71394C69.0108 7.59406 69.168 7.44148 69.3089 7.43603C70.0352 7.40879 70.7615 7.42514 71.6559 7.42514C71.1193 8.08992 70.7019 8.62938 70.2575 9.14704C68.8373 10.8036 67.4172 12.4546 65.9809 14.1002C65.6936 14.4272 65.6611 14.7051 65.9375 15.0702C67.672 17.3642 69.3902 19.6692 71.1084 21.9741C71.2439 22.1594 71.3578 22.361 71.5692 22.688L71.5854 22.6825Z" fill="white"/>
<path d="M26.4688 21.6965C26.8427 21.0372 27.1246 20.5413 27.3631 20.1163C28.3225 20.4923 29.1518 20.9119 30.0353 21.1462C31.1031 21.435 32.2088 21.544 33.2603 20.999C34.3173 20.4541 34.8973 19.5986 34.8322 18.3889C34.7672 17.2501 33.9921 16.5962 33.0435 16.2093C31.8077 15.708 30.5177 15.3266 29.2656 14.8634C26.6585 13.888 26.4742 10.1336 28.2303 8.48254C29.4228 7.36004 30.8266 6.9895 32.3823 7.14207C34.2794 7.32734 35.4176 7.76327 36.648 8.64057C36.377 9.08739 36.1006 9.53421 35.8187 9.99193C35.1574 9.66499 34.5775 9.34349 33.965 9.08739C32.8213 8.60787 31.6668 8.59697 30.5068 9.09284C29.5854 9.49062 29.2385 10.2426 29.1951 11.158C29.1572 12.019 29.786 12.7982 30.7182 13.136C31.7752 13.5175 32.8321 13.888 33.8999 14.2368C35.9705 14.9179 36.9082 16.2802 37.0274 18.3236C37.1087 19.6967 36.4312 20.8628 35.3363 21.7456C33.6127 23.1351 31.6343 23.2005 29.6179 22.7809C28.5827 22.5629 27.5962 22.0998 26.4688 21.702V21.6965Z" fill="white"/>
<path d="M102.591 21.7608C102.483 21.9624 102.423 22.0986 102.342 22.224C101.68 23.2593 101.025 23.2375 100.358 22.164C100.277 22.0387 100.212 21.9025 100.152 21.7989C99.4039 22.164 98.7155 22.6653 97.9513 22.8397C96.1843 23.2429 94.3197 22.8833 93.615 21.0252C93.0622 19.5703 93.5337 17.6631 94.9972 16.7531C96.2981 15.9466 97.7236 15.7123 99.2142 15.7668C99.8104 15.7886 100 15.5979 99.9839 14.9985C99.9459 13.7289 99.6586 13.0859 98.8022 12.9551C98.2223 12.8679 97.5827 12.8897 97.019 13.0423C96.3469 13.2221 95.7019 13.5654 95.0839 13.9032C94.7696 14.0722 94.5907 14.0831 94.3956 13.7725C94.2059 13.4619 93.9836 13.1731 93.7289 12.8134C94.8238 12.1432 95.8861 11.5656 97.1436 11.4512C97.7236 11.3967 98.3036 11.3204 98.8835 11.3204C100.537 11.3095 101.81 12.5573 101.81 14.2193C101.81 16.0611 101.729 17.9083 101.691 19.7501C101.675 20.5402 101.827 21.2704 102.596 21.7608H102.591ZM99.8321 18.693C99.8321 18.2298 99.8755 17.8756 99.8158 17.5378C99.7833 17.3688 99.5502 17.1073 99.4202 17.1127C98.6288 17.1563 97.8266 17.1945 97.0515 17.3634C96.1301 17.5705 95.6043 18.2843 95.4905 19.1725C95.3333 20.4312 95.8536 21.6464 97.496 21.4938C98.2169 21.4229 98.7806 21.0688 99.3009 20.5674C99.8971 19.9898 99.8646 19.2924 99.8321 18.6875V18.693Z" fill="white"/>
<path d="M131.709 12.8412C133.421 11.5988 135.297 11.1465 137.27 11.359C138.511 11.4953 139.573 12.2963 139.628 13.7839C139.698 15.5984 139.649 17.4184 139.644 19.2329C139.644 20.192 139.552 21.1728 140.506 21.7777C140.452 21.8921 140.43 21.952 140.397 22.0065C139.611 23.3034 139.053 23.3143 138.191 22.0392C138.132 21.952 138.072 21.8648 137.985 21.7232C137.557 22.0065 137.172 22.3171 136.744 22.5296C135.346 23.2326 133.931 23.1835 132.614 22.3662C130.852 21.2709 131.009 18.5573 132.278 17.2822C133.394 16.1597 134.831 15.9145 136.3 15.751C136.533 15.7237 136.777 15.751 137.015 15.751C137.964 15.751 138.045 15.6584 137.926 14.6993C137.682 12.7976 136.684 12.6777 135.085 12.9992C134.386 13.1409 133.72 13.5169 133.085 13.8711C132.679 14.0999 132.473 14.0672 132.256 13.6803C132.093 13.3861 131.898 13.1136 131.714 12.8303L131.709 12.8412ZM137.79 18.5736C137.79 18.2249 137.834 17.8707 137.769 17.5328C137.736 17.3694 137.497 17.1078 137.362 17.1133C136.592 17.1514 135.812 17.1841 135.064 17.353C134.234 17.5383 133.633 18.0941 133.459 18.9659C133.308 19.7288 133.313 20.508 133.963 21.0747C134.592 21.6305 135.329 21.636 136.088 21.3254C137.443 20.7641 137.796 20.1974 137.79 18.5682V18.5736Z" fill="white"/>
<path d="M73.8215 12.8202C74.9218 12.2099 75.9245 11.5179 77.1766 11.4579C78.0709 11.4198 79.0032 11.3163 79.8596 11.5015C81.1225 11.774 81.7947 12.8311 81.8001 14.1552C81.8001 16.0896 81.8055 18.0295 81.8001 19.9639C81.8001 20.5742 81.9031 21.1137 82.38 21.555C82.483 21.6531 82.5047 21.9583 82.4288 22.1054C81.8218 23.2933 81.2201 23.3151 80.4504 22.1926C80.342 22.0346 80.239 21.8711 80.1794 21.773C79.4531 22.149 78.7973 22.6558 78.0547 22.8356C76.8189 23.1407 75.5288 23.1189 74.4936 22.2035C72.7753 20.6832 73.1819 17.7462 75.2416 16.6236C76.4665 15.9534 77.7999 15.6973 79.1821 15.7572C79.7621 15.779 80.0439 15.6156 79.9572 14.9944C79.9355 14.8255 79.9355 14.6456 79.9572 14.4713C80.0602 13.5286 79.3393 12.7875 78.2173 12.8311C77.1332 12.8747 76.0871 13.2071 75.1982 13.861C74.8459 14.1225 74.6182 14.0789 74.4014 13.7302C74.2171 13.4414 74.0383 13.1471 73.8215 12.7984V12.8202ZM79.9626 18.7324C79.9084 16.9015 80.3203 17.065 78.4016 17.1086C77.6102 17.1304 76.8297 17.3048 76.2009 17.8769C75.4421 18.569 75.3554 20.1655 75.9245 20.9284C76.3039 21.4406 77.6211 21.7131 78.4829 21.2227C79.5561 20.6178 80.174 19.8277 79.9626 18.7324Z" fill="white"/>
<path d="M122.463 12.8091C122.62 12.7111 122.772 12.6402 122.891 12.5312C123.596 11.8773 124.441 11.5286 125.374 11.3706C126.946 11.1145 128.723 12.1498 128.729 14.0134C128.734 16.6889 128.718 19.3644 128.74 22.0399C128.74 22.563 128.561 22.7155 128.062 22.7155C126.886 22.7155 126.886 22.7319 126.886 21.5712C126.886 19.3099 126.886 17.0485 126.886 14.7817C126.886 13.3431 126.024 12.662 124.685 13.1415C123.932 13.414 123.249 13.9099 122.577 14.373C122.409 14.4875 122.371 14.8743 122.371 15.1413C122.355 17.4027 122.371 19.6641 122.349 21.9309C122.349 22.1815 122.235 22.6229 122.122 22.6393C121.688 22.7101 121.222 22.6774 120.783 22.5957C120.696 22.5793 120.647 22.1761 120.647 21.9472C120.636 19.7513 120.674 17.5498 120.631 15.3539C120.609 14.1769 120.447 12.9999 120.344 11.7193C120.669 11.6212 121.151 11.4469 121.65 11.3488C121.786 11.3215 122.051 11.4959 122.116 11.643C122.273 11.9863 122.344 12.3732 122.468 12.8037L122.463 12.8091Z" fill="white"/>
<path d="M43.11 20.2619C44.0369 17.5374 44.9583 14.8564 45.8527 12.1646C45.9882 11.7505 46.1779 11.5434 46.6278 11.5761C47.0506 11.6034 47.4842 11.5816 47.9991 11.5816C47.9395 11.8649 47.9232 12.0502 47.8582 12.2246C46.6224 15.5757 45.3703 18.9215 44.1453 22.2781C43.9935 22.6977 43.793 22.8829 43.3539 22.8448C43.0992 22.8175 42.8173 22.8938 42.5789 22.823C42.3512 22.7521 42.0585 22.5887 41.9826 22.3925C41.1858 20.2619 40.4216 18.1204 39.6573 15.979C39.2183 14.7584 38.8009 13.5269 38.3456 12.3117C38.1613 11.8268 38.2697 11.6252 38.7792 11.5053C40.0476 11.2056 40.0422 11.1892 40.4595 12.4262C41.3376 15.0308 42.2157 17.6355 43.11 20.2674V20.2619Z" fill="white"/>
<path d="M90.7737 11.5781C90.7575 11.747 90.7629 11.8124 90.7466 11.8723C90.378 13.0438 90.378 13.0384 89.1422 13.0438C87.9064 13.0493 88.0419 12.9185 88.0365 14.1664C88.0311 16.0572 88.0365 17.9535 88.0365 19.8443C88.0365 21.2937 88.443 21.6752 89.874 21.4736C90.2751 21.4191 90.5461 21.3973 90.6274 21.8713C90.6978 22.2855 90.7737 22.6397 90.1938 22.8031C89.1368 23.0974 88.1124 23.1464 87.1205 22.6397C86.3725 22.2528 86.199 21.5226 86.1936 20.7597C86.1773 18.4548 86.1936 16.1444 86.1882 13.8394C86.1882 13.0656 86.1882 13.0221 85.4077 13.0493C84.806 13.0711 84.741 12.7714 84.7464 12.2864C84.7518 11.8342 84.8169 11.5508 85.3806 11.5617C86.1773 11.5781 86.1665 11.5399 86.1936 10.728C86.2099 10.2103 86.2532 9.68722 86.3399 9.17501C86.367 9.00609 86.5568 8.78813 86.7194 8.73909C87.1476 8.60286 87.6679 8.36855 88.0311 8.49933C88.611 8.71184 88.0636 9.28399 88.1395 9.69812C88.2099 10.1068 88.0799 10.5536 88.0365 10.9841C87.9931 11.3928 88.1395 11.5998 88.5785 11.5672C88.9471 11.5454 89.3157 11.5672 89.6842 11.5672C90.0257 11.5672 90.3726 11.5672 90.7737 11.5672V11.5781Z" fill="white"/>
<path d="M105.906 11.6676C106.248 11.5804 106.757 11.4224 107.283 11.3516C107.424 11.3298 107.673 11.5368 107.744 11.6948C107.874 12.0054 107.917 12.3596 107.993 12.7084C108.313 12.4414 108.606 12.0763 108.985 11.8965C109.619 11.6022 110.291 11.3624 110.974 11.2208C111.451 11.1227 111.63 11.4442 111.457 11.9183C111.337 12.2452 111.234 12.5885 111.05 12.8718C110.92 13.068 110.66 13.2751 110.443 13.2914C108.904 13.4167 107.939 14.3867 107.928 15.9397C107.912 17.9177 107.928 19.8957 107.928 21.8791C107.928 22.7129 107.928 22.7129 107.11 22.7183C107.001 22.7183 106.893 22.7074 106.784 22.7183C106.253 22.7782 106.063 22.5603 106.074 22.0154C106.101 19.9284 106.101 17.8414 106.074 15.7544C106.058 14.4412 105.971 13.1334 105.912 11.6785L105.906 11.6676Z" fill="white"/>
<path d="M116.243 17.0812C116.243 18.7323 116.227 20.3833 116.254 22.0398C116.26 22.5521 116.091 22.7319 115.582 22.721C114.01 22.6883 114.276 22.83 114.27 21.3969C114.259 18.3944 114.287 15.3974 114.254 12.395C114.249 11.7902 114.46 11.5449 115.018 11.4578C116.243 11.2725 116.243 11.2616 116.243 12.5203C116.243 14.0406 116.243 15.5664 116.243 17.0866V17.0812Z" fill="white"/>
<path d="M79.567 32.9084C79.567 31.8731 79.567 30.8432 79.567 29.8079C79.567 29.6117 79.5183 29.3937 79.5887 29.2248C79.6538 29.0668 79.8381 28.9578 79.9736 28.827C80.1036 28.9633 80.3313 29.0886 80.3421 29.2357C80.3855 29.8188 80.3638 30.4073 80.3638 30.9958C80.3638 31.9929 80.3801 32.9956 80.3476 33.9928C80.3421 34.2216 80.2121 34.5704 80.044 34.6466C79.6971 34.7992 79.399 34.6248 79.2093 34.2489C78.6402 33.1046 78.0439 31.9766 77.4586 30.8432C77.3935 30.7124 77.3068 30.5925 77.1117 30.4781C77.1117 30.7615 77.1008 31.0503 77.1117 31.3336C77.1496 32.26 77.1984 33.1917 77.2472 34.1181C77.2634 34.4777 77.1659 34.6957 76.7485 34.6957C76.3149 34.6957 76.342 34.4123 76.342 34.1235C76.342 32.5814 76.3311 31.0394 76.3582 29.4973C76.3582 29.2739 76.5046 28.9197 76.678 28.8543C77.0033 28.7235 77.3339 28.827 77.5236 29.2248C78.0277 30.2547 78.5643 31.2628 79.0901 32.2818C79.2039 32.5052 79.3231 32.7231 79.437 32.9465C79.4803 32.9356 79.5237 32.9193 79.567 32.9084Z" fill="white"/>
<path d="M117.904 30.4851C117.904 31.5804 117.931 32.6811 117.888 33.7763C117.877 34.0924 118.186 34.6863 117.509 34.6645C116.918 34.6482 117.173 34.1033 117.167 33.7927C117.14 32.4032 117.146 31.0082 117.167 29.6187C117.167 29.3299 116.994 28.9267 117.498 28.834C117.953 28.7523 118.208 28.9594 118.408 29.3626C119.021 30.5995 119.661 31.8201 120.409 33.0244C120.365 32.1035 120.322 31.1826 120.284 30.2617C120.273 29.9129 120.235 29.5533 120.306 29.2209C120.338 29.0683 120.593 28.8776 120.761 28.8613C120.886 28.8449 121.048 29.0683 121.173 29.21C121.216 29.2591 121.184 29.3789 121.184 29.4661C121.184 30.9864 121.194 32.5121 121.173 34.0324C121.173 34.245 121.048 34.5882 120.891 34.6482C120.56 34.779 120.235 34.6972 120.035 34.294C119.46 33.1279 118.853 31.9781 118.257 30.8229C118.192 30.6976 118.105 30.5832 118.034 30.4633C117.991 30.4687 117.953 30.4796 117.91 30.4851H117.904Z" fill="white"/>
<path d="M99.2129 31.5109C100.026 32.0994 100.324 32.8623 100.075 33.6143C99.8633 34.2627 99.1316 34.6932 98.2589 34.6986C97.7386 34.6986 97.2237 34.6932 96.7033 34.6986C96.3456 34.7041 96.1992 34.546 96.1992 34.1864C96.2046 32.5135 96.2046 30.8461 96.1992 29.1733C96.1992 28.8354 96.3564 28.6992 96.6762 28.721C97.3646 28.7591 98.0584 28.7482 98.7413 28.8463C99.7224 28.988 100.205 30.3121 99.5977 31.0968C99.4947 31.233 99.3647 31.3529 99.2183 31.5109H99.2129ZM97.0014 32.9822C97.0014 33.6905 97.2833 34.0447 97.847 34.0447C98.7847 34.0447 99.2291 33.7014 99.2129 32.9767C99.1966 32.301 98.7576 31.9795 97.8416 31.9795C97.2815 31.9795 97.0014 32.3137 97.0014 32.9822ZM97.0014 30.3775C97.0014 31.2766 97.0394 31.3311 97.6573 31.3256C98.4974 31.3147 98.9581 30.9715 98.9419 30.3666C98.9256 29.7618 98.5462 29.4784 97.7657 29.473C97.0285 29.473 97.0014 29.5002 97.0068 30.3775H97.0014Z" fill="white"/>
<path d="M102.969 31.6824C103.18 31.0122 103.348 30.3256 103.608 29.6772C104.091 28.4729 106.259 28.3531 107.126 29.3502C108.01 30.3638 108.069 32.9466 107.245 33.9983C106.682 34.7176 105.928 34.9573 105.061 34.8102C104.058 34.6358 103.484 33.9711 103.24 33.0175C103.131 32.6033 103.131 32.162 103.077 31.7369C103.039 31.7206 103.007 31.7042 102.969 31.6824ZM106.855 31.7969C106.855 31.7969 106.893 31.7969 106.909 31.7969C106.861 31.3446 106.86 30.8814 106.752 30.4455C106.573 29.7426 106.042 29.3557 105.397 29.3666C104.747 29.3775 104.215 29.7099 104.14 30.4455C104.047 31.3555 104.096 32.2982 104.221 33.2082C104.302 33.7967 105.045 34.2217 105.538 34.1563C106.243 34.0582 106.801 33.5133 106.85 32.8322C106.877 32.4889 106.85 32.1402 106.85 31.7969H106.855Z" fill="white"/>
<path d="M88.0201 34.5834C87.3643 34.8395 87.0445 34.6216 86.8548 34.0658C86.4103 32.758 86.3995 32.7689 85.0119 32.8615C84.6541 32.8833 84.4536 33.0304 84.3615 33.3683C84.2856 33.6407 84.1663 33.8968 84.1067 34.1693C83.982 34.7306 83.6351 34.7578 83.1094 34.5889C83.3099 33.9786 83.4996 33.3901 83.6948 32.8016C84.1013 31.5701 84.5024 30.3332 84.9414 29.1126C85.001 28.9382 85.2558 28.7475 85.4347 28.7257C85.6515 28.7039 86.0363 28.802 86.0851 28.9491C86.7572 30.8127 87.386 32.6926 88.0256 34.578L88.0201 34.5834ZM85.6244 30.0062C85.5702 30.0062 85.5106 30.0062 85.4564 30.0062C85.2341 30.6982 85.0065 31.3903 84.7626 32.1477H86.2748C86.0417 31.3794 85.8358 30.6928 85.6244 30.0062Z" fill="white"/>
<path d="M135.016 34.6157C135.222 33.9727 135.422 33.3624 135.623 32.7467C135.997 31.5969 136.382 30.4472 136.756 29.292C136.869 28.9323 137.037 28.6926 137.476 28.7035C137.878 28.7144 138.04 28.9051 138.154 29.2593C138.685 30.9049 139.233 32.5451 139.775 34.1907C139.813 34.3106 139.834 34.4304 139.861 34.5449C139.13 34.8064 138.972 34.741 138.799 34.1144C138.457 32.8884 137.84 32.5342 136.636 32.9102C136.501 32.9538 136.354 33.1063 136.295 33.248C136.181 33.5041 136.1 33.7766 136.051 34.0545C135.953 34.583 135.688 34.8173 135.016 34.6157ZM137.514 30.0004C137.455 29.9895 137.395 29.984 137.335 29.9731C137.113 30.6815 136.896 31.3953 136.658 32.1636H138.159C137.932 31.3953 137.72 30.6978 137.514 30.0058V30.0004Z" fill="white"/>
<path d="M67.4141 34.6249C66.8613 34.7666 66.5631 34.7012 66.3843 34.1236C65.9723 32.7559 65.9344 32.7777 64.4818 32.8594C64.124 32.8812 63.9235 33.0229 63.8259 33.3607C63.7554 33.6114 63.6579 33.8566 63.5874 34.1018C63.414 34.6957 63.414 34.6957 62.6172 34.6249C62.7798 34.1018 62.9261 33.6005 63.0888 33.0992C63.5224 31.7805 63.9452 30.4618 64.4113 29.154C64.4763 28.9633 64.7582 28.729 64.9316 28.7345C65.181 28.7454 65.5767 28.8979 65.6417 29.0887C66.2542 30.8215 66.8071 32.5815 67.3762 34.3307C67.4033 34.4069 67.3924 34.4941 67.4087 34.6249H67.4141ZM65.7718 32.1728C65.5279 31.3773 65.3111 30.6743 65.0942 29.9714L64.9208 29.9605C64.7094 30.6743 64.4926 31.3882 64.2595 32.1674H65.7718V32.1728Z" fill="white"/>
<path d="M34.3263 31.698C34.3263 30.9134 34.3425 30.1341 34.3208 29.3495C34.31 28.8809 34.4672 28.6574 34.955 28.6956C35.5783 28.7446 36.2071 28.7392 36.8304 28.8155C37.7193 28.9299 38.1421 29.6001 38.0933 30.7553C38.0608 31.6326 37.4808 32.2756 36.6786 32.3301C35.2423 32.4282 35.2477 32.4282 35.2314 33.9376C35.2314 34.1773 35.2098 34.5043 35.058 34.6351C34.7599 34.8912 34.3479 34.6133 34.3371 34.1719C34.3208 33.3436 34.3371 32.5208 34.3371 31.6926L34.3263 31.698ZM35.2369 30.5919C35.2369 30.5919 35.2423 30.5919 35.2477 30.5919C35.2477 30.8316 35.2152 31.0714 35.2585 31.3002C35.2856 31.4365 35.432 31.6381 35.5404 31.649C35.8764 31.6762 36.2342 31.6871 36.554 31.5945C37.0797 31.4419 37.3074 30.8643 37.1556 30.2595C37.0147 29.6819 36.4835 29.404 35.7138 29.4748C34.9875 29.5402 35.3073 30.0905 35.2314 30.4611C35.2206 30.5047 35.2314 30.5483 35.2314 30.5919H35.2369Z" fill="white"/>
<path d="M31.0011 29.2548C30.8765 29.4673 30.7789 29.6253 30.703 29.7561C30.1664 29.6199 29.6786 29.4455 29.1799 29.3801C28.6704 29.3093 28.2639 29.5926 28.1663 30.0939C28.0633 30.617 28.4699 30.8622 28.8872 31.0312C29.1257 31.1293 29.375 31.2055 29.619 31.2873C30.8873 31.7341 31.3047 32.388 31.0553 33.5214C30.8873 34.2734 29.7816 34.9599 28.8276 34.8292C28.2422 34.7474 27.6785 34.5349 27.1094 34.3769C27.2828 33.6358 27.3641 33.6304 27.9441 33.8156C28.3831 33.9573 28.8818 34.0717 29.3208 34.0009C29.6298 33.9519 29.9984 33.614 30.1285 33.3089C30.2911 32.9165 30.1176 32.4861 29.6623 32.2954C29.2016 32.1046 28.73 31.9575 28.2693 31.7777C27.5322 31.4834 27.1527 30.8786 27.234 30.1648C27.3208 29.4073 27.8411 28.8352 28.5945 28.7153C29.4347 28.5845 30.2477 28.6336 31.0174 29.2493L31.0011 29.2548Z" fill="white"/>
<path d="M44.6268 29.0798C44.4425 29.2106 44.2637 29.4231 44.0685 29.4503C43.6458 29.5103 43.2067 29.483 42.7731 29.4667C42.3449 29.4503 42.1552 29.5975 42.1443 30.0606C42.1118 31.3303 42.0956 31.3303 43.3422 31.3248C43.4723 31.3248 43.6187 31.2867 43.7271 31.3357C43.8571 31.3957 43.9547 31.5264 44.0685 31.63C43.9656 31.7389 43.868 31.9297 43.7542 31.946C43.4127 31.9951 43.0658 31.9896 42.7189 31.9733C42.2907 31.9515 42.1498 32.1422 42.1552 32.5563C42.1769 34.1474 42.0143 33.9186 43.4832 33.9404C43.7216 33.9404 43.9764 33.8968 44.1932 33.9622C44.3504 34.0112 44.4642 34.2074 44.5997 34.3436C44.4751 34.458 44.3558 34.6705 44.2311 34.676C43.391 34.7032 42.5454 34.6869 41.6999 34.6923C41.3584 34.6923 41.25 34.5016 41.25 34.191C41.25 32.5618 41.25 30.9325 41.2663 29.3032C41.2663 29.1506 41.4289 28.8727 41.521 28.8673C42.5238 28.8346 43.5319 28.8455 44.5347 28.8455C44.5672 28.9272 44.5997 29.0035 44.6322 29.0853L44.6268 29.0798Z" fill="white"/>
<path d="M51.4672 29.2033C51.2666 29.661 51.0336 29.7645 50.5837 29.5629C49.7869 29.1978 49.0606 29.4539 48.6866 30.2386C48.2584 31.1377 48.2421 32.1076 48.5565 33.0285C48.8601 33.9331 49.8682 34.2927 50.7517 33.9113C50.8872 33.8513 51.0227 33.7859 51.2124 33.6987C51.3371 33.8731 51.4509 34.042 51.5648 34.2055C50.6542 35.1318 48.8058 34.8921 48.0741 33.8513C47.3478 32.816 47.234 30.7835 48.15 29.5629C48.8926 28.5766 50.562 28.4077 51.4726 29.1978L51.4672 29.2033Z" fill="white"/>
<path d="M132.7 29.217C132.484 29.6584 132.24 29.7674 131.795 29.5603C131.047 29.2061 130.256 29.484 129.936 30.187C129.53 31.0861 129.443 32.0287 129.779 32.9714C130.115 33.9196 131.058 34.301 131.99 33.9032C132.126 33.8433 132.267 33.7888 132.446 33.718C132.57 33.8978 132.69 34.0721 132.831 34.2792C132.001 34.8568 131.123 34.9821 130.251 34.6062C129.47 34.2683 128.993 33.6308 128.825 32.7371C128.635 31.7399 128.652 30.8082 129.188 29.9254C129.985 28.6176 131.383 28.3234 132.695 29.217H132.7Z" fill="white"/>
<path d="M48.6267 21.3952C48.5509 20.3272 49.2501 19.9185 50.139 19.8477C50.9412 19.7823 51.6404 20.5451 51.6458 21.3789C51.6458 22.2888 50.9954 22.97 50.1336 22.9645C49.223 22.9591 48.6322 22.3433 48.6322 21.3952H48.6267Z" fill="white"/>
<path d="M111.024 31.618C111.024 30.8333 111.024 30.0541 111.024 29.2694C111.024 28.9589 111.056 28.7082 111.468 28.7191C111.858 28.7245 111.929 28.948 111.929 29.2694C111.924 30.599 111.924 31.9231 111.929 33.2527C111.929 34.0374 111.94 34.0374 112.737 34.0428C113.083 34.0428 113.436 34.0156 113.772 34.0701C113.907 34.0919 114.016 34.288 114.14 34.4079C114.021 34.5005 113.902 34.6749 113.777 34.6749C112.997 34.7022 112.216 34.6913 111.441 34.6913C111.083 34.6913 111.018 34.4624 111.024 34.1682C111.024 33.3181 111.024 32.4735 111.024 31.6234V31.618Z" fill="white"/>
<path d="M59.8888 31.7039C59.8238 32.6956 59.7804 33.6928 59.672 34.6845C59.6178 35.1967 59.2547 35.5509 58.756 35.6708C58.5988 35.7089 58.3928 35.5454 58.2031 35.4801C58.2736 35.3438 58.3441 35.2131 58.4091 35.0768C58.5771 34.7008 58.8752 34.3303 58.8861 33.9489C58.9403 32.4286 58.9132 30.9028 58.9132 29.3826C58.9132 29.0502 58.8807 28.7069 59.3847 28.7232C59.8509 28.7341 59.8184 29.0556 59.8184 29.3608C59.8184 30.1454 59.8184 30.9246 59.8184 31.7093C59.84 31.7093 59.8617 31.7093 59.8834 31.7093L59.8888 31.7039Z" fill="white"/>
<path d="M116.634 8.24856C116.634 9.07682 116.086 9.63807 115.263 9.64352C114.455 9.64897 113.875 9.07682 113.875 8.25946C113.875 7.4203 114.412 6.8427 115.214 6.8209C116.043 6.79911 116.628 7.38216 116.628 8.24311L116.634 8.24856Z" fill="white"/>
<path d="M73.4637 34.301C73.274 34.4317 73.0897 34.6606 72.8891 34.6715C72.2224 34.7205 71.5503 34.6824 70.8782 34.6933C70.5259 34.6933 70.3633 34.5516 70.3633 34.192C70.3687 32.5191 70.3633 30.8408 70.385 29.1679C70.385 29.0208 70.6072 28.8737 70.7264 28.7266C70.8565 28.8846 71.095 29.0426 71.1004 29.2061C71.133 30.5302 71.1221 31.8598 71.1221 33.1893C71.1221 33.7597 71.413 34.0467 71.9948 34.0503C72.385 34.0503 72.7753 34.0557 73.1656 34.0666C73.2252 34.0666 73.2902 34.0993 73.3498 34.1157C73.3878 34.1811 73.4311 34.241 73.4691 34.3064L73.4637 34.301Z" fill="white"/>
<path d="M125.443 31.7118C125.443 32.5346 125.443 33.3574 125.443 34.1857C125.443 34.4799 125.378 34.7578 125.032 34.6652C124.885 34.627 124.717 34.3437 124.712 34.1693C124.685 32.5455 124.685 30.9162 124.712 29.2924C124.712 29.1017 124.907 28.7802 125.059 28.7475C125.481 28.6603 125.449 29.0254 125.449 29.3088C125.449 30.1098 125.449 30.9162 125.449 31.7172L125.443 31.7118Z" fill="white"/>
<path d="M55.2481 31.7261C55.2481 32.5543 55.2698 33.3826 55.2319 34.2054C55.2265 34.3689 54.9934 34.5214 54.8633 34.6795C54.7441 34.516 54.5164 34.3525 54.5164 34.189C54.4893 32.538 54.4839 30.8815 54.5056 29.2304C54.5056 29.0615 54.7061 28.7836 54.8579 28.7454C55.2319 28.6582 55.2481 28.9688 55.2481 29.2467C55.2481 30.075 55.2481 30.8978 55.2481 31.7261Z" fill="white"/>
</g>
<defs>
<clipPath id="clip0_13133_16267">
<rect width="140" height="35.3535" fill="white" transform="translate(0.5 0.324219)"/>
</clipPath>
</defs>
</svg>
