<svg width="699" height="350" viewBox="0 0 699 350" fill="none" xmlns="http://www.w3.org/2000/svg">
<g opacity="0.1" clip-path="url(#clip0_13115_14697)">
<path d="M132.192 0L42.1328 350H0L90.102 0H132.192Z" fill="#092A4C"/>
<path d="M218.036 0L127.934 350H85.8438L175.903 0H218.036Z" fill="#092A4C"/>
<path d="M303.833 0L213.773 350H171.641L261.743 0H303.833Z" fill="#092A4C"/>
<path d="M389.677 0L299.575 350H257.484L347.544 0H389.677Z" fill="#092A4C"/>
<path d="M475.516 0L385.414 350H343.324L433.384 0H475.516Z" fill="#092A4C"/>
<path d="M561.317 0L471.258 350H429.125L519.227 0H561.317Z" fill="#092A4C"/>
<path d="M647.157 0L557.055 350H514.965L605.024 0H647.157Z" fill="#092A4C"/>
<path d="M733.001 0L642.899 350H600.809L690.868 0H733.001Z" fill="#092A4C"/>
</g>
<defs>
<clipPath id="clip0_13115_14697">
<rect width="733" height="350" fill="white"/>
</clipPath>
</defs>
</svg>
