<svg width="196" height="196" viewBox="0 0 196 196" fill="none" xmlns="http://www.w3.org/2000/svg">
<path opacity="0.99" d="M98 0C43.8761 0 0 43.8761 0 98C0 152.124 43.8761 196 98 196C152.124 196 196 152.124 196 98C196 43.8761 152.124 0 98 0ZM90.4992 46.1289L94.7101 65.521C82.3718 68.2521 71.026 71.8041 71.9447 85.5826H86.4438V137.191H42.7674V88.9561C42.7829 50.6232 70.9262 47.5044 90.4992 46.1289ZM149.01 46.1289L153.233 65.521C140.894 68.2521 129.548 71.8041 130.467 85.5826H144.966V137.191H101.29V88.9561C101.305 50.6232 129.437 47.5044 149.01 46.1289Z" fill="#B7B7B7"/>
</svg>
