<svg width="547" height="261" viewBox="0 0 547 261" fill="none" xmlns="http://www.w3.org/2000/svg">
<mask id="mask0_13141_18220" style="mask-type:alpha" maskUnits="userSpaceOnUse" x="0" y="0" width="547" height="261">
<g clip-path="url(#clip0_13141_18220)">
<path d="M94.7197 3.30098L29.3422 257.699H4.25065L69.6282 3.30098H94.7197ZM98.9704 0H67.0905L0 261H31.8799L98.9704 0Z" fill="white"/>
<path d="M158.638 3.30098L93.2606 257.731H68.1691L133.515 3.30098H158.606M162.857 0H130.977L63.8867 261H95.7666L162.857 0Z" fill="white"/>
<path d="M222.556 3.30098L157.179 257.731H132.087L197.433 3.30098H222.524M226.775 0H194.895L127.805 261H159.685L226.775 0Z" fill="white"/>
<path d="M286.442 3.30098L221.065 257.731H195.973L261.351 3.30098H286.442ZM290.693 0H258.813L191.723 261H223.603L290.693 0Z" fill="white"/>
<path d="M350.361 3.30098L284.983 257.731H259.892L325.238 3.30098H350.329M354.58 0H322.7L255.609 261H287.489L354.58 0Z" fill="white"/>
<path d="M414.247 3.30098L348.87 257.731H323.778L389.156 3.30098H414.247ZM418.498 0H386.618L319.527 261H351.407L418.498 0Z" fill="white"/>
<path d="M478.165 3.30098L412.788 257.731H387.696L453.074 3.30098H478.165ZM482.416 0H450.536L383.445 261H415.325L482.416 0Z" fill="white"/>
<path d="M542.083 3.30098L476.706 257.731H451.614L516.96 3.30098H542.052M546.302 0H514.422L447.332 261H479.212L546.302 0Z" fill="white"/>
</g>
</mask>
<g mask="url(#mask0_13141_18220)">
<rect x="-241.98" y="-44.3789" width="926.708" height="296.927" fill="#092A4C"/>
</g>
<defs>
<clipPath id="clip0_13141_18220">
<rect width="546.304" height="261" fill="white"/>
</clipPath>
</defs>
</svg>
